<svg xmlns="http://www.w3.org/2000/svg" xmlns:xlink="http://www.w3.org/1999/xlink" width="60" height="56" viewBox="0 0 60 56"><defs><path id="upeva" d="M233.18 1654.13c.81 0 1.47.64 1.47 1.43 0 .8-.66 1.44-1.47 1.44-.8 0-1.46-.64-1.46-1.44 0-.79.66-1.43 1.46-1.43zm0 5.75c2.43 0 4.4-1.94 4.4-4.32a4.36 4.36 0 0 0-4.4-4.31 4.36 4.36 0 0 0-4.4 4.31 4.36 4.36 0 0 0 4.4 4.32zm11.72-5.75c.81 0 1.47.64 1.47 1.43 0 .8-.66 1.44-1.47 1.44-.8 0-1.46-.64-1.46-1.44 0-.79.65-1.43 1.46-1.43zm0 5.75c2.43 0 4.4-1.94 4.4-4.32a4.36 4.36 0 0 0-4.4-4.31 4.36 4.36 0 0 0-4.4 4.31 4.36 4.36 0 0 0 4.4 4.32zm11.92-5.75c.8 0 1.46.64 1.46 1.43 0 .8-.66 1.44-1.46 1.44-.81 0-1.47-.64-1.47-1.44 0-.79.66-1.43 1.47-1.43zm0 5.75c2.42 0 4.4-1.94 4.4-4.32a4.36 4.36 0 0 0-4.4-4.31 4.36 4.36 0 0 0-4.4 4.31 4.36 4.36 0 0 0 4.4 4.32zm-11.92-23.02c12.23 0 22.19 8.4 22.19 18.7 0 10.3-9.96 18.7-22.19 18.7-3.2 0-6.27-.58-9.15-1.7a1.48 1.48 0 0 0-1.63.36 13.28 13.28 0 0 1-6.57 3.83c1.38-2.6 1.73-5.66.9-8.56a1.44 1.44 0 0 0-.37-.6 17.14 17.14 0 0 1-5.17-12.03c0-10.3 9.88-18.7 22-18.7zM224.4 1680c4.17 0 8.2-1.6 11.18-4.43a28.12 28.12 0 0 0 9.32 1.55c13.95 0 25.1-9.8 25.1-21.56 0-11.77-11.16-21.56-25.1-21.56-13.9 0-24.9 9.77-24.9 21.56 0 5.03 2.03 9.9 5.71 13.75a8.63 8.63 0 0 1-2.35 8.24c-.92.9-.27 2.45 1.03 2.45z"/><mask id="upevc" width="2" height="2" x="-1" y="-1"><path fill="#fff" d="M220 1634h50v46h-50z"/><use xlink:href="#upeva"/></mask><filter id="upevb" width="82" height="81" x="204" y="1624" filterUnits="userSpaceOnUse"><feOffset dy="3" in="SourceGraphic" result="FeOffset1386Out"/><feGaussianBlur in="FeOffset1386Out" result="FeGaussianBlur1387Out" stdDeviation="2.4 2.4"/></filter></defs><g><g transform="translate(-215 -1632)"><g filter="url(#upevb)"><use fill="none" stroke-opacity=".4" stroke-width="0" mask="url(&quot;#upevc&quot;)" xlink:href="#upeva"/><use fill="#ff4b2d" fill-opacity=".4" xlink:href="#upeva"/></g><use fill="#ff4b2d" xlink:href="#upeva"/></g></g></svg>