<svg xmlns="http://www.w3.org/2000/svg" xmlns:xlink="http://www.w3.org/1999/xlink" width="60" height="60" viewBox="0 0 60 60"><defs><path id="ivn3a" d="M980.96 1938.63a4.41 4.41 0 0 0-2.86-2.74c-.13-1.46-.33-2.9-.6-4.3 3.5 1.2 8.15 3.58 9.32 7.04zm-3.43 9.82zm.57-4.15a4.44 4.44 0 0 0 2.86-2.76h5.86c-1.16 3.43-5.84 5.76-9.3 6.9.26-1.34.45-2.72.58-4.14zm-5.68 16.47c2.06-2.58 3.45-5.88 4.34-9.03 3.14-.87 6.45-2.24 9.02-4.25a22.18 22.18 0 0 1-13.36 13.28zm-6.05-4.81a4.41 4.41 0 0 0 2.74-2.86c1.48-.13 2.94-.33 4.35-.6-1.19 3.5-3.58 8.2-7.1 9.33zm-1.47-2.68c-.8 0-1.45-.65-1.46-1.45v-.01-.07a1.47 1.47 0 0 1 2.92 0v.08c0 .8-.66 1.45-1.46 1.45zm-1.46-26.54c-1.54.05-3.05.17-4.53.36a4.4 4.4 0 0 0-1.4-2.24c1.6-3.58 3.72-5.95 5.93-6.68zm0 11.9h-8.77c.07-2.1.27-4.2.6-6.1a4.4 4.4 0 0 0 3.34-2.45c1.57-.23 3.19-.36 4.83-.42zm0 9.03a4.42 4.42 0 0 0-2.61 2.5 40.47 40.47 0 0 1-5.2-.8 41.86 41.86 0 0 1-.96-7.8h8.77zm0 14.15c-3.48-1.16-5.79-5.82-6.94-9.29 1.36.25 2.76.44 4.2.57a4.41 4.41 0 0 0 2.74 2.86zm-10.23-10.04c1 3.63 2.46 6.72 4.25 9a22.08 22.08 0 0 1-13.23-13.23c2.55 2 5.82 3.36 8.98 4.23zm-1.47-10.22c.07 2.43.32 4.75.72 6.93-4.9-1.61-8.38-4.12-9.3-6.93zm.24-9.89c.13.1.27.2.41.28-.36 2.1-.58 4.4-.65 6.68h-8.57c.88-2.71 4.12-5.3 8.81-6.96zm4.13-3.49a1.47 1.47 0 1 1-2.93 0 1.47 1.47 0 0 1 2.93 0zm1.33-8.93a21.45 21.45 0 0 0-2.66 4.54h-.13a4.4 4.4 0 0 0-4.29 5.36 22.4 22.4 0 0 0-6.1 3.37 22.18 22.18 0 0 1 13.18-13.27zm8.93 22.31h6.3a4.42 4.42 0 0 0 2.5 2.61 39.12 39.12 0 0 1-.82 5.16c-1.7.39-3.5.67-5.37.84a4.42 4.42 0 0 0-2.61-2.5zm0-11.89c2.77.1 5.45.44 7.94 1.02.4 1.68.69 3.47.86 5.34a4.42 4.42 0 0 0-2.5 2.6h-6.3zm0-11.5c2.8.93 5.37 4.45 7.03 9.33a44.93 44.93 0 0 0-7.03-.76zm10.46 20.46a1.47 1.47 0 0 1 0 2.93h-.09a1.47 1.47 0 0 1-.03-2.92h.12zm8.95-6c-2.57-2.02-5.88-3.44-9.06-4.34-.9-3.18-2.31-6.5-4.36-9.07a22.28 22.28 0 0 1 13.42 13.42zm2.23-2.26a25.25 25.25 0 0 0-23.1-15.37c-13.89 0-24.91 11.45-24.91 25.1a24.89 24.89 0 0 0 24.9 24.9c13.66 0 25.1-11.04 25.1-24.9 0-3.36-.67-6.64-1.99-9.73z"/><mask id="ivn3c" width="2" height="2" x="-1" y="-1"><path fill="#fff" d="M940 1915h50v50h-50z"/><use xlink:href="#ivn3a"/></mask><filter id="ivn3b" width="82" height="85" x="924" y="1905" filterUnits="userSpaceOnUse"><feOffset dy="3" in="SourceGraphic" result="FeOffset1486Out"/><feGaussianBlur in="FeOffset1486Out" result="FeGaussianBlur1487Out" stdDeviation="2.4 2.4"/></filter></defs><g><g transform="translate(-935 -1913)"><g filter="url(#ivn3b)"><use fill="none" stroke-opacity=".4" stroke-width="0" mask="url(&quot;#ivn3c&quot;)" xlink:href="#ivn3a"/><use fill="#ff4b2d" fill-opacity=".4" xlink:href="#ivn3a"/></g><use fill="#ff4b2d" xlink:href="#ivn3a"/></g></g></svg>