<svg xmlns="http://www.w3.org/2000/svg" xmlns:xlink="http://www.w3.org/1999/xlink" width="170" height="50" viewBox="0 0 170 50"><defs><path id="vr37a" d="M274.5 60.97V50.84h1.34v10.13z"/><path id="vr37b" d="M274.31 48.45v-1.72h1.72v1.72z"/><path id="vr37c" d="M283.11 50.63c-1.74 0-2.8.74-3.4 1.64l-.19-1.43h-1.1l.1 2.87v7.26h1.34V53.4a3.1 3.1 0 0 1 2.8-1.57c1.33 0 2.2.71 2.2 2.24v6.9h1.33v-7.1c0-1.88-1.07-3.24-3.08-3.24z"/><path id="vr37d" d="M292.1 59.7l-2.98-8.86h-1.43l3.53 10.13h1.76l3.55-10.13h-1.43z"/><path id="vr37e" d="M299.04 55.35c.06-2.2 1-3.6 2.9-3.6 1.93 0 2.83 1.4 2.9 3.6zm2.92-4.72c-2.96 0-4.28 2.25-4.28 5.06v.42c0 2.81 1.32 5.07 4.38 5.07 2.85 0 4.15-1.82 4.15-3.38v-.08h-1.28c0 1.09-.85 2.33-2.87 2.33-2.03 0-2.96-1.38-3.02-3.6h7.17v-.76c0-2.8-1.28-5.06-4.25-5.06z"/><path id="vr37f" d="M312.4 55.31c-2.2-.17-2.7-.74-2.7-1.8 0-1.12.9-1.75 2.43-1.75 1.9 0 2.47.9 2.47 2.35h1.31v-.08c0-1.99-1.01-3.4-3.78-3.4-2.37 0-3.76 1.13-3.76 2.88v.12c0 1.5.78 2.46 3.51 2.7 1.97.16 2.77.49 2.77 1.87 0 1.12-.88 1.85-2.52 1.85-2 0-2.56-1.07-2.56-2.18h-1.34v.08c0 1.54 1.03 3.23 3.9 3.23 2.5 0 3.9-1.23 3.9-2.98v-.1c0-1.85-1.09-2.58-3.63-2.79z"/><path id="vr37g" d="M320.57 47.97h-1.33v2.87h-1.6v1.2h1.6v6.12c0 2.2 1.24 3.02 2.96 3.02.8 0 1.26-.15 1.41-.21V59.8c-.15.08-.67.17-1.09.17-1.28 0-1.95-.38-1.95-1.98v-5.95h3.23v-1.2h-3.23v-2.87z"/><path id="vr37h" d="M325.94 60.97V50.84h1.34v10.13z"/><path id="vr37i" d="M325.75 48.45v-1.72h1.72v1.72z"/><path id="vr37j" d="M336.31 57.7c-.42.65-1.18 1.55-2.58 1.55-1.89 0-2.8-1.38-2.8-3.5v-.42c0-2.08.91-3.5 2.8-3.5 1.4 0 2.16.9 2.58 1.57zm.16-5.5a3.33 3.33 0 0 0-3.02-1.57c-2.75 0-3.88 2.16-3.88 4.7v.42c0 2.58 1.13 4.7 3.88 4.7 1.41 0 2.31-.57 2.87-1.34V61c0 1.85-.71 2.84-2.66 2.84-1.9 0-2.62-.95-2.62-2.86h-1.28v.25c0 2.08 1 3.78 3.92 3.78 2.88 0 3.97-1.66 3.97-3.94v-7.35l.12-2.87h-1.11z"/><path id="vr37k" d="M346.2 58.4a3.4 3.4 0 0 1-3.09 1.61c-1.36 0-1.93-.82-1.93-1.72v-.17c0-1.15.79-1.78 2.08-2l2.95-.48v2.77zm1.34-4c0-2.24-.86-3.77-3.66-3.77-2.99 0-3.65 1.85-3.65 3.38v.17h1.28c0-1.31.44-2.42 2.35-2.42 1.8 0 2.35.9 2.35 2.63v.27l-3.06.48c-1.64.25-3.3.88-3.3 3.08v.19c0 1.62 1.06 2.77 2.92 2.77 1.75 0 2.9-.75 3.57-1.63l.21 1.42h1.1l-.1-2.87z"/><path id="vr37l" d="M352.2 47.97h-1.34v2.87h-1.6v1.2h1.6v6.12c0 2.2 1.24 3.02 2.96 3.02.8 0 1.26-.15 1.41-.21V59.8c-.15.08-.67.17-1.09.17-1.28 0-1.94-.38-1.94-1.98v-5.95h3.22v-1.2h-3.22v-2.87z"/><path id="vr37m" d="M357.37 48.45v-1.72h1.72v1.72z"/><path id="vr37n" d="M357.56 60.97V50.84h1.34v10.13z"/><path id="vr37o" d="M368.36 56.13c0 2.31-.9 3.84-2.9 3.84-2.02 0-2.91-1.52-2.91-3.84v-.46c0-2.3.9-3.84 2.9-3.84s2.9 1.53 2.9 3.84zm-2.9-5.5c-2.99 0-4.27 2.24-4.27 5.04v.46c0 2.81 1.28 5.05 4.26 5.05 2.98 0 4.26-2.24 4.26-5.05v-.46c0-2.8-1.28-5.04-4.26-5.04z"/><path id="vr37p" d="M376.54 50.63c-1.74 0-2.81.74-3.4 1.64l-.2-1.43h-1.1l.11 2.87v7.26h1.34V53.4a3.1 3.1 0 0 1 2.79-1.57c1.34 0 2.2.71 2.2 2.24v6.9h1.33v-7.1c0-1.88-1.07-3.24-3.07-3.24z"/><path id="vr37q" d="M386.02 55.31c-2.2-.17-2.7-.74-2.7-1.8 0-1.12.9-1.75 2.43-1.75 1.9 0 2.47.9 2.47 2.35h1.32v-.08c0-1.99-1.02-3.4-3.79-3.4-2.37 0-3.76 1.13-3.76 2.88v.12c0 1.5.78 2.46 3.51 2.7 1.97.16 2.78.49 2.78 1.87 0 1.12-.88 1.85-2.53 1.85-2 0-2.56-1.07-2.56-2.18h-1.34v.08c0 1.54 1.04 3.23 3.9 3.23 2.5 0 3.9-1.23 3.9-2.98v-.1c0-1.85-1.09-2.58-3.63-2.79z"/><path id="vr37r" d="M244.27 48.82h3.2v-33.5a22.9 22.9 0 0 0-3.2-.3z"/><path id="vr37s" d="M242.26 50.03h-.02v-35c-1.18.03-2.33.16-3.46.37v45.17c1.36.25 2.76.4 4.2.4h.76c1.27 0 2.52-.12 3.74-.32v-9.8h-5.22v-.82z"/><path id="vr37t" d="M221 44.66a23.14 23.14 0 0 0 15.64 15.4V42.58h-9.91c-2.29 0-4.25.72-5.73 2.08z"/><path id="vr37u" d="M265.32 30.09a23.16 23.16 0 0 0-15.71-14.32v16.46h9.91a8.2 8.2 0 0 0 5.8-2.14z"/><path id="vr37v" d="M259.52 34.32h-9.91v14.5h14.38a22.78 22.78 0 0 0 2-16.59 10.37 10.37 0 0 1-6.47 2.09z"/><path id="vr37w" d="M249.6 60.2a23.13 23.13 0 0 0 13.16-9.36h-13.15z"/><path id="vr37x" d="M220 37.98c0 1.52.15 3 .44 4.44a10.48 10.48 0 0 1 6.29-1.92h9.91V15.9A23.07 23.07 0 0 0 220 37.98z"/><path id="vr37y" d="M277.9 37.66V18.03h3.56c4.74 0 6.95 2.64 6.95 9.16v1.32c0 6.52-2.21 9.15-6.95 9.15h-3.56zm14.03-9.15v-1.32c0-8.9-3.49-12.19-10.24-12.19h-7.22v25.7h7.22c6.75 0 10.24-3.3 10.24-12.2z"/><path id="vr37z" d="M313.7 37.66h-10.37V15h-3.43v25.7h13.8z"/><path id="vr37A" d="M333.9 23.07c0 3.89-2.66 4.61-4.64 4.61h-4.28v-9.65h4.28c1.98 0 4.64.73 4.64 4.61zm3.5.1v-.66c0-6.23-4.39-7.51-8.24-7.51h-7.6v25.7h3.42V30.67h4.18c3.85 0 8.24-1.25 8.24-7.51z"/></defs><g><g transform="translate(-220 -15)"><g><use fill="#ff4b2d" xlink:href="#vr37a"/></g><g><use fill="#ff4b2d" xlink:href="#vr37b"/></g><g><use fill="#ff4b2d" xlink:href="#vr37c"/></g><g><use fill="#ff4b2d" xlink:href="#vr37d"/></g><g><use fill="#ff4b2d" xlink:href="#vr37e"/></g><g><use fill="#ff4b2d" xlink:href="#vr37f"/></g><g><use fill="#ff4b2d" xlink:href="#vr37g"/></g><g><use fill="#ff4b2d" xlink:href="#vr37h"/></g><g><use fill="#ff4b2d" xlink:href="#vr37i"/></g><g><use fill="#ff4b2d" xlink:href="#vr37j"/></g><g><use fill="#ff4b2d" xlink:href="#vr37k"/></g><g><use fill="#ff4b2d" xlink:href="#vr37l"/></g><g><use fill="#ff4b2d" xlink:href="#vr37m"/></g><g><use fill="#ff4b2d" xlink:href="#vr37n"/></g><g><use fill="#ff4b2d" xlink:href="#vr37o"/></g><g><use fill="#ff4b2d" xlink:href="#vr37p"/></g><g><use fill="#ff4b2d" xlink:href="#vr37q"/></g><g><use fill="#fff" xlink:href="#vr37r"/></g><g><use fill="#fff" xlink:href="#vr37s"/></g><g><use fill="#fff" xlink:href="#vr37t"/></g><g><use fill="#fff" xlink:href="#vr37u"/></g><g><use fill="#fff" xlink:href="#vr37v"/></g><g><use fill="#fff" xlink:href="#vr37w"/></g><g><use fill="#fff" xlink:href="#vr37x"/></g><g><use fill="#fff" xlink:href="#vr37y"/></g><g><use fill="#fff" xlink:href="#vr37z"/></g><g><use fill="#fff" xlink:href="#vr37A"/></g></g></g></svg>