<?xml version="1.0" encoding="UTF-8"?>
<svg width="18px" height="8px" viewBox="0 0 18 8" version="1.1" xmlns="http://www.w3.org/2000/svg" xmlns:xlink="http://www.w3.org/1999/xlink">
    <!-- Generator: Sketch 49.2 (51160) - http://www.bohemiancoding.com/sketch -->
    <title>arrow-orange</title>
    <desc>Created with Sketch.</desc>
    <defs></defs>
    <g id="Page-1" stroke="none" stroke-width="1" fill="none" fill-rule="evenodd">
        <g id="arrow-orange" transform="translate(0.000000, -1.000000)" fill="#FF4B2D" fill-rule="nonzero">
            <path d="M0.1,6.24 C0.16,6.3 0.24,6.34 0.33,6.34 L13.33,6.34 L13.33,8.67 C13.33,8.81 13.4,8.91 13.53,8.97 C13.66,9.03 13.79,9 13.9,8.91 L17.9,5.22 C17.9666141,5.1559027 18.0042565,5.06744404 18.0042565,4.975 C18.0042565,4.88255596 17.9666141,4.7940973 17.9,4.73 L13.9,1.08 C13.7988567,0.988458935 13.6518126,0.968588113 13.53,1.03 C13.4039741,1.07431582 13.3224354,1.19662385 13.33,1.33 L13.33,3.67 L0.33,3.67 C0.23,3.67 0.16,3.7 0.09,3.77 C0.0304303073,3.83153386 -0.00198722225,3.91437865 -5.06289197e-13,4 L-5.06289197e-13,6 C-5.06289197e-13,6.1 0.03,6.18 0.1,6.24 Z" id="gf71a"></path>
        </g>
    </g>
</svg>