<svg xmlns="http://www.w3.org/2000/svg" xmlns:xlink="http://www.w3.org/1999/xlink" width="1500" height="768" viewBox="0 0 1500 768"><defs><path id="2zlya" d="M0 1402.64h.03V1440H1500l-.03-112.4h-10.02v-1.72a3.88 3.88 0 1 0-4.9.04v1.68h-20.2v1.7a3.88 3.88 0 0 1-2.41 6.92 3.89 3.89 0 0 1-2.48-6.88v-1.74h-10v10.02h-1.72a3.88 3.88 0 1 0 .05 4.9h1.67v10.09l.05.01h-10.03v1.72a3.88 3.88 0 1 1-4.9-.05v-1.67H1425v10.09h-1.67a3.88 3.88 0 0 0-6.93 2.41 3.89 3.89 0 0 0 6.88 2.48h1.72v10h-10.08v1.7a3.88 3.88 0 1 1-4.9.05v-1.74H1390.01v-1.73a3.88 3.88 0 1 0-4.9.05v1.68h-10.08v10.02h1.72a3.88 3.88 0 1 1-.04 4.9h-1.68v10h-10.11v-1.68a3.88 3.88 0 0 0-2.42-6.93 3.89 3.89 0 0 0-2.48 6.88v1.72h-9.98v-10.02h-1.7a3.88 3.88 0 0 1-6.92-2.42 3.89 3.89 0 0 1 6.88-2.48h1.74v-10h-10.03v-1.72a3.88 3.88 0 1 0-4.9.05v1.68H1314.93v1.7a3.87 3.87 0 0 1-2.42 6.92 3.89 3.89 0 0 1-2.48-6.88v-1.74H1290.01v-1.73a3.88 3.88 0 1 0-4.9.05v1.68h-10.08v10.02h1.72a3.88 3.88 0 1 1-.04 4.9h-1.68v10h-10.11v-1.68a3.88 3.88 0 1 0-4.9-.05v1.72h-9.98v-10.02h-1.7a3.88 3.88 0 1 1-.04-4.9h1.74v-10h-10.03v-1.72a3.88 3.88 0 1 0-4.9.05v1.68H1214.93v1.7a3.88 3.88 0 1 1-4.9.04v-1.74h-10.01v-10h1.72a3.88 3.88 0 1 0-.05-4.9h-1.67v-10.09h-10.03v1.72a3.88 3.88 0 1 1-4.9-.04v-1.68H1175v10.09h-1.67a3.88 3.88 0 0 0-6.93 2.42 3.89 3.89 0 0 0 6.88 2.47h1.72v10h-10.08v1.7a3.88 3.88 0 0 1-2.42 6.93 3.89 3.89 0 0 1-2.48-6.88v-1.74h-10.01v-10h1.72a3.88 3.88 0 1 0-.05-4.9h-1.67v-10.09h-10.03v1.72a3.87 3.87 0 0 1-2.48 6.88 3.88 3.88 0 0 1-2.41-6.92v-1.68H1125v.03h-.02v-10h1.72a3.88 3.88 0 1 0-.04-4.9h-1.68v-10.08h-10.02v1.72a3.88 3.88 0 0 1-2.48 6.88 3.89 3.89 0 0 1-2.42-6.93v-1.67h-20.17v-1.68a3.88 3.88 0 0 0-2.42-6.92 3.89 3.89 0 0 0-2.48 6.88v1.72h-20.02v1.72a3.88 3.88 0 1 1-4.9-.05v-1.67H1050v10.08h-1.68a3.88 3.88 0 1 0-.05 4.9h1.73v10h-10.09v1.7a3.88 3.88 0 0 1-2.41 6.92 3.89 3.89 0 0 1-2.48-6.87v-1.75H1015v-1.72a3.88 3.88 0 1 0-4.9.05v1.67h-10.08v10.03h1.72a3.88 3.88 0 0 1 6.87 2.48 3.89 3.89 0 0 1-6.92 2.41h-1.67v10H989.9v-1.68a3.88 3.88 0 0 0-2.42-6.92 3.89 3.89 0 0 0-2.48 6.88v1.72h-9.98v-10.02h-1.7a3.88 3.88 0 0 1-6.92-2.42 3.89 3.89 0 0 1 6.88-2.48h1.74v-10H965v-1.72a3.88 3.88 0 1 0-4.9.05v1.67h-20.2v1.7a3.87 3.87 0 0 1-2.42 6.92 3.89 3.89 0 0 1-2.47-6.87v-1.75H915v-1.72a3.88 3.88 0 1 0-4.9.05v1.67h-10.08v10.03h1.72a3.88 3.88 0 1 1-.05 4.9h-1.67v9.99H889.9v-1.67a3.88 3.88 0 0 0-2.42-6.93 3.89 3.89 0 0 0-2.48 6.88v1.72h-9.98v-10.02h-1.7a3.88 3.88 0 0 1-6.91-2.42 3.89 3.89 0 0 1 6.87-2.48h1.74v-10H865v-1.72a3.88 3.88 0 1 0-4.9.05v1.67h-20.2v1.7a3.88 3.88 0 1 1-4.9.05v-1.75H825v-10h1.72a3.88 3.88 0 1 0-.04-4.9h-1.68v-10.08h-10.02v1.72a3.88 3.88 0 1 1-4.9-.05v-1.67H800v10.08h-1.68a3.88 3.88 0 1 0-.05 4.9H800v10H789.9v1.7a3.88 3.88 0 0 1-2.41 6.92 3.89 3.89 0 0 1-2.48-6.87v-1.74h-10.02v-10h1.72a3.88 3.88 0 1 0-.04-4.9h-1.68v-10.1h-10.02v1.73a3.88 3.88 0 0 1-2.48 6.88 3.89 3.89 0 0 1-2.42-6.93v-1.67h-20.11v-1.72a3.88 3.88 0 1 0-4.9.05v1.67H714.88v1.7a3.88 3.88 0 0 1-2.42 6.92 3.89 3.89 0 0 1-2.48-6.88v-1.74h-10v10.03h-1.72a3.88 3.88 0 1 0 .05 4.9h1.67v10.08l.05.01H690v1.72a3.88 3.88 0 1 1-4.9-.04v-1.68h-10.08v10.09h-1.68a3.88 3.88 0 0 0-6.92 2.42 3.89 3.89 0 0 0 6.87 2.47h1.73v10h-10.09v1.7a3.88 3.88 0 0 1-2.42 6.93 3.89 3.89 0 0 1-2.47-6.88v-1.74H640.03v-1.72a3.88 3.88 0 1 0-4.9.04v1.68h-10.08v10.02h1.72a3.88 3.88 0 1 1-.05 4.9h-1.67v10h-10.12v-1.68a3.88 3.88 0 0 0-2.42-6.92 3.89 3.89 0 0 0-2.48 6.87v1.72h-9.98v-10.02h-1.7a3.88 3.88 0 0 1-6.91-2.42 3.89 3.89 0 0 1 6.87-2.47h1.74v-10h-10.02v-1.72a3.88 3.88 0 1 0-4.9.04v1.68h-20.2v1.7a3.87 3.87 0 0 1-2.42 6.92 3.89 3.89 0 0 1-2.47-6.88v-1.74H540.03v-1.72a3.88 3.88 0 1 0-4.9.04v1.68h-10.08v10.02h1.72a3.88 3.88 0 1 1-.05 4.9h-1.67v10h-10.12v-1.68a3.88 3.88 0 1 0-4.9-.05v1.72h-9.98v-10.02h-1.7a3.88 3.88 0 0 1-6.91-2.42 3.89 3.89 0 0 1 6.87-2.47h1.74v-10h-10.02v-1.72a3.88 3.88 0 0 0-2.48-6.88 3.89 3.89 0 0 0-2.42 6.92v1.68h-20.2v1.7a3.88 3.88 0 1 1-4.9.04v-1.74h-10.01v-10h1.73a3.88 3.88 0 1 0-.05-4.9h-1.68v-10.09H440v1.73a3.88 3.88 0 1 1-4.9-.05v-1.68h-10.08v10.09h-1.68a3.88 3.88 0 0 0-6.92 2.42 3.89 3.89 0 0 0 6.88 2.48h1.72v10h-10.09v1.7a3.88 3.88 0 0 1-2.41 6.92 3.89 3.89 0 0 1-2.48-6.88v-1.74h-10.02v-10h1.73a3.88 3.88 0 0 0 6.87-2.48 3.89 3.89 0 0 0-6.92-2.42h-1.68v-10.09H390v1.73a3.88 3.88 0 0 1-2.48 6.87 3.88 3.88 0 0 1-2.42-6.92v-1.68h-10.08v.03H375v-10h1.72a3.88 3.88 0 1 0-.05-4.9H375v-10.08h-10.03v1.72a3.87 3.87 0 0 1-2.48 6.88 3.89 3.89 0 0 1-2.41-6.93v-1.67H339.9v-1.67a3.88 3.88 0 0 0-2.42-6.93 3.89 3.89 0 0 0-2.48 6.88v1.72h-20.03v1.72a3.88 3.88 0 1 1-4.9-.05v-1.67H300v10.09h-1.67a3.88 3.88 0 1 0-.05 4.9H300v10h-10.08v1.7a3.88 3.88 0 0 1-2.42 6.91 3.89 3.89 0 0 1-2.48-6.87v-1.74H265.01V1351a3.88 3.88 0 1 0-4.9.05v1.67h-10.08v10.03h1.72a3.88 3.88 0 0 1 6.88 2.48 3.89 3.89 0 0 1-6.92 2.42h-1.68v9.99h-10.12v-1.67a3.88 3.88 0 0 0-2.41-6.93 3.89 3.89 0 0 0-2.48 6.88v1.72h-9.98v-10.02h-1.7a3.88 3.88 0 0 1-6.92-2.42 3.89 3.89 0 0 1 6.88-2.48h1.74v-10H215V1351a3.88 3.88 0 1 0-4.9.05v1.67H189.93v1.7a3.87 3.87 0 0 1-2.42 6.92 3.89 3.89 0 0 1-2.48-6.87v-1.74H165.01V1351a3.88 3.88 0 1 0-4.9.05v1.68h-10.08v10.02h1.72a3.88 3.88 0 1 1-.04 4.9h-1.68v10h-10.12v-1.68a3.88 3.88 0 0 0-2.41-6.93 3.89 3.89 0 0 0-2.48 6.88v1.72h-9.98v-10.02h-1.7a3.88 3.88 0 0 1-6.92-2.42 3.89 3.89 0 0 1 6.88-2.48h1.74v-10H115V1351a3.88 3.88 0 1 0-4.9.05v1.68H89.93v1.7a3.88 3.88 0 1 1-4.9.04v-1.74H75.01v-10h1.72a3.88 3.88 0 1 0-.05-4.9h-1.67v-10.09H64.98v1.72a3.88 3.88 0 1 1-4.9-.04v-1.68H50v10.09h-1.67a3.88 3.88 0 1 0-.05 4.9H50v10H39.92v1.7a3.88 3.88 0 0 1-2.42 6.92 3.89 3.89 0 0 1-2.48-6.88v-1.74H25.01v-10h1.72a3.88 3.88 0 1 0-.05-4.9h-1.67v-10.09H14.98v1.72a3.88 3.88 0 0 1-2.48 6.88 3.89 3.89 0 0 1-2.41-6.92v-1.68H0z"/><path id="2zlyb" d="M1499.97 709.36h-.03V672H-.03l.02 112.4h10.03v1.73a3.88 3.88 0 1 0 4.9-.05v-1.67H35.1v-1.7a3.88 3.88 0 0 1 2.42-6.92 3.89 3.89 0 0 1 2.48 6.87v1.74h10v-10.02h1.72a3.88 3.88 0 1 0-.05-4.9h-1.67V759.4l-.05-.02h10.02v-1.72a3.88 3.88 0 1 1 4.9.05v1.67h10.09V749.3h1.67a3.88 3.88 0 0 0 6.92-2.42 3.89 3.89 0 0 0-6.87-2.48h-1.72v-10h10.08v-1.7a3.88 3.88 0 1 1 4.9-.04v1.74h20v1.72a3.88 3.88 0 1 0 4.9-.05v-1.67h10.09v-10.03h-1.73a3.88 3.88 0 1 1 .05-4.9h1.68v-9.99h10.11v1.68a3.88 3.88 0 0 0 2.42 6.92 3.89 3.89 0 0 0 2.48-6.88v-1.72h9.98v10.02h1.7a3.88 3.88 0 0 1 6.92 2.42 3.89 3.89 0 0 1-6.88 2.48h-1.74v10h10.02v1.72a3.88 3.88 0 1 0 4.9-.05v-1.67h20.2v-1.7a3.87 3.87 0 0 1 2.42-6.92 3.89 3.89 0 0 1 2.48 6.88v1.74h20v1.72a3.88 3.88 0 1 0 4.9-.05v-1.67h10.09v-10.03h-1.73a3.88 3.88 0 1 1 .05-4.9h1.68v-9.99h10.11v1.68a3.88 3.88 0 1 0 4.9.04v-1.72h9.98v10.02h1.7a3.88 3.88 0 1 1 .04 4.9h-1.74v10h10.02v1.72a3.88 3.88 0 1 0 4.9-.05v-1.67H285.04v-1.7a3.88 3.88 0 1 1 4.9-.05v1.75h10.02v10h-1.72a3.88 3.88 0 1 0 .05 4.9h1.67v10.08h10.02v-1.72a3.88 3.88 0 1 1 4.9.05v1.67h10.09V749.3h1.67a3.88 3.88 0 0 0 6.93-2.42 3.89 3.89 0 0 0-6.88-2.48h-1.72v-10h10.08v-1.7a3.88 3.88 0 0 1 2.42-6.92 3.89 3.89 0 0 1 2.48 6.87v1.75h10.01v10h-1.72a3.88 3.88 0 1 0 .05 4.9h1.67v10.08h10.03v-1.72a3.87 3.87 0 0 1 2.47-6.88 3.88 3.88 0 0 1 2.42 6.93v1.67h10.09v-.03h.02v10h-1.73a3.88 3.88 0 1 0 .05 4.9H375v10.09H385v-1.73a3.88 3.88 0 0 1 2.48-6.87 3.89 3.89 0 0 1 2.42 6.92v1.68h20.17V786a3.88 3.88 0 0 0 2.42 6.92 3.89 3.89 0 0 0 2.48-6.87v-1.73H435v-1.72a3.88 3.88 0 1 1 4.9.05v1.68h10.08v-10.09h1.68a3.88 3.88 0 1 0 .04-4.9h-1.72v-10h10.09v-1.7a3.88 3.88 0 0 1 2.41-6.92 3.89 3.89 0 0 1 2.48 6.88v1.74H484.97v1.72a3.88 3.88 0 1 0 4.9-.04v-1.68h10.08v-10.02h-1.72a3.88 3.88 0 0 1-6.88-2.48 3.89 3.89 0 0 1 6.93-2.42h1.67v-10h10.12v1.68a3.88 3.88 0 0 0 2.42 6.92 3.89 3.89 0 0 0 2.48-6.87v-1.73h9.97v10.03h1.7a3.88 3.88 0 0 1 6.92 2.41 3.89 3.89 0 0 1-6.87 2.48h-1.74v10h10.02v1.72a3.88 3.88 0 1 0 4.9-.04v-1.68h20.2v-1.7a3.87 3.87 0 0 1 2.41-6.92 3.89 3.89 0 0 1 2.48 6.88v1.74H584.97v1.72a3.88 3.88 0 1 0 4.9-.04v-1.68h10.08v-10.02h-1.72a3.88 3.88 0 1 1 .05-4.9h1.67v-10h10.12v1.68a3.88 3.88 0 0 0 2.42 6.92 3.89 3.89 0 0 0 2.48-6.87v-1.73h9.98v10.03h1.7a3.88 3.88 0 0 1 6.91 2.41 3.89 3.89 0 0 1-6.87 2.48h-1.74v10h10.02v1.72a3.88 3.88 0 1 0 4.9-.04v-1.68h20.2v-1.7a3.88 3.88 0 1 1 4.9-.04v1.74h10.01v10h-1.73a3.88 3.88 0 1 0 .05 4.9h1.68v10.08H685v-1.72a3.88 3.88 0 1 1 4.9.05v1.67h10.08v-10.08h1.68a3.88 3.88 0 1 0 .04-4.9h-1.72v-10h10.09v-1.7a3.88 3.88 0 0 1 2.41-6.92 3.89 3.89 0 0 1 2.48 6.88v1.74h10.02v10h-1.73a3.88 3.88 0 1 0 .05 4.9h1.68v10.08H735v-1.72a3.88 3.88 0 0 1 2.48-6.87 3.89 3.89 0 0 1 2.42 6.92v1.67H760v1.73a3.88 3.88 0 1 0 4.9-.05v-1.68H785.1v-1.7a3.88 3.88 0 0 1 2.42-6.92 3.89 3.89 0 0 1 2.48 6.88v1.74h10v-10.02h1.72a3.88 3.88 0 1 0-.05-4.9H800v-10.08l-.05-.02h10.02v-1.72a3.88 3.88 0 1 1 4.9.05v1.67h10.08v-10.08h1.68a3.88 3.88 0 0 0 6.92-2.42 3.89 3.89 0 0 0-6.88-2.48h-1.72v-10h10.09v-1.7a3.88 3.88 0 0 1 2.41-6.92 3.89 3.89 0 0 1 2.48 6.87v1.75H859.94v1.72a3.88 3.88 0 1 0 4.9-.05v-1.67h10.08V724.3h-1.72a3.88 3.88 0 1 1 .05-4.9h1.67v-9.99h10.12v1.67a3.88 3.88 0 0 0 2.42 6.93 3.89 3.89 0 0 0 2.48-6.88v-1.72h9.97v10.02h1.7a3.88 3.88 0 0 1 6.92 2.42 3.89 3.89 0 0 1-6.87 2.48h-1.75v10h10.03v1.72a3.88 3.88 0 1 0 4.9-.05v-1.67h20.2v-1.7a3.87 3.87 0 0 1 2.41-6.92 3.89 3.89 0 0 1 2.48 6.87v1.74H959.94v1.73a3.88 3.88 0 1 0 4.9-.05v-1.67h10.08V724.3h-1.72a3.88 3.88 0 1 1 .05-4.9h1.67v-9.99h10.12v1.67a3.88 3.88 0 1 0 4.9.05v-1.72h9.98v10.02h1.69a3.88 3.88 0 0 1 6.92 2.42 3.89 3.89 0 0 1-6.87 2.48h-1.74v10h10.02v1.72a3.88 3.88 0 0 0 2.48 6.87 3.89 3.89 0 0 0 2.42-6.92v-1.67H1035.03v-1.7a3.88 3.88 0 1 1 4.9-.05v1.74h10.02v10h-1.73a3.88 3.88 0 1 0 .05 4.9h1.68v10.09h10.02v-1.72a3.88 3.88 0 1 1 4.9.05v1.67h10.08v-10.09h1.68a3.88 3.88 0 0 0 6.92-2.41 3.89 3.89 0 0 0-6.88-2.48h-1.72v-10h10.08v-1.7a3.88 3.88 0 0 1 2.42-6.92 3.89 3.89 0 0 1 2.48 6.87v1.74h10.02v10h-1.73a3.88 3.88 0 0 0-6.87 2.49 3.89 3.89 0 0 0 6.92 2.41h1.68v10.09h10.02v-1.72a3.88 3.88 0 0 1 2.48-6.88 3.88 3.88 0 0 1 2.42 6.93v1.67h10.08v-.03h.02v10h-1.72a3.88 3.88 0 1 0 .05 4.9h1.67v10.08H1135v-1.72a3.87 3.87 0 0 1 2.47-6.87 3.89 3.89 0 0 1 2.42 6.92v1.67h20.17v1.68a3.88 3.88 0 0 0 2.42 6.92 3.89 3.89 0 0 0 2.48-6.88v-1.72H1185v-1.72a3.88 3.88 0 1 1 4.9.05v1.67h10.08v-10.08h1.67a3.88 3.88 0 1 0 .05-4.9h-1.72v-10h10.08v-1.7a3.88 3.88 0 0 1 2.42-6.92 3.89 3.89 0 0 1 2.48 6.88v1.74H1234.96V761a3.88 3.88 0 1 0 4.9-.05v-1.67h10.08v-10.03h-1.72a3.88 3.88 0 0 1-6.88-2.47 3.89 3.89 0 0 1 6.92-2.42h1.68v-10h10.11v1.68a3.88 3.88 0 0 0 2.42 6.92 3.89 3.89 0 0 0 2.48-6.88v-1.72h9.98v10.02h1.7a3.88 3.88 0 0 1 6.92 2.42 3.89 3.89 0 0 1-6.88 2.48h-1.74v10h10.03V761a3.88 3.88 0 1 0 4.9-.05v-1.67H1310.04v-1.7a3.87 3.87 0 0 1 2.42-6.92 3.89 3.89 0 0 1 2.48 6.88v1.74H1334.96V761a3.88 3.88 0 1 0 4.9-.05v-1.67h10.08v-10.03h-1.72a3.88 3.88 0 1 1 .04-4.9h1.68v-9.99h10.11v1.68a3.88 3.88 0 0 0 2.42 6.92 3.89 3.89 0 0 0 2.48-6.88v-1.72h9.98v10.02h1.7a3.88 3.88 0 0 1 6.92 2.42 3.89 3.89 0 0 1-6.88 2.48h-1.74v10h10.03V761a3.88 3.88 0 1 0 4.9-.05v-1.67H1410.04v-1.7a3.88 3.88 0 1 1 4.9-.05v1.75h10.01v10h-1.72a3.88 3.88 0 1 0 .05 4.9h1.67v10.08H1435v-1.72a3.88 3.88 0 1 1 4.9.05v1.67h10.08v-10.08h1.67a3.88 3.88 0 1 0 .05-4.9h-1.72v-10h10.08v-1.7a3.88 3.88 0 0 1 2.42-6.92 3.89 3.89 0 0 1 2.48 6.87v1.75h10.01v10h-1.72a3.88 3.88 0 1 0 .05 4.9h1.67v10.08H1485v-1.72a3.88 3.88 0 0 1 2.47-6.88 3.89 3.89 0 0 1 2.42 6.93v1.67h10.09z"/></defs><g><g transform="translate(0 -672)"><use fill="#f5f5f5" xlink:href="#2zlya"/></g><g transform="translate(0 -672)"><use fill="#f5f5f5" xlink:href="#2zlyb"/></g></g></svg>