<svg xmlns="https://www.w3.org/2000/svg" xmlns:xlink="https://www.w3.org/1999/xlink" width="1500" height="122" viewBox="0 0 1500 122"><defs><path id="80jaa" d="M1499.97 2338.14h-.03v-37.36H0l.03 112.4h10.02v1.73a3.88 3.88 0 1 0 4.9-.05v-1.67H35.14v-1.7a3.88 3.88 0 1 1 4.9-.05v1.75h10v-10.03h1.72a3.88 3.88 0 1 0-.05-4.9h-1.67v-10.08l-.05-.01h10.02v-1.73a3.88 3.88 0 1 1 4.9.05v1.68H75v-10.09h1.67a3.88 3.88 0 0 0 6.92-2.42 3.89 3.89 0 0 0-6.87-2.48H75v-10h10.08v-1.7a3.88 3.88 0 0 1 2.42-6.92 3.89 3.89 0 0 1 2.48 6.88v1.74h20v1.72a3.88 3.88 0 1 0 4.9-.04v-1.68h10.08v-10.02h-1.72a3.88 3.88 0 1 1 .05-4.9h1.67v-10h10.12v1.68a3.88 3.88 0 0 0 2.42 6.92 3.89 3.89 0 0 0 2.48-6.87v-1.73h9.98v10.03h1.7a3.88 3.88 0 0 1 6.92 2.41 3.89 3.89 0 0 1-6.88 2.48h-1.74v10h10.02v1.72a3.88 3.88 0 1 0 4.9-.04v-1.68h20.2v-1.7a3.87 3.87 0 0 1 2.42-6.92 3.89 3.89 0 0 1 2.47 6.88v1.74H209.98v1.72a3.88 3.88 0 1 0 4.9-.05v-1.67h10.08v-10.02h-1.72a3.88 3.88 0 1 1 .05-4.9h1.67v-10h10.12v1.68a3.88 3.88 0 1 0 4.9.05v-1.73h9.97v10.03h1.7a3.88 3.88 0 0 1 6.92 2.41 3.89 3.89 0 0 1-6.87 2.48h-1.74v10h10.02v1.72a3.88 3.88 0 1 0 4.9-.05v-1.67H285.07v-1.7a3.88 3.88 0 1 1 4.9-.04v1.74H300v10h-1.73a3.88 3.88 0 1 0 .05 4.9H300v10.08H310v-1.72a3.88 3.88 0 1 1 4.9.05v1.67h10.08v-10.08h1.68a3.88 3.88 0 0 0 6.92-2.42 3.89 3.89 0 0 0-6.88-2.48H325v-10h10.08v-1.7a3.88 3.88 0 0 1 2.42-6.92 3.89 3.89 0 0 1 2.48 6.88v1.74h10.01v10h-1.72a3.88 3.88 0 1 0 .05 4.9h1.67v10.08h10.03v-1.72a3.87 3.87 0 0 1 2.48-6.87 3.88 3.88 0 0 1 2.42 6.92v1.67h10.08v-.03h.02v10h-1.72a3.88 3.88 0 1 0 .05 4.9H375v10.09h10.02v-1.72a3.88 3.88 0 0 1 2.48-6.88 3.89 3.89 0 0 1 2.42 6.92v1.68h20.17v1.67a3.88 3.88 0 0 0 2.42 6.92 3.89 3.89 0 0 0 2.48-6.87v-1.72h20.02v-1.72a3.88 3.88 0 1 1 4.9.04v1.68h10.09v-10.09h1.67a3.88 3.88 0 0 0 6.92-2.42 3.89 3.89 0 0 0-6.87-2.47H450v-10h10.08v-1.7a3.88 3.88 0 0 1 2.42-6.93 3.89 3.89 0 0 1 2.47 6.88v1.74H485v1.72a3.88 3.88 0 1 0 4.9-.04v-1.68h10.08v-10.02h-1.72a3.88 3.88 0 1 1 .05-4.9h1.67v-10h10.12v1.68a3.88 3.88 0 0 0 2.42 6.92 3.89 3.89 0 0 0 2.48-6.87v-1.72h9.98v10.02h1.7a3.88 3.88 0 0 1 6.91 2.42 3.89 3.89 0 0 1-6.87 2.48h-1.74v10h10.02v1.71a3.88 3.88 0 1 0 4.9-.04v-1.68h20.2v-1.7a3.87 3.87 0 0 1 2.41-6.92 3.89 3.89 0 0 1 2.48 6.88v1.74H585v1.72a3.88 3.88 0 1 0 4.9-.04v-1.68h10.08v-10.02h-1.72a3.88 3.88 0 1 1 .05-4.9h1.67v-10h10.12v1.68a3.88 3.88 0 0 0 2.42 6.92 3.89 3.89 0 0 0 2.47-6.87v-1.72h9.98v10.02h1.7a3.88 3.88 0 1 1 .05 4.9h-1.75v10H635v1.71a3.88 3.88 0 1 0 4.9-.04v-1.68H660.08v-1.7a3.88 3.88 0 0 1 2.42-6.92 3.89 3.89 0 0 1 2.48 6.88v1.74h10.01v10h-1.72a3.88 3.88 0 1 0 .05 4.9h1.67v10.09h10.03v-1.73a3.88 3.88 0 1 1 4.9.05v1.68H700v-10.09h1.67a3.88 3.88 0 1 0 .05-4.9H700v-10h10.08v-1.7a3.88 3.88 0 0 1 2.42-6.92 3.89 3.89 0 0 1 2.48 6.88v1.74h10.01v10h-1.72a3.88 3.88 0 1 0 .05 4.9h1.67v10.09h10.03v-1.73a3.88 3.88 0 0 1 2.48-6.87 3.89 3.89 0 0 1 2.41 6.92v1.68h20.11v1.72a3.88 3.88 0 1 0 4.9-.05v-1.67h20.2v-1.7a3.88 3.88 0 1 1 4.9-.05v1.74H800v-10.02h1.72a3.88 3.88 0 1 0-.05-4.9h-1.67v-10.08l-.05-.02H810v-1.72a3.88 3.88 0 1 1 4.9.05v1.67h10.08v-10.08h1.67a3.88 3.88 0 0 0 6.93-2.42 3.89 3.89 0 0 0-6.88-2.48h-1.72v-10h10.08v-1.7a3.88 3.88 0 0 1 2.42-6.92 3.89 3.89 0 0 1 2.48 6.88v1.74h20v1.72a3.88 3.88 0 1 0 4.9-.05v-1.67h10.09v-10.03h-1.73a3.88 3.88 0 1 1 .05-4.9h1.68v-9.99h10.11v1.68a3.88 3.88 0 0 0 2.42 6.92 3.89 3.89 0 0 0 2.48-6.88v-1.72h9.98v10.02h1.7a3.88 3.88 0 0 1 6.92 2.42 3.89 3.89 0 0 1-6.88 2.48h-1.74v10h10.02v1.72a3.88 3.88 0 1 0 4.9-.05v-1.67h20.2v-1.7a3.87 3.87 0 0 1 2.42-6.92 3.89 3.89 0 0 1 2.47 6.87v1.75H959.95v1.72a3.88 3.88 0 1 0 4.9-.05v-1.67h10.08v-10.03h-1.72a3.88 3.88 0 1 1 .05-4.9h1.67v-9.99h10.12v1.68a3.88 3.88 0 1 0 4.9.04v-1.72h9.98v10.02h1.7a3.88 3.88 0 0 1 6.91 2.42 3.89 3.89 0 0 1-6.87 2.48h-1.74v10h10.02v1.72a3.88 3.88 0 0 0 2.48 6.88 3.89 3.89 0 0 0 2.42-6.93v-1.67H1035.04v-1.7a3.88 3.88 0 0 1 2.42-6.92 3.89 3.89 0 0 1 2.48 6.87v1.75h10.02v10h-1.73a3.88 3.88 0 1 0 .05 4.9h1.68v10.08h10.02v-1.72a3.88 3.88 0 1 1 4.9.05v1.67h10.08v-10.08h1.68a3.88 3.88 0 0 0 6.92-2.42 3.89 3.89 0 0 0-6.88-2.48h-1.72v-10h10.08v-1.7a3.88 3.88 0 0 1 2.42-6.92 3.89 3.89 0 0 1 2.48 6.87v1.75h10.01v10h-1.72a3.88 3.88 0 1 0 .05 4.9h1.67v10.08h10.03v-1.72a3.87 3.87 0 0 1 2.48-6.88 3.88 3.88 0 0 1 2.42 6.93v1.67h10.08v-.03h.02v10h-1.72a3.88 3.88 0 1 0 .04 4.9h1.68v10.08H1135v-1.72a3.88 3.88 0 0 1 2.48-6.87 3.89 3.89 0 0 1 2.42 6.92v1.67h20.17v1.68a3.88 3.88 0 0 0 2.42 6.92 3.89 3.89 0 0 0 2.48-6.87v-1.73h20.02v-1.72a3.88 3.88 0 1 1 4.9.05v1.67h10.09v-10.08h1.67a3.88 3.88 0 0 0 6.92-2.42 3.89 3.89 0 0 0-6.87-2.48h-1.72v-10h10.08v-1.7a3.88 3.88 0 0 1 2.42-6.92 3.89 3.89 0 0 1 2.47 6.88v1.74H1234.96v1.72a3.88 3.88 0 1 0 4.9-.04v-1.68h10.08v-10.02h-1.72a3.88 3.88 0 1 1 .05-4.9h1.67v-10h10.12v1.68a3.88 3.88 0 0 0 2.42 6.92 3.89 3.89 0 0 0 2.48-6.87v-1.73h9.98v10.03h1.7a3.88 3.88 0 0 1 6.91 2.41 3.89 3.89 0 0 1-6.87 2.48h-1.74v10h10.02v1.72a3.88 3.88 0 1 0 4.9-.05v-1.67h20.2v-1.7a3.87 3.87 0 0 1 2.41-6.92 3.89 3.89 0 0 1 2.48 6.88v1.74H1334.96v1.72a3.88 3.88 0 1 0 4.9-.05v-1.67h10.08v-10.02h-1.72a3.88 3.88 0 1 1 .05-4.9h1.67v-10h10.12v1.68a3.88 3.88 0 0 0 2.42 6.92 3.89 3.89 0 0 0 2.47-6.87v-1.73h9.98v10.03h1.7a3.88 3.88 0 0 1 6.92 2.41 3.89 3.89 0 0 1-6.87 2.48h-1.75v10h10.03v1.72a3.88 3.88 0 1 0 4.9-.05v-1.67H1410.04v-1.7a3.88 3.88 0 0 1 2.42-6.92 3.89 3.89 0 0 1 2.48 6.88v1.74h10.01v10h-1.72a3.88 3.88 0 1 0 .05 4.9h1.67v10.08H1435v-1.72a3.88 3.88 0 1 1 4.9.05v1.67h10.08v-10.08h1.67a3.88 3.88 0 0 0 6.93-2.42 3.89 3.89 0 0 0-6.88-2.48h-1.72v-10h10.08v-1.7a3.88 3.88 0 0 1 2.42-6.92 3.89 3.89 0 0 1 2.48 6.88v1.74h10.01v10h-1.72a3.88 3.88 0 1 0 .05 4.9h1.67v10.08H1485v-1.72a3.88 3.88 0 0 1 2.48-6.87 3.89 3.89 0 0 1 2.41 6.92v1.67h10.09z"/></defs><g><g transform="translate(0 -2300)"><use fill="#f5f5f5" xlink:href="#80jaa"/></g></g></svg>