<?xml version="1.0" encoding="UTF-8"?>
<svg width="1501px" height="768px" viewBox="0 0 1501 768" version="1.1" xmlns="http://www.w3.org/2000/svg" xmlns:xlink="http://www.w3.org/1999/xlink">
    <!-- Generator: Sketch 49.2 (51160) - http://www.bohemiancoding.com/sketch -->
    <title>backgroundmoz</title>
    <desc>Created with Sketch.</desc>
    <defs></defs>
    <g id="Page-1" stroke="none" stroke-width="1" fill="none" fill-rule="evenodd">
        <g id="backgroundmoz" fill="#F5F5F5" fill-rule="nonzero">
            <g id="Group" transform="translate(1.000000, 647.000000)">
                <g id="2zlya-link">
                    <path d="M0,83.64 L0.03,83.64 L0.03,121 L1500,121 L1499.97,8.6 L1489.95,8.6 L1489.95,6.88 C1491.2144,5.83303404 1491.68308,4.10364827 1491.12036,2.56151135 C1490.55764,1.01937443 1489.08531,-0.00174192076 1487.44377,0.0116584225 C1485.80223,0.0250587658 1484.34676,1.07007551 1483.80929,2.62119356 C1483.27182,4.17231161 1483.76868,5.89381543 1485.05,6.92 L1485.05,8.6 L1464.85,8.6 L1464.85,10.3 C1466.14327,11.3256749 1466.64605,13.0572992 1466.10317,14.6160976 C1465.5603,16.1748961 1464.09063,17.2195853 1462.44,17.22 C1460.8033,17.2164817 1459.34387,16.1888589 1458.78885,14.6491344 C1458.23384,13.1094099 1458.70197,11.3869688 1459.96,10.34 L1459.96,8.6 L1449.96,8.6 L1449.96,18.62 L1448.24,18.62 C1447.19044,17.3577655 1445.46011,16.8926345 1443.91914,17.4585081 C1442.37817,18.0243817 1441.36007,19.4987871 1441.37682,21.1402875 C1441.39357,22.7817879 1442.44155,24.2351109 1443.99374,24.7694216 C1445.54594,25.3037323 1447.26642,24.8033889 1448.29,23.52 L1449.96,23.52 L1449.96,33.61 L1450.01,33.62 L1439.98,33.62 L1439.98,35.34 C1441.24223,36.3895563 1441.70737,38.119887 1441.14149,39.6608579 C1440.57562,41.2018288 1439.10121,42.2199251 1437.45971,42.2031751 C1435.81821,42.1864251 1434.36489,41.138454 1433.83058,39.5862567 C1433.29627,38.0340595 1433.79661,36.3135805 1435.08,35.29 L1435.08,33.62 L1425,33.62 L1425,43.71 L1423.33,43.71 C1422.30645,42.4082984 1420.56957,41.8996524 1419.00553,42.4435705 C1417.44148,42.9874887 1416.395,44.4640819 1416.4,46.12 C1416.40352,47.7566988 1417.43114,49.2161301 1418.97087,49.7711471 C1420.51059,50.3261641 1422.23303,49.8580348 1423.28,48.6 L1425,48.6 L1425,58.6 L1414.92,58.6 L1414.92,60.3 C1416.20339,61.3235805 1416.70373,63.0440595 1416.16942,64.5962567 C1415.63511,66.148454 1414.18179,67.1964251 1412.54029,67.2131751 C1410.89879,67.2299251 1409.42438,66.2118288 1408.85851,64.6708579 C1408.29263,63.129887 1408.75777,61.3995563 1410.02,60.35 L1410.02,58.61 L1390.01,58.61 L1390.01,56.88 C1391.27223,55.8304437 1391.73737,54.100113 1391.17149,52.5591421 C1390.60562,51.0181712 1389.13121,50.0000749 1387.48971,50.0168249 C1385.84821,50.0335749 1384.39489,51.081546 1383.86058,52.6337433 C1383.32627,54.1859405 1383.82661,55.9064195 1385.11,56.93 L1385.11,58.61 L1375.03,58.61 L1375.03,68.63 L1376.75,68.63 C1377.79697,67.3656021 1379.52635,66.8969176 1381.06849,67.4596375 C1382.61063,68.0223573 1383.63174,69.4946893 1383.61834,71.1362314 C1383.60494,72.7777734 1382.55992,74.2332391 1381.00881,74.7707078 C1379.45769,75.3081766 1377.73618,74.8113216 1376.71,73.53 L1375.03,73.53 L1375.03,83.53 L1364.92,83.53 L1364.92,81.85 C1366.22318,80.8253196 1366.73139,79.0858719 1366.18484,77.5207696 C1365.6383,75.9556672 1364.15776,74.9107003 1362.5,74.92 C1360.8633,74.9235183 1359.40387,75.9511411 1358.84885,77.4908656 C1358.29384,79.0305901 1358.76197,80.7530312 1360.02,81.8 L1360.02,83.52 L1350.04,83.52 L1350.04,73.5 L1348.34,73.5 C1347.31319,74.794722 1345.57901,75.2970307 1344.01917,74.7515387 C1342.45934,74.2060467 1341.41615,72.7324639 1341.42,71.08 C1341.42352,69.4433012 1342.45114,67.9838699 1343.99087,67.4288529 C1345.53059,66.8738359 1347.25303,67.3419652 1348.3,68.6 L1350.04,68.6 L1350.04,58.6 L1340.01,58.6 L1340.01,56.88 C1341.27223,55.8304437 1341.73737,54.100113 1341.17149,52.5591421 C1340.60562,51.0181712 1339.13121,50.0000749 1337.48971,50.0168249 C1335.84821,50.0335749 1334.39489,51.081546 1333.86058,52.6337433 C1333.32627,54.1859405 1333.82661,55.9064195 1335.11,56.93 L1335.11,58.61 L1314.93,58.61 L1314.93,60.31 C1316.23749,61.3310084 1316.74882,63.0717814 1316.2012,64.6377035 C1315.65358,66.2036255 1314.16883,67.2463494 1312.51,67.23 C1310.8733,67.2264817 1309.41387,66.1988589 1308.85885,64.6591344 C1308.30384,63.1194099 1308.77197,61.3969688 1310.03,60.35 L1310.03,58.61 L1290.01,58.61 L1290.01,56.88 C1291.27223,55.8304437 1291.73737,54.100113 1291.17149,52.5591421 C1290.60562,51.0181712 1289.13121,50.0000749 1287.48971,50.0168249 C1285.84821,50.0335749 1284.39489,51.081546 1283.86058,52.6337433 C1283.32627,54.1859405 1283.82661,55.9064195 1285.11,56.93 L1285.11,58.61 L1275.03,58.61 L1275.03,68.63 L1276.75,68.63 C1277.79697,67.3656021 1279.52635,66.8969176 1281.06849,67.4596375 C1282.61063,68.0223573 1283.63174,69.4946893 1283.61834,71.1362314 C1283.60494,72.7777734 1282.55992,74.2332391 1281.00881,74.7707078 C1279.45769,75.3081766 1277.73618,74.8113216 1276.71,73.53 L1275.03,73.53 L1275.03,83.53 L1264.92,83.53 L1264.92,81.85 C1266.20339,80.8264195 1266.70373,79.1059405 1266.16942,77.5537433 C1265.63511,76.001546 1264.18179,74.9535749 1262.54029,74.9368249 C1260.89879,74.9200749 1259.42438,75.9381712 1258.85851,77.4791421 C1258.29263,79.020113 1258.75777,80.7504437 1260.02,81.8 L1260.02,83.52 L1250.04,83.52 L1250.04,73.5 L1248.34,73.5 C1247.31382,74.7813216 1245.59231,75.2781766 1244.04119,74.7407078 C1242.49008,74.2032391 1241.44506,72.7477734 1241.43166,71.1062314 C1241.41826,69.4646893 1242.43937,67.9923573 1243.98151,67.4296375 C1245.52365,66.8669176 1247.25303,67.3356021 1248.3,68.6 L1250.04,68.6 L1250.04,58.6 L1240.01,58.6 L1240.01,56.88 C1241.27223,55.8304437 1241.73737,54.100113 1241.17149,52.5591421 C1240.60562,51.0181712 1239.13121,50.0000749 1237.48971,50.0168249 C1235.84821,50.0335749 1234.39489,51.081546 1233.86058,52.6337433 C1233.32627,54.1859405 1233.82661,55.9064195 1235.11,56.93 L1235.11,58.61 L1214.93,58.61 L1214.93,60.31 C1216.21132,61.3361846 1216.70818,63.0576884 1216.17071,64.6088064 C1215.63324,66.1599245 1214.17777,67.2049412 1212.53623,67.2183416 C1210.89469,67.2317419 1209.42236,66.2106256 1208.85964,64.6684886 C1208.29692,63.1263517 1208.7656,61.396966 1210.03,60.35 L1210.03,58.61 L1200.02,58.61 L1200.02,48.61 L1201.74,48.61 C1202.78956,49.8722345 1204.51989,50.3373655 1206.06086,49.7714919 C1207.60183,49.2056183 1208.61993,47.7312129 1208.60318,46.0897125 C1208.58643,44.4482121 1207.53845,42.9948891 1205.98626,42.4605784 C1204.43406,41.9262677 1202.71358,42.4266111 1201.69,43.71 L1200.02,43.71 L1200.02,33.62 L1189.99,33.62 L1189.99,35.34 C1191.2544,36.386966 1191.72308,38.1163517 1191.16036,39.6584886 C1190.59764,41.2006256 1189.12531,42.2217419 1187.48377,42.2083416 C1185.84223,42.1949412 1184.38676,41.1499245 1183.84929,39.5988064 C1183.31182,38.0476884 1183.80868,36.3261846 1185.09,35.3 L1185.09,33.62 L1175,33.62 L1175,43.71 L1173.33,43.71 C1172.30532,42.4068172 1170.56587,41.8986146 1169.00077,42.4451583 C1167.43567,42.991702 1166.3907,44.4722398 1166.4,46.13 C1166.4077,47.7648693 1167.43681,49.2204611 1168.97554,49.7728828 C1170.51427,50.3253044 1172.23421,49.856654 1173.28,48.6 L1175,48.6 L1175,58.6 L1164.92,58.6 L1164.92,60.3 C1166.22318,61.3246804 1166.73139,63.0641281 1166.18484,64.6292304 C1165.6383,66.1943328 1164.15776,67.2392997 1162.5,67.23 C1160.8633,67.2264817 1159.40387,66.1988589 1158.84885,64.6591344 C1158.29384,63.1194099 1158.76197,61.3969688 1160.02,60.35 L1160.02,58.61 L1150.01,58.61 L1150.01,48.61 L1151.73,48.61 C1152.77956,49.8722345 1154.50989,50.3373655 1156.05086,49.7714919 C1157.59183,49.2056183 1158.60993,47.7312129 1158.59318,46.0897125 C1158.57643,44.4482121 1157.52845,42.9948891 1155.97626,42.4605784 C1154.42406,41.9262677 1152.70358,42.4266111 1151.68,43.71 L1150.01,43.71 L1150.01,33.62 L1139.98,33.62 L1139.98,35.34 C1141.26262,36.3762578 1141.74778,38.1114174 1141.18861,39.66264 C1140.62945,41.2138626 1139.1488,42.2404176 1137.5,42.22 C1135.84937,42.2195853 1134.3797,41.1748961 1133.83683,39.6160976 C1133.29395,38.0572992 1133.79673,36.3256749 1135.09,35.3 L1135.09,33.62 L1125,33.62 L1125,33.65 L1124.98,33.65 L1124.98,23.65 L1126.7,23.65 C1127.74697,24.9143979 1129.47635,25.3830824 1131.01849,24.8203625 C1132.56063,24.2576427 1133.58174,22.7853107 1133.56834,21.1437686 C1133.55494,19.5022266 1132.50992,18.0467609 1130.95881,17.5092922 C1129.40769,16.9718234 1127.68618,17.4686784 1126.66,18.75 L1124.98,18.75 L1124.98,8.67 L1114.96,8.67 L1114.96,10.39 C1116.23015,11.4317225 1116.70664,13.160415 1116.14959,14.7057833 C1115.59254,16.2511516 1114.12268,17.2782519 1112.48,17.27 C1110.82854,17.2670166 1109.35897,16.2216036 1108.81451,14.6624726 C1108.27005,13.1033416 1108.7694,11.3703706 1110.06,10.34 L1110.06,8.67 L1089.89,8.67 L1089.89,6.99 C1091.18472,5.96318613 1091.68703,4.22900946 1091.14154,2.66917287 C1090.59605,1.10933629 1089.12246,0.0661506144 1087.47,0.07 C1085.8333,0.0735183478 1084.37387,1.10114109 1083.81885,2.64086558 C1083.26384,4.18059006 1083.73197,5.90303117 1084.99,6.95 L1084.99,8.67 L1064.97,8.67 L1064.97,10.39 C1066.23223,11.4395563 1066.69737,13.169887 1066.13149,14.7108579 C1065.56562,16.2518288 1064.09121,17.2699251 1062.44971,17.2531751 C1060.80821,17.2364251 1059.35489,16.188454 1058.82058,14.6362567 C1058.28627,13.0840595 1058.78661,11.3635805 1060.07,10.34 L1060.07,8.67 L1050,8.67 L1050,18.75 L1048.32,18.75 C1047.29642,17.4666111 1045.57594,16.9662677 1044.02374,17.5005784 C1042.47155,18.0348891 1041.42357,19.4882121 1041.40682,21.1297125 C1041.39007,22.7712129 1042.40817,24.2456183 1043.94914,24.8114919 C1045.49011,25.3773655 1047.22044,24.9122345 1048.27,23.65 L1050,23.65 L1050,33.65 L1039.91,33.65 L1039.91,35.35 C1041.20327,36.3756749 1041.70605,38.1072992 1041.16317,39.6660976 C1040.6203,41.2248961 1039.15063,42.2695853 1037.5,42.27 C1035.86835,42.2614947 1034.41541,41.2356148 1033.86138,39.7008772 C1033.30736,38.1661395 1033.77001,36.4487504 1035.02,35.4 L1035.02,33.65 L1015,33.65 L1015,31.93 C1016.26223,30.8804437 1016.72737,29.150113 1016.16149,27.6091421 C1015.59562,26.0681712 1014.12121,25.0500749 1012.47971,25.0668249 C1010.83821,25.0835749 1009.38489,26.131546 1008.85058,27.6837433 C1008.31627,29.2359405 1008.81661,30.9564195 1010.1,31.98 L1010.1,33.65 L1000.02,33.65 L1000.02,43.68 L1001.74,43.68 C1002.78361,42.4180568 1004.50716,41.9471866 1006.04744,42.5032122 C1007.58772,43.0592378 1008.61308,44.5224349 1008.61,46.16 C1008.59758,47.8044117 1007.55247,49.2633727 1005.9995,49.8042205 C1004.44652,50.3450683 1002.72122,49.8509491 1001.69,48.57 L1000.02,48.57 L1000.02,58.57 L989.9,58.57 L989.9,56.89 C991.194722,55.8631861 991.697031,54.1290095 991.151539,52.5691729 C990.606047,51.0093363 989.132464,49.9661506 987.48,49.97 C985.843301,49.9735183 984.38387,51.0011411 983.828853,52.5408656 C983.273836,54.0805901 983.741965,55.8030312 985,56.85 L985,58.57 L975.02,58.57 L975.02,48.55 L973.32,48.55 C972.293186,49.844722 970.559009,50.3470307 968.999173,49.8015387 C967.439336,49.2560467 966.396151,47.7824639 966.4,46.13 C966.403518,44.4933012 967.431141,43.0338699 968.970866,42.4788529 C970.51059,41.9238359 972.233031,42.3919652 973.28,43.65 L975.02,43.65 L975.02,33.65 L965,33.65 L965,31.93 C966.262234,30.8804437 966.727365,29.150113 966.161492,27.6091421 C965.595618,26.0681712 964.121213,25.0500749 962.479712,25.0668249 C960.838212,25.0835749 959.384889,26.131546 958.850578,27.6837433 C958.316268,29.2359405 958.816611,30.9564195 960.1,31.98 L960.1,33.65 L939.9,33.65 L939.9,35.35 C941.207494,36.3710084 941.718822,38.1117814 941.171202,39.6777035 C940.623582,41.2436255 939.138835,42.2863494 937.48,42.27 C935.850173,42.2573464 934.401043,41.2299836 933.849605,39.6962264 C933.298167,38.1624692 933.761357,36.4475619 935.01,35.4 L935.01,33.65 L915,33.65 L915,31.93 C916.262234,30.8804437 916.727365,29.150113 916.161492,27.6091421 C915.595618,26.0681712 914.121213,25.0500749 912.479712,25.0668249 C910.838212,25.0835749 909.384889,26.131546 908.850578,27.6837433 C908.316268,29.2359405 908.816611,30.9564195 910.1,31.98 L910.1,33.65 L900.02,33.65 L900.02,43.68 L901.74,43.68 C902.789556,42.4177655 904.519887,41.9526345 906.060858,42.5185081 C907.601829,43.0843817 908.619925,44.5587871 908.603175,46.2002875 C908.586425,47.8417879 907.538454,49.2951109 905.986257,49.8294216 C904.434059,50.3637323 902.713581,49.8633889 901.69,48.58 L900.02,48.58 L900.02,58.57 L889.9,58.57 L889.9,56.9 C891.203183,55.8753196 891.711385,54.1358719 891.164842,52.5707696 C890.618298,51.0056672 889.13776,49.9607003 887.48,49.97 C885.843301,49.9735183 884.38387,51.0011411 883.828853,52.5408656 C883.273836,54.0805901 883.741965,55.8030312 885,56.85 L885,58.57 L875.02,58.57 L875.02,48.55 L873.32,48.55 C872.291118,49.8363535 870.562159,50.3328515 869.007531,49.788394 C867.452902,49.2439366 866.411498,47.7772103 866.41,46.13 C866.418505,44.4983473 867.444385,43.0454052 868.979123,42.4913806 C870.51386,41.9373559 872.23125,42.4000058 873.28,43.65 L875.02,43.65 L875.02,33.65 L865,33.65 L865,31.93 C866.262234,30.8804437 866.727365,29.150113 866.161492,27.6091421 C865.595618,26.0681712 864.121213,25.0500749 862.479712,25.0668249 C860.838212,25.0835749 859.384889,26.131546 858.850578,27.6837433 C858.316268,29.2359405 858.816611,30.9564195 860.1,31.98 L860.1,33.65 L839.9,33.65 L839.9,35.35 C841.183389,36.3735805 841.683732,38.0940595 841.149422,39.6462567 C840.615111,41.198454 839.161788,42.2464251 837.520288,42.2631751 C835.878787,42.2799251 834.404382,41.2618288 833.838508,39.7208579 C833.272635,38.179887 833.737766,36.4495563 835,35.4 L835,33.65 L825,33.65 L825,23.65 L826.72,23.65 C827.766966,24.9143979 829.496352,25.3830824 831.038489,24.8203625 C832.580626,24.2576427 833.601742,22.7853107 833.588342,21.1437686 C833.574941,19.5022266 832.529924,18.0467609 830.978806,17.5092922 C829.427688,16.9718234 827.706185,17.4686784 826.68,18.75 L825,18.75 L825,8.67 L814.98,8.67 L814.98,10.39 C816.242234,11.4395563 816.707365,13.169887 816.141492,14.7108579 C815.575618,16.2518288 814.101213,17.2699251 812.459712,17.2531751 C810.818212,17.2364251 809.364889,16.188454 808.830578,14.6362567 C808.296268,13.0840595 808.796611,11.3635805 810.08,10.34 L810.08,8.67 L800,8.67 L800,18.75 L798.32,18.75 C797.296419,17.4666111 795.575941,16.9662677 794.023743,17.5005784 C792.471546,18.0348891 791.423575,19.4882121 791.406825,21.1297125 C791.390075,22.7712129 792.408171,24.2456183 793.949142,24.8114919 C795.490113,25.3773655 797.220444,24.9122345 798.27,23.65 L800,23.65 L800,33.65 L789.9,33.65 L789.9,35.35 C791.193274,36.3756749 791.696049,38.1072992 791.153173,39.6660976 C790.610296,41.2248961 789.140626,42.2695853 787.49,42.27 C785.858347,42.2614947 784.405405,41.2356148 783.851381,39.7008772 C783.297356,38.1661395 783.760006,36.4487504 785.01,35.4 L785.01,33.66 L774.99,33.66 L774.99,23.66 L776.71,23.66 C777.756966,24.9243979 779.486352,25.3930824 781.028489,24.8303625 C782.570626,24.2676427 783.591742,22.7953107 783.578342,21.1537686 C783.564941,19.5122266 782.519924,18.0567609 780.968806,17.5192922 C779.417688,16.9818234 777.696185,17.4786784 776.67,18.76 L774.99,18.76 L774.99,8.66 L764.97,8.66 L764.97,10.39 C766.240151,11.4317225 766.716644,13.160415 766.159592,14.7057833 C765.602541,16.2511516 764.132681,17.2782519 762.49,17.27 C760.838541,17.2670166 759.368969,16.2216036 758.82451,14.6624726 C758.280052,13.1033416 758.779395,11.3703706 760.07,10.34 L760.07,8.67 L739.96,8.67 L739.96,6.95 C741.222234,5.90044372 741.687365,4.170113 741.121492,2.62914212 C740.555618,1.08817123 739.081213,0.0700749 737.439712,0.0868249044 C735.798212,0.103574909 734.344889,1.15154602 733.810578,2.70374328 C733.276268,4.25594053 733.776611,5.97641947 735.06,7 L735.06,8.67 L714.88,8.67 L714.88,10.37 C716.174722,11.3968139 716.677031,13.1309905 716.131539,14.6908271 C715.586047,16.2506637 714.112464,17.2938494 712.46,17.29 C710.823301,17.2864817 709.36387,16.2588589 708.808853,14.7191344 C708.253836,13.1794099 708.721965,11.4569688 709.98,10.41 L709.98,8.67 L699.98,8.67 L699.98,18.7 L698.26,18.7 C697.210444,17.4377655 695.480113,16.9726345 693.939142,17.5385081 C692.398171,18.1043817 691.380075,19.5787871 691.396825,21.2202875 C691.413575,22.8617879 692.461546,24.3151109 694.013743,24.8494216 C695.565941,25.3837323 697.286419,24.8833889 698.31,23.6 L699.98,23.6 L699.98,33.68 L700.03,33.69 L690,33.69 L690,35.41 C691.264398,36.456966 691.733082,38.1863517 691.170363,39.7284886 C690.607643,41.2706256 689.135311,42.2917419 687.493769,42.2783416 C685.852227,42.2649412 684.396761,41.2199245 683.859292,39.6688064 C683.321823,38.1176884 683.818678,36.3961846 685.1,35.37 L685.1,33.69 L675.02,33.69 L675.02,43.78 L673.34,43.78 C672.313186,42.485278 670.579009,41.9829693 669.019173,42.5284613 C667.459336,43.0739533 666.416151,44.5475361 666.42,46.2 C666.432654,47.8298267 667.460016,49.2789567 668.993774,49.8303949 C670.527531,50.3818331 672.242438,49.9186429 673.29,48.67 L675.02,48.67 L675.02,58.67 L664.93,58.67 L664.93,60.37 C666.233183,61.3946804 666.741385,63.1341281 666.194842,64.6992304 C665.648298,66.2643328 664.16776,67.3092997 662.51,67.3 C660.875131,67.2923 659.419539,66.263187 658.867117,64.7244579 C658.314696,63.1857288 658.783346,61.4657905 660.04,60.42 L660.04,58.68 L640.03,58.68 L640.03,56.96 C641.294398,55.913034 641.763082,54.1836483 641.200363,52.6415114 C640.637643,51.0993744 639.165311,50.0782581 637.523769,50.0916584 C635.882227,50.1050588 634.426761,51.1500755 633.889292,52.7011936 C633.351823,54.2523116 633.848678,55.9738154 635.13,57 L635.13,58.68 L625.05,58.68 L625.05,68.7 L626.77,68.7 C627.819556,67.4377655 629.549887,66.9726345 631.090858,67.5385081 C632.631829,68.1043817 633.649925,69.5787871 633.633175,71.2202875 C633.616425,72.8617879 632.568454,74.3151109 631.016257,74.8494216 C629.464059,75.3837323 627.743581,74.8833889 626.72,73.6 L625.05,73.6 L625.05,83.6 L614.93,83.6 L614.93,81.92 C616.224722,80.8931861 616.727031,79.1590095 616.181539,77.5991729 C615.636047,76.0393363 614.162464,74.9961506 612.51,75 C610.878347,75.0085053 609.425405,76.0343852 608.871381,77.5691228 C608.317356,79.1038605 608.780006,80.8212496 610.03,81.87 L610.03,83.59 L600.05,83.59 L600.05,73.57 L598.35,73.57 C597.321118,74.8563535 595.592159,75.3528515 594.037531,74.808394 C592.482902,74.2639366 591.441498,72.7972103 591.44,71.15 C591.452654,69.5201733 592.480016,68.0710433 594.013774,67.5196051 C595.547531,66.9681669 597.262438,67.4313571 598.31,68.68 L600.05,68.68 L600.05,58.68 L590.03,58.68 L590.03,56.96 C591.294398,55.913034 591.763082,54.1836483 591.200363,52.6415114 C590.637643,51.0993744 589.165311,50.0782581 587.523769,50.0916584 C585.882227,50.1050588 584.426761,51.1500755 583.889292,52.7011936 C583.351823,54.2523116 583.848678,55.9738154 585.13,57 L585.13,58.68 L564.93,58.68 L564.93,60.38 C566.237494,61.4010084 566.748822,63.1417814 566.201202,64.7077035 C565.653582,66.2736255 564.168835,67.3163494 562.51,67.3 C560.875131,67.2923 559.419539,66.263187 558.867117,64.7244579 C558.314696,63.1857288 558.783346,61.4657905 560.04,60.42 L560.04,58.68 L540.03,58.68 L540.03,56.96 C541.294398,55.913034 541.763082,54.1836483 541.200363,52.6415114 C540.637643,51.0993744 539.165311,50.0782581 537.523769,50.0916584 C535.882227,50.1050588 534.426761,51.1500755 533.889292,52.7011936 C533.351823,54.2523116 533.848678,55.9738154 535.13,57 L535.13,58.68 L525.05,58.68 L525.05,68.7 L526.77,68.7 C527.819556,67.4377655 529.549887,66.9726345 531.090858,67.5385081 C532.631829,68.1043817 533.649925,69.5787871 533.633175,71.2202875 C533.616425,72.8617879 532.568454,74.3151109 531.016257,74.8494216 C529.464059,75.3837323 527.743581,74.8833889 526.72,73.6 L525.05,73.6 L525.05,83.6 L514.93,83.6 L514.93,81.92 C516.213389,80.8964195 516.713732,79.1759405 516.179422,77.6237433 C515.645111,76.071546 514.191788,75.0235749 512.550288,75.0068249 C510.908787,74.9900749 509.434382,76.0081712 508.868508,77.5491421 C508.302635,79.090113 508.767766,80.8204437 510.03,81.87 L510.03,83.59 L500.05,83.59 L500.05,73.57 L498.35,73.57 C497.321118,74.8563535 495.592159,75.3528515 494.037531,74.808394 C492.482902,74.2639366 491.441498,72.7972103 491.44,71.15 C491.452654,69.5201733 492.480016,68.0710433 494.013774,67.5196051 C495.547531,66.9681669 497.262438,67.4313571 498.31,68.68 L500.05,68.68 L500.05,58.68 L490.03,58.68 L490.03,56.96 C491.300151,55.9182775 491.776644,54.189585 491.219592,52.6442167 C490.662541,51.0988484 489.192681,50.0717481 487.55,50.08 C485.90376,50.0882304 484.440951,51.1318569 483.897508,52.6858337 C483.354065,54.2398106 483.847674,55.9676178 485.13,57 L485.13,58.68 L464.93,58.68 L464.93,60.38 C466.211322,61.4061846 466.708177,63.1276884 466.170708,64.6788064 C465.633239,66.2299245 464.177773,67.2749412 462.536231,67.2883416 C460.894689,67.3017419 459.422357,66.2806256 458.859637,64.7384886 C458.296918,63.1963517 458.765602,61.466966 460.03,60.42 L460.03,58.68 L450.02,58.68 L450.02,48.68 L451.75,48.68 C452.799556,49.9422345 454.529887,50.4073655 456.070858,49.8414919 C457.611829,49.2756183 458.629925,47.8012129 458.613175,46.1597125 C458.596425,44.5182121 457.548454,43.0648891 455.996257,42.5305784 C454.444059,41.9962677 452.723581,42.4966111 451.7,43.78 L450.02,43.78 L450.02,33.69 L440,33.69 L440,35.42 C441.262234,36.4695563 441.727365,38.199887 441.161492,39.7408579 C440.595618,41.2818288 439.121213,42.2999251 437.479712,42.2831751 C435.838212,42.2664251 434.384889,41.218454 433.850578,39.6662567 C433.316268,38.1140595 433.816611,36.3935805 435.1,35.37 L435.1,33.69 L425.02,33.69 L425.02,43.78 L423.34,43.78 C422.313186,42.485278 420.579009,41.9829693 419.019173,42.5284613 C417.459336,43.0739533 416.416151,44.5475361 416.42,46.2 C416.423518,47.8366988 417.451141,49.2961301 418.990866,49.8511471 C420.53059,50.4061641 422.253031,49.9380348 423.3,48.68 L425.02,48.68 L425.02,58.68 L414.93,58.68 L414.93,60.38 C416.223274,61.4056749 416.726049,63.1372992 416.183173,64.6960976 C415.640296,66.2548961 414.170626,67.2995853 412.52,67.3 C410.883301,67.2964817 409.42387,66.2688589 408.868853,64.7291344 C408.313836,63.1894099 408.781965,61.4669688 410.04,60.42 L410.04,58.68 L400.02,58.68 L400.02,48.68 L401.75,48.68 C402.793613,49.9419432 404.517155,50.4128134 406.057436,49.8567878 C407.597716,49.3007622 408.62308,47.8375651 408.62,46.2 C408.61177,44.5537599 407.568143,43.0909507 406.014166,42.547508 C404.460189,42.0040652 402.732382,42.4976736 401.7,43.78 L400.02,43.78 L400.02,33.69 L390,33.69 L390,35.42 C391.261943,36.4636131 391.732813,38.1871551 391.176788,39.7274358 C390.620762,41.2677164 389.157565,42.2930798 387.52,42.29 C385.867536,42.2938494 384.393953,41.2506637 383.848461,39.6908271 C383.302969,38.1309905 383.805278,36.3968139 385.1,35.37 L385.1,33.69 L375.02,33.69 L375.02,33.72 L375,33.72 L375,23.72 L376.72,23.72 C377.769556,24.9822345 379.499887,25.4473655 381.040858,24.8814919 C382.581829,24.3156183 383.599925,22.8412129 383.583175,21.1997125 C383.566425,19.5582121 382.518454,18.1048891 380.966257,17.5705784 C379.414059,17.0362677 377.693581,17.5366111 376.67,18.82 L375,18.82 L375,8.74 L364.97,8.74 L364.97,10.46 C366.252624,11.4962578 366.737776,13.2314174 366.178614,14.78264 C365.619453,16.3338626 364.138799,17.3604176 362.49,17.34 C360.840374,17.3327955 359.374679,16.2858886 358.832825,14.7277767 C358.29097,13.1696648 358.790804,11.4392192 360.08,10.41 L360.08,8.74 L339.9,8.74 L339.9,7.07 C341.203183,6.04531963 341.711385,4.30587189 341.164842,2.74076956 C340.618298,1.17566722 339.13776,0.130700274 337.48,0.14 C335.843301,0.143518348 334.38387,1.17114109 333.828853,2.71086558 C333.273836,4.25059006 333.741965,5.97303117 335,7.02 L335,8.74 L314.97,8.74 L314.97,10.46 C316.232234,11.5095563 316.697365,13.239887 316.131492,14.7808579 C315.565618,16.3218288 314.091213,17.3399251 312.449712,17.3231751 C310.808212,17.3064251 309.354889,16.258454 308.820578,14.7062567 C308.286268,13.1540595 308.786611,11.4335805 310.07,10.41 L310.07,8.74 L300,8.74 L300,18.83 L298.33,18.83 C297.306419,17.5466111 295.585941,17.0462677 294.033743,17.5805784 C292.481546,18.1148891 291.433575,19.5682121 291.416825,21.2097125 C291.400075,22.8512129 292.418171,24.3256183 293.959142,24.8914919 C295.500113,25.4573655 297.230444,24.9922345 298.28,23.73 L300,23.73 L300,33.73 L289.92,33.73 L289.92,35.43 C291.206354,36.4588821 291.702851,38.1878408 291.158394,39.7424694 C290.613937,41.2970979 289.14721,42.338502 287.5,42.34 C285.868347,42.3314947 284.415405,41.3056148 283.861381,39.7708772 C283.307356,38.2361395 283.770006,36.5187504 285.02,35.47 L285.02,33.73 L265.01,33.73 L265.01,32 C266.272234,30.9504437 266.737365,29.220113 266.171492,27.6791421 C265.605618,26.1381712 264.131213,25.1200749 262.489712,25.1368249 C260.848212,25.1535749 259.394889,26.201546 258.860578,27.7537433 C258.326268,29.3059405 258.826611,31.0264195 260.11,32.05 L260.11,33.72 L250.03,33.72 L250.03,43.75 L251.75,43.75 C252.791722,42.479849 254.520415,42.0033562 256.065783,42.5604076 C257.611152,43.1174589 258.638252,44.5873189 258.63,46.23 C258.62177,47.8762401 257.578143,49.3390493 256.024166,49.882492 C254.470189,50.4259348 252.742382,49.9323264 251.71,48.65 L250.03,48.65 L250.03,58.64 L239.91,58.64 L239.91,56.97 C241.211702,55.9464462 241.720348,54.2095743 241.176429,52.6455274 C240.632511,51.0814805 239.155918,50.0350021 237.5,50.04 C235.863301,50.0435183 234.40387,51.0711411 233.848853,52.6108656 C233.293836,54.1505901 233.761965,55.8730312 235.02,56.92 L235.02,58.64 L225.04,58.64 L225.04,48.62 L223.34,48.62 C222.313186,49.914722 220.579009,50.4170307 219.019173,49.8715387 C217.459336,49.3260467 216.416151,47.8524639 216.42,46.2 C216.423518,44.5633012 217.451141,43.1038699 218.990866,42.5488529 C220.53059,41.9938359 222.253031,42.4619652 223.3,43.72 L225.04,43.72 L225.04,33.72 L215,33.72 L215,32 C216.262234,30.9504437 216.727365,29.220113 216.161492,27.6791421 C215.595618,26.1381712 214.121213,25.1200749 212.479712,25.1368249 C210.838212,25.1535749 209.384889,26.201546 208.850578,27.7537433 C208.316268,29.3059405 208.816611,31.0264195 210.1,32.05 L210.1,33.72 L189.93,33.72 L189.93,35.42 C191.237494,36.4410084 191.748822,38.1817814 191.201202,39.7477035 C190.653582,41.3136255 189.168835,42.3563494 187.51,42.34 C185.878347,42.3314947 184.425405,41.3056148 183.871381,39.7708772 C183.317356,38.2361395 183.780006,36.5187504 185.03,35.47 L185.03,33.73 L165.01,33.73 L165.01,32 C166.272234,30.9504437 166.737365,29.220113 166.171492,27.6791421 C165.605618,26.1381712 164.131213,25.1200749 162.489712,25.1368249 C160.848212,25.1535749 159.394889,26.201546 158.860578,27.7537433 C158.326268,29.3059405 158.826611,31.0264195 160.11,32.05 L160.11,33.73 L150.03,33.73 L150.03,43.75 L151.75,43.75 C152.796966,42.4856021 154.526352,42.0169176 156.068489,42.5796375 C157.610626,43.1423573 158.631742,44.6146893 158.618342,46.2562314 C158.604941,47.8977734 157.559924,49.3532391 156.008806,49.8907078 C154.457688,50.4281766 152.736185,49.9313216 151.71,48.65 L150.03,48.65 L150.03,58.65 L139.91,58.65 L139.91,56.97 C141.211702,55.9464462 141.720348,54.2095743 141.176429,52.6455274 C140.632511,51.0814805 139.155918,50.0350021 137.5,50.04 C135.863301,50.0435183 134.40387,51.0711411 133.848853,52.6108656 C133.293836,54.1505901 133.761965,55.8730312 135.02,56.92 L135.02,58.64 L125.04,58.64 L125.04,48.62 L123.34,48.62 C122.313186,49.914722 120.579009,50.4170307 119.019173,49.8715387 C117.459336,49.3260467 116.416151,47.8524639 116.42,46.2 C116.423518,44.5633012 117.451141,43.1038699 118.990866,42.5488529 C120.53059,41.9938359 122.253031,42.4619652 123.3,43.72 L125.04,43.72 L125.04,33.72 L115,33.72 L115,32 C116.262234,30.9504437 116.727365,29.220113 116.161492,27.6791421 C115.595618,26.1381712 114.121213,25.1200749 112.479712,25.1368249 C110.838212,25.1535749 109.384889,26.201546 108.850578,27.7537433 C108.316268,29.3059405 108.816611,31.0264195 110.1,32.05 L110.1,33.73 L89.93,33.73 L89.93,35.43 C91.2113216,36.4561846 91.7081766,38.1776884 91.1707078,39.7288064 C90.6332391,41.2799245 89.1777734,42.3249412 87.5362314,42.3383416 C85.8946893,42.3517419 84.4223573,41.3306256 83.8596375,39.7884886 C83.2969176,38.2463517 83.7656021,36.516966 85.03,35.47 L85.03,33.73 L75.01,33.73 L75.01,23.73 L76.73,23.73 C77.7795563,24.9922345 79.509887,25.4573655 81.0508579,24.8914919 C82.5918288,24.3256183 83.6099251,22.8512129 83.5931751,21.2097125 C83.5764251,19.5682121 82.528454,18.1148891 80.9762567,17.5805784 C79.4240595,17.0462677 77.7035805,17.5466111 76.68,18.83 L75.01,18.83 L75.01,8.74 L64.98,8.74 L64.98,10.46 C66.2443979,11.506966 66.7130824,13.2363517 66.1503625,14.7784886 C65.5876427,16.3206256 64.1153107,17.3417419 62.4737686,17.3283416 C60.8322266,17.3149412 59.3767609,16.2699245 58.8392922,14.7188064 C58.3018234,13.1676884 58.7986784,11.4461846 60.08,10.42 L60.08,8.74 L50,8.74 L50,18.83 L48.33,18.83 C47.3064195,17.5466111 45.5859405,17.0462677 44.0337433,17.5805784 C42.481546,18.1148891 41.4335749,19.5682121 41.4168249,21.2097125 C41.4000749,22.8512129 42.4181712,24.3256183 43.9591421,24.8914919 C45.500113,25.4573655 47.2304437,24.9922345 48.28,23.73 L50,23.73 L50,33.73 L39.92,33.73 L39.92,35.43 C41.214722,36.4568139 41.7170307,38.1909905 41.1715387,39.7508271 C40.6260467,41.3106637 39.1524639,42.3538494 37.5,42.35 C35.8633012,42.3464817 34.4038699,41.3188589 33.8488529,39.7791344 C33.2938359,38.2394099 33.7619652,36.5169688 35.02,35.47 L35.02,33.73 L25.01,33.73 L25.01,23.73 L26.73,23.73 C27.7795563,24.9922345 29.509887,25.4573655 31.0508579,24.8914919 C32.5918288,24.3256183 33.6099251,22.8512129 33.5931751,21.2097125 C33.5764251,19.5682121 32.528454,18.1148891 30.9762567,17.5805784 C29.4240595,17.0462677 27.7035805,17.5466111 26.68,18.83 L25.01,18.83 L25.01,8.74 L14.98,8.74 L14.98,10.46 C16.250151,11.5017225 16.7266438,13.230415 16.1695924,14.7757833 C15.6125411,16.3211516 14.1426811,17.3482519 12.5,17.34 C10.8555883,17.3275839 9.39662732,16.2824712 8.85577949,14.7294973 C8.31493166,13.1765235 8.80905092,11.4512195 10.09,10.42 L10.09,8.74 L0,8.74 L0,83.64 Z" id="2zlya"></path>
                </g>
            </g>
            <g id="Group">
                <g id="2zlyb-link">
                    <path d="M1500.97,37.36 L1500.94,37.36 L1500.94,0 L0.97,0 L0.99,112.4 L11.02,112.4 L11.02,114.13 C9.75776554,115.179556 9.29263451,116.909887 9.85850812,118.450858 C10.4243817,119.991829 11.8987871,121.009925 13.5402875,120.993175 C15.1817879,120.976425 16.6351109,119.928454 17.1694216,118.376257 C17.7037323,116.824059 17.2033889,115.103581 15.92,114.08 L15.92,112.41 L36.1,112.41 L36.1,110.71 C34.805278,109.683186 34.3029693,107.949009 34.8484613,106.389173 C35.3939533,104.829336 36.8675361,103.786151 38.52,103.79 C40.1516527,103.798505 41.6045948,104.824385 42.1586194,106.359123 C42.7126441,107.89386 42.2499942,109.61125 41,110.66 L41,112.4 L51,112.4 L51,102.38 L52.72,102.38 C53.7695563,103.642234 55.499887,104.107365 57.0408579,103.541492 C58.5818288,102.975618 59.5999251,101.501213 59.5831751,99.8597125 C59.5664251,98.2182121 58.518454,96.7648891 56.9662567,96.2305784 C55.4140595,95.6962677 53.6935805,96.1966111 52.67,97.48 L51,97.48 L51,87.4 L50.95,87.38 L60.97,87.38 L60.97,85.66 C59.7077655,84.6104437 59.2426345,82.880113 59.8085081,81.3391421 C60.3743817,79.7981712 61.8487871,78.7800749 63.4902875,78.7968249 C65.1317879,78.8135749 66.5851109,79.861546 67.1194216,81.4137433 C67.6537323,82.9659405 67.1533889,84.6864195 65.87,85.71 L65.87,87.38 L75.96,87.38 L75.96,77.3 L77.63,77.3 C78.6568139,78.594722 80.3909905,79.0970307 81.9508271,78.5515387 C83.5106637,78.0060467 84.5538494,76.5324639 84.55,74.88 C84.5414947,73.2483473 83.5156148,71.7954052 81.9808772,71.2413806 C80.4461395,70.6873559 78.7287504,71.1500058 77.68,72.4 L75.96,72.4 L75.96,62.4 L86.04,62.4 L86.04,60.7 C84.7586784,59.6738154 84.2618234,57.9523116 84.7992922,56.4011936 C85.3367609,54.8500755 86.7922266,53.8050588 88.4337686,53.7916584 C90.0753107,53.7782581 91.5476427,54.7993744 92.1103625,56.3415114 C92.6730824,57.8836483 92.2043979,59.613034 90.94,60.66 L90.94,62.4 L110.94,62.4 L110.94,64.12 C109.677766,65.1695563 109.212635,66.899887 109.778508,68.4408579 C110.344382,69.9818288 111.818787,70.9999251 113.460288,70.9831751 C115.101788,70.9664251 116.555111,69.918454 117.089422,68.3662567 C117.623732,66.8140595 117.123389,65.0935805 115.84,64.07 L115.84,62.4 L125.93,62.4 L125.93,52.37 L124.2,52.37 C123.150444,53.6322345 121.420113,54.0973655 119.879142,53.5314919 C118.338171,52.9656183 117.320075,51.4912129 117.336825,49.8497125 C117.353575,48.2082121 118.401546,46.7548891 119.953743,46.2205784 C121.505941,45.6862677 123.226419,46.1866111 124.25,47.47 L125.93,47.47 L125.93,37.48 L136.04,37.48 L136.04,39.16 C134.745278,40.1868139 134.242969,41.9209905 134.788461,43.4808271 C135.333953,45.0406637 136.807536,46.0838494 138.46,46.08 C140.096699,46.0764817 141.55613,45.0488589 142.111147,43.5091344 C142.666164,41.9694099 142.198035,40.2469688 140.94,39.2 L140.94,37.48 L150.92,37.48 L150.92,47.5 L152.62,47.5 C153.646814,46.205278 155.380991,45.7029693 156.940827,46.2484613 C158.500664,46.7939533 159.543849,48.2675361 159.54,49.92 C159.536482,51.5566988 158.508859,53.0161301 156.969134,53.5711471 C155.42941,54.1261641 153.706969,53.6580348 152.66,52.4 L150.92,52.4 L150.92,62.4 L160.94,62.4 L160.94,64.12 C159.677766,65.1695563 159.212635,66.899887 159.778508,68.4408579 C160.344382,69.9818288 161.818787,70.9999251 163.460288,70.9831751 C165.101788,70.9664251 166.555111,69.918454 167.089422,68.3662567 C167.623732,66.8140595 167.123389,65.0935805 165.84,64.07 L165.84,62.4 L186.04,62.4 L186.04,60.7 C184.732506,59.6789916 184.221178,57.9382186 184.768798,56.3722965 C185.316418,54.8063745 186.801165,53.7636506 188.46,53.78 C190.096699,53.7835183 191.55613,54.8111411 192.111147,56.3508656 C192.666164,57.8905901 192.198035,59.6130312 190.94,60.66 L190.94,62.4 L210.94,62.4 L210.94,64.12 C209.677766,65.1695563 209.212635,66.899887 209.778508,68.4408579 C210.344382,69.9818288 211.818787,70.9999251 213.460288,70.9831751 C215.101788,70.9664251 216.555111,69.918454 217.089422,68.3662567 C217.623732,66.8140595 217.123389,65.0935805 215.84,64.07 L215.84,62.4 L225.93,62.4 L225.93,52.37 L224.2,52.37 C223.150444,53.6322345 221.420113,54.0973655 219.879142,53.5314919 C218.338171,52.9656183 217.320075,51.4912129 217.336825,49.8497125 C217.353575,48.2082121 218.401546,46.7548891 219.953743,46.2205784 C221.505941,45.6862677 223.226419,46.1866111 224.25,47.47 L225.93,47.47 L225.93,37.48 L236.04,37.48 L236.04,39.16 C234.758678,40.1861846 234.261823,41.9076884 234.799292,43.4588064 C235.336761,45.0099245 236.792227,46.0549412 238.433769,46.0683416 C240.075311,46.0817419 241.547643,45.0606256 242.110363,43.5184886 C242.673082,41.9763517 242.204398,40.246966 240.94,39.2 L240.94,37.48 L250.92,37.48 L250.92,47.5 L252.62,47.5 C253.646185,46.2186784 255.367688,45.7218234 256.918806,46.2592922 C258.469924,46.7967609 259.514941,48.2522266 259.528342,49.8937686 C259.541742,51.5353107 258.520626,53.0076427 256.978489,53.5703625 C255.436352,54.1330824 253.706966,53.6643979 252.66,52.4 L250.92,52.4 L250.92,62.4 L260.94,62.4 L260.94,64.12 C259.677766,65.1695563 259.212635,66.899887 259.778508,68.4408579 C260.344382,69.9818288 261.818787,70.9999251 263.460288,70.9831751 C265.101788,70.9664251 266.555111,69.918454 267.089422,68.3662567 C267.623732,66.8140595 267.123389,65.0935805 265.84,64.07 L265.84,62.4 L286.04,62.4 L286.04,60.7 C284.756611,59.6764195 284.256268,57.9559405 284.790578,56.4037433 C285.324889,54.851546 286.778212,53.8035749 288.419712,53.7868249 C290.061213,53.7700749 291.535618,54.7881712 292.101492,56.3291421 C292.667365,57.870113 292.202234,59.6004437 290.94,60.65 L290.94,62.4 L300.96,62.4 L300.96,72.4 L299.24,72.4 C298.190444,71.1377655 296.460113,70.6726345 294.919142,71.2385081 C293.378171,71.8043817 292.360075,73.2787871 292.376825,74.9202875 C292.393575,76.5617879 293.441546,78.0151109 294.993743,78.5494216 C296.545941,79.0837323 298.266419,78.5833889 299.29,77.3 L300.96,77.3 L300.96,87.38 L310.98,87.38 L310.98,85.66 C309.717766,84.6104437 309.252635,82.880113 309.818508,81.3391421 C310.384382,79.7981712 311.858787,78.7800749 313.500288,78.7968249 C315.141788,78.8135749 316.595111,79.861546 317.129422,81.4137433 C317.663732,82.9659405 317.163389,84.6864195 315.88,85.71 L315.88,87.38 L325.97,87.38 L325.97,77.3 L327.64,77.3 C328.66468,78.6031828 330.404128,79.1113854 331.96923,78.5648417 C333.534333,78.018298 334.5793,76.5377602 334.57,74.88 C334.566482,73.2433012 333.538859,71.7838699 331.999134,71.2288529 C330.45941,70.6738359 328.736969,71.1419652 327.69,72.4 L325.97,72.4 L325.97,62.4 L336.05,62.4 L336.05,60.7 C334.755278,59.6731861 334.252969,57.9390095 334.798461,56.3791729 C335.343953,54.8193363 336.817536,53.7761506 338.47,53.78 C340.101653,53.7885053 341.554595,54.8143852 342.108619,56.3491228 C342.662644,57.8838605 342.199994,59.6012496 340.95,60.65 L340.95,62.4 L350.96,62.4 L350.96,72.4 L349.24,72.4 C348.190444,71.1377655 346.460113,70.6726345 344.919142,71.2385081 C343.378171,71.8043817 342.360075,73.2787871 342.376825,74.9202875 C342.393575,76.5617879 343.441546,78.0151109 344.993743,78.5494216 C346.545941,79.0837323 348.266419,78.5833889 349.29,77.3 L350.96,77.3 L350.96,87.38 L360.99,87.38 L360.99,85.66 C359.708898,84.6248741 359.223314,82.892316 359.779839,81.3421587 C360.336363,79.7920014 361.813049,78.7639209 363.46,78.78 C365.11776,78.7707003 366.598298,79.8156672 367.144842,81.3807696 C367.691385,82.9458719 367.183183,84.6853196 365.88,85.71 L365.88,87.38 L375.97,87.38 L375.97,87.35 L375.99,87.35 L375.99,97.35 L374.26,97.35 C373.210444,96.0877655 371.480113,95.6226345 369.939142,96.1885081 C368.398171,96.7543817 367.380075,98.2287871 367.396825,99.8702875 C367.413575,101.511788 368.461546,102.965111 370.013743,103.499422 C371.565941,104.033732 373.286419,103.533389 374.31,102.25 L376,102.25 L376,112.34 L386,112.34 L386,110.61 C384.738057,109.566387 384.267187,107.842845 384.823212,106.302564 C385.379238,104.762284 386.842435,103.73692 388.48,103.74 C390.12624,103.74823 391.589049,104.791857 392.132492,106.345834 C392.675935,107.899811 392.182326,109.627618 390.9,110.66 L390.9,112.34 L411.07,112.34 L411.07,114 C409.775278,115.026814 409.272969,116.760991 409.818461,118.320827 C410.363953,119.880664 411.837536,120.923849 413.49,120.92 C415.121653,120.911495 416.574595,119.885615 417.128619,118.350877 C417.682644,116.81614 417.219994,115.09875 415.97,114.05 L415.97,112.32 L436,112.32 L436,110.6 C434.737766,109.550444 434.272635,107.820113 434.838508,106.279142 C435.404382,104.738171 436.878787,103.720075 438.520288,103.736825 C440.161788,103.753575 441.615111,104.801546 442.149422,106.353743 C442.683732,107.905941 442.183389,109.626419 440.9,110.65 L440.9,112.33 L450.98,112.33 L450.98,102.24 L452.66,102.24 C453.686185,103.521322 455.407688,104.018177 456.958806,103.480708 C458.509924,102.943239 459.554941,101.487773 459.568342,99.8462314 C459.581742,98.2046893 458.560626,96.7323573 457.018489,96.1696375 C455.476352,95.6069176 453.746966,96.0756021 452.7,97.34 L450.98,97.34 L450.98,87.34 L461.07,87.34 L461.07,85.64 C459.776726,84.6143251 459.273951,82.8827008 459.816827,81.3239024 C460.359704,79.7651039 461.829374,78.7204147 463.48,78.72 C465.116699,78.7235183 466.57613,79.7511411 467.131147,81.2908656 C467.686164,82.8305901 467.218035,84.5530312 465.96,85.6 L465.96,87.34 L485.97,87.34 L485.97,89.06 C484.705602,90.106966 484.236918,91.8363517 484.799637,93.3784886 C485.362357,94.9206256 486.834689,95.9417419 488.476231,95.9283416 C490.117773,95.9149412 491.573239,94.8699245 492.110708,93.3188064 C492.648177,91.7676884 492.151322,90.0461846 490.87,89.02 L490.87,87.34 L500.95,87.34 L500.95,77.32 L499.23,77.32 C498.188278,78.590151 496.459585,79.0666438 494.914217,78.5095924 C493.368848,77.9525411 492.341748,76.4826811 492.35,74.84 C492.352983,73.1885414 493.398396,71.7189688 494.957527,71.1745104 C496.516658,70.6300519 498.249629,71.1293952 499.28,72.42 L500.95,72.42 L500.95,62.42 L511.07,62.42 L511.07,64.1 C509.775278,65.1268139 509.272969,66.8609905 509.818461,68.4208271 C510.363953,69.9806637 511.837536,71.0238494 513.49,71.02 C515.121653,71.0114947 516.574595,69.9856148 517.128619,68.4508772 C517.682644,66.9161395 517.219994,65.1987504 515.97,64.15 L515.97,62.42 L525.94,62.42 L525.94,72.45 L527.64,72.45 C528.665675,71.1567257 530.397299,70.6539512 531.956098,71.1968275 C533.514896,71.7397038 534.559585,73.2093737 534.56,74.86 C534.551495,76.4916527 533.525615,77.9445948 531.990877,78.4986194 C530.45614,79.0526441 528.73875,78.5899942 527.69,77.34 L525.95,77.34 L525.95,87.34 L535.97,87.34 L535.97,89.06 C534.705602,90.106966 534.236918,91.8363517 534.799637,93.3784886 C535.362357,94.9206256 536.834689,95.9417419 538.476231,95.9283416 C540.117773,95.9149412 541.573239,94.8699245 542.110708,93.3188064 C542.648177,91.7676884 542.151322,90.0461846 540.87,89.02 L540.87,87.34 L561.07,87.34 L561.07,85.64 C559.764028,84.6201043 559.252284,82.8819359 559.797266,81.3170899 C560.342249,79.7522438 561.823013,78.7079983 563.48,78.72 C565.116699,78.7235183 566.57613,79.7511411 567.131147,81.2908656 C567.686164,82.8305901 567.218035,84.5530312 565.96,85.6 L565.96,87.34 L585.97,87.34 L585.97,89.06 C584.705602,90.106966 584.236918,91.8363517 584.799637,93.3784886 C585.362357,94.9206256 586.834689,95.9417419 588.476231,95.9283416 C590.117773,95.9149412 591.573239,94.8699245 592.110708,93.3188064 C592.648177,91.7676884 592.151322,90.0461846 590.87,89.02 L590.87,87.34 L600.95,87.34 L600.95,77.32 L599.23,77.32 C598.180444,78.5822345 596.450113,79.0473655 594.909142,78.4814919 C593.368171,77.9156183 592.350075,76.4412129 592.366825,74.7997125 C592.383575,73.1582121 593.431546,71.7048891 594.983743,71.1705784 C596.535941,70.6362677 598.256419,71.1366111 599.28,72.42 L600.95,72.42 L600.95,62.42 L611.07,62.42 L611.07,64.1 C609.775278,65.1268139 609.272969,66.8609905 609.818461,68.4208271 C610.363953,69.9806637 611.837536,71.0238494 613.49,71.02 C615.121653,71.0114947 616.574595,69.9856148 617.128619,68.4508772 C617.682644,66.9161395 617.219994,65.1987504 615.97,64.15 L615.97,62.42 L625.95,62.42 L625.95,72.45 L627.65,72.45 C628.677731,71.1650616 630.40416,70.6680763 631.957768,71.2099277 C633.511375,71.7517791 634.554275,73.214623 634.56,74.86 C634.551495,76.4916527 633.525615,77.9445948 631.990877,78.4986194 C630.45614,79.0526441 628.73875,78.5899942 627.69,77.34 L625.95,77.34 L625.95,87.34 L635.97,87.34 L635.97,89.06 C634.705602,90.106966 634.236918,91.8363517 634.799637,93.3784886 C635.362357,94.9206256 636.834689,95.9417419 638.476231,95.9283416 C640.117773,95.9149412 641.573239,94.8699245 642.110708,93.3188064 C642.648177,91.7676884 642.151322,90.0461846 640.87,89.02 L640.87,87.34 L661.07,87.34 L661.07,85.64 C659.788678,84.6138154 659.291823,82.8923116 659.829292,81.3411936 C660.366761,79.7900755 661.822227,78.7450588 663.463769,78.7316584 C665.105311,78.7182581 666.577643,79.7393744 667.140363,81.2815114 C667.703082,82.8236483 667.234398,84.553034 665.97,85.6 L665.97,87.34 L675.98,87.34 L675.98,97.34 L674.25,97.34 C673.200444,96.0777655 671.470113,95.6126345 669.929142,96.1785081 C668.388171,96.7443817 667.370075,98.2187871 667.386825,99.8602875 C667.403575,101.501788 668.451546,102.955111 670.003743,103.489422 C671.555941,104.023732 673.276419,103.523389 674.3,102.24 L675.98,102.24 L675.98,112.32 L686,112.32 L686,110.6 C684.737766,109.550444 684.272635,107.820113 684.838508,106.279142 C685.404382,104.738171 686.878787,103.720075 688.520288,103.736825 C690.161788,103.753575 691.615111,104.801546 692.149422,106.353743 C692.683732,107.905941 692.183389,109.626419 690.9,110.65 L690.9,112.32 L700.98,112.32 L700.98,102.24 L702.66,102.24 C703.686185,103.521322 705.407688,104.018177 706.958806,103.480708 C708.509924,102.943239 709.554941,101.487773 709.568342,99.8462314 C709.581742,98.2046893 708.560626,96.7323573 707.018489,96.1696375 C705.476352,95.6069176 703.746966,96.0756021 702.7,97.34 L700.98,97.34 L700.98,87.34 L711.07,87.34 L711.07,85.64 C709.776726,84.6143251 709.273951,82.8827008 709.816827,81.3239024 C710.359704,79.7651039 711.829374,78.7204147 713.48,78.72 C715.116699,78.7235183 716.57613,79.7511411 717.131147,81.2908656 C717.686164,82.8305901 717.218035,84.5530312 715.96,85.6 L715.96,87.34 L725.98,87.34 L725.98,97.34 L724.25,97.34 C723.200444,96.0777655 721.470113,95.6126345 719.929142,96.1785081 C718.388171,96.7443817 717.370075,98.2187871 717.386825,99.8602875 C717.403575,101.501788 718.451546,102.955111 720.003743,103.489422 C721.555941,104.023732 723.276419,103.523389 724.3,102.24 L725.98,102.24 L725.98,112.32 L736,112.32 L736,110.6 C734.738057,109.556387 734.267187,107.832845 734.823212,106.292564 C735.379238,104.752284 736.842435,103.72692 738.48,103.73 C740.12624,103.73823 741.589049,104.781857 742.132492,106.335834 C742.675935,107.889811 742.182326,109.617618 740.9,110.65 L740.9,112.32 L761,112.32 L761,114.05 C759.737766,115.099556 759.272635,116.829887 759.838508,118.370858 C760.404382,119.911829 761.878787,120.929925 763.520288,120.913175 C765.161788,120.896425 766.615111,119.848454 767.149422,118.296257 C767.683732,116.744059 767.183389,115.023581 765.9,114 L765.9,112.32 L786.1,112.32 L786.1,110.62 C784.805278,109.593186 784.302969,107.859009 784.848461,106.299173 C785.393953,104.739336 786.867536,103.696151 788.52,103.7 C790.156699,103.703518 791.61613,104.731141 792.171147,106.270866 C792.726164,107.81059 792.258035,109.533031 791,110.58 L791,112.32 L801,112.32 L801,102.3 L802.72,102.3 C803.769556,103.562234 805.499887,104.027365 807.040858,103.461492 C808.581829,102.895618 809.599925,101.421213 809.583175,99.7797125 C809.566425,98.1382121 808.518454,96.6848891 806.966257,96.1505784 C805.414059,95.6162677 803.693581,96.1166111 802.67,97.4 L801,97.4 L801,87.32 L800.95,87.3 L810.97,87.3 L810.97,85.58 C809.707766,84.5304437 809.242635,82.800113 809.808508,81.2591421 C810.374382,79.7181712 811.848787,78.7000749 813.490288,78.7168249 C815.131788,78.7335749 816.585111,79.781546 817.119422,81.3337433 C817.653732,82.8859405 817.153389,84.6064195 815.87,85.63 L815.87,87.3 L825.95,87.3 L825.95,77.22 L827.63,77.22 C828.656814,78.514722 830.390991,79.0170307 831.950827,78.4715387 C833.510664,77.9260467 834.553849,76.4524639 834.55,74.8 C834.546482,73.1633012 833.518859,71.7038699 831.979134,71.1488529 C830.43941,70.5938359 828.716969,71.0619652 827.67,72.32 L825.95,72.32 L825.95,62.32 L836.04,62.32 L836.04,60.62 C834.746726,59.5943251 834.243951,57.8627008 834.786827,56.3039024 C835.329704,54.7451039 836.799374,53.7004147 838.45,53.7 C840.081653,53.7085053 841.534595,54.7343852 842.088619,56.2691228 C842.642644,57.8038605 842.179994,59.5212496 840.93,60.57 L840.93,62.32 L860.94,62.32 L860.94,64.04 C859.677766,65.0895563 859.212635,66.819887 859.778508,68.3608579 C860.344382,69.9018288 861.818787,70.9199251 863.460288,70.9031751 C865.101788,70.8864251 866.555111,69.838454 867.089422,68.2862567 C867.623732,66.7340595 867.123389,65.0135805 865.84,63.99 L865.84,62.32 L875.92,62.32 L875.92,52.3 L874.2,52.3 C873.150444,53.5622345 871.420113,54.0273655 869.879142,53.4614919 C868.338171,52.8956183 867.320075,51.4212129 867.336825,49.7797125 C867.353575,48.1382121 868.401546,46.6848891 869.953743,46.1505784 C871.505941,45.6162677 873.226419,46.1166111 874.25,47.4 L875.92,47.4 L875.92,37.41 L886.04,37.41 L886.04,39.08 C884.736817,40.1046804 884.228615,41.8441281 884.775158,43.4092304 C885.321702,44.9743328 886.80224,46.0192997 888.46,46.01 C890.096699,46.0064817 891.55613,44.9788589 892.111147,43.4391344 C892.666164,41.8994099 892.198035,40.1769688 890.94,39.13 L890.94,37.41 L900.91,37.41 L900.91,47.43 L902.61,47.43 C903.636814,46.135278 905.370991,45.6329693 906.930827,46.1784613 C908.490664,46.7239533 909.533849,48.1975361 909.53,49.85 C909.521495,51.4816527 908.495615,52.9345948 906.960877,53.4886194 C905.42614,54.0426441 903.70875,53.5799942 902.66,52.33 L900.91,52.33 L900.91,62.33 L910.94,62.33 L910.94,64.05 C909.677766,65.0995563 909.212635,66.829887 909.778508,68.3708579 C910.344382,69.9118288 911.818787,70.9299251 913.460288,70.9131751 C915.101788,70.8964251 916.555111,69.848454 917.089422,68.2962567 C917.623732,66.7440595 917.123389,65.0235805 915.84,64 L915.84,62.33 L936.04,62.33 L936.04,60.63 C934.734028,59.6101043 934.222284,57.8719359 934.767266,56.3070899 C935.312249,54.7422438 936.793013,53.6979983 938.45,53.71 C940.081653,53.7185053 941.534595,54.7443852 942.088619,56.2791228 C942.642644,57.8138605 942.179994,59.5312496 940.93,60.58 L940.93,62.32 L960.94,62.32 L960.94,64.05 C959.677766,65.0995563 959.212635,66.829887 959.778508,68.3708579 C960.344382,69.9118288 961.818787,70.9299251 963.460288,70.9131751 C965.101788,70.8964251 966.555111,69.848454 967.089422,68.2962567 C967.623732,66.7440595 967.123389,65.0235805 965.84,64 L965.84,62.33 L975.92,62.33 L975.92,52.3 L974.2,52.3 C973.150444,53.5622345 971.420113,54.0273655 969.879142,53.4614919 C968.338171,52.8956183 967.320075,51.4212129 967.336825,49.7797125 C967.353575,48.1382121 968.401546,46.6848891 969.953743,46.1505784 C971.505941,45.6162677 973.226419,46.1166111 974.25,47.4 L975.92,47.4 L975.92,37.41 L986.04,37.41 L986.04,39.08 C984.756611,40.1035805 984.256268,41.8240595 984.790578,43.3762567 C985.324889,44.928454 986.778212,45.9764251 988.419712,45.9931751 C990.061213,46.0099251 991.535618,44.9918288 992.101492,43.4508579 C992.667365,41.909887 992.202234,40.1795563 990.94,39.13 L990.94,37.41 L1000.92,37.41 L1000.92,47.43 L1002.61,47.43 C1003.63681,46.135278 1005.37099,45.6329693 1006.93083,46.1784613 C1008.49066,46.7239533 1009.53385,48.1975361 1009.53,49.85 C1009.52149,51.4816527 1008.49561,52.9345948 1006.96088,53.4886194 C1005.42614,54.0426441 1003.70875,53.5799942 1002.66,52.33 L1000.92,52.33 L1000.92,62.33 L1010.94,62.33 L1010.94,64.05 C1009.67806,65.0936131 1009.20719,66.8171551 1009.76321,68.3574358 C1010.31924,69.8977164 1011.78243,70.9230798 1013.42,70.92 C1015.06624,70.9117696 1016.52905,69.8681431 1017.07249,68.3141663 C1017.61593,66.7601894 1017.12233,65.0323822 1015.84,64 L1015.84,62.33 L1036.03,62.33 L1036.03,60.63 C1034.74661,59.6064195 1034.24627,57.8859405 1034.78058,56.3337433 C1035.31489,54.781546 1036.76821,53.7335749 1038.40971,53.7168249 C1040.05121,53.7000749 1041.52562,54.7181712 1042.09149,56.2591421 C1042.65737,57.800113 1042.19223,59.5304437 1040.93,60.58 L1040.93,62.32 L1050.95,62.32 L1050.95,72.32 L1049.22,72.32 C1048.17044,71.0577655 1046.44011,70.5926345 1044.89914,71.1585081 C1043.35817,71.7243817 1042.34007,73.1987871 1042.35682,74.8402875 C1042.37357,76.4817879 1043.42155,77.9351109 1044.97374,78.4694216 C1046.52594,79.0037323 1048.24642,78.5033889 1049.27,77.22 L1050.95,77.22 L1050.95,87.31 L1060.97,87.31 L1060.97,85.59 C1059.70777,84.5404437 1059.24263,82.810113 1059.80851,81.2691421 C1060.37438,79.7281712 1061.84879,78.7100749 1063.49029,78.7268249 C1065.13179,78.7435749 1066.58511,79.791546 1067.11942,81.3437433 C1067.65373,82.8959405 1067.15339,84.6164195 1065.87,85.64 L1065.87,87.31 L1075.95,87.31 L1075.95,77.22 L1077.63,77.22 C1078.65567,78.5132743 1080.3873,79.0160488 1081.9461,78.4731725 C1083.5049,77.9302962 1084.54959,76.4606263 1084.55,74.81 C1084.54648,73.1733012 1083.51886,71.7138699 1081.97913,71.1588529 C1080.43941,70.6038359 1078.71697,71.0719652 1077.67,72.33 L1075.95,72.33 L1075.95,62.33 L1086.03,62.33 L1086.03,60.63 C1084.73528,59.6031861 1084.23297,57.8690095 1084.77846,56.3091729 C1085.32395,54.7493363 1086.79754,53.7061506 1088.45,53.71 C1090.08165,53.7185053 1091.53459,54.7443852 1092.08862,56.2791228 C1092.64264,57.8138605 1092.17999,59.5312496 1090.93,60.58 L1090.93,62.32 L1100.95,62.32 L1100.95,72.32 L1099.22,72.32 C1098.17522,71.0566176 1096.44914,70.5862343 1094.90784,71.1448725 C1093.36653,71.7035107 1092.34268,73.1705983 1092.35,74.81 C1092.36242,76.4544117 1093.40753,77.9133727 1094.9605,78.4542205 C1096.51348,78.9950683 1098.23878,78.5009491 1099.27,77.22 L1100.95,77.22 L1100.95,87.31 L1110.97,87.31 L1110.97,85.59 C1109.69985,84.5482775 1109.22336,82.819585 1109.78041,81.2742167 C1110.33746,79.7288484 1111.80732,78.7017481 1113.45,78.71 C1115.10776,78.7007003 1116.5883,79.7456672 1117.13484,81.3107696 C1117.68139,82.8758719 1117.17318,84.6153196 1115.87,85.64 L1115.87,87.31 L1125.95,87.31 L1125.95,87.28 L1125.97,87.28 L1125.97,97.28 L1124.25,97.28 C1123.20044,96.0177655 1121.47011,95.5526345 1119.92914,96.1185081 C1118.38817,96.6843817 1117.37007,98.1587871 1117.38682,99.8002875 C1117.40357,101.441788 1118.45155,102.895111 1120.00374,103.429422 C1121.55594,103.963732 1123.27642,103.463389 1124.3,102.18 L1125.97,102.18 L1125.97,112.26 L1136,112.26 L1136,110.54 C1134.72725,109.502879 1134.24742,107.775553 1134.80289,106.230575 C1135.35837,104.685596 1136.82823,103.659253 1138.47,103.67 C1140.11624,103.67823 1141.57905,104.721857 1142.12249,106.275834 C1142.66593,107.829811 1142.17233,109.557618 1140.89,110.59 L1140.89,112.26 L1161.06,112.26 L1161.06,113.94 C1159.76528,114.966814 1159.26297,116.700991 1159.80846,118.260827 C1160.35395,119.820664 1161.82754,120.863849 1163.48,120.86 C1165.1167,120.856482 1166.57613,119.828859 1167.13115,118.289134 C1167.68616,116.74941 1167.21803,115.026969 1165.96,113.98 L1165.96,112.26 L1186,112.26 L1186,110.54 C1184.73777,109.490444 1184.27263,107.760113 1184.83851,106.219142 C1185.40438,104.678171 1186.87879,103.660075 1188.52029,103.676825 C1190.16179,103.693575 1191.61511,104.741546 1192.14942,106.293743 C1192.68373,107.845941 1192.18339,109.566419 1190.9,110.59 L1190.9,112.26 L1200.98,112.26 L1200.98,102.18 L1202.65,102.18 C1203.67358,103.463389 1205.39406,103.963732 1206.94626,103.429422 C1208.49845,102.895111 1209.54643,101.441788 1209.56318,99.8002875 C1209.57993,98.1587871 1208.56183,96.6843817 1207.02086,96.1185081 C1205.47989,95.5526345 1203.74956,96.0177655 1202.7,97.28 L1200.98,97.28 L1200.98,87.28 L1211.06,87.28 L1211.06,85.58 C1209.76528,84.5531861 1209.26297,82.8190095 1209.80846,81.2591729 C1210.35395,79.6993363 1211.82754,78.6561506 1213.48,78.66 C1215.1167,78.6635183 1216.57613,79.6911411 1217.13115,81.2308656 C1217.68616,82.7705901 1217.21803,84.4930312 1215.96,85.54 L1215.96,87.28 L1235.96,87.28 L1235.96,89 C1234.69777,90.0495563 1234.23263,91.779887 1234.79851,93.3208579 C1235.36438,94.8618288 1236.83879,95.8799251 1238.48029,95.8631751 C1240.12179,95.8464251 1241.57511,94.798454 1242.10942,93.2462567 C1242.64373,91.6940595 1242.14339,89.9735805 1240.86,88.95 L1240.86,87.28 L1250.94,87.28 L1250.94,77.25 L1249.22,77.25 C1248.17943,78.5187018 1246.45329,78.9956727 1244.90895,78.441237 C1243.36461,77.8868013 1242.33601,76.4208432 1242.34,74.78 C1242.34823,73.1337599 1243.39186,71.6709507 1244.94583,71.127508 C1246.49981,70.5840652 1248.22762,71.0776736 1249.26,72.36 L1250.94,72.36 L1250.94,62.36 L1261.05,62.36 L1261.05,64.04 C1259.75528,65.0668139 1259.25297,66.8009905 1259.79846,68.3608271 C1260.34395,69.9206637 1261.81754,70.9638494 1263.47,70.96 C1265.1067,70.9564817 1266.56613,69.9288589 1267.12115,68.3891344 C1267.67616,66.8494099 1267.20803,65.1269688 1265.95,64.08 L1265.95,62.36 L1275.93,62.36 L1275.93,72.38 L1277.63,72.38 C1278.65681,71.085278 1280.39099,70.5829693 1281.95083,71.1284613 C1283.51066,71.6739533 1284.55385,73.1475361 1284.55,74.8 C1284.54648,76.4366988 1283.51886,77.8961301 1281.97913,78.4511471 C1280.43941,79.0061641 1278.71697,78.5380348 1277.67,77.28 L1275.93,77.28 L1275.93,87.28 L1285.96,87.28 L1285.96,89 C1284.69777,90.0495563 1284.23263,91.779887 1284.79851,93.3208579 C1285.36438,94.8618288 1286.83879,95.8799251 1288.48029,95.8631751 C1290.12179,95.8464251 1291.57511,94.798454 1292.10942,93.2462567 C1292.64373,91.6940595 1292.14339,89.9735805 1290.86,88.95 L1290.86,87.28 L1311.04,87.28 L1311.04,85.58 C1309.73251,84.5589916 1309.22118,82.8182186 1309.7688,81.2522965 C1310.31642,79.6863745 1311.80117,78.6436506 1313.46,78.66 C1315.0967,78.6635183 1316.55613,79.6911411 1317.11115,81.2308656 C1317.66616,82.7705901 1317.19803,84.4930312 1315.94,85.54 L1315.94,87.28 L1335.96,87.28 L1335.96,89 C1334.69777,90.0495563 1334.23263,91.779887 1334.79851,93.3208579 C1335.36438,94.8618288 1336.83879,95.8799251 1338.48029,95.8631751 C1340.12179,95.8464251 1341.57511,94.798454 1342.10942,93.2462567 C1342.64373,91.6940595 1342.14339,89.9735805 1340.86,88.95 L1340.86,87.28 L1350.94,87.28 L1350.94,77.25 L1349.22,77.25 C1348.17303,78.5143979 1346.44365,78.9830824 1344.90151,78.4203625 C1343.35937,77.8576427 1342.33826,76.3853107 1342.35166,74.7437686 C1342.36506,73.1022266 1343.41008,71.6467609 1344.96119,71.1092922 C1346.51231,70.5718234 1348.23382,71.0686784 1349.26,72.35 L1350.94,72.35 L1350.94,62.36 L1361.05,62.36 L1361.05,64.04 C1359.75528,65.0668139 1359.25297,66.8009905 1359.79846,68.3608271 C1360.34395,69.9206637 1361.81754,70.9638494 1363.47,70.96 C1365.1067,70.9564817 1366.56613,69.9288589 1367.12115,68.3891344 C1367.67616,66.8494099 1367.20803,65.1269688 1365.95,64.08 L1365.95,62.36 L1375.93,62.36 L1375.93,72.38 L1377.63,72.38 C1378.65681,71.085278 1380.39099,70.5829693 1381.95083,71.1284613 C1383.51066,71.6739533 1384.55385,73.1475361 1384.55,74.8 C1384.54648,76.4366988 1383.51886,77.8961301 1381.97913,78.4511471 C1380.43941,79.0061641 1378.71697,78.5380348 1377.67,77.28 L1375.93,77.28 L1375.93,87.28 L1385.96,87.28 L1385.96,89 C1384.69777,90.0495563 1384.23263,91.779887 1384.79851,93.3208579 C1385.36438,94.8618288 1386.83879,95.8799251 1388.48029,95.8631751 C1390.12179,95.8464251 1391.57511,94.798454 1392.10942,93.2462567 C1392.64373,91.6940595 1392.14339,89.9735805 1390.86,88.95 L1390.86,87.28 L1411.04,87.28 L1411.04,85.58 C1409.75661,84.5564195 1409.25627,82.8359405 1409.79058,81.2837433 C1410.32489,79.731546 1411.77821,78.6835749 1413.41971,78.6668249 C1415.06121,78.6500749 1416.53562,79.6681712 1417.10149,81.2091421 C1417.66737,82.750113 1417.20223,84.4804437 1415.94,85.53 L1415.94,87.28 L1425.95,87.28 L1425.95,97.28 L1424.23,97.28 C1423.18044,96.0177655 1421.45011,95.5526345 1419.90914,96.1185081 C1418.36817,96.6843817 1417.35007,98.1587871 1417.36682,99.8002875 C1417.38357,101.441788 1418.43155,102.895111 1419.98374,103.429422 C1421.53594,103.963732 1423.25642,103.463389 1424.28,102.18 L1425.95,102.18 L1425.95,112.26 L1436,112.26 L1436,110.54 C1434.73777,109.490444 1434.27263,107.760113 1434.83851,106.219142 C1435.40438,104.678171 1436.87879,103.660075 1438.52029,103.676825 C1440.16179,103.693575 1441.61511,104.741546 1442.14942,106.293743 C1442.68373,107.845941 1442.18339,109.566419 1440.9,110.59 L1440.9,112.26 L1450.98,112.26 L1450.98,102.18 L1452.65,102.18 C1453.67358,103.463389 1455.39406,103.963732 1456.94626,103.429422 C1458.49845,102.895111 1459.54643,101.441788 1459.56318,99.8002875 C1459.57993,98.1587871 1458.56183,96.6843817 1457.02086,96.1185081 C1455.47989,95.5526345 1453.74956,96.0177655 1452.7,97.28 L1450.98,97.28 L1450.98,87.28 L1461.06,87.28 L1461.06,85.58 C1459.76528,84.5531861 1459.26297,82.8190095 1459.80846,81.2591729 C1460.35395,79.6993363 1461.82754,78.6561506 1463.48,78.66 C1465.11165,78.6685053 1466.56459,79.6943852 1467.11862,81.2291228 C1467.67264,82.7638605 1467.20999,84.4812496 1465.96,85.53 L1465.96,87.28 L1475.97,87.28 L1475.97,97.28 L1474.25,97.28 C1473.20044,96.0177655 1471.47011,95.5526345 1469.92914,96.1185081 C1468.38817,96.6843817 1467.37007,98.1587871 1467.38682,99.8002875 C1467.40357,101.441788 1468.45155,102.895111 1470.00374,103.429422 C1471.55594,103.963732 1473.27642,103.463389 1474.3,102.18 L1475.97,102.18 L1475.97,112.26 L1486,112.26 L1486,110.54 C1484.7313,109.499434 1484.25433,107.773292 1484.80876,106.228953 C1485.3632,104.684614 1486.82916,103.656006 1488.47,103.66 C1490.12146,103.662983 1491.59103,104.708396 1492.13549,106.267527 C1492.67995,107.826658 1492.1806,109.559629 1490.89,110.59 L1490.89,112.26 L1500.98,112.26 L1500.97,37.36 Z" id="2zlyb"></path>
                </g>
            </g>
        </g>
    </g>
</svg>