<svg xmlns="https://www.w3.org/2000/svg" xmlns:xlink="https://www.w3.org/1999/xlink" width="1500" height="99" viewBox="0 0 1500 99"><defs><path id="joqca" d="M0 3894.64s.02-9.34.03 0V3910H1500l-.03-90.4h-10.02v-1.72a3.88 3.88 0 1 0-4.9.04v1.68h-20.2v1.7a3.88 3.88 0 0 1-2.41 6.92 3.89 3.89 0 0 1-2.48-6.88v-1.74h-10v10.02h-1.72a3.88 3.88 0 1 0 .05 4.9h1.67v10.09l.05.01h-10.03v1.72a3.88 3.88 0 1 1-4.9-.05v-1.67H1425v10.09h-1.67a3.88 3.88 0 0 0-6.93 2.41 3.89 3.89 0 0 0 6.88 2.48h1.72v10h-10.08v1.7a3.88 3.88 0 1 1-4.9.05v-1.74H1390.01v-1.73a3.88 3.88 0 1 0-4.9.05v1.68h-10.08v10.02h1.72a3.88 3.88 0 1 1-.04 4.9h-1.68v10h-10.11v-1.68a3.88 3.88 0 0 0-2.42-6.93 3.89 3.89 0 0 0-2.48 6.88v1.72h-9.98v-10.02h-1.7a3.88 3.88 0 0 1-6.92-2.42 3.89 3.89 0 0 1 6.88-2.48h1.74v-10h-10.03v-1.72a3.88 3.88 0 1 0-4.9.05v1.68H1314.93v1.7a3.87 3.87 0 0 1-2.42 6.92 3.89 3.89 0 0 1-2.48-6.88v-1.74H1290.01v-1.73a3.88 3.88 0 1 0-4.9.05v1.68h-10.08v10.02h1.72a3.88 3.88 0 1 1-.04 4.9h-1.68v10h-10.11v-1.68a3.88 3.88 0 1 0-4.9-.05v1.72h-9.98v-10.02h-1.7a3.88 3.88 0 1 1-.04-4.9h1.74v-10h-10.03v-1.72a3.88 3.88 0 1 0-4.9.05v1.68H1214.93v1.7a3.88 3.88 0 1 1-4.9.04v-1.74h-10.01v-10h1.72a3.88 3.88 0 1 0-.05-4.9h-1.67v-10.09h-10.03v1.72a3.88 3.88 0 1 1-4.9-.04v-1.68H1175v10.09h-1.67a3.88 3.88 0 0 0-6.93 2.42 3.89 3.89 0 0 0 6.88 2.47h1.72v10h-10.08v1.7a3.88 3.88 0 0 1-2.42 6.93 3.89 3.89 0 0 1-2.48-6.88v-1.74h-10.01v-10h1.72a3.88 3.88 0 1 0-.05-4.9h-1.67v-10.09h-10.03v1.72a3.87 3.87 0 0 1-2.48 6.88 3.88 3.88 0 0 1-2.41-6.92v-1.68H1125v.03h-.02v-10h1.72a3.88 3.88 0 1 0-.04-4.9h-1.68v-10.08h-10.02v1.72a3.88 3.88 0 0 1-2.48 6.88 3.89 3.89 0 0 1-2.42-6.93v-1.67h-20.17v-1.68a3.88 3.88 0 0 0-2.42-6.92 3.89 3.89 0 0 0-2.48 6.88v1.72h-20.02v1.72a3.88 3.88 0 1 1-4.9-.05v-1.67H1050v10.08h-1.68a3.88 3.88 0 1 0-.05 4.9h1.73v10h-10.09v1.7a3.88 3.88 0 0 1-2.41 6.92 3.89 3.89 0 0 1-2.48-6.87v-1.75H1015v-1.72a3.88 3.88 0 1 0-4.9.05v1.67h-10.08v10.03h1.72a3.88 3.88 0 0 1 6.87 2.48 3.89 3.89 0 0 1-6.92 2.41h-1.67v10H989.9v-1.68a3.88 3.88 0 0 0-2.42-6.92 3.89 3.89 0 0 0-2.48 6.88v1.72h-9.98v-10.02h-1.7a3.88 3.88 0 0 1-6.92-2.42 3.89 3.89 0 0 1 6.88-2.48h1.74v-10H965v-1.72a3.88 3.88 0 1 0-4.9.05v1.67h-20.2v1.7a3.87 3.87 0 0 1-2.42 6.92 3.89 3.89 0 0 1-2.47-6.87v-1.75H915v-1.72a3.88 3.88 0 1 0-4.9.05v1.67h-10.08v10.03h1.72a3.88 3.88 0 1 1-.05 4.9h-1.67v9.99H889.9v-1.67a3.88 3.88 0 0 0-2.42-6.93 3.89 3.89 0 0 0-2.48 6.88v1.72h-9.98v-10.02h-1.7a3.88 3.88 0 0 1-6.91-2.42 3.89 3.89 0 0 1 6.87-2.48h1.74v-10H865v-1.72a3.88 3.88 0 1 0-4.9.05v1.67h-20.2v1.7a3.88 3.88 0 1 1-4.9.05v-1.75H825v-10h1.72a3.88 3.88 0 1 0-.04-4.9h-1.68v-10.08h-10.02v1.72a3.88 3.88 0 1 1-4.9-.05v-1.67H800v10.08h-1.68a3.88 3.88 0 1 0-.05 4.9H800v10H789.9v1.7a3.88 3.88 0 0 1-2.41 6.92 3.89 3.89 0 0 1-2.48-6.87v-1.74h-10.02v-10h1.72a3.88 3.88 0 1 0-.04-4.9h-1.68v-10.1h-10.02v1.73a3.88 3.88 0 0 1-2.48 6.88 3.89 3.89 0 0 1-2.42-6.93v-1.67h-20.11v-1.72a3.88 3.88 0 1 0-4.9.05v1.67H714.88v1.7a3.88 3.88 0 0 1-2.42 6.92 3.89 3.89 0 0 1-2.48-6.88v-1.74h-10v10.03h-1.72a3.88 3.88 0 1 0 .05 4.9h1.67v10.08l.05.01H690v1.72a3.88 3.88 0 1 1-4.9-.04v-1.68h-10.08v10.09h-1.68a3.88 3.88 0 0 0-6.92 2.42 3.89 3.89 0 0 0 6.87 2.47h1.73v10h-10.09v1.7a3.88 3.88 0 0 1-2.42 6.93 3.89 3.89 0 0 1-2.47-6.88v-1.74H640.03v-1.72a3.88 3.88 0 1 0-4.9.04v1.68h-10.08v10.02h1.72a3.88 3.88 0 1 1-.05 4.9h-1.67v10h-10.12v-1.68a3.88 3.88 0 0 0-2.42-6.92 3.89 3.89 0 0 0-2.48 6.87v1.72h-9.98v-10.02h-1.7a3.88 3.88 0 0 1-6.91-2.42 3.89 3.89 0 0 1 6.87-2.47h1.74v-10h-10.02v-1.72a3.88 3.88 0 1 0-4.9.04v1.68h-20.2v1.7a3.87 3.87 0 0 1-2.42 6.92 3.89 3.89 0 0 1-2.47-6.88v-1.74H540.03v-1.72a3.88 3.88 0 1 0-4.9.04v1.68h-10.08v10.02h1.72a3.88 3.88 0 1 1-.05 4.9h-1.67v10h-10.12v-1.68a3.88 3.88 0 1 0-4.9-.05v1.72h-9.98v-10.02h-1.7a3.88 3.88 0 0 1-6.91-2.42 3.89 3.89 0 0 1 6.87-2.47h1.74v-10h-10.02v-1.72a3.88 3.88 0 0 0-2.48-6.88 3.89 3.89 0 0 0-2.42 6.92v1.68h-20.2v1.7a3.88 3.88 0 1 1-4.9.04v-1.74h-10.01v-10h1.73a3.88 3.88 0 1 0-.05-4.9h-1.68v-10.09H440v1.73a3.88 3.88 0 1 1-4.9-.05v-1.68h-10.08v10.09h-1.68a3.88 3.88 0 0 0-6.92 2.42 3.89 3.89 0 0 0 6.88 2.48h1.72v10h-10.09v1.7a3.88 3.88 0 0 1-2.41 6.92 3.89 3.89 0 0 1-2.48-6.88v-1.74h-10.02v-10h1.73a3.88 3.88 0 0 0 6.87-2.48 3.89 3.89 0 0 0-6.92-2.42h-1.68v-10.09H390v1.73a3.88 3.88 0 0 1-2.48 6.87 3.88 3.88 0 0 1-2.42-6.92v-1.68h-10.08v.03H375v-10h1.72a3.88 3.88 0 1 0-.05-4.9H375v-10.08h-10.03v1.72a3.87 3.87 0 0 1-2.48 6.88 3.89 3.89 0 0 1-2.41-6.93v-1.67H339.9v-1.67a3.88 3.88 0 0 0-2.42-6.93 3.89 3.89 0 0 0-2.48 6.88v1.72h-20.03v1.72a3.88 3.88 0 1 1-4.9-.05v-1.67H300v10.09h-1.67a3.88 3.88 0 1 0-.05 4.9H300v10h-10.08v1.7a3.88 3.88 0 0 1-2.42 6.91 3.89 3.89 0 0 1-2.48-6.87v-1.74H265.01V3843a3.88 3.88 0 1 0-4.9.05v1.67h-10.08v10.03h1.72a3.88 3.88 0 0 1 6.88 2.48 3.89 3.89 0 0 1-6.92 2.42h-1.68v9.99h-10.12v-1.67a3.88 3.88 0 0 0-2.41-6.93 3.89 3.89 0 0 0-2.48 6.88v1.72h-9.98v-10.02h-1.7a3.88 3.88 0 0 1-6.92-2.42 3.89 3.89 0 0 1 6.88-2.48h1.74v-10H215V3843a3.88 3.88 0 1 0-4.9.05v1.67H189.93v1.7a3.87 3.87 0 0 1-2.42 6.92 3.89 3.89 0 0 1-2.48-6.87v-1.74H165.01V3843a3.88 3.88 0 1 0-4.9.05v1.68h-10.08v10.02h1.72a3.88 3.88 0 1 1-.04 4.9h-1.68v10h-10.12v-1.68a3.88 3.88 0 0 0-2.41-6.93 3.89 3.89 0 0 0-2.48 6.88v1.72h-9.98v-10.02h-1.7a3.88 3.88 0 0 1-6.92-2.42 3.89 3.89 0 0 1 6.88-2.48h1.74v-10H115V3843a3.88 3.88 0 1 0-4.9.05v1.68H89.93v1.7a3.88 3.88 0 1 1-4.9.04v-1.74H75.01v-10h1.72a3.88 3.88 0 1 0-.05-4.9h-1.67v-10.09H64.98v1.72a3.88 3.88 0 1 1-4.9-.04v-1.68H50v10.09h-1.67a3.88 3.88 0 1 0-.05 4.9H50v10H39.92v1.7a3.88 3.88 0 0 1-2.42 6.92 3.89 3.89 0 0 1-2.48-6.88v-1.74H25.01v-10h1.72a3.88 3.88 0 1 0-.05-4.9h-1.67v-10.09H14.98v1.72a3.88 3.88 0 0 1-2.48 6.88 3.89 3.89 0 0 1-2.41-6.92v-1.68H0z"/></defs><g><g transform="translate(0 -3811)"><use fill="#f5f5f5" xlink:href="#joqca"/></g></g></svg>