<?xml version="1.0" encoding="UTF-8"?>
<svg width="1500px" height="122px" viewBox="0 0 1500 122" version="1.1" xmlns="http://www.w3.org/2000/svg" xmlns:xlink="http://www.w3.org/1999/xlink">
    <!-- Generator: Sketch 49.2 (51160) - http://www.bohemiancoding.com/sketch -->
    <title>backgroundmoz-top</title>
    <desc>Created with Sketch.</desc>
    <defs></defs>
    <g id="Page-1" stroke="none" stroke-width="1" fill="none" fill-rule="evenodd">
        <g id="backgroundmoz-top" fill="#F5F5F5" fill-rule="nonzero">
            <path d="M1499.97,38.14 L1499.94,38.14 L1499.94,0.78 L0,0.78 L0.03,113.18 L10.05,113.18 L10.05,114.91 C8.78776554,115.959556 8.32263451,117.689887 8.88850812,119.230858 C9.45438173,120.771829 10.9287871,121.789925 12.5702875,121.773175 C14.2117879,121.756425 15.6651109,120.708454 16.1994216,119.156257 C16.7337323,117.604059 16.2333889,115.883581 14.95,114.86 L14.95,113.19 L35.14,113.19 L35.14,111.49 C33.8566111,110.466419 33.3562677,108.745941 33.8905784,107.193743 C34.4248891,105.641546 35.8782121,104.593575 37.5197125,104.576825 C39.1612129,104.560075 40.6356183,105.578171 41.2014919,107.119142 C41.7673655,108.660113 41.3022345,110.390444 40.04,111.44 L40.04,113.19 L50.04,113.19 L50.04,103.16 L51.76,103.16 C52.8095563,104.422234 54.539887,104.887365 56.0808579,104.321492 C57.6218288,103.755618 58.6399251,102.281213 58.6231751,100.639712 C58.6064251,98.9982121 57.558454,97.5448891 56.0062567,97.0105784 C54.4540595,96.4762677 52.7335805,96.9766111 51.71,98.26 L50.04,98.26 L50.04,88.18 L49.99,88.17 L60.01,88.17 L60.01,86.44 C58.7477655,85.3904437 58.2826345,83.660113 58.8485081,82.1191421 C59.4143817,80.5781712 60.8887871,79.5600749 62.5302875,79.5768249 C64.1717879,79.5935749 65.6251109,80.641546 66.1594216,82.1937433 C66.6937323,83.7459405 66.1933889,85.4664195 64.91,86.49 L64.91,88.17 L75,88.17 L75,78.08 L76.67,78.08 C77.6968139,79.374722 79.4309905,79.8770307 80.9908271,79.3315387 C82.5506637,78.7860467 83.5938494,77.3124639 83.59,75.66 C83.5814947,74.0283473 82.5556148,72.5754052 81.0208772,72.0213806 C79.4861395,71.4673559 77.7687504,71.9300058 76.72,73.18 L75,73.18 L75,63.18 L85.08,63.18 L85.08,61.48 C83.785278,60.4531861 83.2829693,58.7190095 83.8284613,57.1591729 C84.3739533,55.5993363 85.8475361,54.5561506 87.5,54.56 C89.1366988,54.5635183 90.5961301,55.5911411 91.1511471,57.1308656 C91.7061641,58.6705901 91.2380348,60.3930312 89.98,61.44 L89.98,63.18 L109.98,63.18 L109.98,64.9 C108.715602,65.946966 108.246918,67.6763517 108.809637,69.2184886 C109.372357,70.7606256 110.844689,71.7817419 112.486231,71.7683416 C114.127773,71.7549412 115.583239,70.7099245 116.120708,69.1588064 C116.658177,67.6076884 116.161322,65.8861846 114.88,64.86 L114.88,63.18 L124.96,63.18 L124.96,53.16 L123.24,53.16 C122.190444,54.4222345 120.460113,54.8873655 118.919142,54.3214919 C117.378171,53.7556183 116.360075,52.2812129 116.376825,50.6397125 C116.393575,48.9982121 117.441546,47.5448891 118.993743,47.0105784 C120.545941,46.4762677 122.266419,46.9766111 123.29,48.26 L124.96,48.26 L124.96,38.26 L135.08,38.26 L135.08,39.94 C133.785278,40.9668139 133.282969,42.7009905 133.828461,44.2608271 C134.373953,45.8206637 135.847536,46.8638494 137.5,46.86 C139.131653,46.8514947 140.584595,45.8256148 141.138619,44.2908772 C141.692644,42.7561395 141.229994,41.0387504 139.98,39.99 L139.98,38.26 L149.96,38.26 L149.96,48.29 L151.66,48.29 C152.685675,46.9967257 154.417299,46.4939512 155.976098,47.0368275 C157.534896,47.5797038 158.579585,49.0493737 158.58,50.7 C158.576482,52.3366988 157.548859,53.7961301 156.009134,54.3511471 C154.46941,54.9061641 152.746969,54.4380348 151.7,53.18 L149.96,53.18 L149.96,63.18 L159.98,63.18 L159.98,64.9 C158.715602,65.946966 158.246918,67.6763517 158.809637,69.2184886 C159.372357,70.7606256 160.844689,71.7817419 162.486231,71.7683416 C164.127773,71.7549412 165.583239,70.7099245 166.120708,69.1588064 C166.658177,67.6076884 166.161322,65.8861846 164.88,64.86 L164.88,63.18 L185.08,63.18 L185.08,61.48 C183.772506,60.4589916 183.261178,58.7182186 183.808798,57.1522965 C184.356418,55.5863745 185.841165,54.5436506 187.5,54.56 C189.134869,54.5677 190.590461,55.596813 191.142883,57.1355421 C191.695304,58.6742712 191.226654,60.3942095 189.97,61.44 L189.97,63.18 L209.98,63.18 L209.98,64.9 C208.717766,65.9495563 208.252635,67.679887 208.818508,69.2208579 C209.384382,70.7618288 210.858787,71.7799251 212.500288,71.7631751 C214.141788,71.7464251 215.595111,70.698454 216.129422,69.1462567 C216.663732,67.5940595 216.163389,65.8735805 214.88,64.85 L214.88,63.18 L224.96,63.18 L224.96,53.16 L223.24,53.16 C222.190444,54.4222345 220.460113,54.8873655 218.919142,54.3214919 C217.378171,53.7556183 216.360075,52.2812129 216.376825,50.6397125 C216.393575,48.9982121 217.441546,47.5448891 218.993743,47.0105784 C220.545941,46.4762677 222.266419,46.9766111 223.29,48.26 L224.96,48.26 L224.96,38.26 L235.08,38.26 L235.08,39.94 C233.796611,40.9635805 233.296268,42.6840595 233.830578,44.2362567 C234.364889,45.788454 235.818212,46.8364251 237.459712,46.8531751 C239.101213,46.8699251 240.575618,45.8518288 241.141492,44.3108579 C241.707365,42.769887 241.242234,41.0395563 239.98,39.99 L239.98,38.26 L249.95,38.26 L249.95,48.29 L251.65,48.29 C252.675675,46.9967257 254.407299,46.4939512 255.966098,47.0368275 C257.524896,47.5797038 258.569585,49.0493737 258.57,50.7 C258.561495,52.3316527 257.535615,53.7845948 256.000877,54.3386194 C254.46614,54.8926441 252.74875,54.4299942 251.7,53.18 L249.96,53.18 L249.96,63.18 L259.98,63.18 L259.98,64.9 C258.717766,65.9495563 258.252635,67.679887 258.818508,69.2208579 C259.384382,70.7618288 260.858787,71.7799251 262.500288,71.7631751 C264.141788,71.7464251 265.595111,70.698454 266.129422,69.1462567 C266.663732,67.5940595 266.163389,65.8735805 264.88,64.85 L264.88,63.18 L285.07,63.18 L285.07,61.48 C283.788678,60.4538154 283.291823,58.7323116 283.829292,57.1811936 C284.366761,55.6300755 285.822227,54.5850588 287.463769,54.5716584 C289.105311,54.5582581 290.577643,55.5793744 291.140363,57.1215114 C291.703082,58.6636483 291.234398,60.393034 289.97,61.44 L289.97,63.18 L300,63.18 L300,73.18 L298.27,73.18 C297.220444,71.9177655 295.490113,71.4526345 293.949142,72.0185081 C292.408171,72.5843817 291.390075,74.0587871 291.406825,75.7002875 C291.423575,77.3417879 292.471546,78.7951109 294.023743,79.3294216 C295.575941,79.8637323 297.296419,79.3633889 298.32,78.08 L300,78.08 L300,88.16 L310,88.16 L310,86.44 C308.737766,85.3904437 308.272635,83.660113 308.838508,82.1191421 C309.404382,80.5781712 310.878787,79.5600749 312.520288,79.5768249 C314.161788,79.5935749 315.615111,80.641546 316.149422,82.1937433 C316.683732,83.7459405 316.183389,85.4664195 314.9,86.49 L314.9,88.16 L324.98,88.16 L324.98,78.08 L326.66,78.08 C327.686814,79.374722 329.420991,79.8770307 330.980827,79.3315387 C332.540664,78.7860467 333.583849,77.3124639 333.58,75.66 C333.576482,74.0233012 332.548859,72.5638699 331.009134,72.0088529 C329.46941,71.4538359 327.746969,71.9219652 326.7,73.18 L325,73.18 L325,63.18 L335.08,63.18 L335.08,61.48 C333.785278,60.4531861 333.282969,58.7190095 333.828461,57.1591729 C334.373953,55.5993363 335.847536,54.5561506 337.5,54.56 C339.136699,54.5635183 340.59613,55.5911411 341.151147,57.1308656 C341.706164,58.6705901 341.238035,60.3930312 339.98,61.44 L339.98,63.18 L349.99,63.18 L349.99,73.18 L348.27,73.18 C347.220444,71.9177655 345.490113,71.4526345 343.949142,72.0185081 C342.408171,72.5843817 341.390075,74.0587871 341.406825,75.7002875 C341.423575,77.3417879 342.471546,78.7951109 344.023743,79.3294216 C345.575941,79.8637323 347.296419,79.3633889 348.32,78.08 L349.99,78.08 L349.99,88.16 L360.02,88.16 L360.02,86.44 C358.745763,85.4017349 358.266386,83.6718314 358.824486,82.1258044 C359.382586,80.5797773 360.856392,79.5549525 362.5,79.57 C364.152464,79.5661506 365.626047,80.6093363 366.171539,82.1691729 C366.717031,83.7290095 366.214722,85.4631861 364.92,86.49 L364.92,88.16 L375,88.16 L375,88.13 L375.02,88.13 L375.02,98.13 L373.3,98.13 C372.250444,96.8677655 370.520113,96.4026345 368.979142,96.9685081 C367.438171,97.5343817 366.420075,99.0087871 366.436825,100.650288 C366.453575,102.291788 367.501546,103.745111 369.053743,104.279422 C370.605941,104.813732 372.326419,104.313389 373.35,103.03 L375,103.03 L375,113.12 L385.02,113.12 L385.02,111.4 C383.749849,110.358278 383.273356,108.629585 383.830408,107.084217 C384.387459,105.538848 385.857319,104.511748 387.5,104.52 C389.14624,104.52823 390.609049,105.571857 391.152492,107.125834 C391.695935,108.679811 391.202326,110.407618 389.92,111.44 L389.92,113.12 L410.09,113.12 L410.09,114.79 C408.795278,115.816814 408.292969,117.550991 408.838461,119.110827 C409.383953,120.670664 410.857536,121.713849 412.51,121.71 C414.141653,121.701495 415.594595,120.675615 416.148619,119.140877 C416.702644,117.60614 416.239994,115.88875 414.99,114.84 L414.99,113.12 L435.01,113.12 L435.01,111.4 C433.745602,110.353034 433.276918,108.623648 433.839637,107.081511 C434.402357,105.539374 435.874689,104.518258 437.516231,104.531658 C439.157773,104.545059 440.613239,105.590076 441.150708,107.141194 C441.688177,108.692312 441.191322,110.413815 439.91,111.44 L439.91,113.12 L450,113.12 L450,103.03 L451.67,103.03 C452.696814,104.324722 454.430991,104.827031 455.990827,104.281539 C457.550664,103.736047 458.593849,102.262464 458.59,100.61 C458.577346,98.9801733 457.549984,97.5310433 456.016226,96.9796051 C454.482469,96.4281669 452.767562,96.8913571 451.72,98.14 L450,98.14 L450,88.14 L460.08,88.14 L460.08,86.44 C458.776817,85.4153196 458.268615,83.6758719 458.815158,82.1107696 C459.361702,80.5456672 460.84224,79.5007003 462.5,79.51 C464.134869,79.5177 465.590461,80.546813 466.142883,82.0855421 C466.695304,83.6242712 466.226654,85.3442095 464.97,86.39 L464.97,88.13 L485,88.13 L485,89.85 C483.735602,90.896966 483.266918,92.6263517 483.829637,94.1684886 C484.392357,95.7106256 485.864689,96.7317419 487.506231,96.7183416 C489.147773,96.7049412 490.603239,95.6599245 491.140708,94.1088064 C491.678177,92.5576884 491.181322,90.8361846 489.9,89.81 L489.9,88.13 L499.98,88.13 L499.98,78.11 L498.26,78.11 C497.210444,79.3722345 495.480113,79.8373655 493.939142,79.2714919 C492.398171,78.7056183 491.380075,77.2312129 491.396825,75.5897125 C491.413575,73.9482121 492.461546,72.4948891 494.013743,71.9605784 C495.565941,71.4262677 497.286419,71.9266111 498.31,73.21 L499.98,73.21 L499.98,63.21 L510.1,63.21 L510.1,64.89 C508.805278,65.9168139 508.302969,67.6509905 508.848461,69.2108271 C509.393953,70.7706637 510.867536,71.8138494 512.52,71.81 C514.151653,71.8014947 515.604595,70.7756148 516.158619,69.2408772 C516.712644,67.7061395 516.249994,65.9887504 515,64.94 L515,63.22 L524.98,63.22 L524.98,73.24 L526.68,73.24 C527.708882,71.9536465 529.437841,71.4571485 530.992469,72.001606 C532.547098,72.5460634 533.588502,74.0127897 533.59,75.66 C533.581495,77.2916527 532.555615,78.7445948 531.020877,79.2986194 C529.48614,79.8526441 527.76875,79.3899942 526.72,78.14 L524.98,78.14 L524.98,88.14 L535,88.14 L535,89.85 C533.735602,90.896966 533.266918,92.6263517 533.829637,94.1684886 C534.392357,95.7106256 535.864689,96.7317419 537.506231,96.7183416 C539.147773,96.7049412 540.603239,95.6599245 541.140708,94.1088064 C541.678177,92.5576884 541.181322,90.8361846 539.9,89.81 L539.9,88.13 L560.1,88.13 L560.1,86.43 C558.794028,85.4101043 558.282284,83.6719359 558.827266,82.1070899 C559.372249,80.5422438 560.853013,79.4979983 562.51,79.51 C564.146699,79.5135183 565.60613,80.5411411 566.161147,82.0808656 C566.716164,83.6205901 566.248035,85.3430312 564.99,86.39 L564.99,88.13 L585,88.13 L585,89.85 C583.735602,90.896966 583.266918,92.6263517 583.829637,94.1684886 C584.392357,95.7106256 585.864689,96.7317419 587.506231,96.7183416 C589.147773,96.7049412 590.603239,95.6599245 591.140708,94.1088064 C591.678177,92.5576884 591.181322,90.8361846 589.9,89.81 L589.9,88.13 L599.98,88.13 L599.98,78.11 L598.26,78.11 C597.210444,79.3722345 595.480113,79.8373655 593.939142,79.2714919 C592.398171,78.7056183 591.380075,77.2312129 591.396825,75.5897125 C591.413575,73.9482121 592.461546,72.4948891 594.013743,71.9605784 C595.565941,71.4262677 597.286419,71.9266111 598.31,73.21 L599.98,73.21 L599.98,63.21 L610.1,63.21 L610.1,64.89 C608.805278,65.9168139 608.302969,67.6509905 608.848461,69.2108271 C609.393953,70.7706637 610.867536,71.8138494 612.52,71.81 C614.149827,71.7973464 615.598957,70.7699836 616.150395,69.2362264 C616.701833,67.7024692 616.238643,65.9875619 614.99,64.94 L614.99,63.22 L624.97,63.22 L624.97,73.24 L626.67,73.24 C627.693581,71.9566111 629.414059,71.4562677 630.966257,71.9905784 C632.518454,72.5248891 633.566425,73.9782121 633.583175,75.6197125 C633.599925,77.2612129 632.581829,78.7356183 631.040858,79.3014919 C629.499887,79.8673655 627.769556,79.4022345 626.72,78.14 L624.97,78.14 L624.97,88.14 L635,88.14 L635,89.85 C633.735602,90.896966 633.266918,92.6263517 633.829637,94.1684886 C634.392357,95.7106256 635.864689,96.7317419 637.506231,96.7183416 C639.147773,96.7049412 640.603239,95.6599245 641.140708,94.1088064 C641.678177,92.5576884 641.181322,90.8361846 639.9,89.81 L639.9,88.13 L660.08,88.13 L660.08,86.43 C658.785278,85.4031861 658.282969,83.6690095 658.828461,82.1091729 C659.373953,80.5493363 660.847536,79.5061506 662.5,79.51 C664.136699,79.5135183 665.59613,80.5411411 666.151147,82.0808656 C666.706164,83.6205901 666.238035,85.3430312 664.98,86.39 L664.98,88.13 L674.99,88.13 L674.99,98.13 L673.27,98.13 C672.220444,96.8677655 670.490113,96.4026345 668.949142,96.9685081 C667.408171,97.5343817 666.390075,99.0087871 666.406825,100.650288 C666.423575,102.291788 667.471546,103.745111 669.023743,104.279422 C670.575941,104.813732 672.296419,104.313389 673.32,103.03 L674.99,103.03 L674.99,113.12 L685.02,113.12 L685.02,111.39 C683.757766,110.340444 683.292635,108.610113 683.858508,107.069142 C684.424382,105.528171 685.898787,104.510075 687.540288,104.526825 C689.181788,104.543575 690.635111,105.591546 691.169422,107.143743 C691.703732,108.695941 691.203389,110.416419 689.92,111.44 L689.92,113.12 L700,113.12 L700,103.03 L701.67,103.03 C702.693581,104.313389 704.414059,104.813732 705.966257,104.279422 C707.518454,103.745111 708.566425,102.291788 708.583175,100.650288 C708.599925,99.0087871 707.581829,97.5343817 706.040858,96.9685081 C704.499887,96.4026345 702.769556,96.8677655 701.72,98.13 L700,98.13 L700,88.13 L710.08,88.13 L710.08,86.43 C708.785278,85.4031861 708.282969,83.6690095 708.828461,82.1091729 C709.373953,80.5493363 710.847536,79.5061506 712.5,79.51 C714.136699,79.5135183 715.59613,80.5411411 716.151147,82.0808656 C716.706164,83.6205901 716.238035,85.3430312 714.98,86.39 L714.98,88.13 L724.99,88.13 L724.99,98.13 L723.27,98.13 C722.220444,96.8677655 720.490113,96.4026345 718.949142,96.9685081 C717.408171,97.5343817 716.390075,99.0087871 716.406825,100.650288 C716.423575,102.291788 717.471546,103.745111 719.023743,104.279422 C720.575941,104.813732 722.296419,104.313389 723.32,103.03 L724.99,103.03 L724.99,113.12 L735.02,113.12 L735.02,111.39 C733.758057,110.346387 733.287187,108.622845 733.843212,107.082564 C734.399238,105.542284 735.862435,104.51692 737.5,104.52 C739.144412,104.532416 740.603373,105.577529 741.144221,107.130503 C741.685068,108.683477 741.190949,110.408781 739.91,111.44 L739.91,113.12 L760.02,113.12 L760.02,114.84 C758.757766,115.889556 758.292635,117.619887 758.858508,119.160858 C759.424382,120.701829 760.898787,121.719925 762.540288,121.703175 C764.181788,121.686425 765.635111,120.638454 766.169422,119.086257 C766.703732,117.534059 766.203389,115.813581 764.92,114.79 L764.92,113.12 L785.12,113.12 L785.12,111.42 C783.836611,110.396419 783.336268,108.675941 783.870578,107.123743 C784.404889,105.571546 785.858212,104.523575 787.499712,104.506825 C789.141213,104.490075 790.615618,105.508171 791.181492,107.049142 C791.747365,108.590113 791.282234,110.320444 790.02,111.37 L790.02,113.11 L800,113.11 L800,103.09 L801.72,103.09 C802.769556,104.352234 804.499887,104.817365 806.040858,104.251492 C807.581829,103.685618 808.599925,102.211213 808.583175,100.569712 C808.566425,98.9282121 807.518454,97.4748891 805.966257,96.9405784 C804.414059,96.4062677 802.693581,96.9066111 801.67,98.19 L800,98.19 L800,88.11 L799.95,88.09 L810,88.09 L810,86.37 C808.737766,85.3204437 808.272635,83.590113 808.838508,82.0491421 C809.404382,80.5081712 810.878787,79.4900749 812.520288,79.5068249 C814.161788,79.5235749 815.615111,80.571546 816.149422,82.1237433 C816.683732,83.6759405 816.183389,85.3964195 814.9,86.42 L814.9,88.09 L824.98,88.09 L824.98,78.01 L826.65,78.01 C827.67468,79.3131828 829.414128,79.8213854 830.97923,79.2748417 C832.544333,78.728298 833.5893,77.2477602 833.58,75.59 C833.576482,73.9533012 832.548859,72.4938699 831.009134,71.9388529 C829.46941,71.3838359 827.746969,71.8519652 826.7,73.11 L824.98,73.11 L824.98,63.11 L835.06,63.11 L835.06,61.41 C833.765278,60.3831861 833.262969,58.6490095 833.808461,57.0891729 C834.353953,55.5293363 835.827536,54.4861506 837.48,54.49 C839.116699,54.4935183 840.57613,55.5211411 841.131147,57.0608656 C841.686164,58.6005901 841.218035,60.3230312 839.96,61.37 L839.96,63.11 L859.96,63.11 L859.96,64.83 C858.697766,65.8795563 858.232635,67.609887 858.798508,69.1508579 C859.364382,70.6918288 860.838787,71.7099251 862.480288,71.6931751 C864.121788,71.6764251 865.575111,70.628454 866.109422,69.0762567 C866.643732,67.5240595 866.143389,65.8035805 864.86,64.78 L864.86,63.11 L874.95,63.11 L874.95,53.08 L873.22,53.08 C872.170444,54.3422345 870.440113,54.8073655 868.899142,54.2414919 C867.358171,53.6756183 866.340075,52.2012129 866.356825,50.5597125 C866.373575,48.9182121 867.421546,47.4648891 868.973743,46.9305784 C870.525941,46.3962677 872.246419,46.8966111 873.27,48.18 L874.95,48.18 L874.95,38.19 L885.06,38.19 L885.06,39.87 C883.765278,40.8968139 883.262969,42.6309905 883.808461,44.1908271 C884.353953,45.7506637 885.827536,46.7938494 887.48,46.79 C889.116699,46.7864817 890.57613,45.7588589 891.131147,44.2191344 C891.686164,42.6794099 891.218035,40.9569688 889.96,39.91 L889.96,38.19 L899.94,38.19 L899.94,48.21 L901.64,48.21 C902.666814,46.915278 904.400991,46.4129693 905.960827,46.9584613 C907.520664,47.5039533 908.563849,48.9775361 908.56,50.63 C908.556482,52.2666988 907.528859,53.7261301 905.989134,54.2811471 C904.44941,54.8361641 902.726969,54.3680348 901.68,53.11 L899.94,53.11 L899.94,63.11 L909.96,63.11 L909.96,64.83 C908.697766,65.8795563 908.232635,67.609887 908.798508,69.1508579 C909.364382,70.6918288 910.838787,71.7099251 912.480288,71.6931751 C914.121788,71.6764251 915.575111,70.628454 916.109422,69.0762567 C916.643732,67.5240595 916.143389,65.8035805 914.86,64.78 L914.86,63.11 L935.06,63.11 L935.06,61.41 C933.752506,60.3889916 933.241178,58.6482186 933.788798,57.0822965 C934.336418,55.5163745 935.821165,54.4736506 937.48,54.49 C939.109827,54.5026536 940.558957,55.5300164 941.110395,57.0637736 C941.661833,58.5975308 941.198643,60.3124381 939.95,61.36 L939.95,63.11 L959.95,63.11 L959.95,64.83 C958.687766,65.8795563 958.222635,67.609887 958.788508,69.1508579 C959.354382,70.6918288 960.828787,71.7099251 962.470288,71.6931751 C964.111788,71.6764251 965.565111,70.628454 966.099422,69.0762567 C966.633732,67.5240595 966.133389,65.8035805 964.85,64.78 L964.85,63.11 L974.93,63.11 L974.93,53.08 L973.21,53.08 C972.160444,54.3422345 970.430113,54.8073655 968.889142,54.2414919 C967.348171,53.6756183 966.330075,52.2012129 966.346825,50.5597125 C966.363575,48.9182121 967.411546,47.4648891 968.963743,46.9305784 C970.515941,46.3962677 972.236419,46.8966111 973.26,48.18 L974.93,48.18 L974.93,38.19 L985.05,38.19 L985.05,39.87 C983.768678,40.8961846 983.271823,42.6176884 983.809292,44.1688064 C984.346761,45.7199245 985.802227,46.7649412 987.443769,46.7783416 C989.085311,46.7917419 990.557643,45.7706256 991.120363,44.2284886 C991.683082,42.6863517 991.214398,40.956966 989.95,39.91 L989.95,38.19 L999.93,38.19 L999.93,48.21 L1001.63,48.21 C1002.65888,46.9236465 1004.38784,46.4271485 1005.94247,46.971606 C1007.4971,47.5160634 1008.5385,48.9827897 1008.54,50.63 C1008.53149,52.2616527 1007.50561,53.7145948 1005.97088,54.2686194 C1004.43614,54.8226441 1002.71875,54.3599942 1001.67,53.11 L999.93,53.11 L999.93,63.11 L1009.95,63.11 L1009.95,64.83 C1008.67985,65.8717225 1008.20336,67.600415 1008.76041,69.1457833 C1009.31746,70.6911516 1010.78732,71.7182519 1012.43,71.71 C1014.08146,71.7070166 1015.55103,70.6616036 1016.09549,69.1024726 C1016.63995,67.5433416 1016.1406,65.8103706 1014.85,64.78 L1014.85,63.11 L1035.04,63.11 L1035.04,61.41 C1033.74528,60.3831861 1033.24297,58.6490095 1033.78846,57.0891729 C1034.33395,55.5293363 1035.80754,54.4861506 1037.46,54.49 C1039.09165,54.4985053 1040.54459,55.5243852 1041.09862,57.0591228 C1041.65264,58.5938605 1041.18999,60.3112496 1039.94,61.36 L1039.94,63.11 L1049.96,63.11 L1049.96,73.11 L1048.23,73.11 C1047.18044,71.8477655 1045.45011,71.3826345 1043.90914,71.9485081 C1042.36817,72.5143817 1041.35007,73.9887871 1041.36682,75.6302875 C1041.38357,77.2717879 1042.43155,78.7251109 1043.98374,79.2594216 C1045.53594,79.7937323 1047.25642,79.2933889 1048.28,78.01 L1049.96,78.01 L1049.96,88.09 L1059.98,88.09 L1059.98,86.37 C1058.71777,85.3204437 1058.25263,83.590113 1058.81851,82.0491421 C1059.38438,80.5081712 1060.85879,79.4900749 1062.50029,79.5068249 C1064.14179,79.5235749 1065.59511,80.571546 1066.12942,82.1237433 C1066.66373,83.6759405 1066.16339,85.3964195 1064.88,86.42 L1064.88,88.09 L1074.96,88.09 L1074.96,78.01 L1076.64,78.01 C1077.66681,79.304722 1079.40099,79.8070307 1080.96083,79.2615387 C1082.52066,78.7160467 1083.56385,77.2424639 1083.56,75.59 C1083.55648,73.9533012 1082.52886,72.4938699 1080.98913,71.9388529 C1079.44941,71.3838359 1077.72697,71.8519652 1076.68,73.11 L1074.96,73.11 L1074.96,63.11 L1085.04,63.11 L1085.04,61.41 C1083.74528,60.3831861 1083.24297,58.6490095 1083.78846,57.0891729 C1084.33395,55.5293363 1085.80754,54.4861506 1087.46,54.49 C1089.09165,54.4985053 1090.54459,55.5243852 1091.09862,57.0591228 C1091.65264,58.5938605 1091.18999,60.3112496 1089.94,61.36 L1089.94,63.11 L1099.95,63.11 L1099.95,73.11 L1098.23,73.11 C1097.18044,71.8477655 1095.45011,71.3826345 1093.90914,71.9485081 C1092.36817,72.5143817 1091.35007,73.9887871 1091.36682,75.6302875 C1091.38357,77.2717879 1092.43155,78.7251109 1093.98374,79.2594216 C1095.53594,79.7937323 1097.25642,79.2933889 1098.28,78.01 L1099.95,78.01 L1099.95,88.09 L1109.98,88.09 L1109.98,86.37 C1108.69738,85.3337422 1108.21222,83.5985826 1108.77139,82.04736 C1109.33055,80.4961374 1110.8112,79.4695824 1112.46,79.49 C1114.11776,79.4807003 1115.5983,80.5256672 1116.14484,82.0907696 C1116.69139,83.6558719 1116.18318,85.3953196 1114.88,86.42 L1114.88,88.09 L1124.96,88.09 L1124.96,88.06 L1124.98,88.06 L1124.98,98.06 L1123.26,98.06 C1122.21303,96.7956021 1120.48365,96.3269176 1118.94151,96.8896375 C1117.39937,97.4523573 1116.37826,98.9246893 1116.39166,100.566231 C1116.40506,102.207773 1117.45008,103.663239 1119.00119,104.200708 C1120.55231,104.738177 1122.27382,104.241322 1123.3,102.96 L1124.98,102.96 L1124.98,113.04 L1135,113.04 L1135,111.32 C1133.73806,110.276387 1133.26719,108.552845 1133.82321,107.012564 C1134.37924,105.472284 1135.84243,104.44692 1137.48,104.45 C1139.12624,104.45823 1140.58905,105.501857 1141.13249,107.055834 C1141.67593,108.609811 1141.18233,110.337618 1139.9,111.37 L1139.9,113.04 L1160.07,113.04 L1160.07,114.72 C1158.77528,115.746814 1158.27297,117.480991 1158.81846,119.040827 C1159.36395,120.600664 1160.83754,121.643849 1162.49,121.64 C1164.12165,121.631495 1165.57459,120.605615 1166.12862,119.070877 C1166.68264,117.53614 1166.21999,115.81875 1164.97,114.77 L1164.97,113.04 L1184.99,113.04 L1184.99,111.32 C1183.72777,110.270444 1183.26263,108.540113 1183.82851,106.999142 C1184.39438,105.458171 1185.86879,104.440075 1187.51029,104.456825 C1189.15179,104.473575 1190.60511,105.521546 1191.13942,107.073743 C1191.67373,108.625941 1191.17339,110.346419 1189.89,111.37 L1189.89,113.04 L1199.98,113.04 L1199.98,102.96 L1201.65,102.96 C1202.67681,104.254722 1204.41099,104.757031 1205.97083,104.211539 C1207.53066,103.666047 1208.57385,102.192464 1208.57,100.54 C1208.56149,98.9083473 1207.53561,97.4554052 1206.00088,96.9013806 C1204.46614,96.3473559 1202.74875,96.8100058 1201.7,98.06 L1199.98,98.06 L1199.98,88.06 L1210.06,88.06 L1210.06,86.36 C1208.76528,85.3331861 1208.26297,83.5990095 1208.80846,82.0391729 C1209.35395,80.4793363 1210.82754,79.4361506 1212.48,79.44 C1214.11487,79.4477 1215.57046,80.476813 1216.12288,82.0155421 C1216.6753,83.5542712 1216.20665,85.2742095 1214.95,86.32 L1214.95,88.06 L1234.96,88.06 L1234.96,89.78 C1233.6956,90.826966 1233.22692,92.5563517 1233.78964,94.0984886 C1234.35236,95.6406256 1235.82469,96.6617419 1237.46623,96.6483416 C1239.10777,96.6349412 1240.56324,95.5899245 1241.10071,94.0388064 C1241.63818,92.4876884 1241.14132,90.7661846 1239.86,89.74 L1239.86,88.06 L1249.94,88.06 L1249.94,78.04 L1248.22,78.04 C1247.17044,79.3022345 1245.44011,79.7673655 1243.89914,79.2014919 C1242.35817,78.6356183 1241.34007,77.1612129 1241.35682,75.5197125 C1241.37357,73.8782121 1242.42155,72.4248891 1243.97374,71.8905784 C1245.52594,71.3562677 1247.24642,71.8566111 1248.27,73.14 L1249.94,73.14 L1249.94,63.14 L1260.06,63.14 L1260.06,64.82 C1258.76528,65.8468139 1258.26297,67.5809905 1258.80846,69.1408271 C1259.35395,70.7006637 1260.82754,71.7438494 1262.48,71.74 C1264.11165,71.7314947 1265.56459,70.7056148 1266.11862,69.1708772 C1266.67264,67.6361395 1266.20999,65.9187504 1264.96,64.87 L1264.96,63.14 L1274.94,63.14 L1274.94,73.17 L1276.64,73.17 C1277.66773,71.8850616 1279.39416,71.3880763 1280.94777,71.9299277 C1282.50137,72.4717791 1283.54427,73.934623 1283.55,75.58 C1283.54149,77.2116527 1282.51561,78.6645948 1280.98088,79.2186194 C1279.44614,79.7726441 1277.72875,79.3099942 1276.68,78.06 L1274.94,78.06 L1274.94,88.06 L1284.96,88.06 L1284.96,89.78 C1283.69777,90.8295563 1283.23263,92.559887 1283.79851,94.1008579 C1284.36438,95.6418288 1285.83879,96.6599251 1287.48029,96.6431751 C1289.12179,96.6264251 1290.57511,95.578454 1291.10942,94.0262567 C1291.64373,92.4740595 1291.14339,90.7535805 1289.86,89.73 L1289.86,88.06 L1310.06,88.06 L1310.06,86.36 C1308.75403,85.3401043 1308.24228,83.6019359 1308.78727,82.0370899 C1309.33225,80.4722438 1310.81301,79.4279983 1312.47,79.44 C1314.1067,79.4435183 1315.56613,80.4711411 1316.12115,82.0108656 C1316.67616,83.5505901 1316.20803,85.2730312 1314.95,86.32 L1314.95,88.06 L1334.96,88.06 L1334.96,89.78 C1333.69777,90.8295563 1333.23263,92.559887 1333.79851,94.1008579 C1334.36438,95.6418288 1335.83879,96.6599251 1337.48029,96.6431751 C1339.12179,96.6264251 1340.57511,95.578454 1341.10942,94.0262567 C1341.64373,92.4740595 1341.14339,90.7535805 1339.86,89.73 L1339.86,88.06 L1349.94,88.06 L1349.94,78.04 L1348.22,78.04 C1347.17044,79.3022345 1345.44011,79.7673655 1343.89914,79.2014919 C1342.35817,78.6356183 1341.34007,77.1612129 1341.35682,75.5197125 C1341.37357,73.8782121 1342.42155,72.4248891 1343.97374,71.8905784 C1345.52594,71.3562677 1347.24642,71.8566111 1348.27,73.14 L1349.94,73.14 L1349.94,63.14 L1360.06,63.14 L1360.06,64.82 C1358.76528,65.8468139 1358.26297,67.5809905 1358.80846,69.1408271 C1359.35395,70.7006637 1360.82754,71.7438494 1362.48,71.74 C1364.10983,71.7273464 1365.55896,70.6999836 1366.11039,69.1662264 C1366.66183,67.6324692 1366.19864,65.9175619 1364.95,64.87 L1364.95,63.14 L1374.93,63.14 L1374.93,73.17 L1376.63,73.17 C1377.65567,71.8767257 1379.3873,71.3739512 1380.9461,71.9168275 C1382.5049,72.4597038 1383.54959,73.9293737 1383.55,75.58 C1383.54149,77.2116527 1382.51561,78.6645948 1380.98088,79.2186194 C1379.44614,79.7726441 1377.72875,79.3099942 1376.68,78.06 L1374.93,78.06 L1374.93,88.06 L1384.96,88.06 L1384.96,89.78 C1383.69777,90.8295563 1383.23263,92.559887 1383.79851,94.1008579 C1384.36438,95.6418288 1385.83879,96.6599251 1387.48029,96.6431751 C1389.12179,96.6264251 1390.57511,95.578454 1391.10942,94.0262567 C1391.64373,92.4740595 1391.14339,90.7535805 1389.86,89.73 L1389.86,88.06 L1410.04,88.06 L1410.04,86.36 C1408.74528,85.3331861 1408.24297,83.5990095 1408.78846,82.0391729 C1409.33395,80.4793363 1410.80754,79.4361506 1412.46,79.44 C1414.0967,79.4435183 1415.55613,80.4711411 1416.11115,82.0108656 C1416.66616,83.5505901 1416.19803,85.2730312 1414.94,86.32 L1414.94,88.06 L1424.95,88.06 L1424.95,98.06 L1423.23,98.06 C1422.18044,96.7977655 1420.45011,96.3326345 1418.90914,96.8985081 C1417.36817,97.4643817 1416.35007,98.9387871 1416.36682,100.580288 C1416.38357,102.221788 1417.43155,103.675111 1418.98374,104.209422 C1420.53594,104.743732 1422.25642,104.243389 1423.28,102.96 L1424.95,102.96 L1424.95,113.04 L1435,113.04 L1435,111.32 C1433.73777,110.270444 1433.27263,108.540113 1433.83851,106.999142 C1434.40438,105.458171 1435.87879,104.440075 1437.52029,104.456825 C1439.16179,104.473575 1440.61511,105.521546 1441.14942,107.073743 C1441.68373,108.625941 1441.18339,110.346419 1439.9,111.37 L1439.9,113.04 L1449.98,113.04 L1449.98,102.96 L1451.65,102.96 C1452.67468,104.263183 1454.41413,104.771385 1455.97923,104.224842 C1457.54433,103.678298 1458.5893,102.19776 1458.58,100.54 C1458.57648,98.9033012 1457.54886,97.4438699 1456.00913,96.8888529 C1454.46941,96.3338359 1452.74697,96.8019652 1451.7,98.06 L1449.98,98.06 L1449.98,88.06 L1460.06,88.06 L1460.06,86.36 C1458.76528,85.3331861 1458.26297,83.5990095 1458.80846,82.0391729 C1459.35395,80.4793363 1460.82754,79.4361506 1462.48,79.44 C1464.1167,79.4435183 1465.57613,80.4711411 1466.13115,82.0108656 C1466.68616,83.5505901 1466.21803,85.2730312 1464.96,86.32 L1464.96,88.06 L1474.97,88.06 L1474.97,98.06 L1473.25,98.06 C1472.20044,96.7977655 1470.47011,96.3326345 1468.92914,96.8985081 C1467.38817,97.4643817 1466.37007,98.9387871 1466.38682,100.580288 C1466.40357,102.221788 1467.45155,103.675111 1469.00374,104.209422 C1470.55594,104.743732 1472.27642,104.243389 1473.3,102.96 L1474.97,102.96 L1474.97,113.04 L1485,113.04 L1485,111.32 C1483.73806,110.276387 1483.26719,108.552845 1483.82321,107.012564 C1484.37924,105.472284 1485.84243,104.44692 1487.48,104.45 C1489.12441,104.462416 1490.58337,105.507529 1491.12422,107.060503 C1491.66507,108.613477 1491.17095,110.338781 1489.89,111.37 L1489.89,113.04 L1499.98,113.04 L1499.97,38.14 Z" id="80jaa"></path>
        </g>
    </g>
</svg>