<svg xmlns="https://www.w3.org/2000/svg" xmlns:xlink="https://www.w3.org/1999/xlink" width="35" height="22" viewBox="0 0 35 22"><defs><path id="d8kxa" d="M320 26c0-1 1-2 2-2h31c1 0 2 1 2 2s-1 2-2 2h-31c-1 0-2-1-2-2z"/><path id="d8kxb" d="M320 35c0-1 1-2 2-2h31c1 0 2 1 2 2s-1 2-2 2h-31c-1 0-2-1-2-2z"/><path id="d8kxc" d="M320 44c0-1 1-2 2-2h21c1 0 2 1 2 2s-1 2-2 2h-21c-1 0-2-1-2-2z"/></defs><g><g transform="translate(-320 -24)"><g><use fill="#fff" xlink:href="#d8kxa"/></g><g><use fill="#fff" xlink:href="#d8kxb"/></g><g><use fill="#fff" xlink:href="#d8kxc"/></g></g></g></svg>