<?xml version="1.0" encoding="UTF-8"?>
<svg width="467px" height="394px" viewBox="0 0 467 394" version="1.1" xmlns="http://www.w3.org/2000/svg" xmlns:xlink="http://www.w3.org/1999/xlink">
    <!-- Generator: Sketch 49.2 (51160) - http://www.bohemiancoding.com/sketch -->
    <title>dots-right</title>
    <desc>Created with Sketch.</desc>
    <defs></defs>
    <g id="Page-1" stroke="none" stroke-width="1" fill="none" fill-rule="evenodd">
        <g id="dots-right" transform="translate(-1.000000, 0.000000)" fill="#6B6C81" fill-rule="nonzero">
            <path d="M89.16,273.3 L79.64,294.26 C79.052923,294.045302 78.4094008,294.041766 77.82,294.25 L67.08,269.82 C67.6998195,269.488974 68.1661714,268.929352 68.38,268.26 L89.16,273.3 Z M119.54,207.4 C119.76,207.48 119.97,207.54 120.2,207.57 L119.26,243.4 L118.36,277.5 C117.242925,277.556815 116.27654,278.296518 115.93,279.36 L89.73,273.02 L119.54,207.4 Z M172.94,211.17 C172.91,211.94 173.2,212.68 173.76,213.22 L133.79,261.42 L125.19,224.3 L121.28,207.46 C122.22358,207.158005 122.925979,206.363489 123.11,205.39 L172.94,211.17 Z M246.08,180.09 C246.22,180.36 246.43,180.61 246.67,180.82 L222.74,212.34 L178.33,211.15 C178.315508,210.883521 178.261588,210.620664 178.17,210.37 L246.08,180.09 Z M261.88,168.49 L263.18,210.95 C262.98,210.97 262.78,211.02 262.59,211.09 L249.71,181.19 C250.390686,180.834351 250.887707,180.205657 251.076667,179.461269 C251.265627,178.716881 251.128643,177.927248 250.7,177.29 L261.88,168.49 Z M260.58,113.27 C261.15154,113.205584 261.687575,112.960339 262.11,112.57 L292.34,140.9 C291.600435,141.82305 291.547747,143.120001 292.21,144.1 L262.25,167.68 L260.58,113.27 Z M312.1,72.06 C312.3,72.3 312.56,72.51 312.86,72.67 C312.98,72.73 313.11,72.77 313.23,72.82 L301.09,117.42 L262.99,110.84 C263.04,110.24 262.89,109.64 262.56,109.14 L312.1,72.06 Z M355.56,66.28 L363.94,85.41 L341.1,121.92 C340.408816,121.560056 339.595819,121.516307 338.87,121.8 L334.8,113.25 L318.05,78.04 L315.47,72.63 C316.334484,72.1366229 316.854317,71.2047741 316.82,70.21 L355.56,66.28 Z M329.21,5.05 C329.31,5 329.39,4.94 329.48,4.87 L355.22,36.53 L375.82,61.88 C375.260592,62.4040315 374.954435,63.143911 374.98,63.91 L355.82,65.85 L329.21,5.05 Z M387.46,34.62 L378.36,61.22 C377.597084,61.0230167 376.786185,61.1691246 376.14,61.62 L372.81,57.52 L329.8,4.62 C329.96,4.47 330.1,4.3 330.22,4.1 L387.46,34.62 Z M390.78,70.19 C390.114741,70.3017593 389.515414,70.6585011 389.1,71.19 L380.04,65.15 L380.07,65.1 C380.408595,64.4664762 380.480781,63.7241418 380.270585,63.0372525 C380.06039,62.3503632 379.585142,61.7755496 378.95,61.44 L378.75,61.36 L387.59,35.48 L390.78,70.19 Z M399.23,40.89 L391.7,70.2 C391.531728,70.1699341 391.360902,70.156536 391.19,70.16 L387.95,34.88 L399.23,40.89 Z M450.03,67.97 C449.66,68.79 449.73,69.69 450.16,70.42 L419.65,91.52 L393.59,74.18 C393.59,74.16 393.61,74.14 393.62,74.13 C393.993735,73.4297434 394.040408,72.6005084 393.747611,71.8627366 C393.454814,71.1249648 392.852212,70.5534053 392.1,70.3 L399.6,41.1 L450.03,67.97 Z M450.53,109.13 C450.3,109.03 450.07,108.96 449.83,108.93 L452.5,71.75 C453.4,71.75 454.26,71.3 454.76,70.5 L467.5,77.29 L450.53,109.13 Z M384.77,232.46 L381.77,201.21 C382.78203,201.034224 383.605615,200.297454 383.892573,199.311169 C384.179531,198.324884 383.879763,197.261276 383.12,196.57 L413.04,158.39 L420.04,166.31 L384.77,232.46 Z M324.23,261 C324.63,260.15 324.54,259.2 324.08,258.45 L384.19,233.55 L357.51,283.6 L349.79,278.36 L324.23,261 Z M318.15,286.72 C317.994358,285.671364 317.239447,284.810844 316.22,284.52 L320.7,262.32 C321.9,262.85 323.3,262.44 324.03,261.35 L356.99,283.75 L318.15,286.72 Z M282.55,289.45 C282.385998,288.381393 281.598187,287.514801 280.55,287.25 L289.08,240.25 C289.54,240.3 290.01,240.22 290.43,240.03 L314.05,284.84 C313.67,285.09 313.33,285.42 313.1,285.85 C312.88,286.26 312.79,286.7 312.8,287.13 L282.55,289.45 Z M247.48,328.9 C247.38,328.84 247.3,328.77 247.2,328.72 C246.410511,328.297302 245.462806,328.293557 244.67,328.71 L227.5,301.25 L277.29,290.62 C277.42,291.07 277.67,291.47 278.02,291.8 L247.48,328.9 Z M195.3,388.96 C194.697613,388.512317 193.936066,388.335569 193.198074,388.472164 C192.460082,388.608759 191.812246,389.046369 191.41,389.68 L162.96,374.51 C163.26,373.82 163.26,373.07 162.99,372.41 L200.76,353.71 L243.61,332.48 C243.72,332.67 243.86,332.84 244.01,333 L195.3,388.96 Z M76.15,297.64 L46.36,310.07 C46.1311868,309.61403 45.7774293,309.232526 45.34,308.97 L64.79,269.93 C65.42,270.18 66.09,270.19 66.7,269.98 L77.44,294.4 C76.2766571,295.020224 75.7313239,296.389898 76.15,297.64 Z M115.94,281.04 L94.21,290.11 L81.12,295.57 C80.8787508,295.083767 80.4950363,294.682611 80.02,294.42 L89.56,273.39 L115.84,279.76 C115.77,280.19 115.8,280.63 115.94,281.04 Z M174.61,213.77 L156.81,268.97 L145.04,305.49 C144.69,305.4 144.34,305.39 144,305.44 L133.9,261.93 L174.07,213.48 C174.17,213.54 174.26,213.62 174.36,213.67 L174.61,213.77 Z M197.61,245.43 C197.55,245.39 197.49,245.34 197.42,245.31 C196.667997,244.909243 195.770939,244.887002 195,245.25 L177.13,213.52 C177.807657,213.078909 178.248926,212.354492 178.33,211.55 L222.43,212.74 L197.61,245.43 Z M260.78,213.36 L238.99,212.78 L247.92,181.44 C248.4,181.54 248.88,181.51 249.34,181.35 L262.21,211.25 C261.410449,211.669914 260.873787,212.461772 260.78,213.36 Z M293.17,144.98 L274.05,188.86 L264.35,211.09 C264.10546,211.00276 263.849349,210.952212 263.59,210.94 L262.27,168.18 L292.46,144.41 C292.66,144.63 292.89,144.83 293.17,144.98 Z M314.61,120.17 L315.38,175.95 C315.05,175.98 314.73,176.07 314.43,176.22 L295.98,144.81 C296.763982,144.28188 297.211766,143.379811 297.158423,142.436046 C297.105079,141.49228 296.558499,140.646415 295.72,140.21 C295.6,140.14 295.47,140.1 295.35,140.05 L301.38,117.88 L314.61,120.17 Z M313.97,72.97 L314.61,119.76 L301.49,117.49 L313.62,72.93 L313.97,72.98 L313.97,72.97 Z M376.08,66 L369.09,77.18 L364.19,85 L355.99,66.24 L375.03,64.31 C375.15,64.97 375.51,65.58 376.08,66.01 L376.08,66 Z M389.96,75.24 C390.09,75.31 390.23,75.36 390.36,75.41 L379.66,117.1 C379.547815,117.076287 379.434262,117.059588 379.32,117.05 L377.96,66.52 C378.691185,66.4428758 379.359296,66.0709006 379.81,65.49 L388.88,71.53 L388.85,71.58 C388.510644,72.2123047 388.436965,72.9536927 388.645235,73.6404205 C388.853505,74.3271484 389.326588,74.9027149 389.96,75.24 Z M381.29,118.04 C380.964896,117.647846 380.534763,117.356466 380.05,117.2 L390.76,75.5 C391.743065,75.676276 392.743141,75.2954779 393.36,74.51 L419.29,91.77 L381.29,118.04 Z M447.09,110.27 L447.05,110.32 C446.82,110.76 446.73,111.24 446.75,111.7 L381.83,119.24 C381.77,118.94 381.67,118.65 381.51,118.38 L419.65,92.01 L447.09,110.27 Z M434.74,130.69 L447.94,113.83 L448,113.87 L420.24,165.93 L413.29,158.06 L434.74,130.69 Z M323.06,257.47 C322.653076,257.258271 322.198465,257.15495 321.74,257.17 L326,236.07 L383.49,233.41 L323.84,258.11 C323.623211,257.848859 323.358449,257.631618 323.06,257.47 Z M219.92,289.15 C220.882699,288.696103 221.48387,287.713797 221.45,286.65 L277.18,289.9 C277.18,290.01 277.18,290.12 277.2,290.22 L227.27,300.89 L219.92,289.15 Z M180.2,310.94 C180.150043,310.763912 180.08306,310.593106 180,310.43 L208.39,292.47 L216.19,287.54 C216.635766,288.945978 218.127322,289.734054 219.54,289.31 L226.84,300.98 L180.2,310.94 Z M243.4,330.17 L211.26,321.05 L180.25,312.24 C180.31,311.94 180.32,311.64 180.28,311.34 L227.08,301.34 L244.33,328.94 C244.01,329.16 243.73,329.46 243.53,329.83 L243.4,330.17 Z M162.82,372.05 C162.57,371.64 162.22,371.28 161.77,371.04 C161.65,370.97 161.53,370.94 161.41,370.89 L177.09,314.35 C178.25491,314.577411 179.431727,314.017408 179.99,312.97 C180.06,312.87 180.09,312.75 180.14,312.63 L227.97,326.22 L243.29,330.57 C243.183521,331.089209 243.232211,331.628273 243.43,332.12 L214.2,346.6 L162.82,372.05 Z M100.02,338.59 L142.29,309.79 C142.901728,310.557758 143.881964,310.933005 144.85,310.77 L159.65,370.86 C159.08,371.05 158.57,371.44 158.22,371.98 L100.15,341.02 C100.51,340.22 100.45,339.32 100.03,338.59 L100.02,338.59 Z M116.09,281.42 C116.33,281.89 116.72,282.31 117.23,282.58 L117.43,282.66 L116.7,284.74 L98.38,337.33 C97.8550053,337.193049 97.3009283,337.217442 96.79,337.4 L79.99,299.18 C81.1533429,298.559776 81.6986761,297.190102 81.28,295.94 L97.5,289.17 L116.09,281.42 Z M142.72,305.99 L120.48,282.02 C121.47526,280.94442 121.430881,279.271305 120.38,278.25 L133.58,262.32 L143.6,305.53 C143.28,305.63 142.98,305.78 142.72,305.99 Z M223.24,212.36 L247,181.06 C247.06,181.1 247.12,181.16 247.19,181.19 C247.29,181.25 247.41,181.29 247.53,181.33 L238.57,212.77 L223.24,212.36 Z M234.88,225.73 C233.904409,225.53423 232.900212,225.890918 232.266706,226.658234 C231.6332,227.42555 231.473074,228.479114 231.85,229.4 L198.45,246.3 C198.31242,246.065707 198.140511,245.853349 197.94,245.67 L222.94,212.75 L238.46,213.17 L234.88,225.73 Z M260.98,214.67 L236.65,226.97 C236.4,226.57 236.06,226.22 235.61,225.99 C235.51,225.93 235.39,225.89 235.27,225.84 L238.87,213.18 L260.77,213.77 C260.79,214.08 260.87,214.38 260.97,214.67 L260.98,214.67 Z M364.13,85.87 L377.92,117.36 C377.001564,117.848308 376.445309,118.820783 376.49,119.86 L342.49,123.8 C342.359417,123.137741 341.984623,122.548779 341.44,122.15 L359.52,93.25 L364.13,85.87 Z M334.31,207.27 C334.48,206.86 334.55,206.43 334.51,206.01 L378.68,199.17 C378.968437,200.410253 380.086965,201.278365 381.36,201.25 L384.4,232.8 L334.31,207.27 Z M331.49,208.9 C332.543558,209.035009 333.577914,208.537422 334.13,207.63 L383.86,232.98 L326.09,235.66 L331.49,208.9 Z M292.04,237.23 C291.988703,236.838496 291.852162,236.463008 291.64,236.13 L298.38,231.15 L299.2,230.55 L329.78,207.99 C330.124764,208.392498 330.580357,208.684635 331.09,208.83 L325.67,235.68 L292.04,237.23 Z M220.04,284.33 C219.6301,284.116585 219.171825,284.013215 218.71,284.03 L224.2,264.73 C225.318734,264.957799 226.459827,264.457319 227.05,263.48 L240.39,270.2 L277.39,288.83 C277.3,289.05 277.23,289.27 277.21,289.5 L221.41,286.24 C221.266746,285.425605 220.758208,284.721758 220.03,284.33 L220.04,284.33 Z M194.65,245.46 C193.951517,245.921112 193.507461,246.68107 193.448666,247.515962 C193.389871,248.350855 193.723036,249.165546 194.35,249.72 L177.04,272.52 L176.32,236.2 L175.89,213.97 C176.19,213.94 176.49,213.86 176.77,213.72 L182.01,223.02 L194.65,245.46 Z M233.07,230.76 C233.18,230.82 233.3,230.86 233.41,230.9 L225.28,259.45 C224.161266,259.222201 223.020173,259.722681 222.43,260.7 L198.63,248.72 C198.92,248.04 198.9,247.31 198.63,246.66 L232.03,229.76 C232.28,230.17 232.63,230.52 233.07,230.76 Z M261.17,215.03 C261.586198,215.724852 262.294319,216.194203 263.096412,216.306845 C263.898504,216.419488 264.708512,216.163337 265.3,215.61 L272.19,221.97 L287.24,235.88 C286.998681,236.185554 286.827936,236.540704 286.74,236.92 L261.36,232.68 L237.04,228.62 C237.08,228.18 237,227.74 236.84,227.34 L250.71,220.32 L261.17,215.03 Z M314.09,176.43 C313.305142,176.956471 312.855598,177.857407 312.906885,178.801093 C312.958172,179.744779 313.502708,180.59169 314.34,181.03 L290.27,235.03 C290.086043,234.959349 289.894905,234.90905 289.7,234.88 L294.5,145.28 C294.9,145.28 295.28,145.18 295.63,145.02 L305.9,162.5 L314.09,176.43 Z M446.79,112.11 C446.9,112.67 447.19,113.19 447.62,113.59 L413.02,157.75 L381.12,121.63 C381.638433,121.100824 381.913706,120.380043 381.88,119.64 L406.33,116.8 L446.79,112.11 Z M277.57,288.47 L227.23,263.12 C227.468573,262.549177 227.503875,261.913737 227.33,261.32 L243.13,255.32 L286.92,238.71 C287.259177,239.435094 287.904728,239.970608 288.68,240.17 L280.16,287.17 C279.117553,287.064059 278.107943,287.570813 277.57,288.47 Z M286.67,237.32 C286.63,237.66 286.67,238 286.77,238.32 L227.18,260.95 C226.935985,260.419916 226.525027,259.984371 226.01,259.71 C225.91,259.65 225.79,259.61 225.67,259.57 L233.8,231.01 C235.219266,231.298793 236.613586,230.416312 236.96,229.01 L260.82,233.01 L286.67,237.32 Z M316.81,181.07 L330.29,204.01 C329.105964,204.831536 328.775838,206.438149 329.54,207.66 L307.57,223.87 L291.4,235.8 C291.186643,235.548667 290.929061,235.338534 290.64,235.18 L314.71,181.18 C315.41,181.43 316.17,181.38 316.81,181.07 Z M338.56,126.7 L338.04,127.85 L316.53,176.1 C316.29,176.02 316.03,175.96 315.79,175.95 L315.02,120.24 L337.15,124.06 C337.04277,125.141571 337.594509,126.181993 338.55,126.7 L338.56,126.7 Z M318.13,179.62 L333.76,184.36 L331.88,203.53 C331.45,203.53 331.02,203.61 330.64,203.8 L317.16,180.86 C317.5,180.62 317.8,180.31 318.01,179.92 L318.13,179.62 Z M333.1,203.84 C332.8463,203.706972 332.572777,203.615797 332.29,203.57 L332.57,200.73 L334.16,184.47 L367.36,194.54 L378.67,197.97 C378.610273,198.232191 378.59005,198.501833 378.61,198.77 L334.45,205.61 C334.275475,204.853315 333.783598,204.208409 333.1,203.84 Z M338.77,127.22 L338.93,126.85 C339.08,126.91 339.23,126.95 339.38,126.97 L333.8,183.94 L318.25,179.23 C318.518337,178.051677 317.971002,176.838553 316.91,176.26 L338.77,127.22 Z M379.82,196.32 C379.45,196.55 379.13,196.87 378.92,197.29 C378.86,197.39 378.83,197.49 378.79,197.59 L358.48,191.42 L334.2,184.06 L339.78,127.01 C340.19,127.01 340.6,126.93 340.98,126.76 L353.21,148.68 L379.82,196.32 Z M342.53,124.21 L376.53,120.26 C376.764651,121.482071 377.80688,122.383682 379.05,122.44 L381.03,195.87 C380.73,195.9 380.44,195.99 380.17,196.11 L341.32,126.56 C341.69,126.32 342.01,126 342.22,125.59 C342.46,125.15 342.55,124.67 342.53,124.21 Z M401.5,172.45 L382.8,196.32 L382.57,196.17 C382.21,195.97 381.82,195.88 381.43,195.87 L379.46,122.44 C379.95,122.39 380.42,122.2 380.81,121.9 L412.76,158.07 L401.5,172.45 Z M265.58,215.32 C265.68,215.19 265.78,215.06 265.86,214.92 C266.201785,214.285518 266.275728,213.540726 266.06537,212.851427 C265.855011,212.162127 265.377811,211.585532 264.74,211.25 L293.55,145.14 C293.73,145.2 293.91,145.24 294.1,145.27 L289.3,234.87 C288.638489,234.883792 288.00507,235.140006 287.52,235.59 L272.5,221.71 L265.58,215.32 Z M217.15,284.55 L197.65,249.94 C197.97,249.72 198.25,249.44 198.45,249.09 L222.25,261.07 C221.720996,262.351314 222.248258,263.825053 223.47,264.48 C223.57,264.54 223.69,264.58 223.81,264.62 L218.27,284.07 C217.87,284.14 217.48,284.31 217.15,284.55 Z M178.88,309.31 C178.52,309.12 178.14,309.03 177.76,309.01 L177.06,273.39 L216.18,285.91 C216.05,286.31 216.03,286.72 216.09,287.12 L179.77,310.09 C179.535162,309.766929 179.231083,309.500433 178.88,309.31 Z M175,213.91 C175.16,213.94 175.32,213.97 175.48,213.98 L176.55,268.05 L176.65,273.05 L176.51,273.22 L176.65,273.26 L176.65,273.7 L177.35,309.01 C176.148107,309.124272 175.168156,310.022561 174.95,311.21 L173.95,311.11 L147.1,308.2 C147.138807,307.170064 146.587879,306.207881 145.68,305.72 L145.42,305.62 L165.45,243.52 L175,213.91 Z M194.69,249.96 L194.87,250.08 C195.66,250.5 196.55,250.48 197.29,250.14 L216.84,284.83 C216.654993,285.009833 216.496717,285.215255 216.37,285.44 L216.33,285.54 L177.18,273.01 L194.69,249.96 Z M98.96,337.56 C98.9,337.52 98.83,337.5 98.76,337.47 L101.21,330.45 L117.81,282.8 C118.637732,283.020281 119.520887,282.834745 120.19,282.3 L132.13,295.18 L142.43,306.28 C141.62703,307.147003 141.48117,308.435435 142.07,309.46 L99.8,338.26 C99.58,337.97 99.3,337.73 98.96,337.56 Z M161.02,370.78 C160.699967,370.71769 160.37125,370.714302 160.05,370.77 L145.25,310.67 C146.183172,310.360749 146.873324,309.567074 147.05,308.6 L174,311.52 L174.91,311.62 C174.875064,312.646388 175.425437,313.603729 176.33,314.09 L176.69,314.24 L172.66,328.77 L161.02,370.78 Z M377.55,66.53 L378.91,117.06 C378.7,117.08 378.49,117.13 378.29,117.2 L364.39,85.45 L376.42,66.23 C376.78,66.42 377.17,66.51 377.55,66.53 Z M327.61,99.09 L334.45,113.47 L338.5,121.97 C337.859185,122.333457 337.396247,122.94468 337.22,123.66 L315.02,119.82 L314.37,72.97 C314.62,72.95 314.87,72.89 315.1,72.8 L327.61,99.09 Z M319.83,258.01 L291.7,238.91 L291.75,238.83 C291.95,238.45 292.05,238.04 292.05,237.64 L325.59,236.09 L321.32,257.21 C320.76,257.31 320.23,257.58 319.82,258.01 L319.83,258.01 Z M120.88,207.54 L133.47,261.82 L120.06,278 C119.96,277.93 119.88,277.86 119.77,277.8 C119.459556,277.635412 119.119777,277.533478 118.77,277.5 L120.6,207.57 C120.7,207.57 120.79,207.56 120.88,207.54 Z M46.52,310.44 L76.3,298.02 C76.9151012,299.229 78.331732,299.793941 79.61,299.34 L96.41,337.55 C96.01,337.77 95.67,338.09 95.41,338.5 L46.41,312.38 C46.7,311.75 46.72,311.06 46.51,310.44 L46.52,310.44 Z M314.42,284.66 L290.79,239.84 C291.05,239.68 291.28,239.49 291.47,239.24 L319.57,258.33 C319.51,258.41 319.45,258.49 319.4,258.59 C318.740868,259.832139 319.145464,261.372215 320.33,262.13 L315.82,284.45 C315.343852,284.391096 314.860609,284.460131 314.42,284.65 L314.42,284.66 Z M451.22,71.44 C451.5,71.59 451.79,71.68 452.09,71.72 L449.43,108.9 C448.61,108.9 447.83,109.27 447.31,109.93 L420.01,91.76 L450.38,70.76 C450.61,71.03 450.88,71.26 451.22,71.44 Z M262.91,111.24 L300.98,117.81 L294.95,139.95 C294.112692,139.78983 293.248921,140.034503 292.62,140.61 L262.4,112.28 C262.5,112.15 262.6,112.01 262.68,111.86 C262.78,111.66 262.85,111.45 262.91,111.24 Z M63.31,268.47 C63.53,268.99 63.91,269.44 64.42,269.75 L44.97,308.8 C43.7610099,308.301272 42.3685037,308.744342 41.67,309.85 L1.96,288.68 L63.31,268.47 Z M0.93,288.59 L41.49,310.21 C40.962645,311.492436 41.4924609,312.965849 42.7157446,313.618783 C43.9390284,314.271717 45.4580302,313.891872 46.23,312.74 L95.23,338.86 C94.7410028,340.132682 95.2775452,341.57023 96.4808199,342.211298 C97.6840945,342.852367 99.1764978,342.495779 99.96,341.38 L158.03,372.34 C157.502645,373.622436 158.032461,375.095849 159.255745,375.748783 C160.479028,376.401717 161.99803,376.021872 162.77,374.87 L191.23,390.04 C190.676743,391.285688 191.138696,392.74839 192.307063,393.450351 C193.475431,394.152312 194.983771,393.873373 195.823822,392.799992 C196.663873,391.726611 196.572164,390.195438 195.61,389.23 L244.31,333.27 C244.43,333.35 244.54,333.43 244.66,333.49 C245.849456,334.123617 247.323996,333.783093 248.115172,332.692076 C248.906348,331.60106 248.771844,330.0937 247.8,329.16 L278.33,292.06 L278.61,292.25 C279.448814,292.692608 280.45835,292.662649 281.269441,292.171078 C282.080533,291.679508 282.574231,290.798416 282.57,289.85 L312.82,287.54 C312.800875,288.565787 313.364783,289.513782 314.275322,289.986566 C315.185861,290.459349 316.285683,290.375221 317.11372,289.769449 C317.941758,289.163678 318.35492,288.140945 318.18,287.13 L357.53,284.11 L357.65,284.19 L357.71,284.09 L358.17,284.06 L357.84,283.83 L384.5,233.84 L384.72,233.42 L384.87,233.5 L384.86,233.35 L385.41,233.32 L384.91,233.06 L385.08,232.75 L420.33,166.63 L448.35,114.06 C449.632436,114.587355 451.105849,114.057539 451.758783,112.834255 C452.411717,111.610972 452.031872,110.09197 450.88,109.32 L468.05,77.12 L454.95,70.14 C455.477355,68.8575637 454.947539,67.3841514 453.724255,66.7312172 C452.500972,66.0782831 450.98197,66.4581282 450.21,67.61 L399.71,40.69 L399.34,40.49 L387.96,34.42 L387.47,34.17 L330.41,3.74 C330.949731,2.42081062 330.371079,0.909303573 329.088389,0.287793616 C327.805698,-0.333716342 326.260835,0.148871469 325.56,1.39 C325.033961,2.3726497 325.165805,3.57754729 325.891902,4.42318395 C326.617998,5.26882062 327.789096,5.58137428 328.84,5.21 L355.39,65.89 L316.79,69.81 C316.60486,68.730296 315.785692,67.8694696 314.71649,67.6310439 C313.647289,67.3926182 312.539998,67.8238553 311.913674,68.7226074 C311.287349,69.6213594 311.266145,70.809471 311.86,71.73 L262.32,108.81 C261.737112,108.139302 260.861537,107.798344 259.978578,107.898227 C259.095618,107.998109 258.318334,108.526042 257.9,109.31 C257.462275,110.129315 257.476457,111.116114 257.937546,111.922512 C258.398635,112.72891 259.241878,113.24166 260.17,113.28 L261.86,167.99 L250.44,176.98 C250.24,176.76 250.01,176.56 249.74,176.41 C248.753468,175.877126 247.54026,176.009429 246.691772,176.742415 C245.843285,177.475402 245.536116,178.656513 245.92,179.71 L178.02,210 C177.478979,208.993378 176.362817,208.43639 175.233176,208.609317 C174.103535,208.782244 173.205112,209.647628 172.99,210.77 L123.16,204.98 C123.210901,203.72176 122.385248,202.595412 121.170019,202.265291 C119.954791,201.93517 118.672725,202.488948 118.08,203.6 C117.376885,204.909304 117.864057,206.540661 119.17,207.25 L89.33,272.92 L68.46,267.87 C68.6435411,266.786077 68.1515651,265.699104 67.2160745,265.121668 C66.280584,264.544231 65.0883998,264.591648 64.2017242,265.241557 C63.3150485,265.891466 62.9109537,267.014078 63.18,268.08 L0.93,288.59 Z" id="hjrha"></path>
        </g>
    </g>
</svg>