<?xml version="1.0" encoding="UTF-8"?>
<svg width="350px" height="285px" viewBox="0 0 350 285" version="1.1" xmlns="https://www.w3.org/2000/svg" xmlns:xlink="https://www.w3.org/1999/xlink">
    <!-- Generator: Sketch 49.2 (51160) - https://www.bohemiancoding.com/sketch -->
    <title>cdhia</title>
    <desc>Created with Sketch.</desc>
    <defs>
        <path d="M388.78,126.52 L399.39,106.08 C399.99,106.33 400.62,106.36 401.21,106.18 L410.66,131.14 C410.02362,131.438146 409.528561,131.972666 409.28,132.63 L388.78,126.52 Z M355,190.72 C354.79,190.64 354.58,190.57 354.36,190.53 L357.16,154.8 L359.84,120.8 C360.963152,120.802674 361.970659,120.109764 362.37,119.06 L388.2,126.76 L355,190.72 Z M301.88,184.17 C301.949252,183.402507 301.687258,182.641997 301.16,182.08 L343.6,136.03 L350.25,173.56 L353.27,190.59 C352.310662,190.840633 351.565883,191.596929 351.33,192.56 L301.88,184.17 Z M227.21,211.39 C227.073243,211.103064 226.887072,210.842425 226.66,210.62 L252.21,180.4 L296.49,183.91 C296.49,184.18 296.53,184.44 296.61,184.7 L227.21,211.39 Z M210.83,222.14 L211.74,179.67 C211.94,179.67 212.14,179.62 212.34,179.57 L223.64,210.09 C222.942927,210.410147 222.414932,211.011681 222.187872,211.74438 C221.960811,212.477078 222.056122,213.271772 222.45,213.93 L210.83,222.14 Z M209.23,277.34 C208.652692,277.376398 208.102335,277.597242 207.66,277.97 L178.96,248.1 C179.748301,247.217324 179.869914,245.92417 179.26,244.91 L210.4,222.93 L209.23,277.34 Z M155.63,315.81 C155.428238,315.550726 155.180852,315.33045 154.9,315.16 C154.78,315.09 154.66,315.04 154.53,314.99 L169,271.1 L206.71,279.66 C206.62,280.26 206.75,280.86 207.04,281.39 L155.63,315.81 Z M111.92,319.31 L104.55,299.76 L129.28,264.5 C129.98,264.91 130.78,264.97 131.49,264.74 L135.11,273.49 L150,309.53 L152.29,315.07 C151.400753,315.515027 150.831012,316.415833 150.81,317.41 L111.92,319.31 Z M135.02,381.83 L134.75,381.99 L110.7,349.03 L91.45,322.65 C92.0370528,322.157624 92.3832776,321.436019 92.4,320.67 L111.64,319.73 L135.02,381.83 Z M78.4,349.26 L88.89,323.16 C89.6372671,323.398159 90.451163,323.299615 91.12,322.89 L94.24,327.16 L134.42,382.23 C134.25,382.38 134.1,382.54 133.97,382.73 L78.4,349.26 Z M76.95,313.56 C77.6200835,313.483387 78.2372308,313.15876 78.68,312.65 L87.42,319.15 L87.38,319.2 C87.0069342,319.815859 86.8953158,320.555219 87.0699516,321.253762 C87.2445873,321.952305 87.6910085,322.552156 88.31,322.92 L88.51,323.02 L78.31,348.39 L76.95,313.56 Z M66.98,342.37 L76.03,313.5 C76.2,313.54 76.37,313.57 76.54,313.57 L77.94,348.97 L66.98,342.37 Z M17.68,312.67 C18.08,311.88 18.05,310.97 17.67,310.22 L49.24,290.75 L74.36,309.43 L74.32,309.48 C73.9118416,310.159738 73.8230837,310.984522 74.0772736,311.735538 C74.3314636,312.486554 74.9029068,313.087885 75.64,313.38 L66.62,342.16 L17.68,312.67 Z M19.33,271.55 C19.55,271.66 19.77,271.74 20.01,271.79 L15.4,308.77 C14.5,308.73 13.62,309.13 13.07,309.9 L0.71,302.46 L19.33,271.55 Z M91.44,151.83 L92.81,183.19 C91.7855883,183.307559 90.9185224,184.000358 90.5777916,184.97357 C90.2370609,185.946783 90.4826322,187.029127 91.21,187.76 L59.34,224.32 L52.76,216.04 L91.44,151.83 Z M153.4,126.49 C152.972864,127.290779 152.976621,128.252582 153.41,129.05 L92.08,150.76 L121.35,102.18 L128.78,107.82 L153.4,126.49 Z M160.81,101.13 C160.911074,102.188068 161.623506,103.088395 162.63,103.43 L156.99,125.36 C155.821576,124.771789 154.399389,125.1094 153.62,126.16 L121.88,102.07 L160.81,101.13 Z M196.51,100.27 C196.616584,101.341934 197.352372,102.246914 198.38,102.57 L187.42,149.06 C186.958909,148.987463 186.486889,149.035699 186.05,149.2 L164.81,103.22 C165.62555,102.771168 166.148456,101.929971 166.19,101 L196.51,100.27 Z M233.6,62.7 L233.86,62.9 C234.66,63.38 235.6,63.4 236.39,63.04 L252.1,91.36 L201.83,99.37 C201.72,98.92 201.49,98.5 201.16,98.15 L233.6,62.7 Z M288.84,5.46 C288.94,5.54 289.05,5.63 289.17,5.7 C290.383603,6.43005209 291.955049,6.09830236 292.77,4.94 L320.39,21.58 C320.05677,22.2305495 320.002617,22.9886924 320.24,23.68 L281.55,40.38 L237.65,59.33 C237.545213,59.1386287 237.417616,58.9606642 237.27,58.8 L288.84,5.46 Z M403.05,102.89 L433.45,92.03 C433.65,92.49 433.98,92.89 434.42,93.18 L412.95,131.16 C412.356198,130.879793 411.680415,130.826441 411.05,131.01 L401.6,106.05 C402.787448,105.489408 403.399394,104.155788 403.05,102.89 Z M362.45,117.39 L384.63,109.47 L397.98,104.7 C398.19,105.18 398.55,105.6 399.03,105.9 L388.39,126.4 L362.49,118.67 C362.58,118.24 362.57,117.8 362.45,117.38 L362.45,117.39 Z M300.59,181.6 C300.51,181.55 300.42,181.52 300.34,181.49 L321,127.29 L334.67,91.45 C335.01,91.55 335.37,91.58 335.71,91.55 L343.51,135.53 L300.86,181.81 C300.77,181.74 300.69,181.66 300.59,181.61 L300.59,181.6 Z M279.03,148.67 C279.09,148.71 279.15,148.77 279.21,148.8 C279.940141,149.236242 280.833157,149.302941 281.62,148.98 L297.82,181.61 C297.121858,182.014391 296.644011,182.712782 296.52,183.51 L252.52,180.01 L279.03,148.67 Z M214.27,177.39 L235.99,179.11 L225.44,209.94 C224.974315,209.816083 224.483893,209.819537 224.02,209.95 L212.72,179.43 C213.546941,179.054039 214.129401,178.287446 214.27,177.39 Z M178.34,243.99 L178.34,243.98 L199.74,201.16 L210.58,179.46 C210.82,179.56 211.08,179.63 211.34,179.66 L210.41,222.43 L179.02,244.58 C178.829063,244.342824 178.599105,244.13992 178.34,243.98 L178.34,243.99 Z M155.63,267.64 L157.78,211.89 C158.11,211.88 158.44,211.8 158.74,211.67 L175.53,244.01 C174.723044,244.497404 174.231522,245.372949 174.235621,246.315671 C174.23972,247.258393 174.738836,248.129631 175.55,248.61 C175.67,248.69 175.79,248.74 175.91,248.79 L168.73,270.61 L155.63,267.64 Z M153.81,314.8 L155.61,268.05 L168.6,271 L154.15,314.87 C154.03,314.84 153.92,314.81 153.81,314.8 Z M91.41,318.51 L98.98,307.71 L104.28,300.16 L111.48,319.33 L92.38,320.26 C92.2947108,319.573317 91.9471284,318.946235 91.41,318.51 Z M78.04,308.56 C77.9121794,308.485659 77.7783825,308.422105 77.64,308.37 L90.52,267.3 C90.62,267.33 90.74,267.35 90.85,267.36 L89.57,317.89 C88.8350046,317.931216 88.1487061,318.270753 87.67,318.83 L78.92,312.33 L78.96,312.28 C79.3339249,311.665358 79.4470802,310.926899 79.274356,310.228493 C79.1016319,309.530086 78.6573142,308.929497 78.04,308.56 Z M88.94,266.26 C89.2407101,266.673977 89.6536429,266.993219 90.13,267.18 L77.25,308.25 C76.2755567,308.023593 75.2557974,308.354533 74.6,309.11 L49.61,290.51 L88.94,266.26 Z M22.82,270.59 L22.86,270.54 C23.12,270.11 23.23,269.64 23.24,269.18 L88.46,265.05 C88.5,265.35 88.59,265.65 88.73,265.92 L49.26,290.26 L22.82,270.59 Z M36.22,250.84 L22.15,267 L22.1,266.96 L52.54,216.42 L59.07,224.64 L36.22,250.84 Z M154.38,130.08 C154.79,130.32 155.24,130.44 155.68,130.45 L150.32,151.3 L92.78,150.95 L153.63,129.4 C153.83,129.67 154.08,129.9 154.38,130.08 Z M259.03,103.84 C258.047142,104.246091 257.398984,105.196722 257.38,106.26 L201.89,100.09 L201.89,99.77 L252.32,91.74 L259.03,103.84 Z M299.84,84.16 C299.89,84.34 299.94,84.51 300.02,84.68 L270.72,101.13 L262.68,105.65 C262.307199,104.220272 260.854436,103.355744 259.42,103.71 L252.74,91.67 L299.84,84.16 Z M237.74,61.65 L269.36,72.45 L299.86,82.86 C299.79,83.16 299.76,83.46 299.78,83.76 L252.53,91.29 L236.74,62.84 C237.07,62.62 237.36,62.34 237.58,61.98 C237.64,61.88 237.68,61.76 237.74,61.65 Z M320.4,24.05 C320.62,24.47 320.95,24.85 321.4,25.11 C321.5,25.18 321.63,25.23 321.75,25.28 L303.13,80.92 C301.976319,80.6250312 300.765619,81.1206868 300.15,82.14 C300.09,82.24 300.05,82.36 300,82.48 L252.94,66.41 L237.87,61.26 C238.002039,60.7485864 237.981178,60.2096761 237.81,59.71 L267.76,46.77 L320.4,24.05 Z M381.35,60.75 L337.65,87.29 C337.073593,86.4910428 336.107777,86.0694566 335.13,86.19 L323.5,25.4 C324.103729,25.2340697 324.630666,24.862738 324.99,24.35 L381.35,58.31 C380.964903,59.0742284 380.964903,59.9757716 381.35,60.74 L381.35,60.75 Z M362.32,117 C362.097422,116.492884 361.723749,116.066826 361.25,115.78 L361.05,115.68 L361.88,113.65 L382.93,62.09 C383.449061,62.2581809 384.006897,62.2651538 384.53,62.11 L399.3,101.15 C398.104028,101.707868 397.486565,103.048525 397.84,104.32 L381.29,110.22 L362.32,117 Z M337.02,91.06 L357.97,116.16 C356.919119,117.181305 356.87474,118.85442 357.87,119.93 L343.85,135.15 L336.11,91.48 C336.43,91.4 336.74,91.26 337.01,91.06 L337.02,91.06 Z M251.71,180.36 L226.34,210.36 C226.28,210.32 226.23,210.26 226.16,210.23 C226.06,210.16 225.94,210.12 225.82,210.07 L236.42,179.15 L251.71,180.36 Z M240.78,166.39 C241.742811,166.636191 242.763034,166.333574 243.435885,165.602214 C244.108736,164.870854 244.325433,163.828994 244,162.89 L278.23,147.76 C278.36,147.99 278.52,148.21 278.71,148.41 L252.03,179.98 L236.55,178.75 L240.78,166.39 Z M214.14,176.07 L239.08,165.05 C239.3,165.47 239.63,165.84 240.06,166.1 C240.16,166.16 240.28,166.2 240.39,166.26 L236.13,178.71 L214.3,176.98 C214.3,176.67 214.24,176.36 214.14,176.08 L214.14,176.07 Z M104.38,299.3 L92.27,267.13 C93.2087108,266.688136 93.8112033,265.74747 93.82,264.71 L127.99,262.55 C128.09,263.2 128.41,263.82 128.95,264.25 L109.38,292.17 L104.38,299.3 Z M140.52,179.63 C140.32,180.03 140.23,180.45 140.24,180.87 L95.79,185.39 C95.567761,184.134419 94.4945501,183.207365 93.22,183.17 L91.84,151.51 L140.52,179.63 Z M143.42,178.14 C142.373828,177.953316 141.315809,178.400036 140.72,179.28 L92.38,151.35 L150.22,151.71 L143.42,178.14 Z M184.3,151.91 C184.33,152.31 184.45,152.69 184.64,153.04 L177.65,157.65 L176.8,158.21 L145.08,179.15 C144.755598,178.728137 144.313763,178.411546 143.81,178.24 L150.63,151.71 L184.3,151.91 Z M258.67,108.65 C259.08,108.9 259.54,109.01 259.98,109.03 L253.48,128 C252.378148,127.71948 251.21863,128.159297 250.58,129.1 L237.61,121.7 L201.63,101.15 C201.73,100.94 201.81,100.72 201.85,100.5 L257.4,106.67 C257.5,107.47 257.93,108.21 258.67,108.65 Z M281.98,148.8 C282.70185,148.375708 283.184963,147.639477 283.286889,146.808392 C283.388814,145.977307 283.097928,145.146152 282.5,144.56 L300.99,122.69 L299.8,159 L299.08,181.22 C298.77,181.23 298.46,181.31 298.18,181.42 L293.44,171.87 L281.98,148.8 Z M242.85,161.46 C242.75,161.4 242.63,161.36 242.52,161.3 L252.13,133.22 C253.234992,133.505155 254.399938,133.064797 255.04,132.12 L278.18,145.33 C277.86,145.99 277.84,146.73 278.07,147.38 L243.83,162.51 C243.604536,162.077648 243.265794,161.71471 242.85,161.46 Z M213.97,175.7 C213.591887,174.981566 212.908486,174.473259 212.111653,174.317779 C211.314819,174.162299 210.490459,174.376409 209.87,174.9 L203.32,168.2 L189.02,153.51 C189.277644,153.221697 189.468815,152.88032 189.58,152.51 L214.7,158.07 L238.78,163.4 C238.71,163.83 238.78,164.27 238.91,164.68 L224.68,170.97 L213.97,175.7 Z M159.1,211.48 C159.907998,210.994347 160.40141,210.119882 160.399361,209.177164 C160.397311,208.234447 159.900102,207.362135 159.09,206.88 L185.95,154.21 C186.14,154.29 186.32,154.35 186.51,154.38 L177.03,243.61 C176.63,243.59 176.25,243.66 175.89,243.81 L166.54,225.81 L159.1,211.48 Z M23.2,268.78 C23.1244634,268.203639 22.8649343,267.667045 22.46,267.25 L59.33,224.95 L89.3,262.7 C89.11,262.87 88.94,263.06 88.8,263.28 C88.55,263.71 88.44,264.18 88.43,264.64 L63.86,266.2 L23.2,268.78 Z M201.44,101.5 L250.39,129.44 C250.120417,129.996187 250.049821,130.628029 250.19,131.23 L234.1,136.39 L189.5,150.7 C189.201905,149.954631 188.585378,149.382142 187.82,149.14 L198.79,102.66 C199.823427,102.819069 200.855793,102.367166 201.44,101.5 Z M189.68,152.1 C189.73,151.76 189.71,151.42 189.63,151.09 L250.32,131.61 C250.53,132.14 250.9,132.61 251.42,132.91 C251.53,132.98 251.64,133.03 251.76,133.08 L242.14,161.16 C240.738455,160.797374 239.300328,161.604666 238.88,162.99 L215.27,157.76 L189.68,152.1 Z M156.63,206.7 L144.37,183.08 C145.592104,182.321858 146.005449,180.738836 145.31,179.48 L168.11,164.44 L184.87,153.37 C185.07,153.62 185.31,153.85 185.6,154.03 L158.73,206.69 C158.058679,206.406625 157.301321,206.406625 156.63,206.69 L156.63,206.7 Z M132.07,259.85 L132.65,258.72 L156.65,211.67 C156.89,211.77 157.14,211.84 157.39,211.87 L155.24,267.54 L133.34,262.56 C133.497576,261.486582 132.997346,260.423102 132.07,259.86 L132.07,259.85 Z M155.24,208.08 L139.88,202.53 L142.76,183.48 C143.19,183.51 143.62,183.44 144.02,183.27 L156.28,206.89 C155.92,207.11 155.61,207.4 155.38,207.79 C155.32,207.88 155.28,207.98 155.24,208.08 Z M141.56,183.11 C141.81,183.26 142.08,183.35 142.36,183.41 L141.93,186.24 L139.49,202.39 L106.86,190.59 L95.74,186.58 C95.81,186.31 95.85,186.05 95.84,185.78 L140.3,181.26 C140.432571,182.029916 140.892131,182.704666 141.56,183.11 Z M156.29,211.49 L131.89,259.32 L131.71,259.68 C131.56,259.62 131.41,259.58 131.27,259.54 L139.82,202.94 L155.1,208.46 C154.774753,209.622455 155.260614,210.859563 156.29,211.49 Z M94.51,188.18 C94.89,187.95 95.22,187.65 95.46,187.25 C95.52,187.15 95.56,187.05 95.6,186.95 L115.57,194.17 L139.43,202.79 L130.87,259.48 C130.46,259.45 130.05,259.51 129.67,259.66 L118.58,237.13 L94.51,188.18 Z M127.97,262.13 L93.8,264.29 C93.6260961,263.061623 92.6346619,262.111499 91.4,261.99 L93.28,188.56 C93.58,188.54 93.88,188.46 94.15,188.36 L129.3,259.84 C128.484151,260.315679 127.978885,261.185648 127.97,262.13 Z M71.61,210.87 L91.53,188.01 C91.61,188.07 91.67,188.13 91.75,188.17 C92.1,188.39 92.49,188.5 92.87,188.54 L91,261.96 C90.51,261.99 90.03,262.16 89.62,262.43 L59.61,224.63 L71.61,210.87 Z M209.58,175.17 C209.049568,175.77051 208.813243,176.575587 208.934931,177.367523 C209.056618,178.159459 209.523748,178.856444 210.21,179.27 L210.22,179.28 L177.98,243.79 C177.805808,243.721053 177.624796,243.670772 177.44,243.64 L186.92,154.41 C187.58,154.43 188.22,154.21 188.74,153.78 L203,168.44 L209.58,175.17 Z M261.58,108.57 L279.24,144.16 C278.91,144.36 278.61,144.63 278.38,144.96 L255.25,131.76 C255.85372,130.507813 255.407998,129.00188 254.22,128.28 L253.88,128.12 L260.43,109 C260.83,108.94 261.23,108.8 261.58,108.57 Z M301.08,85.84 C301.44,86.05 301.81,86.17 302.19,86.21 L301.03,121.81 L262.62,107.26 C262.76,106.86 262.8,106.46 262.76,106.06 L300.24,85.02 C300.45,85.34 300.74,85.63 301.09,85.84 L301.08,85.84 Z M299.97,181.33 C299.813392,181.28207 299.652719,181.248597 299.49,181.23 L301.26,127.17 L301.42,122.17 L301.56,122.01 L301.43,121.96 L301.44,121.52 L302.6,86.22 C303.80135,86.1637966 304.820692,85.3197816 305.1,84.15 L306.11,84.32 L332.76,88.62 C332.68,89.62 333.14,90.62 334.06,91.17 L334.3,91.29 L311.06,152.25 L299.97,181.33 Z M282.2,144.29 C282.13,144.25 282.08,144.19 282.01,144.16 C281.282465,143.727045 280.393976,143.660408 279.61,143.98 L261.91,108.31 C262.09,108.14 262.26,107.95 262.4,107.72 L262.44,107.62 L300.88,122.19 L282.2,144.29 Z M382.37,61.83 L382.57,61.92 L379.76,68.8 L360.69,115.52 C359.876546,115.25632 358.98627,115.393571 358.29,115.89 L347.03,102.41 L337.33,90.78 C337.49,90.62 337.65,90.45 337.77,90.25 C338.27,89.42 338.27,88.43 337.86,87.63 L381.57,61.08 C381.77,61.38 382.05,61.63 382.37,61.83 Z M322.14,25.39 C322.46,25.47 322.79,25.49 323.11,25.46 L334.74,86.24 C333.792331,86.5030422 333.063756,87.2622941 332.84,88.22 L306.07,83.9 L305.17,83.75 C305.25,82.76 304.79,81.75 303.87,81.21 C303.77,81.14 303.65,81.09 303.53,81.04 L308.31,66.74 L322.14,25.39 Z M89.98,317.9 L91.28,267.37 C91.48,267.36 91.69,267.31 91.89,267.26 L104.11,299.69 L91.09,318.26 C90.74,318.06 90.36,317.94 89.99,317.9 L89.98,317.9 Z M152.68,314.9 L141.55,288 L135.48,273.28 L131.88,264.58 C132.54007,264.251448 133.035623,263.665466 133.25,262.96 L155.22,267.95 L153.42,314.77 C153.16,314.77 152.92,314.83 152.67,314.91 L152.68,314.9 Z M157.65,129.7 L184.74,150.25 L184.69,150.32 C184.46,150.69 184.35,151.09 184.32,151.5 L150.75,151.3 L156.11,130.43 C156.688885,130.360008 157.229354,130.103812 157.65,129.7 Z M353.68,190.51 L343.95,135.65 L358.19,120.2 C358.28,120.27 358.36,120.34 358.46,120.4 C358.77,120.6 359.11,120.7 359.45,120.76 L353.96,190.5 L353.68,190.51 Z M433.33,91.64 L402.93,102.49 C402.378863,101.254073 400.997927,100.617047 399.7,101 L384.92,61.96 C385.33,61.76 385.69,61.46 385.97,61.06 L433.53,89.71 C433.22,90.33 433.16,91.01 433.33,91.64 Z M164.44,103.4 L185.68,149.38 C185.42,149.53 185.18,149.71 184.98,149.95 L157.9,129.4 L158.09,129.15 C158.809493,127.943284 158.483342,126.386457 157.34,125.57 L163.01,103.51 C163.49,103.59 163.98,103.54 164.43,103.38 L164.44,103.4 Z M16.67,309.15 C16.4004463,308.994339 16.1061738,308.8861 15.8,308.83 L20.41,271.84 C21.2360678,271.881906 22.0357691,271.542862 22.58,270.92 L48.89,290.5 L17.46,309.88 C17.26,309.6 16.99,309.35 16.66,309.15 L16.67,309.15 Z M206.8,279.27 L169.12,270.71 L176.3,248.92 C177.13,249.13 178,248.93 178.66,248.39 L207.36,278.26 C207.26,278.38 207.15,278.52 207.06,278.66 C206.94,278.86 206.86,279.06 206.8,279.26 L206.8,279.27 Z M414.35,132.7 C414.15,132.17 413.81,131.7 413.31,131.37 L434.78,93.38 C435.96,93.94 437.36,93.58 438.12,92.51 L476.67,115.73 L414.35,132.7 Z M477.7,115.87 L438.33,92.16 C438.912879,90.9086168 438.457926,89.419104 437.275316,88.7069666 C436.092705,87.9948293 434.563385,88.289465 433.73,89.39 L386.17,60.74 C386.752879,59.4886168 386.297926,57.999104 385.115316,57.2869666 C383.932705,56.5748293 382.403385,56.869465 381.57,57.97 L325.2,24 C325.782879,22.7486168 325.327926,21.259104 324.145316,20.5469666 C322.962705,19.8348293 321.433385,20.129465 320.6,21.23 L292.97,4.59 C293.585917,3.37498674 293.200292,1.89146674 292.07066,1.13018994 C290.941028,0.368913142 289.421236,0.56834279 288.526259,1.59529233 C287.631281,2.62224187 287.641461,4.15502843 288.55,5.17 L236.98,58.51 C235.881455,57.6269339 234.288477,57.7374465 233.322394,58.7637457 C232.356311,59.790045 232.342203,61.3867903 233.29,62.43 L200.86,97.88 C200.77,97.81 200.69,97.74 200.59,97.68 C199.776932,97.1948189 198.769131,97.1709846 197.934036,97.6171871 C197.098942,98.0633896 196.558593,98.9144217 196.51,99.86 L166.18,100.59 C166.260794,99.5622292 165.749266,98.5781568 164.861651,98.0537714 C163.974036,97.5293861 162.865281,97.5562275 162.00408,98.1229491 C161.142879,98.6896708 160.679568,99.6973426 160.81,100.72 L121.36,101.68 L121.23,101.58 L121.18,101.68 L120.71,101.69 L121.02,101.93 L91.79,150.46 L91.55,150.86 L91.4,150.78 L91.4,150.94 L90.85,150.94 L91.34,151.22 L91.15,151.52 L52.5,215.7 L21.75,266.74 C20.4986168,266.157121 19.009104,266.612074 18.2969666,267.794684 C17.5848293,268.977295 17.879465,270.506615 18.98,271.34 L0.15,302.6 L12.86,310.25 C12.2771212,311.501383 12.7320735,312.990896 13.9146843,313.703033 C15.097295,314.415171 16.626615,314.120535 17.46,313.02 L66.49,342.55 L66.85,342.77 L77.9,349.43 L78.37,349.71 L133.76,383.07 C133.125553,384.362622 133.617122,385.925668 134.877228,386.622464 C136.137335,387.319261 137.722516,386.904586 138.48,385.68 C139.050511,384.727458 138.979718,383.522767 138.301568,382.643602 C137.623418,381.764437 136.476189,381.390063 135.41,381.7 L112.07,319.7 L150.83,317.81 C150.955643,318.900255 151.728713,319.805986 152.785704,320.101305 C153.842695,320.396623 154.973278,320.022765 155.645836,319.155524 C156.318395,318.288282 156.399099,317.100228 155.85,316.15 L207.25,281.72 C207.796831,282.424366 208.656172,282.813313 209.54625,282.759308 C210.436329,282.705304 211.24234,282.215313 211.7,281.45 C212.178435,280.654785 212.214936,279.669586 211.796656,278.841149 C211.378377,278.012712 210.563943,277.457151 209.64,277.37 L210.82,222.64 L222.69,214.26 C223.511222,215.242546 224.909669,215.513086 226.038086,214.907712 C227.166503,214.302338 227.71447,212.987585 227.35,211.76 L296.75,185.08 C297.237843,186.111053 298.320988,186.72431 299.456101,186.612145 C300.591214,186.49998 301.533387,185.686593 301.81,184.58 L351.26,192.96 C351.146399,194.212445 351.912522,195.377475 353.107471,195.769418 C354.30242,196.161361 355.609734,195.676418 356.26,194.6 C357.028838,193.329071 356.626691,191.6758 355.36,190.9 L388.6,126.88 L409.17,133.02 C408.936267,134.090371 409.37252,135.195871 410.274219,135.818178 C411.175917,136.440485 412.364278,136.45621 413.282127,135.85798 C414.199977,135.259751 414.665329,134.166181 414.46,133.09 L477.7,115.87 Z" id="path-1"></path>
    </defs>
    <g id="Page-1" stroke="none" stroke-width="1" fill="none" fill-rule="evenodd">
        <g id="Group" transform="translate(-128.000000, -102.000000)">
            <g id="dots-left">
                <mask id="mask-2" fill="white">
                    <use xlink:href="#path-1"></use>
                </mask>
                <use id="cdhia" fill="#6B6C81" fill-rule="nonzero" xlink:href="#path-1"></use>
            </g>
        </g>
    </g>
</svg>