<?xml version="1.0" encoding="UTF-8"?>
<svg width="1691px" height="520px" viewBox="0 0 1691 520" version="1.1" xmlns="http://www.w3.org/2000/svg" xmlns:xlink="http://www.w3.org/1999/xlink">
    <!-- Generator: Sketch 49.2 (51160) - http://www.bohemiancoding.com/sketch -->
    <title>dots-full-bottom</title>
    <desc>Created with Sketch.</desc>
    <defs></defs>
    <g id="Page-1" stroke="none" stroke-width="1" fill="none" fill-rule="evenodd" opacity="0.2">
        <g id="dots-full-bottom" fill="#FFFFFF" fill-rule="nonzero">
            <g id="Page-1">
                <g id="dots-full-bottom">
                    <g id="Page-1">
                        <g id="dots-full-bottom">
                            <g id="Group">
                                <g id="v9y2a-link">
                                    <path d="M495.93,350.48 C496.166482,351.334023 496.730767,352.060046 497.5,352.5 L482.83,382.85 C482.093602,382.563324 481.280343,382.542108 480.53,382.79 L469.45,355.89 L495.93,350.48 Z M468.74,355.51 L435.39,362.33 C435.001882,360.963946 433.805616,359.983008 432.39,359.87 L432.81,316.79 L433.25,271.5 C433.53,271.48 433.81,271.42 434.08,271.33 L468.74,355.51 Z M429.66,268.62 C429.847065,269.863033 430.704705,270.901431 431.89,271.32 L426.19,292.4 L413.65,338.9 L365.37,276.22 C366.092961,275.569954 366.504074,274.642222 366.5,273.67 L429.66,268.62 Z M359.93,272.42 C359.81,272.74 359.73,273.06 359.7,273.4 L303.58,272.9 L274.79,232.02 C275.11,231.76 275.37,231.46 275.57,231.12 L359.93,272.42 Z M269.87,227.39 C269.294887,228.172372 269.081728,229.163311 269.28427,230.112963 C269.486811,231.062614 270.085724,231.880355 270.93,232.36 L253.33,269.51 C253.08,269.41 252.83,269.34 252.58,269.31 L256.15,215.77 L269.87,227.39 Z M255.71,214.72 L218.96,183.59 C219.840889,182.384947 219.832776,180.746273 218.94,179.55 L258.38,145.15 C258.9,145.67 259.57,146.01 260.28,146.11 L255.71,214.72 Z M257.97,140.8 C257.535944,141.422641 257.321344,142.171982 257.36,142.93 L208.96,149.51 L195.65,92.66 C195.81,92.61 195.97,92.56 196.12,92.48 C196.51,92.3 196.83,92.04 197.11,91.75 L257.97,140.8 Z M191.22,89.2 C191.133849,90.4534704 191.750089,91.6512882 192.82,92.31 L189.32,99.03 L166.59,142.72 L161.06,153.34 C160.157093,152.947608 159.12843,152.965847 158.24,153.39 L131.06,106.26 L142.49,82.49 L191.22,89.2 Z M142.19,81.93 L118.08,78.6 C118.122141,78.0151954 118.011884,77.4294587 117.76,76.9 C117.59,76.55 117.36,76.27 117.11,76 L144.27,44.94 L178.2,6.14 C178.3,6.22 178.41,6.31 178.53,6.38 L142.19,81.93 Z M177.3,5.13 C177.45,5.38 177.62,5.61 177.81,5.8 L121.12,70.64 L116.72,75.67 C115.925509,75.0734245 114.909822,74.8542115 113.94,75.07 L103.66,41.07 L177.3,5.13 Z M103.45,42.16 L113.45,75.22 L113.18,75.32 C112.363786,75.7184319 111.739586,76.4251757 111.44506,77.2843656 C111.150534,78.1435554 111.209877,79.0846142 111.61,79.9 L111.65,79.96 L99.93,87.17 C99.4295666,86.4779539 98.6870203,85.9995828 97.85,85.83 L103.45,42.16 Z M103.03,41.38 L97.34,85.78 C97.123192,85.7658832 96.90553,85.7725805 96.69,85.8 L88.51,48.46 L103.03,41.38 Z M88.03,48.7 L96.19,85.9 C96.01,85.96 95.83,86.01 95.67,86.1 C93.9721002,86.925999 93.2648358,88.9716944 94.09,90.67 L94.13,90.73 L60.45,111.45 L22.88,83.43 C23.45,82.53 23.58,81.39 23.17,80.35 L88.03,48.7 Z M0.68,91.32 L17.07,83.32 C17.6533058,84.3247081 18.7092316,84.9620347 19.87,85.01 L21.55,132.06 C21.25,132.1 20.96,132.17 20.67,132.29 L0.68,91.32 Z M56.58,205.86 L65.77,196.16 L101.81,245.72 C100.821848,246.562274 100.397771,247.892633 100.716176,249.151397 C101.034582,250.410162 102.040212,251.378874 103.31,251.65 L98.11,290.97 L56.58,205.86 Z M140.19,350.49 L130.21,356.77 L98.79,292.37 L173.55,326.52 C172.916804,327.471557 172.804091,328.677592 173.25,329.73 L140.19,350.49 Z M130.86,356.96 L173.49,330.19 C174.354706,331.596701 176.105094,332.178757 177.64,331.57 L182.29,359.8 C180.98975,360.115716 179.995567,361.164696 179.75,362.48 L130.86,356.96 Z M186.5,363.24 C186.52,362.7 186.43,362.14 186.17,361.62 C185.9,361.06 185.49,360.62 185.01,360.3 L216.86,304.8 C217.39,305.04 217.97,305.17 218.56,305.13 L227.19,364.84 C225.856589,365.13054 224.830034,366.196578 224.59,367.54 L186.5,363.24 Z M230.2,370.71 C230.65,370.31 230.99,369.81 231.17,369.25 L293.55,384.93 L270.62,418.81 C269.635758,418.248629 268.437372,418.21118 267.42,418.71 C267.3,418.77 267.19,418.85 267.07,418.93 L230.2,370.71 Z M271.26,424.26 C271.46,424.06 271.64,423.86 271.79,423.62 L324.93,452.36 L371.76,477.68 C371.385542,478.5202 371.367503,479.476273 371.71,480.33 L335.1,498.19 C334.204911,496.642908 332.264778,496.053002 330.66,496.84 C330.5,496.92 330.36,497.01 330.22,497.11 L271.26,424.26 Z M484.66,384.53 C484.362883,383.918272 483.889145,383.409701 483.3,383.07 L497.96,352.72 C498.72,353.02 499.57,353.03 500.38,352.74 L523.18,402.92 C522.613044,403.226428 522.144856,403.687681 521.83,404.25 L484.78,387.21 C485.109019,386.337979 485.065637,385.369126 484.66,384.53 Z M435.48,362.84 L468.94,356 L480.05,382.97 C479.41,383.29 478.92,383.79 478.6,384.37 L462.32,376.89 L435.3,364.46 C435.490466,363.942583 435.552241,363.386607 435.48,362.84 Z M364.96,276.54 L413.48,339.51 L398.78,394 C398.344328,393.912721 397.895672,393.912721 397.46,394 L384.24,347.38 L364.27,276.88 C364.37,276.84 364.49,276.81 364.59,276.76 C364.73,276.69 364.84,276.61 364.96,276.53 L364.96,276.54 Z M303.94,273.41 L359.69,273.91 C359.758789,274.92668 360.279954,275.858904 361.11,276.45 L337.11,315.7 C336.153989,315.202437 335.01869,315.187596 334.05,315.66 C333.95,315.7 333.89,315.76 333.8,315.81 L303.94,273.41 Z M255.17,271.19 C254.869737,270.571378 254.388444,270.058697 253.79,269.72 L271.39,232.57 C271.963661,232.788082 272.585654,232.846826 273.19,232.74 L283.03,272.71 L255.51,272.46 C255.480374,272.018578 255.364881,271.587181 255.17,271.19 Z M218.63,183.99 L255.67,215.36 L252.07,269.28 C251.74,269.28 251.41,269.34 251.09,269.43 L239.86,240.93 L217.69,184.67 L217.7,184.67 C218.06,184.49 218.37,184.25 218.63,183.98 L218.63,183.99 Z M208.56,150.09 L215.18,178.35 C215.02,178.4 214.86,178.45 214.71,178.52 C213.645315,179.046028 212.92972,180.086708 212.819632,181.269138 C212.709543,182.451568 213.220722,183.606465 214.17,184.32 L189.45,223.14 C189.08,222.94 188.68,222.81 188.26,222.76 L191.76,152.37 L208.56,150.09 Z M195.15,92.78 L208.45,149.58 L191.78,151.85 L194.71,92.82 C194.85,92.82 195,92.8 195.15,92.78 Z M118,79.1 L141.95,82.4 L130.74,105.72 L124.91,95.62 L116.59,81.2 C117.312583,80.7073856 117.817565,79.9552855 118,79.1 Z M100.23,87.66 L100.19,87.6 L111.91,80.38 C112.452164,81.1424093 113.283749,81.648591 114.21,81.78 L110.21,145.5 C110.06,145.5 109.91,145.52 109.77,145.54 L98.13,92.43 C98.31,92.37 98.48,92.32 98.65,92.23 C100.3479,91.404001 101.055164,89.3583056 100.23,87.66 Z M60.88,111.77 L94.39,91.17 C95.1338814,92.1895353 96.381292,92.7131398 97.63,92.53 L109.27,145.65 C108.650677,145.831274 108.095731,146.185052 107.67,146.67 L60.88,111.77 Z M60.41,112.07 L107.37,147.08 C107.16,147.41 107.02,147.78 106.93,148.15 L25.32,135.7 C25.36,135.11 25.27,134.5 24.99,133.94 L24.95,133.87 L60.41,112.07 Z M65.45,195.73 L56.32,205.35 L23.64,138.37 L23.71,138.33 L39.61,160.21 L65.45,195.73 Z M173.85,326.09 L99.67,292.21 L172.12,298.17 L176.55,325 C175.529998,324.93971 174.537469,325.344074 173.85,326.1 L173.85,326.09 Z M293.85,384.47 L231.28,368.74 L231.32,368.34 L301.82,366.76 C301.736101,368.098899 302.449648,369.36133 303.64,369.98 L293.85,384.47 Z M294.37,384.6 L304.12,370.2 C305.886643,370.806947 307.81278,369.879548 308.44,368.12 L318.06,374.7 L353.09,398.65 C352.97,398.85 352.88,399.07 352.81,399.29 L294.37,384.6 Z M271.03,419.1 L294.07,385.05 L352.69,399.79 C352.62,400.16 352.63,400.54 352.69,400.93 L313.14,410.64 L272.15,420.71 L271.99,420.27 C271.76255,419.81245 271.434323,419.412423 271.03,419.1 Z M308.27,442.76 L272.02,423.16 C272.29,422.56 272.38,421.88 272.27,421.21 L291.81,416.41 L352.81,401.43 C352.86,401.57 352.91,401.73 352.98,401.87 C353.639118,403.215463 355.101259,403.970903 356.58,403.73 L373.82,475.83 C373.67,475.87 373.51,475.92 373.36,475.99 C372.77,476.28 372.32,476.71 371.99,477.22 L308.27,442.76 Z M452.51,440.89 L377.8,477.35 C377.405475,476.662926 376.782758,476.135739 376.04,475.86 L397.44,400.67 C398.654228,400.930673 399.913613,400.504479 400.72,399.56 L452.78,437.83 C452.208082,438.748884 452.107821,439.885166 452.51,440.89 Z M458.2,375.55 L478.38,384.83 C477.794701,386.386242 478.420757,388.137508 479.86,388.97 L456.92,436.46 C456.280562,436.20799 455.57976,436.155691 454.91,436.31 L434.16,369.08 L433.34,366.42 C433.43,366.39 433.51,366.37 433.59,366.33 C434.222213,366.023079 434.743036,365.526725 435.08,364.91 L458.2,375.55 Z M399.26,394.11 L413.86,340.01 L429.82,360.73 C428.443712,361.967713 428.310369,364.078966 429.52,365.48 L400.35,394.74 C400.03,394.46 399.65,394.25 399.26,394.11 Z M283.56,272.71 L273.67,232.61 L274.11,232.45 C274.2,232.41 274.27,232.35 274.36,232.3 L302.94,272.88 L283.56,272.71 Z M283.68,273.22 L303.3,273.4 L333.37,316.09 C333.1,316.31 332.87,316.57 332.69,316.86 L291.29,294.01 C291.815693,292.864471 291.664555,291.522122 290.897296,290.522169 C290.130036,289.522217 288.872564,289.028753 287.63,289.24 L283.68,273.22 Z M255.48,272.97 L283.15,273.21 L287.13,289.36 C286.98,289.41 286.83,289.46 286.69,289.53 C286.140038,289.800967 285.673577,290.215599 285.34,290.73 L255.18,274.09 C255.35,273.74 255.45,273.36 255.48,272.97 Z M136.3,116.35 L157.81,153.65 C157.101636,154.132457 156.60161,154.864638 156.41,155.7 L113.66,149.18 C113.770699,147.871919 113.116226,146.617511 111.98,145.96 L130.8,106.83 L136.3,116.35 Z M98.55,291.4 L103.82,251.7 C104.38,251.74 104.96,251.65 105.51,251.38 C106.390354,250.944539 107.039388,250.149654 107.29,249.2 L162.73,259.84 C162.67,260.36 162.74,260.9 162.93,261.43 L98.55,291.4 Z M172.03,297.65 L99.22,291.65 L163.15,261.89 C163.803433,263.061093 165.084206,263.738688 166.42,263.62 L172.03,297.65 Z M172.56,297.69 L166.93,263.54 C167.583025,263.381958 168.174586,263.033981 168.63,262.54 L206.21,292.41 L207.21,293.21 L215.51,299.8 C215.224998,300.210005 215.033802,300.677752 214.95,301.17 L172.56,297.69 Z M301.9,366.24 L231.31,367.83 C231.29,367.54 231.21,367.26 231.11,366.98 L278.67,345.13 L295.81,337.25 C296.50745,338.513583 297.926662,339.199134 299.35,338.96 L305.42,363.56 C303.746427,363.463417 302.252209,364.60106 301.9,366.24 Z M354.5,288.2 L361.53,276.7 C361.88,276.89 362.25,277.01 362.63,277.06 L361.08,305.1 L358.54,350.93 L337.7,321.35 C338.517264,320.678373 338.976552,319.66549 338.943267,318.608184 C338.909981,317.550879 338.387891,316.568891 337.53,315.95 L354.5,288.2 Z M291.04,294.46 L332.44,317.31 C332.06325,318.129126 332.02728,319.064356 332.34,319.91 L301.77,333.95 C301.069616,332.690274 299.651051,332.009042 298.23,332.25 L289.25,295.83 C289.4,295.79 289.55,295.74 289.69,295.67 C290.27,295.39 290.72,294.97 291.04,294.47 L291.04,294.46 Z M267.89,281.69 L285.09,291.19 C284.858481,291.690314 284.752091,292.239422 284.78,292.79 L253.89,296.81 L221.66,301.01 C221.555764,300.532465 221.351247,300.08253 221.06,299.69 L240.7,282.81 L249.68,275.09 C250.405063,275.817228 251.419971,276.177783 252.441329,276.070987 C253.462688,275.964191 254.381057,275.401487 254.94,274.54 L267.89,281.69 Z M200.83,206.2 L214.59,184.59 C215.02,184.82 215.5,184.95 215.99,184.99 L218,298.32 C217.759027,298.341275 217.521012,298.388208 217.29,298.46 L189.34,229.2 C190.39897,228.670749 191.108915,227.631474 191.216831,226.452542 C191.324747,225.273611 190.815284,224.122715 189.87,223.41 L200.83,206.2 Z M76.1,143.96 L106.85,148.66 C106.79946,149.261396 106.909907,149.865406 107.17,150.41 C107.32,150.71 107.51,150.96 107.72,151.2 L65.82,195.35 L24.12,138.03 C24.6810595,137.556869 25.0739629,136.914893 25.24,136.2 L76.1,143.96 Z M227.69,364.76 L219.06,305.04 C220.054551,304.821055 220.898594,304.167839 221.36,303.26 L275.88,326.23 L295.55,334.52 C295.306055,335.260041 295.323707,336.061418 295.6,336.79 L230.9,366.51 C230.261362,365.352063 229.009272,364.669459 227.69,364.76 Z M254.56,297.24 L284.86,293.29 C285.232296,295.081745 286.955986,296.25739 288.76,295.95 L297.73,332.37 L297.29,332.53 C296.6,332.87 296.09,333.41 295.76,334.05 L221.56,302.8 C221.7,302.39 221.76,301.96 221.74,301.52 L254.56,297.24 Z M188.86,229.38 L216.81,298.65 C216.433993,298.833067 216.094986,299.083932 215.81,299.39 L195.95,283.6 L168.94,262.14 C169.964954,260.634113 169.620994,258.58799 168.16,257.5 L186.22,229.14 C187.02,229.57 187.96,229.67 188.86,229.38 Z M163.12,156.25 L191.22,152.43 L187.74,222.73 C187.42,222.73 187.11,222.79 186.8,222.89 L161.82,161.01 L161.22,159.52 C162.453218,158.911183 163.201774,157.62288 163.12,156.25 Z M184.75,227.64 C185,228.14 185.37,228.54 185.79,228.86 L167.73,257.22 C167.249537,256.96366 166.71453,256.826479 166.17,256.82 L164.67,232.53 L184.61,227.25 C184.66,227.38 184.69,227.51 184.75,227.64 Z M162.84,259.34 L107.4,248.7 C107.44,248.37 107.42,248.03 107.35,247.69 L121.8,243.87 L164.16,232.67 L165.43,253.25 L165.66,256.85 C164.30616,257.032931 163.19442,258.010632 162.84,259.33 L162.84,259.34 Z M184.48,226.76 L164.64,232.01 L160.18,159.83 C160.37,159.8 160.56,159.76 160.74,159.7 L160.94,160.17 L186.31,223.07 C184.939607,223.74852 184.190792,225.258426 184.48,226.76 Z M141.72,186.62 L158.17,159.49 C158.63,159.73 159.14,159.85 159.67,159.86 L164.13,232.14 L133.15,240.34 L107.22,247.19 C107.18,247.06 107.14,246.93 107.08,246.81 C106.825352,246.30131 106.447137,245.864644 105.98,245.54 L141.72,186.62 Z M156.64,157.96 C156.9,158.49 157.28,158.91 157.74,159.23 L105.54,245.27 C105.21,245.1 104.85,244.97 104.48,244.92 L110.28,152.32 C111.854858,152.311608 113.215226,151.216678 113.56,149.68 L156.32,156.2 C156.27,156.79 156.36,157.39 156.64,157.96 Z M66.12,195.78 L108.09,151.55 C108.58,151.95 109.16,152.21 109.78,152.3 L103.96,244.9 C103.47,244.9 102.98,245 102.51,245.24 L102.21,245.42 L79.69,214.44 L66.12,195.78 Z M240.32,282.46 L220.72,299.3 C220.132332,298.712177 219.349693,298.359989 218.52,298.31 L216.52,184.98 C216.74,184.96 216.97,184.91 217.2,184.84 L250.6,269.6 L250.59,269.6 C249.679277,270.045806 249.01333,270.872754 248.77195,271.857586 C248.53057,272.842418 248.738645,273.883587 249.34,274.7 L240.32,282.46 Z M305.96,363.64 L299.86,338.84 L300.29,338.68 C301.869519,337.910058 302.602127,336.063364 301.98,334.42 L332.56,320.37 C332.81,320.83 333.15,321.2 333.55,321.48 L307.35,364.3 C306.943191,363.976668 306.467682,363.750887 305.96,363.64 Z M353.39,398.24 L308.58,367.59 C308.67,367.09 308.66,366.57 308.52,366.06 L358.48,352.03 L355.98,396.96 C355.5,396.96 355.01,397.06 354.55,397.29 C354.098462,397.513515 353.702243,397.834589 353.39,398.23 L353.39,398.24 Z M374.49,314.84 L396.95,394.14 C396.85,394.18 396.73,394.21 396.63,394.26 C395.460136,394.830361 394.718517,396.018505 394.72,397.32 L360.7,399.77 L359.42,399.87 C359.201333,398.362643 358.009535,397.183089 356.5,396.98 L358.97,352.44 L359,351.88 L359.17,351.83 L359.01,351.61 L359.36,345.31 L363.16,277.09 C363.36,277.09 363.56,277.06 363.76,277.01 L374.49,314.84 Z M358.33,351.54 L308.34,365.58 L308.3,365.46 C308.15,365.16 307.95,364.9 307.74,364.66 L333.98,321.76 C334.937601,322.254398 336.07289,322.265528 337.04,321.79 L337.28,321.64 L358.33,351.54 Z M453.07,437.41 L401.02,399.14 C401.813025,397.874387 401.68726,396.239437 400.71,395.11 L414.21,381.56 L429.87,365.86 C430.68,366.55 431.79,366.83 432.85,366.58 L451.65,427.48 L454.42,436.46 L454.17,436.56 C453.73,436.77 453.37,437.06 453.07,437.41 Z M361.52,422.14 L357.09,403.61 C357.24,403.56 357.39,403.51 357.55,403.44 C358.715974,402.866807 359.453349,401.679243 359.45,400.38 L360.61,400.29 L394.76,397.83 C394.939903,399.063389 395.780276,400.099465 396.95,400.53 L375.55,475.73 C375.15,475.65 374.73,475.63 374.32,475.7 L361.52,422.14 Z M116.16,81.47 L130.48,106.29 L111.5,145.75 C111.252468,145.650013 110.994021,145.579528 110.73,145.54 L114.73,81.8 C115.21,81.8 115.7,81.7 116.16,81.47 Z M191.26,151.92 L163.06,155.75 C162.869984,154.839149 162.312887,154.046914 161.52,153.56 L167.02,143.02 L176.3,125.18 L193.28,92.54 C193.58,92.67 193.88,92.76 194.2,92.8 L191.26,151.92 Z M177.1,325.07 L172.67,298.22 L214.93,301.7 C214.93,302.21 215.03,302.73 215.27,303.22 L215.32,303.32 L178.95,326.16 C178.467265,325.606369 177.818218,325.223958 177.1,325.07 Z M432.75,271.49 L431.89,359.86 C431.46,359.89 431.03,360 430.62,360.2 C430.48,360.26 430.37,360.34 430.25,360.42 L414.05,339.4 L432.4,271.44 L432.75,271.49 Z M521.65,407.17 L458.63,437.92 C458.32,437.4 457.9,436.97 457.4,436.68 L480.35,389.2 C481.941593,389.830509 483.753741,389.179335 484.58,387.68 L521.62,404.72 C521.328362,405.513253 521.342622,406.38669 521.66,407.17 L521.65,407.17 Z M182.8,359.72 L178.12,331.32 C179.648699,330.41938 180.227853,328.494673 179.45,326.9 C179.39,326.78 179.32,326.68 179.25,326.57 L215.58,303.75 C215.82,304.06 216.1,304.32 216.42,304.54 L184.57,360.04 C184.019272,359.776846 183.408006,359.666335 182.8,359.72 Z M22.58,83.85 L59.98,111.75 L24.69,133.45 C24.0753625,132.603618 23.1053484,132.087261 22.06,132.05 L20.38,84.99 C21.2306228,84.9002567 22.016169,84.493201 22.58,83.85 Z M257.7,144.23 C257.8,144.43 257.91,144.6 258.04,144.77 L218.6,179.17 C217.831354,178.410437 216.747407,178.061496 215.68,178.23 L209.08,150.02 L257.44,143.44 C257.49,143.71 257.57,143.97 257.7,144.23 Z M578.85,379.25 L527.75,404.19 C526.920918,402.770265 525.194744,402.147158 523.65,402.71 L500.85,352.53 C501.490417,352.177266 501.999192,351.626385 502.3,350.96 L578.85,379.25 Z M502.49,350.48 C502.904651,349.136085 502.454281,347.675339 501.354856,346.798236 C500.255431,345.921134 498.731136,345.806525 497.512918,346.509369 C496.2947,347.212212 495.630967,348.589191 495.84,349.98 L469.26,355.41 L434.56,271.15 C436.073767,270.398911 436.81204,268.654823 436.297571,267.045181 C435.783102,265.435539 434.170138,264.442946 432.501362,264.709053 C430.832587,264.975159 429.60833,266.420181 429.62,268.11 L366.46,273.16 C366.222438,271.749663 365.132379,270.636085 363.727433,270.368477 C362.322487,270.100868 360.899389,270.735749 360.16,271.96 L275.79,230.66 C276.415539,229.150305 275.87857,227.409136 274.511388,226.513986 C273.144206,225.618837 271.333586,225.822944 270.2,227 L256.2,215.13 L260.8,146.13 C261.976339,146.135166 263.071267,145.530133 263.692898,144.531447 C264.314529,143.53276 264.37399,142.283202 263.85,141.23 C263.35417,140.223974 262.396578,139.524999 261.287292,139.359404 C260.178007,139.193809 259.058026,139.582643 258.29,140.4 L197.43,91.34 C198.203838,90.2070001 198.220848,88.7199149 197.47313,87.56951 C196.725412,86.4191052 195.359515,85.8308559 194.009912,86.0780098 C192.660309,86.3251636 191.591517,87.3592793 191.3,88.7 L142.73,82 L179,6.6 C180.507634,7.19724827 182.227438,6.65361729 183.117876,5.29833702 C184.008314,3.94305675 183.824561,2.14876175 182.6779,1.00210025 C181.531238,-0.144561248 179.736943,-0.328314446 178.381663,0.562123969 C177.026383,1.45256238 176.482752,3.17236619 177.08,4.68 L103.67,40.5 L103.04,40.8 L88.4,47.95 L87.93,48.18 L22.95,79.88 C22.0678912,78.3079315 20.1121694,77.6975564 18.4924719,78.4888184 C16.8727745,79.2800804 16.1521468,81.1979181 16.85,82.86 L-2.55795385e-13,91.08 L20.21,132.51 C18.6379315,133.392109 18.0275564,135.347831 18.8188184,136.967528 C19.6100804,138.587226 21.5279181,139.307853 23.19,138.61 L56.19,206.26 L97.7,291.31 L97.9,291.72 L97.26,292.02 L97.96,292.08 L97.93,292.28 L98.13,292.18 L98.39,292.72 L129.77,357.04 L129.35,357.31 L129.94,357.37 L130,357.5 L130.17,357.4 L179.7,363 C179.709728,364.733394 181.01476,366.185388 182.737297,366.379333 C184.459834,366.573278 186.055068,365.447832 186.45,363.76 L224.53,368.06 C224.488777,369.256154 225.075854,370.386828 226.077953,371.04126 C227.080052,371.695692 228.351351,371.778651 229.43,371.26 C229.56,371.19 229.67,371.11 229.79,371.03 L266.66,419.25 C265.382456,420.382914 265.139802,422.286084 266.092202,423.703315 C267.044602,425.120547 268.898404,425.614868 270.43,424.86 C270.58,424.79 270.73,424.69 270.86,424.59 L329.83,497.45 C328.587691,498.626292 328.412925,500.542474 329.421938,501.924099 C330.430951,503.305724 332.309428,503.722404 333.807998,502.897007 C335.306569,502.07161 335.958417,500.261253 335.33,498.67 L371.93,480.8 C372.819547,482.352194 374.759783,482.949508 376.368282,482.166353 C377.976781,481.383199 378.703216,479.487523 378.03,477.83 L452.74,441.37 C453.629547,442.922194 455.569783,443.519508 457.178282,442.736353 C458.786781,441.953199 459.513216,440.057523 458.84,438.4 L521.87,407.64 C522.752109,409.212069 524.707831,409.822444 526.327528,409.031182 C527.947226,408.23992 528.667853,406.322082 527.97,404.66 L580.16,379.2 L502.49,350.48 Z" id="v9y2a"></path>
                                </g>
                            </g>
                            <g id="Group" transform="translate(748.000000, 199.000000)">
                                <g id="v9y2b-link">
                                    <path d="M85.6,130.1 L67.34,144.15 C66.91,143.67 66.34,143.37 65.74,143.28 L67.72,116.67 C68.4230136,116.667875 69.0974764,116.391633 69.6,115.9 L85.6,130.1 Z M143.35,86.19 C143.5,86.36 143.67,86.51 143.85,86.64 L126.2,117.84 L109.4,147.52 C108.386979,147.044784 107.185808,147.243654 106.38,148.02 L86.23,130.12 L143.35,86.19 Z M188.73,114.59 C188.342264,115.252673 188.254987,116.04908 188.49,116.78 L130.57,140.58 L140.4,103.75 L144.86,87.05 C145.83923,87.230861 146.838518,86.8580496 147.46,86.08 L188.73,114.59 Z M267.9,121.47 C267.9,121.78 267.96,122.1 268.08,122.4 L232.15,139 L193.49,117.1 C193.61,116.85 193.69,116.6 193.72,116.33 L267.9,121.47 Z M287.29,118.65 L268.51,156.75 C268.322906,156.6784 268.128348,156.628083 267.93,156.6 L270.59,124.16 C271.357346,124.164139 272.090206,123.841572 272.605435,123.272911 C273.120665,122.70425 273.369589,121.943219 273.29,121.18 L287.29,118.65 Z M312.07,69.29 C312.608045,69.5036493 313.200514,69.5387066 313.76,69.39 L327.14,108.59 C326.054197,109.056354 325.397826,110.174616 325.52,111.35 L288.01,118.11 L312.07,69.29 Z M376.91,57.09 C376.98,57.39 377.11,57.69 377.29,57.98 C377.37,58.09 377.46,58.19 377.55,58.28 L345.89,91.97 L315.34,68.27 C315.67,67.77 315.81,67.17 315.77,66.57 L376.91,57.09 Z M418,72.39 L416.41,93.21 L379.11,114.72 C378.666487,114.076975 377.966222,113.657545 377.19,113.57 L377.61,104.11 L379.35,65.15 L379.62,59.17 C380.614957,59.1414831 381.512151,58.5638909 381.95,57.67 L418,72.39 Z M423.48,5.96 C423.58,5.96 423.69,5.94 423.8,5.92 L431.66,45.96 L437.96,78.01 C437.69,78.09 437.42,78.2 437.16,78.36 C436.76,78.63 436.46,79 436.26,79.41 L418.43,72.12 L423.48,5.96 Z M461.03,59.41 L440.5,78.62 C439.920921,78.0897895 439.139727,77.8379091 438.36,77.93 L437.34,72.74 L424.2,5.84 C424.41,5.79 424.62,5.7 424.81,5.59 L461.03,59.41 Z M447.26,92.38 C446.621523,92.1657548 445.926028,92.1978546 445.31,92.47 L440.14,82.88 L440.19,82.85 C440.784393,82.4497721 441.195307,81.8296762 441.332231,81.1263009 C441.469154,80.4229256 441.320856,79.6939695 440.92,79.1 C440.88,79.03 440.82,78.98 440.78,78.92 L460.74,60.23 L447.26,92.38 Z M468.47,70.48 L448.07,92.81 C447.932653,92.7056263 447.78526,92.6151806 447.63,92.54 L461.33,59.86 L468.47,70.48 Z M500.61,118.23 C499.930437,118.761938 499.54735,119.587621 499.58,120.45 L462.73,124.75 L447.87,97.21 L447.92,97.18 C448.579459,96.7362855 449.009905,96.0245403 449.096622,95.2344463 C449.18334,94.4443523 448.917518,93.6561876 448.37,93.08 L468.71,70.82 L500.61,118.23 Z M481.73,154.8 C481.58,154.6 481.4,154.44 481.21,154.3 L501.01,122.73 C501.81,123.14 502.78,123.15 503.61,122.68 L511.66,134.66 L481.73,154.8 Z M365.77,232.83 L377.78,203.83 C378.760207,204.162024 379.843972,203.902281 380.567183,203.162003 C381.290395,202.421725 381.524793,201.332198 381.17,200.36 L425.51,180.69 L427.97,190.98 L365.77,232.83 Z M298.92,229.6 C299.643131,229.055015 300.044927,228.18383 299.99,227.28 L364.74,233.52 L317.69,265.19 L313.34,256.93 L298.92,229.6 Z M281.48,249.46 C281.833331,248.458928 281.567243,247.343707 280.8,246.61 L295.18,229.11 C295.988204,230.14468 297.425263,230.444772 298.58,229.82 L317.16,265.06 L281.48,249.46 Z M248.75,235.16 C249.111825,234.14446 248.832394,233.010993 248.04,232.28 L277.62,194.78 C278.01,195.04 278.46,195.18 278.92,195.22 L278.74,245.88 C278.28,245.91 277.83,246.05 277.42,246.32 C277.04,246.58 276.75,246.92 276.55,247.31 L248.75,235.16 Z M199.27,253.53 L199.12,253.23 C198.620001,252.481666 197.78,252.031666 196.88,252.03 L194.61,219.73 L243.56,233.72 C243.46,234.18 243.5,234.65 243.66,235.11 L199.27,253.53 Z M125.01,282.06 C124.688149,281.382755 124.099158,280.869855 123.384102,280.644147 C122.669046,280.41844 121.892333,280.500256 121.24,280.87 L103.24,254.12 C103.83,253.65 104.17,252.99 104.24,252.28 L146.37,253.49 L194.17,254.87 C194.19,255.09 194.23,255.3 194.29,255.51 L125.01,282.06 Z M62.67,145.49 L30.54,142.48 C30.54,141.98 30.42,141.48 30.14,141.03 L65.65,115.68 C66.09,116.21 66.68,116.53 67.32,116.63 L65.33,143.23 C64.0101259,143.23191 62.8850894,144.187768 62.67,145.49 Z M105.6,149.51 L82.16,147.31 L68.04,145.99 C68.0523293,145.447123 67.8988378,144.913391 67.6,144.46 L85.9,130.38 L106.11,148.33 C105.85,148.68 105.67,149.09 105.6,149.51 Z M188.81,117.45 C188.86,117.53 188.93,117.6 188.99,117.67 L147.35,158.05 L119.81,184.75 C119.54666,184.519803 119.240954,184.343173 118.91,184.23 L130.44,141.07 L188.64,117.15 C188.7,117.25 188.74,117.35 188.81,117.45 Z M194.43,156.42 L194.32,156.22 C193.84614,155.515106 193.068209,155.074278 192.22,155.03 L191.32,118.63 C192.124532,118.556476 192.852511,118.12263 193.3,117.45 L231.7,139.2 L194.43,156.42 Z M265.26,157.75 L246.3,147.01 L268.89,123.53 C269.27,123.84 269.71,124.04 270.19,124.12 L267.52,156.56 C266.612919,156.554968 265.763928,157.00576 265.26,157.76 L265.26,157.75 Z M325.96,112.58 L325.96,112.59 L288.48,142.35 L269.48,157.43 C269.3,157.23 269.1,157.07 268.88,156.93 L287.78,118.56 L325.6,111.75 C325.67,112.04 325.79,112.32 325.96,112.58 Z M356.54,100.74 L331.04,150.35 C330.73,150.23 330.4,150.15 330.07,150.15 L328.52,113.75 C329.462317,113.652994 330.28342,113.065729 330.679741,112.205322 C331.076062,111.344915 330.988718,110.339201 330.45,109.56 C330.38,109.45 330.29,109.35 330.2,109.26 L345.93,92.51 L356.54,100.74 Z M356.74,100.38 L346.21,92.22 L377.85,58.57 L378.13,58.77 L356.74,100.38 Z M436.24,81.78 L424.83,88.36 L416.83,92.96 L418.39,72.55 L436.11,79.78 C435.91,80.43 435.94,81.14 436.25,81.78 L436.24,81.78 Z M444.16,96.45 L444.44,96.78 L415.42,128.56 L415.13,128.36 L437.66,83.11 C438.342555,83.3863155 439.108354,83.3718665 439.78,83.07 L444.95,92.67 C444.337343,93.0609372 443.908158,93.6823511 443.759481,94.3937407 C443.610804,95.1051304 443.755193,95.8464182 444.16,96.45 Z M416.41,130.17 C416.3083,129.668975 416.065414,129.207492 415.71,128.84 L444.75,97.06 C445.536413,97.6748234 446.597885,97.8055844 447.51,97.4 L462.3,124.81 L416.41,130.17 Z M478.16,154.19 L478.1,154.22 C477.69,154.5 477.39,154.88 477.18,155.3 L416.33,131.48 C416.42,131.18 416.46,130.88 416.45,130.58 L462.51,125.19 L478.16,154.19 Z M457.66,166.43 L477.24,157.74 L477.27,157.8 L428.33,190.74 L425.88,180.52 L457.66,166.43 Z M299.54,225.93 C299.27,225.54 298.92,225.25 298.52,225.05 L312.19,208.42 L364.19,233.06 L299.93,226.87 C299.86,226.55 299.73,226.23 299.54,225.94 L299.54,225.93 Z M193.6,205.5 C194.665237,205.553234 195.659963,204.967407 196.13,204.01 L243.81,233.05 C243.76,233.15 243.71,233.24 243.68,233.34 L194.58,219.31 L193.6,205.5 Z M148.3,206.1 C148.34,205.91 148.36,205.73 148.36,205.54 L181.86,203.02 L191.06,202.32 C190.790959,203.773221 191.740281,205.17269 193.19,205.46 L194.16,219.19 L148.3,206.1 Z M195.07,252.74 L170.97,229.59 L147.73,207.26 C147.93,207.02 148.08,206.76 148.19,206.48 L194.19,219.62 L196.48,252.08 C196.08,252.14 195.71,252.28 195.36,252.51 L195.07,252.74 Z M104.27,251.89 C104.248135,251.393047 104.088903,250.91189 103.81,250.5 C103.74,250.39 103.65,250.3 103.57,250.2 L143.95,207.63 C144.85,208.37 146.15,208.47 147.17,207.79 C147.27,207.72 147.36,207.64 147.45,207.55 L183.31,242 L194.79,253.04 C194.454469,253.447739 194.245863,253.944917 194.19,254.47 L161.59,253.54 L104.27,251.89 Z M64.53,192.87 L115.37,187.28 C115.551988,188.242301 116.240798,189.030605 117.17,189.34 L102.03,249.34 C101.43,249.24 100.8,249.35 100.23,249.67 L63.5,195.07 C64.1724624,194.541243 64.5545685,193.725094 64.53,192.87 Z M105.56,149.93 C105.55,150.46 105.69,151.01 106.01,151.49 L106.15,151.65 L104.54,153.15 L63.67,190.98 C63.27,190.6 62.77,190.38 62.23,190.29 L65.33,148.66 C66.6504521,148.663796 67.7799292,147.71199 68,146.41 L85.5,148.04 L105.56,149.93 Z M117.53,184.13 L109.15,152.53 C110.535305,152.046895 111.28132,150.545984 110.83,149.15 L129.96,141.28 L118.52,184.13 C118.192885,184.068285 117.857115,184.068285 117.53,184.13 Z M232.58,139.25 L268.25,122.77 L268.36,122.97 C268.43,123.07 268.51,123.17 268.6,123.26 L245.93,146.81 L232.58,139.25 Z M236.58,156.53 C235.810234,155.89805 234.755084,155.741175 233.834766,156.121852 C232.914448,156.50253 232.278427,157.358934 232.18,158.35 L194.77,157.59 C194.753978,157.316289 194.696663,157.046574 194.6,156.79 L232.13,139.46 L245.64,147.12 L236.58,156.53 Z M264.82,159.01 L237.56,158.46 C237.536683,157.97414 237.381082,157.50388 237.11,157.1 C237.04,156.99 236.96,156.9 236.88,156.81 L246.01,147.32 L265.06,158.12 C264.93,158.4 264.86,158.7 264.82,159.02 L264.82,159.01 Z M416.37,93.71 L413.76,127.99 C412.717578,127.989272 411.767855,128.588687 411.32,129.53 L379.44,117.05 C379.64,116.41 379.6,115.72 379.3,115.09 L408.83,98.06 L416.37,93.71 Z M333.05,186.9 C333.39,186.62 333.65,186.28 333.82,185.9 L376.02,200.58 C375.689633,201.812206 376.270201,203.106998 377.41,203.68 L365.28,232.96 L333.05,186.9 Z M329.79,187.02 C330.64,187.62 331.78,187.69 332.71,187.13 L364.72,232.87 L312.46,208.11 L329.79,187.02 Z M281.65,193.52 C281.8,193.15 281.85,192.75 281.82,192.35 L290.1,191.13 L291.11,190.98 L328.71,185.41 C328.824198,185.928162 329.088538,186.401191 329.47,186.77 L312.07,207.93 L281.65,193.52 Z M195.96,201.29 C195.7,200.89 195.34,200.6 194.94,200.4 L208.84,185.95 C209.71,186.66 210.94,186.78 211.94,186.18 L220.57,198.38 L244.49,232.2 C244.31,232.35 244.15,232.52 244.02,232.7 L196.28,203.63 C196.538226,202.842236 196.420247,201.979511 195.96,201.29 Z M191.8,155.06 C190.967804,155.140646 190.22042,155.603667 189.777643,156.312893 C189.334866,157.02212 189.247043,157.89691 189.54,158.68 L163.54,170.69 L179.97,138.28 L190.02,118.45 C190.3,118.57 190.61,118.63 190.92,118.65 L191.18,129.31 L191.8,155.06 Z M232.62,160.12 C232.69,160.22 232.78,160.32 232.86,160.4 L212.28,181.8 C211.401052,181.073334 210.16032,180.977277 209.18,181.56 L193.79,159.81 C194.36,159.34 194.69,158.69 194.76,157.99 L232.18,158.75 C232.2,159.23 232.34,159.7 232.62,160.12 Z M264.82,159.42 C264.861169,160.230042 265.266972,160.97786 265.923683,161.453878 C266.580394,161.929897 267.417352,162.082897 268.2,161.87 L271.3,170.72 L278.05,190.07 C277.693719,190.225436 277.376158,190.457631 277.12,190.75 L256.7,175.09 L237.13,160.09 C237.38,159.72 237.51,159.29 237.55,158.86 L253.11,159.18 L264.82,159.42 Z M329.67,150.18 C328.732648,150.277722 327.915513,150.860605 327.517982,151.715092 C327.120451,152.56958 327.200956,153.57007 327.73,154.35 L281.13,190.73 C280.997438,190.587866 280.849916,190.460461 280.69,190.35 L326.99,113.49 C327.35,113.67 327.73,113.77 328.12,113.79 L328.98,134.04 L329.67,150.18 Z M477.04,155.68 C476.86666,156.23511 476.877182,156.831351 477.07,157.38 L425.79,180.13 L414.57,133.26 C414.81,133.19 415.05,133.09 415.27,132.94 C415.67,132.66 415.98,132.29 416.18,131.86 L439.11,140.84 L477.04,155.68 Z M244.82,231.96 L212.28,185.95 C212.76,185.55 213.08,185 213.21,184.41 L229.97,186.53 L276.44,192.41 C276.395489,193.20967 276.710957,193.987338 277.3,194.53 L247.72,232.03 C246.849019,231.445265 245.718179,231.417969 244.82,231.96 Z M276.87,191.06 C276.67,191.36 276.55,191.68 276.48,192.01 L213.25,184.01 C213.28,183.44 213.15,182.87 212.8,182.36 C212.73,182.26 212.65,182.16 212.57,182.08 L233.15,160.68 C234.264501,161.605012 235.910336,161.485876 236.88,160.41 L256.08,175.12 L276.87,191.06 Z M329.89,155.56 L331.02,182.14 C330.61,182.19 330.2,182.32 329.82,182.57 C329.02116,183.1151 328.57487,184.045824 328.65,185.01 L301.64,189.01 L281.77,191.95 C281.69604,191.628705 281.563859,191.323672 281.38,191.05 L327.98,154.67 C328.48,155.22 329.18,155.53 329.89,155.55 L329.89,155.56 Z M374.62,117.76 L373.62,118.54 L331.97,151.04 C331.8,150.84 331.61,150.68 331.39,150.55 L356.87,101.01 L374.61,114.76 C374.003326,115.667987 374.003326,116.852013 374.61,117.76 L374.62,117.76 Z M331.74,154.89 L343.32,166.41 L332.66,182.46 C332.28,182.26 331.86,182.13 331.43,182.12 L330.3,155.53 C330.71,155.48 331.12,155.35 331.5,155.1 L331.74,154.9 L331.74,154.89 Z M333.59,183.3 C333.424092,183.065734 333.221492,182.859757 332.99,182.69 L334.58,180.31 L343.61,166.71 L368.19,191.18 L376.58,199.52 C376.4,199.73 376.25,199.96 376.15,200.2 L333.95,185.5 C334.14,184.78 334.04,183.98 333.59,183.3 Z M332.23,151.36 L374.56,118.32 L374.87,118.07 C374.98,118.19 375.09,118.29 375.21,118.38 L343.54,166.07 L332.03,154.61 C332.8,153.71 332.92,152.39 332.23,151.36 Z M378.37,198.59 C377.93,198.63 377.5,198.77 377.11,199.03 L376.86,199.23 L361.82,184.26 L343.84,166.36 L375.54,118.61 C375.91,118.81 376.31,118.93 376.72,118.95 L377.24,144.05 L378.37,198.59 Z M379.3,117.43 L411.18,129.91 C410.817283,131.096418 411.313,132.377021 412.38,133.01 L379.64,198.77 C379.362248,198.659822 379.068396,198.595647 378.77,198.58 L377.13,118.94 C378.068535,118.853271 378.892519,118.2799 379.3,117.43 Z M408.71,187.71 L381,200 L380.87,199.75 C380.64,199.41 380.34,199.15 380,198.95 L412.73,133.19 C413.19,133.38 413.69,133.43 414.18,133.35 L425.41,180.29 L408.71,187.71 Z M268.58,161.75 C269.318355,161.431966 269.876581,160.801446 270.102797,160.029993 C270.329012,159.25854 270.199684,158.426406 269.75,157.76 L326.23,112.91 C326.36,113.05 326.49,113.17 326.64,113.28 L280.34,190.14 C279.752207,189.844002 279.076542,189.77288 278.44,189.94 L271.69,170.64 L268.58,161.75 Z M192.34,160.42 C192.73,160.38 193.11,160.26 193.46,160.05 L208.84,181.8 C207.77137,182.680823 207.542417,184.227335 208.31,185.38 L208.55,185.67 L194.53,200.24 C194.13,200.11 193.73,200.08 193.31,200.14 L192.34,160.42 Z M147.9,204.03 C147.67,203.7 147.38,203.43 147.05,203.23 L163.15,171.46 L191.82,200.88 C191.52,201.18 191.31,201.53 191.17,201.91 L148.32,205.14 C148.26,204.76 148.13,204.38 147.9,204.04 L147.9,204.03 Z M189.26,117.97 C189.39,118.08 189.52,118.17 189.66,118.27 L165.21,166.51 L162.95,170.96 L162.75,171.06 L162.85,171.16 L162.65,171.55 L146.69,203.05 C145.574744,202.588557 144.288701,202.923336 143.54,203.87 L142.7,203.29 L120.36,188.13 C120.86,187.26 120.86,186.16 120.27,185.28 C120.22,185.2 120.15,185.13 120.09,185.06 L166.92,139.64 L189.26,117.97 Z M189.72,159.05 L189.82,159.25 C190.30019,159.956576 191.086448,160.39421 191.94,160.43 L192.91,200.23 C192.662031,200.305816 192.426277,200.416958 192.21,200.56 L192.13,200.62 L163.45,171.18 L189.72,159.05 Z M64.08,191.45 L63.94,191.28 L69.4,186.23 L106.42,151.95 C107.05,152.55 107.92,152.79 108.75,152.63 L113.25,169.6 L117.14,184.24 C116.023848,184.628954 115.290437,185.698681 115.33,186.88 L64.49,192.46 C64.43,192.11 64.29,191.76 64.08,191.45 Z M103.28,249.92 C103.01,249.72 102.73,249.56 102.42,249.45 L117.56,189.45 C118.53345,189.616813 119.520031,189.236768 120.13,188.46 L142.56,203.69 L143.32,204.2 C142.82,205.07 142.82,206.17 143.41,207.06 C143.48,207.16 143.57,207.26 143.66,207.36 L133.27,218.3 L103.28,249.92 Z M437.3,82.94 L414.77,128.19 C414.57,128.11 414.37,128.06 414.16,128.03 L416.8,93.47 L436.44,82.14 C436.67,82.48 436.97,82.74 437.3,82.94 Z M379.22,59.15 L377.92,88.25 L377.21,104.15 L376.79,113.55 C376.053486,113.573285 375.359054,113.8988 374.87,114.45 L357.06,100.64 L378.49,58.97 C378.72,59.07 378.96,59.12 379.22,59.15 Z M296.43,224.91 L280.57,194.83 L280.64,194.79 C281,194.55 281.27,194.23 281.47,193.89 L311.81,208.25 L298.13,224.9 C297.578232,224.716234 296.981768,224.716234 296.43,224.9 L296.43,224.91 Z M144.47,86.95 L130.1,140.78 L110.67,148.77 C110.61,148.67 110.57,148.57 110.5,148.47 C110.3,148.17 110.05,147.92 109.76,147.73 L144.21,86.84 L144.47,86.94 L144.47,86.95 Z M62.63,145.9 C62.6050312,147.25553 63.5891666,148.419377 64.93,148.62 L61.83,190.25 C61.37,190.25 60.92,190.38 60.5,190.62 L29.5,144.56 C30.05,144.13 30.39,143.53 30.5,142.89 L62.63,145.9 Z M279.14,245.9 L279.33,195.24 C279.63,195.21 279.93,195.14 280.21,195.02 L296.06,225.07 L295.78,225.21 C294.61076,225.998099 294.244849,227.55322 294.94,228.78 L280.48,246.37 C280.084307,246.093025 279.62156,245.927265 279.14,245.89 L279.14,245.9 Z M500.03,121.86 C500.21,122.13 500.43,122.34 500.67,122.52 L480.87,154.09 C480.137312,153.702512 479.267246,153.673019 478.51,154.01 L462.94,125.15 L499.62,120.87 C499.68,121.21 499.82,121.55 500.03,121.87 L500.03,121.86 Z M315.08,68.6 L345.61,92.27 L329.9,108.99 C329.236763,108.451467 328.357778,108.25861 327.53,108.47 L314.14,69.27 C314.3,69.21 314.44,69.13 314.59,69.03 C314.78,68.91 314.94,68.76 315.09,68.6 L315.08,68.6 Z M65.04,113.71 C64.98,114.28 65.1,114.85 65.41,115.37 L29.91,140.71 C29.0741578,139.709742 27.6414346,139.452694 26.51,140.1 L1.38,102.76 L65.04,113.71 Z M0.51,102.19 L26.17,140.33 C25.1216379,141.220437 24.910238,142.756657 25.6791206,143.897166 C26.4480032,145.037675 27.9513694,145.417872 29.17,144.78 L60.17,190.85 C59.1216379,191.740437 58.910238,193.276657 59.6791206,194.417166 C60.4480032,195.557675 61.9513694,195.937872 63.17,195.3 L99.9,249.9 C98.8516379,250.790437 98.640238,252.326657 99.4091206,253.467166 C100.178003,254.607675 101.681369,254.987872 102.9,254.35 L120.9,281.11 C119.827916,281.950986 119.550459,283.458993 120.253004,284.626491 C120.955549,285.79399 122.417903,286.255062 123.663039,285.701655 C124.908175,285.148249 125.545841,283.753814 125.15,282.45 L194.43,255.91 C194.49,256.03 194.55,256.15 194.63,256.26 C195.386478,257.368313 196.842096,257.75289 198.047281,257.162851 C199.252467,256.572812 199.841447,255.187235 199.43,253.91 L243.81,235.49 L243.96,235.79 C244.490527,236.578774 245.396753,237.030449 246.345961,236.979196 C247.295169,236.927943 248.147491,236.381313 248.59,235.54 L276.39,247.69 C275.877547,248.58763 275.922518,249.699045 276.505819,250.552336 C277.08912,251.405628 278.108375,251.851034 279.130805,251.699434 C280.153236,251.547834 280.999394,250.825835 281.31,249.84 L317.47,265.64 L317.54,265.78 L317.64,265.72 L318.06,265.91 L317.88,265.56 L364.88,233.93 L365.28,233.66 L365.38,233.8 L365.43,233.66 L365.93,233.9 L365.61,233.44 L365.91,233.24 L428.07,191.41 L477.5,158.15 C478.390437,159.198362 479.926657,159.409762 481.067166,158.640879 C482.207675,157.871997 482.587872,156.368631 481.95,155.15 L512.23,134.78 L503.94,122.47 C505.01425,121.586597 505.241663,120.031672 504.465398,118.877625 C503.689133,117.723577 502.163199,117.348034 500.94,118.01 L469,70.5 L468.77,70.16 L461.57,59.46 L461.27,59 L425.16,5.35 C426.302441,4.45181959 426.529028,2.8105184 425.672674,1.6363982 C424.81632,0.462278001 423.184269,0.176589283 421.98,0.99 C421.05635,1.61091875 420.608334,2.73497256 420.851642,3.82100699 C421.094949,4.90704141 421.97972,5.73250742 423.08,5.9 L418.04,71.95 L382.11,57.29 C382.458469,56.2487799 382.141699,55.1002329 381.308756,54.3848475 C380.475813,53.669462 379.292606,53.5297309 378.315934,54.0314094 C377.339261,54.5330879 376.763661,55.5762501 376.86,56.67 L315.72,66.15 C315.519617,65.2839343 314.905773,64.5719959 314.07863,64.2463331 C313.251486,63.9206702 312.317042,64.0230169 311.58,64.52 C310.80928,65.0379192 310.358779,65.9155465 310.387212,66.843685 C310.415645,67.7718235 310.919023,68.6202291 311.72,69.09 L287.52,118.19 L273.22,120.77 C272.892188,119.532403 271.740284,118.695179 270.461934,118.765392 C269.183585,118.835604 268.1303,119.793946 267.94,121.06 L193.77,115.92 C193.762819,114.77891 193.039048,113.76554 191.962,113.388573 C190.884951,113.011605 189.687206,113.352445 188.97,114.24 L147.69,85.74 C148.324134,84.65253 148.122612,83.2711381 147.20423,82.410155 C146.285848,81.549172 144.89434,81.4370977 143.85,82.14 C142.623814,82.9656149 142.28951,84.623765 143.1,85.86 L85.93,129.84 L69.87,115.58 C70.5427047,114.709031 70.6194751,113.516938 70.0640442,112.566878 C69.5086134,111.616817 68.4321474,111.098938 67.3431787,111.25789 C66.2542101,111.416842 65.3706894,112.220814 65.11,113.29 L0.51,102.19 Z" id="v9y2b"></path>
                                </g>
                            </g>
                            <g id="Group" transform="translate(340.000000, 281.000000)">
                                <g id="v9y2c-link">
                                    <path d="M416.95,182.03 L437.72,172.09 C438.04,172.65 438.53,173.06 439.11,173.28 L431.63,198.89 C430.94189,198.744966 430.224346,198.874124 429.63,199.25 L416.95,182.03 Z M351.32,212.98 C351.21,212.78 351.08,212.6 350.92,212.44 L374.68,185.59 L397.28,160.04 C398.172263,160.716746 399.38967,160.772444 400.34,160.18 L416.33,181.88 L351.32,212.98 Z M312.84,175.78 C313.359131,175.210534 313.610206,174.446391 313.53,173.68 L375.13,162.44 L357.86,196.42 L350.02,211.82 C349.103637,211.445956 348.056066,211.603284 347.29,212.23 L312.84,175.78 Z M236.83,152.58 C236.89,152.27 236.9,151.95 236.85,151.63 L275.45,142.87 L308.7,172.33 C308.539424,172.543264 308.411365,172.779164 308.32,173.03 L236.83,152.58 Z M217.28,151.3 L243.56,117.94 C243.73,118.05 243.92,118.14 244.11,118.21 L234.76,149.39 C234.010914,149.226608 233.227686,149.389388 232.605737,149.837725 C231.983789,150.286062 231.581774,150.977675 231.5,151.74 L217.28,151.3 Z M182.78,194.44 C182.298866,194.119339 181.727501,193.9616 181.15,193.99 L176.2,152.86 C177.358724,152.630519 178.233758,151.674464 178.36,150.5 L216.46,151.68 L182.78,194.44 Z M116.81,192.89 C116.81,192.57 116.75,192.25 116.63,191.93 C116.57,191.81 116.51,191.69 116.43,191.58 L154.41,165.22 L179.37,194.75 C178.94,195.18 178.67,195.73 178.59,196.33 L116.81,192.89 Z M79.81,169.38 L85.69,149.34 L126.65,136.05 C126.96,136.8 127.57,137.33 128.28,137.58 L125.9,146.75 L116.1,184.49 L114.6,190.29 C113.618442,190.10681 112.616432,190.48449 112,191.27 L79.81,169.38 Z M60.63,233.22 L60.31,233.18 L60.94,192.38 L61.44,159.73 C62.2051241,159.68988 62.915792,159.32179 63.39,158.72 L79.33,169.55 L60.63,233.22 Z M35.02,173.12 L59.09,158.6 C59.5462075,159.239133 60.2580595,159.647991 61.04,159.72 L60.96,165.01 L59.91,233.18 C59.69,233.18 59.47,233.23 59.25,233.3 L35.02,173.12 Z M55.34,143.74 C55.9207104,144.084182 56.6092842,144.19835 57.27,144.06 L60.33,154.51 L60.28,154.53 C59.6133294,154.796659 59.0803312,155.317881 58.7988477,155.978429 C58.5173642,156.638977 58.5105818,157.38444 58.78,158.05 L58.88,158.25 L35.48,172.38 L55.34,143.74 Z M30.04,160.75 L54.64,143.15 C54.75,143.28 54.87,143.4 55.01,143.51 L34.81,172.62 L30.04,160.75 Z M8.54,107.36 C9.34,106.97 9.86,106.23 10,105.4 L46.94,108.85 L55.75,138.89 L55.69,138.9 C54.9504756,139.195239 54.3789853,139.80186 54.1283365,140.557663 C53.8776877,141.313465 53.9734433,142.141367 54.39,142.82 L29.88,160.36 L8.54,107.36 Z M34.6,75.52 C34.71,75.74 34.84,75.94 35,76.12 L9.06,102.88 C8.35673319,102.293591 7.40346652,102.105198 6.53,102.38 L1.13,89 L34.6,75.52 Z M164.25,23.3 L146.47,49.17 C145.580508,48.6457119 144.469417,48.6768129 143.610645,49.2500375 C142.751874,49.823262 142.296983,50.837444 142.44,51.86 L94.98,61.88 L94.71,51.31 L164.25,23.3 Z M228.97,40.35 C228.148121,40.7330638 227.573409,41.5031027 227.44,42.4 L165.4,22.84 L218,1.64 L220.55,10.63 L228.97,40.35 Z M250.16,24.56 C249.609406,25.4630319 249.636767,26.6043886 250.23,27.48 L232.53,41.61 C231.95397,40.4295342 230.609641,39.8376913 229.35,40.21 L218.5,1.88 L250.16,24.56 Z M279.19,45.36 C278.62828,46.2778526 278.667614,47.442151 279.29,48.32 L242.56,78.85 C242.236305,78.5204185 241.833461,78.279401 241.39,78.15 L252.09,28.63 C252.55,28.69 253.02,28.65 253.47,28.47 C253.9,28.3 254.25,28.02 254.53,27.69 L279.19,45.36 Z M331.41,37.67 C331.44,37.78 331.46,37.89 331.51,37.99 C331.84113,38.8232076 332.564272,39.4376914 333.44,39.63 L328.94,71.7 L283.97,47.84 C284.16,47.41 284.23,46.94 284.17,46.46 L331.41,37.67 Z M410,25.2 C410.03,25.34 410.06,25.47 410.11,25.6 C410.64312,26.9034008 412.08846,27.5781827 413.43,27.15 L425.48,57.06 C424.81,57.4 424.33,57.97 424.11,58.65 L383.16,48.7 L336.69,37.42 C336.72,37.21 336.73,36.99 336.71,36.77 L410,25.2 Z M473.38,181.37 C473.27,181.86 473.29,182.37 473.47,182.87 L433.47,200.28 C433.160646,199.69771 432.648201,199.249321 432.03,199.02 L439.5,173.4 C440.788826,173.672575 442.086212,172.975283 442.57,171.75 L473.38,181.37 Z M401.43,158.89 L423.9,165.91 L437.43,170.14 C437.31,170.65 437.33,171.21 437.55,171.74 L416.71,181.7 L400.67,159.94 C401.01,159.64 401.27,159.29 401.43,158.89 Z M313.37,172.95 L313.24,172.7 L362.36,141.86 L394.85,121.46 C395.05,121.75 395.32,121.98 395.62,122.16 L375.37,161.98 L313.47,173.28 L313.37,172.95 Z M315.97,133.67 L316.04,133.89 C316.357779,134.678556 317.028411,135.271379 317.85,135.49 L311.15,171.29 C310.350417,171.19201 309.549335,171.460263 308.97,172.02 L275.94,142.76 L315.97,133.67 Z M246.97,117.63 L263.28,132.08 L236.3,150.35 C236,149.97 235.6,149.68 235.16,149.51 L244.5,118.34 C245.388695,118.538061 246.31736,118.274876 246.97,117.64 L246.97,117.63 Z M178.2,149.2 L178.2,149.19 L221.05,127.87 L242.77,117.07 C242.9,117.3 243.07,117.51 243.26,117.67 L216.78,151.28 L178.38,150.08 C178.37,149.79 178.32,149.49 178.2,149.2 Z M145.82,154.42 L181.09,111.2 C181.36,111.38 181.67,111.52 181.99,111.6 L175.93,147.52 C174.988877,147.421961 174.065804,147.827464 173.501364,148.586892 C172.936924,149.34632 172.814781,150.347109 173.18,151.22 C173.23,151.34 173.3,151.46 173.36,151.57 L154.49,164.67 L145.82,154.42 Z M115.98,190.99 L145.56,154.74 L154.16,164.91 L116.22,191.25 C116.14,191.15 116.07,191.07 115.98,190.99 Z M63.92,156.4 L76.46,152.34 L85.23,149.49 L79.46,169.14 L63.63,158.38 C63.97,157.79 64.08,157.09 63.92,156.4 Z M59.22,140.4 C59.1636832,140.26815 59.0967987,140.14107 59.02,140.02 L94.02,114.97 L94.26,115.22 L62.82,154.8 C62.2074644,154.386184 61.4520494,154.241607 60.73,154.4 L57.67,143.94 L57.72,143.93 C58.3891443,143.663435 58.9240394,143.140552 59.2057326,142.477634 C59.4874258,141.814716 59.4925623,141.066724 59.22,140.4 Z M93.38,113.19 C93.3740903,113.698219 93.5128185,114.19764 93.78,114.63 L58.78,139.69 C58.1414976,138.919743 57.1294102,138.565705 56.15,138.77 L47.38,108.89 L93.38,113.19 Z M37.98,76.85 C38,76.85 38.02,76.85 38.04,76.83 C38.5,76.65 38.88,76.34 39.16,75.97 L93.73,111.93 C93.59,112.19 93.48,112.48 93.43,112.78 L47.26,108.48 L37.98,76.85 Z M60.57,69.15 L39.61,73.57 L39.6,73.51 L94.32,51.47 L94.59,61.97 L60.57,69.15 Z M227.61,43.81 C227.79,44.25 228.08,44.61 228.42,44.89 L211.6,58.31 L165.85,23.41 L227.42,42.81 C227.42,43.15 227.48,43.48 227.61,43.81 Z M326.98,85.84 C325.950797,85.5680965 324.858417,85.9335329 324.2,86.77 L283.6,48.45 L283.79,48.2 L328.89,72.13 L326.98,85.84 Z M371.41,94.68 C371.34,94.85 371.28,95.02 371.24,95.2 L337.95,90.7 L328.81,89.47 C329.364824,88.1058541 328.724178,86.5487279 327.37,85.97 L329.28,72.33 L371.41,94.68 Z M335.36,39.32 L354.12,66.97 L372.22,93.65 C371.97,93.85 371.77,94.07 371.61,94.32 L329.34,71.9 L333.85,39.68 C334.25,39.7 334.65,39.65 335.04,39.5 C335.15,39.45 335.26,39.38 335.36,39.32 Z M424.01,59.04 C423.93,59.51 423.97,60.01 424.16,60.49 C424.21,60.61 424.28,60.72 424.34,60.83 L375.99,94.07 C375.246987,93.1416785 373.984133,92.8087074 372.88,93.25 C372.76,93.3 372.66,93.36 372.55,93.42 L344.64,52.27 L335.7,39.09 C336.12,38.76 336.42,38.31 336.59,37.81 L368.29,45.51 L424.01,59.04 Z M450.61,125.03 L399.72,119.93 C399.744456,118.945488 399.230936,118.025752 398.38,117.53 L425.67,61.99 C426.23,62.21 426.87,62.24 427.49,62.05 L452.07,123.09 C451.303622,123.46903 450.762056,124.188646 450.61,125.03 Z M401.55,158.5 C401.67,157.98 401.65,157.42 401.43,156.88 L401.33,156.69 L403.22,155.57 L451.05,127.06 C451.37,127.51 451.82,127.84 452.32,128.03 L440.62,168.1 C439.331174,167.827425 438.033788,168.524717 437.55,169.75 L420.77,164.51 L401.55,158.5 Z M396.95,122.56 L398.58,155.22 C398.35,155.25 398.13,155.29 397.9,155.38 C396.783016,155.837376 396.105281,156.980543 396.24,158.18 L375.88,161.89 L395.98,122.35 C396.28,122.48 396.61,122.55 396.95,122.55 L396.95,122.56 Z M275.08,142.54 L236.76,151.24 C236.74,151.16 236.73,151.09 236.7,151.02 C236.65,150.9 236.59,150.8 236.53,150.69 L263.59,132.36 L275.08,142.54 Z M274.76,124.8 C275.380968,125.5771 276.378925,125.949821 277.357272,125.770039 C278.33562,125.590257 279.135872,124.887096 279.44,123.94 L315.88,132.46 C315.84,132.73 315.84,133 315.88,133.27 L275.57,142.43 L263.94,132.13 L274.76,124.8 Z M247.66,116.5 L274.2,122.71 C274.13,123.18 274.17,123.67 274.36,124.14 C274.41,124.26 274.46,124.36 274.53,124.47 L263.63,131.85 L247.23,117.33 C247.42,117.08 247.56,116.8 247.65,116.5 L247.66,116.5 Z M85.84,148.87 L95.52,115.88 C96.5374739,116.094383 97.5876424,115.705431 98.22,114.88 L126.81,133.72 C126.482791,134.311073 126.389975,135.003628 126.55,135.66 L94.12,146.18 L85.84,148.87 Z M186.72,75.04 C186.32,75.24 186,75.52 185.75,75.86 L147.53,52.72 C148.107552,51.5826031 147.806835,50.1959637 146.81,49.4 L164.76,23.28 L186.72,75.04 Z M189.93,75.6 C189.20854,74.8202931 188.095789,74.5381874 187.09,74.88 L165.29,23.48 L211.27,58.58 L189.93,75.6 Z M238.36,79.25 C238.147838,79.5830076 238.011297,79.9584961 237.96,80.35 L229.6,79.83 L228.58,79.77 L190.65,77.4 C190.646551,76.8689007 190.486543,76.3506138 190.19,75.91 L211.6,58.83 L238.36,79.25 Z M323.8,89.46 C323.98,89.91 324.27,90.26 324.62,90.55 L308,101.79 C307.287804,100.896574 306.090353,100.548152 305.01,100.92 L299.11,87.2 L282.74,49.14 C282.95,49.04 283.14,48.9 283.31,48.75 L323.96,87.11 C323.56,87.81 323.46,88.66 323.79,89.46 L323.8,89.46 Z M318.25,135.56 C319.083687,135.657077 319.914909,135.359458 320.497511,134.755278 C321.080113,134.151098 321.347319,133.309607 321.22,132.48 L349.14,126.14 L326.34,154.43 L312.39,171.73 C312.14,171.56 311.85,171.43 311.55,171.35 L313.51,160.87 L318.25,135.56 Z M279.38,122.12 C279.33,122 279.27,121.9 279.21,121.79 L303.79,105.14 C304.498111,106.032785 305.690492,106.384898 306.77,106.02 L317.3,130.49 C316.65,130.83 316.18,131.4 315.98,132.07 L279.53,123.54 C279.6,123.08 279.57,122.59 279.38,122.12 Z M247.75,116.11 C247.87857,115.308385 247.636834,114.491699 247.092655,113.889215 C246.548476,113.286731 245.760522,112.963403 244.95,113.01 L243.76,103.71 L241.17,83.37 C241.550294,83.2924222 241.908804,83.131946 242.22,82.9 L258.94,102.46 L274.96,121.21 C274.65,121.51 274.43,121.91 274.3,122.31 L259.15,118.77 L247.75,116.11 Z M182.39,111.66 C183.327575,111.758311 184.247854,111.356785 184.813484,110.602613 C185.379113,109.84844 185.5069,108.852545 185.15,107.98 L238.3,82.08 C238.4,82.26 238.51,82.41 238.64,82.55 L177.37,148.11 C177.07,147.86 176.72,147.68 176.34,147.59 L179.71,127.59 L182.39,111.66 Z M39.39,75.63 C39.66,75.13 39.79,74.55 39.7,73.97 L94.6,62.37 L95.82,110.55 C95.0841418,110.621026 94.4106685,110.993971 93.96,111.58 L73.4,98.04 L39.39,75.63 Z M282.39,49.31 L304.65,101.08 C304.09,101.38 303.65,101.84 303.42,102.39 L287.46,96.83 L243.23,81.42 C243.442306,80.6447991 243.295481,79.8152386 242.83,79.16 L279.56,48.64 C280.290295,49.3917216 281.389633,49.6529119 282.38,49.31 L282.39,49.31 Z M242.54,82.65 C242.78,82.4 242.97,82.12 243.11,81.8 L303.29,102.77 C303.14,103.32 303.16,103.91 303.39,104.47 C303.43,104.6 303.49,104.7 303.56,104.81 L278.98,121.45 C278.079197,120.320043 276.448409,120.099666 275.28,120.95 L259.56,102.56 L242.54,82.65 Z M183.28,106.35 L187.71,80.12 C189.143498,80.2515246 190.428091,79.235289 190.63,77.81 L217.88,79.51 L237.93,80.76 C237.93,81.08 237.99,81.41 238.11,81.72 L184.96,107.62 C184.592968,106.990507 183.987082,106.536092 183.28,106.36 L183.28,106.35 Z M131.68,134.03 L132.82,133.47 L180.31,110.34 C180.44,110.56 180.59,110.76 180.78,110.94 L145.56,154.1 L131.06,136.96 C131.839031,136.197953 132.083574,135.042291 131.68,134.03 Z M172.41,92.94 L186.18,79.46 C186.5,79.75 186.88,79.95 187.31,80.06 L182.88,106.29 C182.47,106.26 182.04,106.3 181.63,106.47 L181.33,106.62 L172.41,92.94 Z M185.44,78.44 C185.55,78.72 185.71,78.95 185.89,79.17 L183.85,81.17 L172.19,92.6 L153.23,63.55 L146.76,53.65 C146.98,53.48 147.16,53.29 147.32,53.07 L185.55,76.22 C185.199565,76.9113438 185.163141,77.7199492 185.45,78.44 L185.44,78.44 Z M131.85,133.49 L131.49,133.67 C131.415016,133.535723 131.327992,133.408534 131.23,133.29 L172.12,93.23 L181,106.83 C180.031738,107.562677 179.671664,108.851575 180.12,109.98 L131.85,133.49 Z M144.82,54.18 C145.25,54.23 145.7,54.18 146.14,54.01 C146.24,53.97 146.33,53.91 146.42,53.86 L158.02,71.64 L171.89,92.89 L130.94,133 C130.630563,132.732205 130.26488,132.537402 129.87,132.43 L134.58,107.76 L144.82,54.18 Z M98.44,114.54 C99.0481269,113.455 98.8331035,112.094563 97.92,111.25 L143.6,53.75 C143.85,53.91 144.13,54.03 144.42,54.11 L129.47,132.35 C128.53199,132.239383 127.605008,132.630691 127.03,133.38 L98.44,114.54 Z M112.87,58.52 L142.54,52.26 L142.61,52.52 C142.77,52.9 143.01,53.22 143.29,53.48 L97.6,111 C97.19,110.72 96.71,110.56 96.21,110.54 L94.99,62.29 L112.87,58.52 Z M244.54,113.05 C243.752272,113.208542 243.076088,113.709698 242.695253,114.41724 C242.314417,115.124781 242.268506,115.965183 242.57,116.71 L178,148.83 C177.9,148.67 177.8,148.52 177.67,148.38 L238.94,82.83 C239.456934,83.2445628 240.108268,83.4545556 240.77,83.42 L243.35,103.71 L244.54,113.05 Z M326.15,91.15 L318.85,130.2 C318.45,130.16 318.05,130.2 317.67,130.33 L307.14,105.85 C308.375537,105.212648 308.925136,103.741279 308.41,102.45 L308.24,102.13 L324.98,90.79 C325.34,90.99 325.74,91.12 326.15,91.14 L326.15,91.15 Z M371.38,96.77 C371.53,97.15 371.77,97.47 372.04,97.73 L349.69,125.46 L327.77,90.72 C328.12,90.5 328.4,90.2 328.61,89.86 L371.2,95.6 C371.17,96 371.23,96.39 371.38,96.77 Z M313.03,172.36 C312.93,172.22 312.83,172.1 312.7,171.99 L346.65,129.89 L349.78,125.99 L349.99,125.95 L349.92,125.83 L350.19,125.48 L372.36,97.98 C373.353017,98.6644251 374.679518,98.6072835 375.61,97.84 L376.31,98.58 L395.01,118.06 C394.325388,118.822776 394.131702,119.907419 394.51,120.86 C394.54,120.96 394.59,121.03 394.63,121.11 L339.38,155.81 L313.03,172.36 Z M321.12,132.08 L321.06,131.87 C320.740184,131.079082 320.065376,130.485844 319.24,130.27 L326.57,91.13 C326.82,91.11 327.07,91.06 327.32,90.96 L327.41,90.91 L349.34,125.68 L321.12,132.08 Z M450.75,126.51 L450.85,126.71 L444.47,130.51 L401.13,156.34 C400.637079,155.636475 399.838801,155.209489 398.98,155.19 L398.11,137.65 L397.35,122.53 C397.58,122.5 397.81,122.45 398.03,122.37 C398.891764,122.018155 399.511525,121.247234 399.67,120.33 L450.57,125.43 C450.55,125.79 450.61,126.16 450.75,126.51 Z M424.57,61.17 C424.78,61.42 425.03,61.64 425.31,61.8 L398,117.35 C397.083136,116.983206 396.039009,117.14827 395.28,117.78 L376.51,98.22 L375.88,97.56 C376.54,96.82 376.78,95.74 376.38,94.76 C376.33,94.63 376.26,94.52 376.2,94.41 L388.63,85.86 L424.57,61.17 Z M63.13,155.06 L94.57,115.48 C94.75,115.59 94.94,115.68 95.14,115.76 L85.37,149.02 L63.8,156.02 C63.65,155.63 63.41,155.32 63.13,155.06 Z M115,190.4 L122.32,162.2 L126.32,146.8 L128.68,137.68 C129.405279,137.814914 130.154098,137.644892 130.75,137.21 L145.29,154.42 L115.67,190.72 C115.47,190.58 115.24,190.48 115,190.4 Z M230.43,45.48 L239.7,78.19 L239.62,78.22 C239.22,78.38 238.88,78.63 238.62,78.93 L211.92,58.57 L228.77,45.13 C229.27,45.42 229.85,45.54 230.43,45.48 Z M350.4,212.02 L375.64,162.34 L396.31,158.57 C396.34,158.68 396.36,158.8 396.41,158.9 C396.54,159.24 396.74,159.53 396.98,159.78 L350.63,212.18 L350.4,212.02 Z M473.5,180.99 L442.7,171.36 C443.000646,170.040576 442.278113,168.702394 441.01,168.23 L452.71,128.15 C453.15,128.25 453.62,128.21 454.08,128.07 L474.82,179.57 C474.2,179.87 473.74,180.38 473.5,180.99 Z M251.7,28.54 L241,78.06 C240.7,78.01 240.4,78.02 240.09,78.08 L230.83,45.4 L231.13,45.31 C232.427405,44.7813216 233.104911,43.3481368 232.69,42.01 L250.49,27.8 C250.83,28.15 251.25,28.4 251.71,28.54 L251.7,28.54 Z M9.86,103.94 C9.74,103.64 9.56,103.39 9.36,103.16 L35.31,76.39 C35.9413873,76.9216854 36.7812975,77.1353467 37.59,76.97 L46.83,108.43 L10.06,105 C10.06,104.65 10,104.29 9.86,103.94 Z M179.69,194.49 L154.75,164.99 L173.6,151.91 C174.136932,152.56749 174.951814,152.934186 175.8,152.9 L180.75,194.03 C180.59,194.06 180.42,194.11 180.26,194.17 C180.06,194.25 179.86,194.37 179.69,194.49 Z M433.65,202.35 C433.82,201.81 433.83,201.22 433.63,200.65 L473.63,183.25 C474.24087,184.401346 475.589251,184.949125 476.83,184.55 L493.64,226.3 L433.65,202.35 Z M494.38,227.03 L477.2,184.4 C478.411276,183.74898 478.939744,182.291596 478.427263,181.015517 C477.914781,179.739438 476.525097,179.052396 475.2,179.42 L454.46,127.92 C455.708568,127.286002 456.265223,125.802673 455.74202,124.503776 C455.218817,123.204878 453.789417,122.521543 452.45,122.93 L427.87,61.89 C429.090155,61.2415561 429.623837,59.7765552 429.106675,58.4952277 C428.589512,57.2139002 427.188422,56.5298013 425.86,56.91 L413.8,27 C415.026571,26.4042006 415.616368,24.9873394 415.174867,23.6971723 C414.733365,22.4070052 413.399164,21.6485446 412.064727,21.9291341 C410.730289,22.2097237 409.814525,23.44128 409.93,24.8 L336.64,36.36 C336.279464,35.0114815 334.950467,34.1600956 333.574715,34.3963095 C332.198964,34.6325234 331.230072,35.8784527 331.34,37.27 L284.1,46.07 C284.07,45.96 284.05,45.85 284,45.74 C283.641641,44.8640057 282.850764,44.2396095 281.915523,44.0943095 C280.980282,43.9490096 280.037243,44.3040226 279.43,45.03 L254.77,27.36 C255.444674,26.5864629 255.622395,25.4972762 255.2286,24.5493991 C254.834805,23.601522 253.93761,22.9589083 252.913424,22.8911612 C251.889239,22.823414 250.915217,23.3422516 250.4,24.23 L218.32,1.25 L218.28,1.1 L218.17,1.15 L217.79,0.87 L217.89,1.26 L165.35,22.42 L164.91,22.6 L164.84,22.44 L164.75,22.57 L164.31,22.23 L164.53,22.75 L164.2,22.88 L94.7,50.88 L39.43,73.13 C38.7789805,71.9187245 37.3215958,71.3902556 36.0455169,71.9027371 C34.769438,72.4152186 34.082396,73.804903 34.45,75.13 L0.6,88.77 L6.15,102.53 C4.91220354,103.167733 4.36238525,104.64218 4.88041134,105.934655 C5.39843742,107.22713 6.81439179,107.913692 8.15,107.52 L29.54,160.61 L29.69,161 L34.51,172.96 L34.71,173.46 L58.87,233.46 C57.6073254,234.12209 57.077049,235.65182 57.6590373,236.953357 C58.2410257,238.254895 59.7346748,238.879617 61.07,238.38 C62.1088134,237.968694 62.7869911,236.96005 62.7759076,235.842828 C62.7648241,234.725607 62.0667689,233.730616 61.02,233.34 L79.68,169.79 L111.78,191.6 C111.215769,192.545613 111.282318,193.739124 111.948177,194.616149 C112.614037,195.493173 113.745776,195.877965 114.80822,195.588563 C115.870665,195.299162 116.650912,194.393562 116.78,193.3 L178.57,196.73 C178.58571,197.616882 179.036032,198.439476 179.774692,198.930585 C180.513352,199.421695 181.446115,199.518666 182.27,199.19 C183.132896,198.845218 183.757864,198.08094 183.924447,197.166766 C184.09103,196.252591 183.775817,195.316992 183.09,194.69 L216.97,151.69 L231.49,152.15 C231.556128,153.42494 232.506188,154.479319 233.767376,154.677437 C235.028564,154.875554 236.256148,154.163258 236.71,152.97 L308.2,173.41 C307.968368,174.528986 308.466243,175.672615 309.443122,176.26548 C310.420002,176.858345 311.664317,176.772045 312.55,176.05 L346.99,212.51 C346.135946,213.439548 346.039951,214.836793 346.758853,215.874409 C347.477755,216.912025 348.819657,217.313037 349.99,216.84 C351.375481,216.292459 352.055678,214.726216 351.51,213.34 L416.57,182.21 L429.31,199.5 C428.48079,200.216057 428.166493,201.362209 428.514468,202.401074 C428.862443,203.439938 429.803696,204.165534 430.896914,204.23766 C431.990131,204.309787 433.018554,203.714143 433.5,202.73 L494.38,227.03 Z" id="v9y2c"></path>
                                </g>
                            </g>
                            <g id="Group" transform="translate(1239.000000, 37.000000)">
                                <g id="v9y2d-link">
                                    <path d="M4.26,173.57 C4.44,173.55 4.62,173.51 4.8,173.47 L36.27,248.25 C35.79,248.54 35.42,249 35.25,249.55 L4.25,244.55 L4.26,173.57 Z M4.26,245.38 L36.55,266.61 L36.39,266.97 L4.26,259.17 L4.26,245.38 Z M4.26,259.8 L36.25,267.57 C36.23,267.7 36.21,267.83 36.21,267.97 C36.2154464,269.593083 37.5269449,270.909042 39.15,270.92 L42.48,304.99 L5.8,323.89 C5.45,323.39 4.9,323.04 4.25,322.96 L4.25,259.8 L4.26,259.8 Z M4.26,327.45 C4.94,327.35 5.53,326.96 5.87,326.4 L44.6,343.62 L44.55,343.86 L4.25,343.86 L4.26,327.45 Z M44.86,343.05 L6.12,325.83 C6.18,325.63 6.22,325.43 6.22,325.2 C6.22,324.94 6.17,324.69 6.09,324.45 L42.55,305.65 L46.11,342.14 C45.5906935,342.268554 45.1400287,342.590457 44.85,343.04 L44.86,343.05 Z M43.14,305.35 L88.23,282.1 C88.38,282.33 88.57,282.54 88.78,282.71 L47.55,342.29 C47.293754,342.165067 47.0147539,342.093616 46.73,342.08 L43.14,305.35 Z M48.06,342.65 L76.41,301.68 L89.29,283.07 C89.9458326,283.431436 90.7151622,283.52805 91.44,283.34 L109.87,332.69 L48.61,343.51 C48.5,343.17 48.31,342.88 48.06,342.64 L48.06,342.65 Z M110.1,333.28 L114.05,343.86 L50.18,343.86 L110.1,333.28 Z M114.71,343.86 L110.71,333.17 L163.78,323.8 C164.015321,324.511943 164.612389,325.0444 165.346522,325.197 C166.080656,325.349601 166.840455,325.09919 167.34,324.54 L196.46,343.86 L114.71,343.86 Z M167.68,324.02 C168.056632,323.224254 167.896936,322.278055 167.28,321.65 L187.7,294.41 L197.16,281.8 C197.5,282 197.89,282.14 198.31,282.2 L197.57,322.86 L197.19,343.6 L167.68,324.02 Z M197.82,343 L198.19,322.64 L198.93,282.2 C200.05,282.1 200.99,281.4 201.41,280.4 L229.94,288.94 L197.82,343 Z M198.36,343.86 L254.14,297.98 C254.43,298.15 254.76,298.26 255.13,298.26 L255.23,298.25 L257.87,322.85 L260.12,343.86 L198.36,343.86 Z M255.84,298.12 C256.34,297.92 256.74,297.52 256.94,297.02 L282.37,304.62 C282.167131,305.698129 282.579289,306.799784 283.44,307.48 L260.68,343.26 L255.84,298.12 Z M252.37,256.07 C252.59,255.87 252.77,255.63 252.9,255.36 L281.9,264.66 L304.34,271.86 L304.32,272.16 C304.32,272.73 304.57,273.24 304.97,273.6 L286.59,302.51 C286.19,302.31 285.75,302.19 285.28,302.19 C284.78,302.19 284.3,302.33 283.88,302.55 L252.37,256.07 Z M304.53,271.27 L282.12,264.07 L253.09,254.77 C253.12,254.64 253.14,254.5 253.14,254.37 C253.14,253.9 252.99,253.47 252.75,253.11 L305.83,206.73 C306.27,207.13 306.83,207.4 307.46,207.48 L306.42,251.89 L306,270.23 C305.35,270.32 304.82,270.71 304.53,271.27 Z M306.62,270.24 L308.08,207.5 C309.28,207.4 310.28,206.59 310.64,205.48 L332.7,210.24 C332.569692,211.024646 332.85771,211.820485 333.46,212.34 L306.78,270.28 L306.62,270.24 Z M307.51,270.19 L333.98,212.69 C334.533604,212.948152 335.167643,212.97337 335.74,212.76 L343.92,226.98 L307.51,270.19 Z M307.73,270.89 L344.25,227.55 L361.88,258.2 C361.106922,258.754804 360.648931,259.648445 360.65,260.6 L360.68,260.86 L308.08,271.46 C308,271.26 307.88,271.06 307.73,270.89 Z M344.68,227.04 L378.4,187.02 C378.63,187.17 378.88,187.28 379.14,187.37 L375.24,205.37 L363.93,257.66 C363.83,257.65 363.72,257.63 363.61,257.63 C363.19,257.63 362.78,257.73 362.41,257.88 L344.68,227.04 Z M379.75,187.5 C379.85,187.51 379.95,187.53 380.06,187.53 C381.36,187.53 382.46,186.68 382.86,185.51 L445.6,199.5 C445.58,199.6 445.56,199.72 445.56,199.83 C445.56,200.36 445.71,200.85 445.96,201.28 L365.82,258.63 C365.475321,258.241505 365.033573,257.951608 364.54,257.79 L379.75,187.5 Z M388.63,243.07 L446.33,201.79 C446.8,202.33 447.46,202.69 448.22,202.76 L448.22,239.03 C447.25,239.18 446.5,240.02 446.5,241.03 L446.52,241.17 L366.4,259.63 C366.342562,259.456782 366.268902,259.289373 366.18,259.13 L388.63,243.07 Z M448.22,196.9 C447.58,196.97 447,197.23 446.55,197.64 L445.4,196.61 L395.32,151.67 C395.630486,151.181435 395.70397,150.578864 395.52,150.03 L437.29,128.13 L446.07,123.53 C446.54,124.23 447.32,124.72 448.22,124.81 L448.22,196.9 Z M448.22,118.95 C447.76,119 447.32,119.15 446.95,119.38 L418.67,83.44 C419.689238,82.4495479 419.857386,80.8731587 419.07,79.69 L446.45,57.3 C446.91,57.76 447.53,58.05 448.22,58.13 L448.22,118.95 Z M448.22,52.26 C446.863321,52.3966589 445.778651,53.4482099 445.6,54.8 L396.86,53.45 C396.819612,53.1334589 396.702933,52.8314668 396.52,52.57 L447.48,3.87 C447.69,4.03 447.94,4.14 448.22,4.19 L448.22,52.26 Z M396.35,55.06 C396.6,54.8 396.78,54.46 396.85,54.08 L445.59,55.42 C445.63,55.94 445.79,56.42 446.05,56.82 L418.69,79.21 C417.713125,78.2382843 416.193704,78.0722273 415.03,78.81 L396.35,55.06 Z M414.54,79.19 C414.1,79.62 413.8,80.19 413.69,80.82 L388.63,79.22 L394.69,55.69 L394.88,55.71 C395.23,55.71 395.56,55.61 395.85,55.45 L414.54,79.19 Z M388.47,79.84 L413.65,81.44 C413.68,81.99 413.85,82.5 414.13,82.94 L405.33,90.14 L382.15,109.1 C381.85,108.81 381.49,108.6 381.1,108.44 L388.47,79.84 Z M387.84,79.8 L380.49,108.29 C380.35,108.27 380.21,108.25 380.06,108.25 C379.01,108.25 378.1,108.79 377.57,109.62 L308.77,75.22 C308.81,75.08 308.86,74.94 308.88,74.79 L387.84,79.8 Z M308.49,75.77 L377.29,110.17 C377.17,110.5 377.09,110.84 377.09,111.21 C377.09,111.31 377.12,111.4 377.13,111.49 L354.63,116.11 L308.46,75.81 L308.49,75.77 Z M353.86,116.27 L286.84,130.03 C286.605134,129.283905 286.083573,128.661629 285.39,128.3 L305.59,76.88 C305.8,76.94 306.03,76.98 306.26,76.98 C306.95,76.98 307.57,76.71 308.05,76.28 L353.86,116.27 Z M285.35,133.57 L305.5,165.15 L306.81,167.2 C306.102449,167.757721 305.689675,168.609066 305.69,169.51 L305.71,169.67 L289.4,172.29 L261.49,176.79 L282.99,133.69 C283.32,133.81 283.67,133.89 284.03,133.89 C284.51,133.89 284.95,133.76 285.35,133.56 L285.35,133.57 Z M282.45,133.41 L260.73,176.91 L216.77,183.99 C216.742375,183.910976 216.708951,183.8341 216.67,183.76 L281.9,132.97 C282.06,133.14 282.24,133.29 282.44,133.41 L282.45,133.41 Z M216.44,185.71 C216.56,185.57 216.67,185.41 216.74,185.24 L252.71,192.99 L242.09,214.25 C241.218682,213.919839 240.242275,214.023791 239.46,214.53 L216.44,185.71 Z M238.97,214.91 L238.66,215.29 L198.45,192.23 L213.67,185.55 C214.17654,186.29084 215.161402,186.528417 215.95,186.1 L238.97,214.91 Z M238.35,215.83 C238.25,216.03 238.19,216.25 238.15,216.48 L185.14,212.3 L158.64,210.21 C158.632155,210.057997 158.608698,209.907204 158.57,209.76 L197.74,192.54 L238.35,215.83 Z M197.07,192.16 L158.32,209.19 C157.918809,208.535328 157.207808,208.134445 156.44,208.13 C156.34,208.13 156.26,208.15 156.17,208.16 L144.17,163.61 C144.7,163.41 145.17,163.05 145.5,162.59 L197.07,192.16 Z M143.57,163.77 L155.57,208.31 C155.01,208.54 154.58,209 154.37,209.56 L129.24,203.84 L142.47,163.75 C142.67,163.79 142.88,163.82 143.1,163.82 C143.26,163.82 143.41,163.8 143.56,163.77 L143.57,163.77 Z M141.88,163.55 L128.63,203.7 L78.69,192.32 L78.71,192.12 C78.71,191.89 78.66,191.66 78.6,191.44 L140.57,162.38 C140.88,162.89 141.33,163.3 141.88,163.55 Z M78.56,192.93 L128.43,204.29 L123.93,217.95 L103.58,206.74 L78.55,192.94 L78.56,192.93 Z M102.2,206.68 L123.73,218.55 L116.02,241.91 C115.294509,241.753993 114.536847,241.879079 113.9,242.26 L100.73,224.48 L78.01,193.77 C78.1,193.68 78.18,193.59 78.25,193.49 L102.2,206.68 Z M113.39,242.63 C112.804371,243.162619 112.458272,243.908896 112.43,244.7 L65.42,247.96 L51.31,230.1 L75.41,194.18 C75.71,194.33 76.05,194.42 76.41,194.42 C76.81,194.42 77.18,194.32 77.51,194.13 L113.39,242.63 Z M50.94,230.64 L64.67,248.02 L47.43,249.22 L39.69,249.75 C39.59,249.25 39.32,248.83 38.96,248.51 L50.94,230.64 Z M88.64,278.36 C88.5151959,278.483142 88.401427,278.616988 88.3,278.76 L62.06,263.85 L39.56,251.07 C39.66,250.85 39.7,250.62 39.72,250.37 L65.13,248.61 L88.64,278.36 Z M90.7,277.51 C90.12,277.51 89.58,277.69 89.12,277.98 L65.88,248.56 L104.27,245.89 L112.47,245.32 C112.6,246.01 112.95,246.61 113.46,247.04 L97.62,269.94 L92.12,277.89 C91.69,277.66 91.22,277.51 90.7,277.51 Z M164.39,321.55 C164.29,321.63 164.19,321.73 164.12,321.83 L93.42,281.66 C93.9407342,280.470623 93.6196225,279.080494 92.63,278.24 L109.29,254.16 L113.97,247.4 C114.818778,247.869084 115.844673,247.887805 116.71,247.45 L164.39,321.55 Z M165.87,321.03 L165.77,321.02 C165.47,321.02 165.17,321.09 164.91,321.21 L121.26,253.36 L117.24,247.11 C117.54,246.86 117.79,246.56 117.98,246.21 L175.93,270.19 L165.87,321.03 Z M196.66,281.43 L187.85,293.17 L166.77,321.27 C166.67,321.23 166.58,321.18 166.48,321.15 L171.18,297.42 L176.52,270.44 L179.77,271.78 L195.84,278.43 C195.521205,279.504576 195.83893,280.666987 196.66,281.43 Z M196.87,276.93 C196.55,277.17 196.27,277.49 196.07,277.85 L187.2,274.18 L176.64,269.81 L180.31,251.26 L180.37,251.26 C180.61,251.26 180.85,251.21 181.07,251.12 L196.87,276.93 Z M201.19,277.72 C200.400373,276.430563 198.763676,275.946895 197.4,276.6 L181.59,250.8 C181.87,250.55 182.09,250.21 182.18,249.83 L248.55,254.52 C248.57,254.71 248.6,254.89 248.65,255.06 L224.19,266.74 L201.19,277.72 Z M253.65,297.57 L198.66,342.8 L230.56,289.12 L253.21,295.89 C253.19,296.03 253.17,296.16 253.17,296.3 C253.17,296.79 253.36,297.23 253.65,297.57 Z M254.82,294.37 C254.23,294.47 253.74,294.82 253.45,295.31 L230.88,288.57 L249.94,256.48 C250.2,256.59 250.48,256.65 250.77,256.66 L254.82,294.37 Z M305.42,206.26 L252.34,252.64 C252.19,252.51 252.03,252.4 251.85,252.32 L269.91,198.62 C270.04,198.63 270.17,198.65 270.31,198.65 C271.24,198.65 272.04,198.05 272.35,197.22 L304.91,204.24 C304.825838,204.953137 305.007404,205.672282 305.42,206.26 Z M261.14,177.47 L305.81,170.28 C305.87,170.52 305.96,170.74 306.07,170.94 L271.89,194.97 C271.374922,194.41602 270.608533,194.170241 269.867339,194.321338 C269.126145,194.472436 268.517122,194.998601 268.26,195.71 L253.62,192.55 L261.14,177.47 Z M252.99,192.41 L216.87,184.63 L216.87,184.6 L260.39,177.6 L252.99,192.41 Z M253.33,193.13 L268.13,196.31 L268.12,196.46 C268.12,196.82 268.22,197.16 268.36,197.45 L243.28,215.08 C243.09,214.87 242.88,214.68 242.65,214.53 L253.33,193.13 Z M242.1,219.79 C242.9076,219.4917 243.543137,218.853311 243.837818,218.044384 C244.132499,217.235456 244.056498,216.337864 243.63,215.59 L250.99,210.42 L268.72,197.96 C268.89,198.14 269.09,198.29 269.32,198.41 L251.27,252.11 C251.128206,252.083441 250.98426,252.07005 250.84,252.07 C250.74,252.07 250.65,252.08 250.56,252.1 L248.74,245.14 L242.1,219.79 Z M158.55,210.99 L158.6,210.84 L176.72,212.26 L238.1,217.1 C238.12487,217.946545 238.511163,218.74189 239.16115,219.28482 C239.811137,219.827751 240.662554,220.066257 241.5,219.94 L243.96,229.35 L249.96,252.25 C249.52,252.43 249.16,252.73 248.91,253.13 L202.53,231.5 L158.55,210.99 Z M157.85,212.06 C158.02,211.91 158.17,211.76 158.3,211.56 L201.8,231.86 L248.65,253.69 L248.59,253.89 L182.22,249.21 C182.165009,248.62474 181.836589,248.099921 181.334269,247.79459 C180.831949,247.489258 180.214856,247.439353 179.67,247.66 L157.85,212.06 Z M118.3,245.33 L155.16,247.93 L178.51,249.58 C178.58,250.29 179.05,250.89 179.71,251.14 L176.05,269.57 L118.22,245.64 L118.3,245.33 Z M116.6,242.11 L124.28,218.85 L178.61,248.78 L178.55,248.95 L118.34,244.71 C118.305159,243.581826 117.629638,242.572425 116.6,242.11 Z M154.21,210.35 C154.2079,211.100333 154.584961,211.800953 155.212365,212.212497 C155.839769,212.624042 156.632602,212.690813 157.32,212.39 L165.42,225.62 L179.14,247.99 L178.91,248.23 L124.48,218.25 L129.04,204.43 L154.24,210.17 L154.21,210.35 Z M307.59,201.62 C306.39,201.72 305.39,202.52 305.03,203.64 L272.47,196.61 L272.49,196.47 C272.49,196.11 272.39,195.77 272.24,195.48 L306.44,171.45 C306.9,171.98 307.54,172.35 308.27,172.44 L307.59,201.62 Z M334.77,208.33 C334.47,208.36 334.19,208.43 333.94,208.56 L323.04,191.49 L310.49,171.81 C311.198554,171.256463 311.614855,170.409125 311.62,169.51 L311.6,169.35 L342.78,164.33 L334.77,208.33 Z M335.39,208.36 L343.39,164.44 L377.34,183.4 C377.016916,184.150019 377.016916,184.999981 377.34,185.75 L336.54,208.95 C336.23,208.65 335.84,208.45 335.39,208.36 Z M377.93,186.62 L344.35,226.47 L336.29,212.47 C337.251771,211.780022 337.529225,210.470785 336.93,209.45 L377.66,186.29 C377.74,186.41 377.83,186.52 377.93,186.62 Z M307.39,144.32 L339.87,162.47 L342.23,163.79 L311.5,168.73 C311.266558,167.879256 310.664624,167.177637 309.859268,166.81755 C309.053913,166.457463 308.12967,166.476706 307.34,166.87 L285.87,133.23 C286.09,133.05 286.29,132.85 286.45,132.63 L307.39,144.32 Z M380.87,181.72 C379.665608,181.374646 378.374456,181.827752 377.65,182.85 L367.2,177.02 L343.5,163.79 L343.55,163.58 L343.22,163.63 L319.32,150.28 L286.76,132.08 L286.86,131.75 L373.19,147.26 L391.77,150.6 L391.77,150.63 C391.77,151.33 392.15,151.93 392.7,152.27 L389.27,160.81 L380.87,181.72 Z M355.22,116.62 L376.88,112.18 L377.25,112.11 C377.715983,113.576668 379.231119,114.438728 380.73,114.09 L385.14,126.85 L392.79,148.95 C392.68,149 392.57,149.07 392.48,149.15 L355.22,116.62 Z M287,130.92 C287,130.82 286.98,130.73 286.97,130.64 L354.45,116.79 L392.06,149.62 C391.990243,149.736888 391.933249,149.860933 391.89,149.99 L312.73,135.76 L286.97,131.13 L287,130.93 L287,130.92 Z M412.65,140.34 L395.23,149.48 C394.799269,148.902168 394.079958,148.615991 393.37,148.74 L385.77,126.74 L381.32,113.89 C382.110623,113.517584 382.69626,112.814819 382.92,111.97 L445.58,121.74 L445.57,121.88 C445.57,122.27 445.64,122.63 445.77,122.98 L412.65,140.34 Z M383.03,111.21 C383.03,110.61 382.85,110.05 382.53,109.59 L382.81,109.36 L414.52,83.42 C415.496875,84.3917157 417.016296,84.5577727 418.18,83.82 L446.46,119.76 C446.09,120.13 445.82,120.6 445.68,121.12 L417.54,116.74 L383.01,111.35 L383.03,111.21 Z M383.03,184.57 C383.03,183.43 382.38,182.46 381.45,181.97 L393.28,152.51 C393.849703,152.6391 394.447126,152.498963 394.9,152.13 L429.53,183.2 L446.13,198.1 C445.96,198.34 445.83,198.6 445.73,198.89 L383,184.9 C383.02,184.79 383.04,184.68 383.04,184.57 L383.03,184.57 Z M310.8,204.56 C310.8,203.06 309.67,201.82 308.22,201.63 L308.9,172.45 C309.28,172.42 309.64,172.31 309.97,172.15 L325.41,196.35 L333.43,208.91 C333.2,209.11 333.01,209.36 332.88,209.64 L310.77,204.87 C310.78,204.77 310.8,204.67 310.8,204.56 Z M257.08,296.3 C257.08,295.33 256.37,294.53 255.44,294.38 L251.39,256.59 C251.55,256.55 251.7,256.49 251.85,256.42 L283.37,302.9 C283.02,303.2 282.73,303.57 282.54,304.01 L257.07,296.4 L257.08,296.3 Z M201.64,279.26 C201.64,278.92 201.57,278.59 201.46,278.28 L237.99,260.84 L248.92,255.63 C249.05,255.83 249.22,256 249.42,256.15 L230.27,288.38 L201.58,279.81 C201.62,279.63 201.64,279.45 201.64,279.26 Z M163.66,323.13 L163.66,323.18 L137.8,327.75 L110.5,332.57 L92.02,283.12 C92.45,282.9 92.82,282.59 93.1,282.2 L163.8,322.37 C163.72,322.61 163.66,322.87 163.66,323.13 Z M39.2,265 L37.97,252.45 C38.49,252.32 38.94,252.02 39.25,251.61 L43.4,253.96 L87.99,279.29 L87.92,279.49 L42.1,268.35 C42.12,268.22 42.14,268.09 42.14,267.96 C42.1400371,266.333016 40.826947,265.010993 39.2,265 Z M87.74,280.48 C87.74,280.86 87.82,281.22 87.94,281.55 L43.08,304.68 L39.77,270.87 C40.7799867,270.656986 41.6060649,269.93322 41.95,268.96 L87.78,280.09 C87.76,280.22 87.74,280.35 87.74,280.48 Z M35.14,250.22 C35.1494915,251.444458 36.1166613,252.446798 37.34,252.5 L38.58,265.06 C37.9,265.2 37.31,265.58 36.89,266.09 L5.33,245.35 L35.14,250.16 L35.14,250.22 Z M50.54,230.13 L38.44,248.16 C38.14,248.01 37.8,247.92 37.44,247.92 C37.23,247.92 37.04,247.96 36.84,248.01 L5.37,173.22 L5.52,173.14 L50.54,230.13 Z M1.67,325.2 C1.67,326.35 2.52,327.3 3.63,327.45 L3.63,344.48 L44.55,344.48 C44.7092373,345.502739 45.5899391,346.256929 46.625,346.256929 C47.6600609,346.256929 48.5407627,345.502739 48.7,344.48 L197.17,344.48 L197.15,345.34 L197.59,344.61 L197.79,344.75 L197.79,344.48 L260.19,344.48 L260.26,345.09 L260.64,344.49 L260.82,344.49 L260.79,344.25 L283.97,307.8 C284.885877,308.26464 285.977827,308.217684 286.850436,307.676136 C287.723044,307.134587 288.249817,306.176949 288.24,305.15 C288.24,304.22 287.8,303.39 287.12,302.85 L305.49,273.94 C306.092291,274.198864 306.784351,274.137767 307.331973,273.777383 C307.879594,273.417 308.209484,272.805565 308.21,272.15 L308.21,272.08 L360.8,261.48 C361.216351,262.898528 362.618394,263.789819 364.079542,263.564833 C365.540689,263.339846 366.609665,262.06807 366.58,260.59 C366.58,260.47 366.56,260.35 366.54,260.24 L446.64,241.78 C447.000538,242.695269 447.965431,243.220322 448.929765,243.025992 C449.894099,242.831661 450.580326,241.973878 450.558233,240.990406 C450.536141,240.006935 449.812088,239.180831 448.84,239.03 L448.84,202.76 C450.326431,202.586027 451.447071,201.326578 451.447071,199.83 C451.447071,198.333422 450.326431,197.073973 448.84,196.9 L448.84,124.81 C450.326431,124.636027 451.447071,123.376578 451.447071,121.88 C451.447071,120.383422 450.326431,119.123973 448.84,118.95 L448.84,58.13 C450.346492,57.9774973 451.492889,56.7091914 451.492889,55.195 C451.492889,53.6808086 450.346492,52.4125027 448.84,52.26 L448.84,4.19 C449.613835,4.05072886 450.204623,3.42023947 450.293342,2.63899289 C450.382061,1.8577463 449.94769,1.11083939 449.224789,0.801598056 C448.501887,0.492356722 447.661727,0.694047982 447.157992,1.29775959 C446.654256,1.90147119 446.606292,2.76416875 447.04,3.42 L396.09,52.12 C395.487831,51.6486559 394.668068,51.5662054 393.984096,51.9081916 C393.300123,52.2501778 392.874226,52.9554584 392.89,53.72 C392.891204,54.5141442 393.362154,55.2323429 394.09,55.55 L387.99,79.19 L308.92,74.17 C308.855362,72.8865538 307.882422,71.8328305 306.608193,71.6662417 C305.333963,71.4996529 304.122834,72.2678376 303.730419,73.4915302 C303.338005,74.7152228 303.876525,76.0444857 305.01,76.65 L284.81,128.08 C283.640128,127.763079 282.395251,128.191389 281.668027,129.161021 C280.940804,130.130652 280.878192,131.445661 281.51,132.48 L216.29,183.26 C215.718763,182.74561 214.878728,182.66422 214.219366,183.059378 C213.560003,183.454536 213.235709,184.233712 213.42,184.98 L197.78,191.85 L145.81,162.05 C146.349746,160.836609 146.015281,159.412256 144.991875,158.565922 C143.968468,157.719589 142.50665,157.658458 141.416156,158.416392 C140.325661,159.174326 139.873445,160.565782 140.31,161.82 L78.34,190.88 C77.8620061,190.109758 76.97617,189.692123 76.0778249,189.813477 C75.1794797,189.934832 74.4362066,190.572539 74.1797154,191.442 C73.9232241,192.311462 74.2013616,193.250485 74.89,193.84 L50.9,229.59 L6.01,172.75 C7.00427882,171.783939 7.19487043,170.257213 6.46860499,169.076364 C5.74233955,167.895515 4.29379775,167.376917 2.98309749,167.828502 C1.67239723,168.280088 0.850700725,169.58087 1.00591647,170.958467 C1.16113222,172.336063 2.25167489,173.42139 3.63,173.57 L3.63,322.96 C2.51000693,323.114389 1.67435065,324.069424 1.67,325.2 Z" id="v9y2d"></path>
                                </g>
                            </g>
                        </g>
                    </g>
                </g>
            </g>
        </g>
    </g>
</svg>