<?xml version="1.0" encoding="UTF-8"?>
<svg width="50px" height="46px" viewBox="0 0 50 46" version="1.1" xmlns="http://www.w3.org/2000/svg" xmlns:xlink="http://www.w3.org/1999/xlink">
    <!-- Generator: Sketch 49.2 (51160) - http://www.bohemiancoding.com/sketch -->
    <title>ico-message</title>
    <desc>Created with Sketch.</desc>
    <defs></defs>
    <g id="Page-1" stroke="none" stroke-width="1" fill="none" fill-rule="evenodd">
        <g id="ico-message">
            <g id="Group">
                <g id="upeva-link">
                    <path d="M13.18,20.13 C13.99,20.13 14.65,20.77 14.65,21.56 C14.65,22.36 13.99,23 13.18,23 C12.38,23 11.72,22.36 11.72,21.56 C11.72,20.77 12.38,20.13 13.18,20.13 Z M13.18,25.88 C15.61,25.88 17.58,23.94 17.58,21.56 C17.5525311,19.1559162 15.5841381,17.2277858 13.18,17.25 C10.7758619,17.2277858 8.80746894,19.1559162 8.78,21.56 C8.79056013,22.7163593 9.26007474,23.8211565 10.0852455,24.6313241 C10.9104162,25.4414917 12.0236416,25.8906575 13.18,25.88 Z M24.9,20.13 C25.71,20.13 26.37,20.77 26.37,21.56 C26.37,22.36 25.71,23 24.9,23 C24.1,23 23.44,22.36 23.44,21.56 C23.44,20.77 24.09,20.13 24.9,20.13 Z M24.9,25.88 C27.33,25.88 29.3,23.94 29.3,21.56 C29.2725311,19.1559162 27.3041381,17.2277858 24.9,17.25 C22.4958619,17.2277858 20.5274689,19.1559162 20.5,21.56 C20.5105601,22.7163593 20.9800747,23.8211565 21.8052455,24.6313241 C22.6304162,25.4414917 23.7436416,25.8906575 24.9,25.88 Z M36.82,20.13 C37.62,20.13 38.28,20.77 38.28,21.56 C38.28,22.36 37.62,23 36.82,23 C36.01,23 35.35,22.36 35.35,21.56 C35.35,20.77 36.01,20.13 36.82,20.13 Z M36.82,25.88 C39.24,25.88 41.22,23.94 41.22,21.56 C41.1925311,19.1559162 39.2241381,17.2277858 36.82,17.25 C34.4158619,17.2277858 32.4474689,19.1559162 32.42,21.56 C32.4305601,22.7163593 32.9000747,23.8211565 33.7252455,24.6313241 C34.5504162,25.4414917 35.6636416,25.8906575 36.82,25.88 Z M24.9,2.86 C37.13,2.86 47.09,11.26 47.09,21.56 C47.09,31.86 37.13,40.26 24.9,40.26 C21.7,40.26 18.63,39.68 15.75,38.56 C15.1843727,38.3329081 14.5373676,38.4758049 14.12,38.92 C12.3501864,40.8098338 10.0665346,42.141095 7.55,42.75 C8.93,40.15 9.28,37.09 8.45,34.19 C8.37827947,33.9624353 8.25113683,33.756258 8.08,33.59 C4.83252433,30.4222182 2.97337048,26.0961794 2.91,21.56 C2.91,11.26 12.79,2.86 24.91,2.86 L24.9,2.86 Z M4.4,46 C8.57,46 12.6,44.4 15.58,41.57 C18.5770142,42.608607 21.7281491,43.1326692 24.9,43.12 C38.85,43.12 50,33.32 50,21.56 C50,9.79 38.84,-2.27373675e-13 24.9,-2.27373675e-13 C11,-2.27373675e-13 -5.68434189e-14,9.77 -5.68434189e-14,21.56 C-5.68434189e-14,26.59 2.03,31.46 5.71,35.31 C6.44184148,38.2790303 5.54786534,41.4136531 3.36,43.55 C2.44,44.45 3.09,46 4.39,46 L4.4,46 Z" id="upeva"></path>
                </g>
                <g id="upeva-link" fill="#FF4B2D" fill-opacity="0.4" fill-rule="nonzero">
                    <path d="M13.18,20.13 C13.99,20.13 14.65,20.77 14.65,21.56 C14.65,22.36 13.99,23 13.18,23 C12.38,23 11.72,22.36 11.72,21.56 C11.72,20.77 12.38,20.13 13.18,20.13 Z M13.18,25.88 C15.61,25.88 17.58,23.94 17.58,21.56 C17.5525311,19.1559162 15.5841381,17.2277858 13.18,17.25 C10.7758619,17.2277858 8.80746894,19.1559162 8.78,21.56 C8.79056013,22.7163593 9.26007474,23.8211565 10.0852455,24.6313241 C10.9104162,25.4414917 12.0236416,25.8906575 13.18,25.88 Z M24.9,20.13 C25.71,20.13 26.37,20.77 26.37,21.56 C26.37,22.36 25.71,23 24.9,23 C24.1,23 23.44,22.36 23.44,21.56 C23.44,20.77 24.09,20.13 24.9,20.13 Z M24.9,25.88 C27.33,25.88 29.3,23.94 29.3,21.56 C29.2725311,19.1559162 27.3041381,17.2277858 24.9,17.25 C22.4958619,17.2277858 20.5274689,19.1559162 20.5,21.56 C20.5105601,22.7163593 20.9800747,23.8211565 21.8052455,24.6313241 C22.6304162,25.4414917 23.7436416,25.8906575 24.9,25.88 Z M36.82,20.13 C37.62,20.13 38.28,20.77 38.28,21.56 C38.28,22.36 37.62,23 36.82,23 C36.01,23 35.35,22.36 35.35,21.56 C35.35,20.77 36.01,20.13 36.82,20.13 Z M36.82,25.88 C39.24,25.88 41.22,23.94 41.22,21.56 C41.1925311,19.1559162 39.2241381,17.2277858 36.82,17.25 C34.4158619,17.2277858 32.4474689,19.1559162 32.42,21.56 C32.4305601,22.7163593 32.9000747,23.8211565 33.7252455,24.6313241 C34.5504162,25.4414917 35.6636416,25.8906575 36.82,25.88 Z M24.9,2.86 C37.13,2.86 47.09,11.26 47.09,21.56 C47.09,31.86 37.13,40.26 24.9,40.26 C21.7,40.26 18.63,39.68 15.75,38.56 C15.1843727,38.3329081 14.5373676,38.4758049 14.12,38.92 C12.3501864,40.8098338 10.0665346,42.141095 7.55,42.75 C8.93,40.15 9.28,37.09 8.45,34.19 C8.37827947,33.9624353 8.25113683,33.756258 8.08,33.59 C4.83252433,30.4222182 2.97337048,26.0961794 2.91,21.56 C2.91,11.26 12.79,2.86 24.91,2.86 L24.9,2.86 Z M4.4,46 C8.57,46 12.6,44.4 15.58,41.57 C18.5770142,42.608607 21.7281491,43.1326692 24.9,43.12 C38.85,43.12 50,33.32 50,21.56 C50,9.79 38.84,-2.27373675e-13 24.9,-2.27373675e-13 C11,-2.27373675e-13 -5.68434189e-14,9.77 -5.68434189e-14,21.56 C-5.68434189e-14,26.59 2.03,31.46 5.71,35.31 C6.44184148,38.2790303 5.54786534,41.4136531 3.36,43.55 C2.44,44.45 3.09,46 4.39,46 L4.4,46 Z" id="upeva"></path>
                </g>
            </g>
            <g id="upeva-link" fill="#FF4B2D" fill-rule="nonzero">
                <path d="M13.18,20.13 C13.99,20.13 14.65,20.77 14.65,21.56 C14.65,22.36 13.99,23 13.18,23 C12.38,23 11.72,22.36 11.72,21.56 C11.72,20.77 12.38,20.13 13.18,20.13 Z M13.18,25.88 C15.61,25.88 17.58,23.94 17.58,21.56 C17.5525311,19.1559162 15.5841381,17.2277858 13.18,17.25 C10.7758619,17.2277858 8.80746894,19.1559162 8.78,21.56 C8.79056013,22.7163593 9.26007474,23.8211565 10.0852455,24.6313241 C10.9104162,25.4414917 12.0236416,25.8906575 13.18,25.88 Z M24.9,20.13 C25.71,20.13 26.37,20.77 26.37,21.56 C26.37,22.36 25.71,23 24.9,23 C24.1,23 23.44,22.36 23.44,21.56 C23.44,20.77 24.09,20.13 24.9,20.13 Z M24.9,25.88 C27.33,25.88 29.3,23.94 29.3,21.56 C29.2725311,19.1559162 27.3041381,17.2277858 24.9,17.25 C22.4958619,17.2277858 20.5274689,19.1559162 20.5,21.56 C20.5105601,22.7163593 20.9800747,23.8211565 21.8052455,24.6313241 C22.6304162,25.4414917 23.7436416,25.8906575 24.9,25.88 Z M36.82,20.13 C37.62,20.13 38.28,20.77 38.28,21.56 C38.28,22.36 37.62,23 36.82,23 C36.01,23 35.35,22.36 35.35,21.56 C35.35,20.77 36.01,20.13 36.82,20.13 Z M36.82,25.88 C39.24,25.88 41.22,23.94 41.22,21.56 C41.1925311,19.1559162 39.2241381,17.2277858 36.82,17.25 C34.4158619,17.2277858 32.4474689,19.1559162 32.42,21.56 C32.4305601,22.7163593 32.9000747,23.8211565 33.7252455,24.6313241 C34.5504162,25.4414917 35.6636416,25.8906575 36.82,25.88 Z M24.9,2.86 C37.13,2.86 47.09,11.26 47.09,21.56 C47.09,31.86 37.13,40.26 24.9,40.26 C21.7,40.26 18.63,39.68 15.75,38.56 C15.1843727,38.3329081 14.5373676,38.4758049 14.12,38.92 C12.3501864,40.8098338 10.0665346,42.141095 7.55,42.75 C8.93,40.15 9.28,37.09 8.45,34.19 C8.37827947,33.9624353 8.25113683,33.756258 8.08,33.59 C4.83252433,30.4222182 2.97337048,26.0961794 2.91,21.56 C2.91,11.26 12.79,2.86 24.91,2.86 L24.9,2.86 Z M4.4,46 C8.57,46 12.6,44.4 15.58,41.57 C18.5770142,42.608607 21.7281491,43.1326692 24.9,43.12 C38.85,43.12 50,33.32 50,21.56 C50,9.79 38.84,-2.27373675e-13 24.9,-2.27373675e-13 C11,-2.27373675e-13 -5.68434189e-14,9.77 -5.68434189e-14,21.56 C-5.68434189e-14,26.59 2.03,31.46 5.71,35.31 C6.44184148,38.2790303 5.54786534,41.4136531 3.36,43.55 C2.44,44.45 3.09,46 4.39,46 L4.4,46 Z" id="upeva"></path>
            </g>
        </g>
    </g>
</svg>