<?xml version="1.0" encoding="UTF-8"?>
<svg width="16px" height="16px" viewBox="0 0 16 16" version="1.1" xmlns="http://www.w3.org/2000/svg" xmlns:xlink="http://www.w3.org/1999/xlink">
    <!-- Generator: Sketch 49.2 (51160) - http://www.bohemiancoding.com/sketch -->
    <title>ico-cancel</title>
    <desc>Created with Sketch.</desc>
    <defs></defs>
    <g id="Page-1" stroke="none" stroke-width="1" fill="none" fill-rule="evenodd">
        <g id="ico-cancel" transform="translate(-1.000000, -1.000000)" fill="#FFFFFF">
            <path d="M9.882,8.821 L16.423,2.28 C16.716,1.987 16.716,1.512 16.423,1.219 C16.13,0.926 15.655,0.926 15.362,1.219 L8.821,7.76 L2.28,1.22 C1.987,0.927 1.512,0.927 1.219,1.22 C0.926,1.513 0.926,1.988 1.219,2.281 L7.76,8.822 L1.22,15.362 C0.927,15.655 0.927,16.13 1.22,16.423 C1.367,16.569 1.558,16.643 1.75,16.643 C1.942,16.643 2.134,16.57 2.28,16.423 L8.821,9.882 L15.362,16.423 C15.509,16.569 15.7,16.643 15.892,16.643 C16.084,16.643 16.276,16.57 16.422,16.423 C16.715,16.13 16.715,15.655 16.422,15.362 L9.882,8.821 Z" id="Shape"></path>
        </g>
    </g>
</svg>