<?xml version="1.0" encoding="UTF-8"?>
<svg width="50px" height="50px" viewBox="0 0 50 50" version="1.1" xmlns="http://www.w3.org/2000/svg" xmlns:xlink="http://www.w3.org/1999/xlink">
    <!-- Generator: Sketch 49.2 (51160) - http://www.bohemiancoding.com/sketch -->
    <title>ico-mobile</title>
    <desc>Created with Sketch.</desc>
    <defs></defs>
    <g id="Page-1" stroke="none" stroke-width="1" fill="none" fill-rule="evenodd">
        <g id="ico-mobile">
            <g id="Group">
                <g id="a82ca-link">
                    <path d="M8.79,14.65 L17.58,14.65 L17.58,20.51 L8.78,20.51 L8.79,14.65 Z M19.04,23.44 C19.85,23.44 20.51,22.78 20.51,21.97 L20.51,13.18 C20.51,12.38 19.85,11.72 19.04,11.72 L7.32,11.72 C6.52,11.72 5.86,12.37 5.86,13.18 L5.86,21.98 C5.86,22.78 6.52,23.44 7.32,23.44 L19.04,23.44 Z M42.68,26.37 C43.4422895,26.3069665 44.0288596,25.6698912 44.0288596,24.905 C44.0288596,24.1401088 43.4422895,23.5030335 42.68,23.44 L30.96,23.44 C30.1509028,23.44 29.495,24.0959028 29.495,24.905 C29.495,25.7140972 30.1509028,26.37 30.96,26.37 L42.68,26.37 Z M13.18,29.3 C13.9890972,29.3 14.645,28.6440972 14.645,27.835 C14.645,27.0259028 13.9890972,26.37 13.18,26.37 L7.32,26.37 C6.51090284,26.37 5.855,27.0259028 5.855,27.835 C5.855,28.6440972 6.51090284,29.3 7.32,29.3 L13.18,29.3 Z M36.82,32.23 C37.5822895,32.1669665 38.1688596,31.5298912 38.1688596,30.765 C38.1688596,30.0001088 37.5822895,29.3630335 36.82,29.3 L30.96,29.3 C30.1509028,29.3 29.495,29.9559028 29.495,30.765 C29.495,31.5740972 30.1509028,32.23 30.96,32.23 L36.82,32.23 Z M4.39,2.93 L33.89,2.93 C34.69,2.93 35.35,3.59 35.35,4.39 L35.35,5.86 L2.93,5.86 L2.93,4.39 C2.93,3.59 3.59,2.93 4.39,2.93 Z M28.03,14.65 L45.61,14.65 C46.41,14.65 47.07,15.31 47.07,16.11 L47.07,17.58 L26.57,17.58 L26.57,16.11 C26.57,15.31 27.22,14.65 28.03,14.65 Z M2.93,8.79 L35.35,8.79 L35.35,11.72 L28.03,11.72 C25.5999471,11.72 23.63,13.6899471 23.63,16.12 L23.63,38.28 L2.93,38.28 L2.93,8.79 Z M26.56,20.51 L47.07,20.51 L47.07,41.21 L26.57,41.21 L26.56,20.51 Z M2.93,41.21 L23.63,41.21 L23.63,45.61 C23.63,46.11 23.73,46.61 23.88,47.07 L4.4,47.07 C3.6,47.07 2.94,46.41 2.94,45.61 L2.93,41.21 Z M26.56,44.14 L47.07,44.14 L47.07,45.61 C47.07,46.41 46.41,47.07 45.61,47.07 L28.03,47.07 C27.22,47.07 26.56,46.41 26.56,45.61 L26.56,44.14 Z M45.61,50 C48.0361467,49.994486 50.0000063,48.026153 50,45.6 L50,16.11 C50,13.6799471 48.0300529,11.71 45.6,11.71 L38.28,11.71 L38.28,4.39 C38.274486,1.96385326 36.306153,-6.26589849e-06 33.88,6.82121026e-13 L4.4,6.82121026e-13 C1.97385326,0.0055139841 0.0099937341,1.97384699 0.01,4.4 L0.01,45.6 C0.01,46.7669526 0.473570098,47.8861098 1.29873016,48.7112698 C2.12389023,49.5364299 3.24304744,50 4.41,50 L45.61,50 Z" id="a82ca"></path>
                </g>
                <g id="a82ca-link" fill="#FF4B2D" fill-opacity="0.4" fill-rule="nonzero">
                    <path d="M8.79,14.65 L17.58,14.65 L17.58,20.51 L8.78,20.51 L8.79,14.65 Z M19.04,23.44 C19.85,23.44 20.51,22.78 20.51,21.97 L20.51,13.18 C20.51,12.38 19.85,11.72 19.04,11.72 L7.32,11.72 C6.52,11.72 5.86,12.37 5.86,13.18 L5.86,21.98 C5.86,22.78 6.52,23.44 7.32,23.44 L19.04,23.44 Z M42.68,26.37 C43.4422895,26.3069665 44.0288596,25.6698912 44.0288596,24.905 C44.0288596,24.1401088 43.4422895,23.5030335 42.68,23.44 L30.96,23.44 C30.1509028,23.44 29.495,24.0959028 29.495,24.905 C29.495,25.7140972 30.1509028,26.37 30.96,26.37 L42.68,26.37 Z M13.18,29.3 C13.9890972,29.3 14.645,28.6440972 14.645,27.835 C14.645,27.0259028 13.9890972,26.37 13.18,26.37 L7.32,26.37 C6.51090284,26.37 5.855,27.0259028 5.855,27.835 C5.855,28.6440972 6.51090284,29.3 7.32,29.3 L13.18,29.3 Z M36.82,32.23 C37.5822895,32.1669665 38.1688596,31.5298912 38.1688596,30.765 C38.1688596,30.0001088 37.5822895,29.3630335 36.82,29.3 L30.96,29.3 C30.1509028,29.3 29.495,29.9559028 29.495,30.765 C29.495,31.5740972 30.1509028,32.23 30.96,32.23 L36.82,32.23 Z M4.39,2.93 L33.89,2.93 C34.69,2.93 35.35,3.59 35.35,4.39 L35.35,5.86 L2.93,5.86 L2.93,4.39 C2.93,3.59 3.59,2.93 4.39,2.93 Z M28.03,14.65 L45.61,14.65 C46.41,14.65 47.07,15.31 47.07,16.11 L47.07,17.58 L26.57,17.58 L26.57,16.11 C26.57,15.31 27.22,14.65 28.03,14.65 Z M2.93,8.79 L35.35,8.79 L35.35,11.72 L28.03,11.72 C25.5999471,11.72 23.63,13.6899471 23.63,16.12 L23.63,38.28 L2.93,38.28 L2.93,8.79 Z M26.56,20.51 L47.07,20.51 L47.07,41.21 L26.57,41.21 L26.56,20.51 Z M2.93,41.21 L23.63,41.21 L23.63,45.61 C23.63,46.11 23.73,46.61 23.88,47.07 L4.4,47.07 C3.6,47.07 2.94,46.41 2.94,45.61 L2.93,41.21 Z M26.56,44.14 L47.07,44.14 L47.07,45.61 C47.07,46.41 46.41,47.07 45.61,47.07 L28.03,47.07 C27.22,47.07 26.56,46.41 26.56,45.61 L26.56,44.14 Z M45.61,50 C48.0361467,49.994486 50.0000063,48.026153 50,45.6 L50,16.11 C50,13.6799471 48.0300529,11.71 45.6,11.71 L38.28,11.71 L38.28,4.39 C38.274486,1.96385326 36.306153,-6.26589849e-06 33.88,6.82121026e-13 L4.4,6.82121026e-13 C1.97385326,0.0055139841 0.0099937341,1.97384699 0.01,4.4 L0.01,45.6 C0.01,46.7669526 0.473570098,47.8861098 1.29873016,48.7112698 C2.12389023,49.5364299 3.24304744,50 4.41,50 L45.61,50 Z" id="a82ca"></path>
                </g>
            </g>
            <g id="a82ca-link" fill="#FF4B2D" fill-rule="nonzero">
                <path d="M8.79,14.65 L17.58,14.65 L17.58,20.51 L8.78,20.51 L8.79,14.65 Z M19.04,23.44 C19.85,23.44 20.51,22.78 20.51,21.97 L20.51,13.18 C20.51,12.38 19.85,11.72 19.04,11.72 L7.32,11.72 C6.52,11.72 5.86,12.37 5.86,13.18 L5.86,21.98 C5.86,22.78 6.52,23.44 7.32,23.44 L19.04,23.44 Z M42.68,26.37 C43.4422895,26.3069665 44.0288596,25.6698912 44.0288596,24.905 C44.0288596,24.1401088 43.4422895,23.5030335 42.68,23.44 L30.96,23.44 C30.1509028,23.44 29.495,24.0959028 29.495,24.905 C29.495,25.7140972 30.1509028,26.37 30.96,26.37 L42.68,26.37 Z M13.18,29.3 C13.9890972,29.3 14.645,28.6440972 14.645,27.835 C14.645,27.0259028 13.9890972,26.37 13.18,26.37 L7.32,26.37 C6.51090284,26.37 5.855,27.0259028 5.855,27.835 C5.855,28.6440972 6.51090284,29.3 7.32,29.3 L13.18,29.3 Z M36.82,32.23 C37.5822895,32.1669665 38.1688596,31.5298912 38.1688596,30.765 C38.1688596,30.0001088 37.5822895,29.3630335 36.82,29.3 L30.96,29.3 C30.1509028,29.3 29.495,29.9559028 29.495,30.765 C29.495,31.5740972 30.1509028,32.23 30.96,32.23 L36.82,32.23 Z M4.39,2.93 L33.89,2.93 C34.69,2.93 35.35,3.59 35.35,4.39 L35.35,5.86 L2.93,5.86 L2.93,4.39 C2.93,3.59 3.59,2.93 4.39,2.93 Z M28.03,14.65 L45.61,14.65 C46.41,14.65 47.07,15.31 47.07,16.11 L47.07,17.58 L26.57,17.58 L26.57,16.11 C26.57,15.31 27.22,14.65 28.03,14.65 Z M2.93,8.79 L35.35,8.79 L35.35,11.72 L28.03,11.72 C25.5999471,11.72 23.63,13.6899471 23.63,16.12 L23.63,38.28 L2.93,38.28 L2.93,8.79 Z M26.56,20.51 L47.07,20.51 L47.07,41.21 L26.57,41.21 L26.56,20.51 Z M2.93,41.21 L23.63,41.21 L23.63,45.61 C23.63,46.11 23.73,46.61 23.88,47.07 L4.4,47.07 C3.6,47.07 2.94,46.41 2.94,45.61 L2.93,41.21 Z M26.56,44.14 L47.07,44.14 L47.07,45.61 C47.07,46.41 46.41,47.07 45.61,47.07 L28.03,47.07 C27.22,47.07 26.56,46.41 26.56,45.61 L26.56,44.14 Z M45.61,50 C48.0361467,49.994486 50.0000063,48.026153 50,45.6 L50,16.11 C50,13.6799471 48.0300529,11.71 45.6,11.71 L38.28,11.71 L38.28,4.39 C38.274486,1.96385326 36.306153,-6.26589849e-06 33.88,6.82121026e-13 L4.4,6.82121026e-13 C1.97385326,0.0055139841 0.0099937341,1.97384699 0.01,4.4 L0.01,45.6 C0.01,46.7669526 0.473570098,47.8861098 1.29873016,48.7112698 C2.12389023,49.5364299 3.24304744,50 4.41,50 L45.61,50 Z" id="a82ca"></path>
            </g>
        </g>
    </g>
</svg>