<svg xmlns="https://www.w3.org/2000/svg" xmlns:xlink="https://www.w3.org/1999/xlink" width="60" height="60" viewBox="0 0 60 60"><defs><path id="a82ca" d="M948.79 1646.65h8.79v5.86h-8.8zm10.25 8.79c.81 0 1.47-.66 1.47-1.47v-8.79c0-.8-.66-1.46-1.47-1.46h-11.72c-.8 0-1.46.65-1.46 1.46v8.8c0 .8.66 1.46 1.46 1.46zm23.64 2.93a1.47 1.47 0 0 0 0-2.93h-11.72a1.46 1.46 0 0 0 0 2.93zm-29.5 2.93a1.46 1.46 0 0 0 0-2.93h-5.86a1.46 1.46 0 0 0 0 2.93zm23.64 2.93a1.47 1.47 0 0 0 0-2.93h-5.86a1.46 1.46 0 0 0 0 2.93zm-32.43-29.3h29.5c.8 0 1.46.66 1.46 1.46v1.47h-32.42v-1.47c0-.8.66-1.46 1.46-1.46zm23.64 11.72h17.58c.8 0 1.46.66 1.46 1.46v1.47h-20.5v-1.47c0-.8.65-1.46 1.46-1.46zm-25.1-5.86h32.42v2.93h-7.32a4.4 4.4 0 0 0-4.4 4.4v22.16h-20.7zm23.63 11.72h20.51v20.7h-20.5zm-23.63 20.7h20.7v4.4c0 .5.1 1 .25 1.46H944.4c-.8 0-1.46-.66-1.46-1.46zm23.63 2.93h20.51v1.47c0 .8-.66 1.46-1.46 1.46h-17.58c-.81 0-1.47-.66-1.47-1.46zm19.05 5.86a4.4 4.4 0 0 0 4.39-4.4v-29.49a4.4 4.4 0 0 0-4.4-4.4h-7.32v-7.32a4.4 4.4 0 0 0-4.4-4.39H944.4a4.4 4.4 0 0 0-4.39 4.4v41.2a4.4 4.4 0 0 0 4.4 4.4h41.2z"/><mask id="a82cc" width="2" height="2" x="-1" y="-1"><path fill="#fff" d="M940 1632h50v50h-50z"/><use xlink:href="#a82ca"/></mask><filter id="a82cb" width="82" height="85" x="924" y="1622" filterUnits="userSpaceOnUse"><feOffset dy="3" in="SourceGraphic" result="FeOffset1406Out"/><feGaussianBlur in="FeOffset1406Out" result="FeGaussianBlur1407Out" stdDeviation="2.4 2.4"/></filter></defs><g><g transform="translate(-935 -1630)"><g filter="url(#a82cb)"><use fill="none" stroke-opacity=".4" stroke-width="0" mask="url(&quot;#a82cc&quot;)" xlink:href="#a82ca"/><use fill="#ff4b2d" fill-opacity=".4" xlink:href="#a82ca"/></g><use fill="#ff4b2d" xlink:href="#a82ca"/></g></g></svg>