<?xml version="1.0" encoding="UTF-8"?>
<svg width="51px" height="50px" viewBox="0 0 51 50" version="1.1" xmlns="http://www.w3.org/2000/svg" xmlns:xlink="http://www.w3.org/1999/xlink">
    <!-- Generator: Sketch 49.2 (51160) - http://www.bohemiancoding.com/sketch -->
    <title>ico-paper</title>
    <desc>Created with Sketch.</desc>
    <defs></defs>
    <g id="Page-1" stroke="none" stroke-width="1" fill="none" fill-rule="evenodd">
        <g id="ico-paper">
            <g id="Group">
                <g id="5p6ma-link">
                    <path d="M27.83,17.58 C28.5922895,17.5169665 29.1788596,16.8798912 29.1788596,16.115 C29.1788596,15.3501088 28.5922895,14.7130335 27.83,14.65 L7.33,14.65 C6.52090284,14.65 5.865,15.3059028 5.865,16.115 C5.865,16.9240972 6.52090284,17.58 7.33,17.58 L27.83,17.58 Z M21.97,23.44 C22.7790972,23.44 23.435,22.7840972 23.435,21.975 C23.435,21.1659028 22.7790972,20.51 21.97,20.51 L7.32,20.51 C6.55771047,20.5730335 5.97114041,21.2101088 5.97114041,21.975 C5.97114041,22.7398912 6.55771047,23.3769665 7.32,23.44 L21.97,23.44 Z M21.97,29.3 C22.7322895,29.2369665 23.3188596,28.5998912 23.3188596,27.835 C23.3188596,27.0701088 22.7322895,26.4330335 21.97,26.37 L7.32,26.37 C6.51090284,26.37 5.855,27.0259028 5.855,27.835 C5.855,28.6440972 6.51090284,29.3 7.32,29.3 L21.97,29.3 Z M21.97,35.16 C22.7790972,35.16 23.435,34.5040972 23.435,33.695 C23.435,32.8859028 22.7790972,32.23 21.97,32.23 L7.32,32.23 C6.55771047,32.2930335 5.97114041,32.9301088 5.97114041,33.695 C5.97114041,34.4598912 6.55771047,35.0969665 7.32,35.16 L21.97,35.16 Z M27.83,44.14 C28.5922895,44.0769665 29.1788596,43.4398912 29.1788596,42.675 C29.1788596,41.9101088 28.5922895,41.2730335 27.83,41.21 L19.04,41.21 C18.2309028,41.21 17.575,41.8659028 17.575,42.675 C17.575,43.4840972 18.2309028,44.14 19.04,44.14 L27.83,44.14 Z M29.46,2.93 C29.75,2.93 30.19,2.96 30.58,3.36 L34.73,7.5 C35.19,7.97 35.16,8.48 35.16,8.79 L29.3,8.79 L29.3,2.93 L29.46,2.93 Z M45.6,17.38 C46.1934517,17.3778397 46.7291644,17.7351141 46.9552329,18.283824 C47.1813014,18.832534 47.0527394,19.4634896 46.63,19.88 L45.13,21.39 L43.05,19.32 L44.56,17.81 C44.86,17.52 45.23,17.38 45.6,17.38 Z M40.98,21.39 L43.06,23.46 L36.01,30.51 L33.94,28.44 L40.98,21.39 Z M31.88,30.51 L33.94,32.58 L33.15,33.38 L30.05,34.41 L31.08,31.31 L31.88,30.51 Z M4.39,2.93 L26.37,2.93 L26.37,10.25 C26.37,11.06 27.02,11.72 27.83,11.72 L35.16,11.72 L35.16,23.08 L30.83,27.4 L28.76,29.47 C28.6,29.64 28.48,29.83 28.41,30.05 L26.34,36.26 C26.1574491,36.7870236 26.2911076,37.3720043 26.684428,37.7674507 C27.0777483,38.1628971 27.662,38.2997072 28.19,38.12 L34.41,36.04 C34.62,35.97 34.81,35.85 34.98,35.69 L35.16,35.51 L35.16,45.61 C35.16,46.41 34.5,47.07 33.69,47.07 L4.39,47.07 C3.59,47.07 2.93,46.41 2.93,45.61 L2.93,4.39 C2.93,3.59 3.59,2.93 4.39,2.93 Z M33.69,50 C36.1200529,50 38.09,48.0300529 38.09,45.6 L38.09,32.58 L48.71,21.95 C49.9123344,20.8588081 50.4160096,19.1941466 50.0202954,17.6194346 C49.6245812,16.0447225 48.3937983,14.8159183 46.8184515,14.4227383 C45.2431048,14.0295584 43.5792559,14.5359114 42.49,15.74 L38.09,20.14 L38.09,8.54 C38.09,7.36 37.63,6.26 36.79,5.43 L32.66,1.29 C31.837243,0.461872838 30.7173546,-0.00264677528 29.55,-3.57713881e-13 L4.39,-3.57713881e-13 C1.96385326,0.0055139841 -6.26589903e-06,1.97384699 2.84217094e-14,4.4 L2.84217094e-14,45.6 C5.68434189e-14,48.0300529 1.9699471,50 4.4,50 L33.69,50 Z" id="5p6ma"></path>
                </g>
                <g id="5p6ma-link" fill="#FF4B2D" fill-opacity="0.4" fill-rule="nonzero">
                    <path d="M27.83,17.58 C28.5922895,17.5169665 29.1788596,16.8798912 29.1788596,16.115 C29.1788596,15.3501088 28.5922895,14.7130335 27.83,14.65 L7.33,14.65 C6.52090284,14.65 5.865,15.3059028 5.865,16.115 C5.865,16.9240972 6.52090284,17.58 7.33,17.58 L27.83,17.58 Z M21.97,23.44 C22.7790972,23.44 23.435,22.7840972 23.435,21.975 C23.435,21.1659028 22.7790972,20.51 21.97,20.51 L7.32,20.51 C6.55771047,20.5730335 5.97114041,21.2101088 5.97114041,21.975 C5.97114041,22.7398912 6.55771047,23.3769665 7.32,23.44 L21.97,23.44 Z M21.97,29.3 C22.7322895,29.2369665 23.3188596,28.5998912 23.3188596,27.835 C23.3188596,27.0701088 22.7322895,26.4330335 21.97,26.37 L7.32,26.37 C6.51090284,26.37 5.855,27.0259028 5.855,27.835 C5.855,28.6440972 6.51090284,29.3 7.32,29.3 L21.97,29.3 Z M21.97,35.16 C22.7790972,35.16 23.435,34.5040972 23.435,33.695 C23.435,32.8859028 22.7790972,32.23 21.97,32.23 L7.32,32.23 C6.55771047,32.2930335 5.97114041,32.9301088 5.97114041,33.695 C5.97114041,34.4598912 6.55771047,35.0969665 7.32,35.16 L21.97,35.16 Z M27.83,44.14 C28.5922895,44.0769665 29.1788596,43.4398912 29.1788596,42.675 C29.1788596,41.9101088 28.5922895,41.2730335 27.83,41.21 L19.04,41.21 C18.2309028,41.21 17.575,41.8659028 17.575,42.675 C17.575,43.4840972 18.2309028,44.14 19.04,44.14 L27.83,44.14 Z M29.46,2.93 C29.75,2.93 30.19,2.96 30.58,3.36 L34.73,7.5 C35.19,7.97 35.16,8.48 35.16,8.79 L29.3,8.79 L29.3,2.93 L29.46,2.93 Z M45.6,17.38 C46.1934517,17.3778397 46.7291644,17.7351141 46.9552329,18.283824 C47.1813014,18.832534 47.0527394,19.4634896 46.63,19.88 L45.13,21.39 L43.05,19.32 L44.56,17.81 C44.86,17.52 45.23,17.38 45.6,17.38 Z M40.98,21.39 L43.06,23.46 L36.01,30.51 L33.94,28.44 L40.98,21.39 Z M31.88,30.51 L33.94,32.58 L33.15,33.38 L30.05,34.41 L31.08,31.31 L31.88,30.51 Z M4.39,2.93 L26.37,2.93 L26.37,10.25 C26.37,11.06 27.02,11.72 27.83,11.72 L35.16,11.72 L35.16,23.08 L30.83,27.4 L28.76,29.47 C28.6,29.64 28.48,29.83 28.41,30.05 L26.34,36.26 C26.1574491,36.7870236 26.2911076,37.3720043 26.684428,37.7674507 C27.0777483,38.1628971 27.662,38.2997072 28.19,38.12 L34.41,36.04 C34.62,35.97 34.81,35.85 34.98,35.69 L35.16,35.51 L35.16,45.61 C35.16,46.41 34.5,47.07 33.69,47.07 L4.39,47.07 C3.59,47.07 2.93,46.41 2.93,45.61 L2.93,4.39 C2.93,3.59 3.59,2.93 4.39,2.93 Z M33.69,50 C36.1200529,50 38.09,48.0300529 38.09,45.6 L38.09,32.58 L48.71,21.95 C49.9123344,20.8588081 50.4160096,19.1941466 50.0202954,17.6194346 C49.6245812,16.0447225 48.3937983,14.8159183 46.8184515,14.4227383 C45.2431048,14.0295584 43.5792559,14.5359114 42.49,15.74 L38.09,20.14 L38.09,8.54 C38.09,7.36 37.63,6.26 36.79,5.43 L32.66,1.29 C31.837243,0.461872838 30.7173546,-0.00264677528 29.55,-3.57713881e-13 L4.39,-3.57713881e-13 C1.96385326,0.0055139841 -6.26589903e-06,1.97384699 2.84217094e-14,4.4 L2.84217094e-14,45.6 C5.68434189e-14,48.0300529 1.9699471,50 4.4,50 L33.69,50 Z" id="5p6ma"></path>
                </g>
            </g>
            <g id="5p6ma-link" fill="#FF4B2D" fill-rule="nonzero">
                <path d="M27.83,17.58 C28.5922895,17.5169665 29.1788596,16.8798912 29.1788596,16.115 C29.1788596,15.3501088 28.5922895,14.7130335 27.83,14.65 L7.33,14.65 C6.52090284,14.65 5.865,15.3059028 5.865,16.115 C5.865,16.9240972 6.52090284,17.58 7.33,17.58 L27.83,17.58 Z M21.97,23.44 C22.7790972,23.44 23.435,22.7840972 23.435,21.975 C23.435,21.1659028 22.7790972,20.51 21.97,20.51 L7.32,20.51 C6.55771047,20.5730335 5.97114041,21.2101088 5.97114041,21.975 C5.97114041,22.7398912 6.55771047,23.3769665 7.32,23.44 L21.97,23.44 Z M21.97,29.3 C22.7322895,29.2369665 23.3188596,28.5998912 23.3188596,27.835 C23.3188596,27.0701088 22.7322895,26.4330335 21.97,26.37 L7.32,26.37 C6.51090284,26.37 5.855,27.0259028 5.855,27.835 C5.855,28.6440972 6.51090284,29.3 7.32,29.3 L21.97,29.3 Z M21.97,35.16 C22.7790972,35.16 23.435,34.5040972 23.435,33.695 C23.435,32.8859028 22.7790972,32.23 21.97,32.23 L7.32,32.23 C6.55771047,32.2930335 5.97114041,32.9301088 5.97114041,33.695 C5.97114041,34.4598912 6.55771047,35.0969665 7.32,35.16 L21.97,35.16 Z M27.83,44.14 C28.5922895,44.0769665 29.1788596,43.4398912 29.1788596,42.675 C29.1788596,41.9101088 28.5922895,41.2730335 27.83,41.21 L19.04,41.21 C18.2309028,41.21 17.575,41.8659028 17.575,42.675 C17.575,43.4840972 18.2309028,44.14 19.04,44.14 L27.83,44.14 Z M29.46,2.93 C29.75,2.93 30.19,2.96 30.58,3.36 L34.73,7.5 C35.19,7.97 35.16,8.48 35.16,8.79 L29.3,8.79 L29.3,2.93 L29.46,2.93 Z M45.6,17.38 C46.1934517,17.3778397 46.7291644,17.7351141 46.9552329,18.283824 C47.1813014,18.832534 47.0527394,19.4634896 46.63,19.88 L45.13,21.39 L43.05,19.32 L44.56,17.81 C44.86,17.52 45.23,17.38 45.6,17.38 Z M40.98,21.39 L43.06,23.46 L36.01,30.51 L33.94,28.44 L40.98,21.39 Z M31.88,30.51 L33.94,32.58 L33.15,33.38 L30.05,34.41 L31.08,31.31 L31.88,30.51 Z M4.39,2.93 L26.37,2.93 L26.37,10.25 C26.37,11.06 27.02,11.72 27.83,11.72 L35.16,11.72 L35.16,23.08 L30.83,27.4 L28.76,29.47 C28.6,29.64 28.48,29.83 28.41,30.05 L26.34,36.26 C26.1574491,36.7870236 26.2911076,37.3720043 26.684428,37.7674507 C27.0777483,38.1628971 27.662,38.2997072 28.19,38.12 L34.41,36.04 C34.62,35.97 34.81,35.85 34.98,35.69 L35.16,35.51 L35.16,45.61 C35.16,46.41 34.5,47.07 33.69,47.07 L4.39,47.07 C3.59,47.07 2.93,46.41 2.93,45.61 L2.93,4.39 C2.93,3.59 3.59,2.93 4.39,2.93 Z M33.69,50 C36.1200529,50 38.09,48.0300529 38.09,45.6 L38.09,32.58 L48.71,21.95 C49.9123344,20.8588081 50.4160096,19.1941466 50.0202954,17.6194346 C49.6245812,16.0447225 48.3937983,14.8159183 46.8184515,14.4227383 C45.2431048,14.0295584 43.5792559,14.5359114 42.49,15.74 L38.09,20.14 L38.09,8.54 C38.09,7.36 37.63,6.26 36.79,5.43 L32.66,1.29 C31.837243,0.461872838 30.7173546,-0.00264677528 29.55,-3.57713881e-13 L4.39,-3.57713881e-13 C1.96385326,0.0055139841 -6.26589903e-06,1.97384699 2.84217094e-14,4.4 L2.84217094e-14,45.6 C5.68434189e-14,48.0300529 1.9699471,50 4.4,50 L33.69,50 Z" id="5p6ma"></path>
            </g>
        </g>
    </g>
</svg>