<?xml version="1.0" encoding="UTF-8"?>
<svg width="50px" height="50px" viewBox="0 0 50 50" version="1.1" xmlns="http://www.w3.org/2000/svg" xmlns:xlink="http://www.w3.org/1999/xlink">
    <!-- Generator: Sketch 49.2 (51160) - http://www.bohemiancoding.com/sketch -->
    <title>ico-contact</title>
    <desc>Created with Sketch.</desc>
    <defs></defs>
    <g id="Page-1" stroke="none" stroke-width="1" fill="none" fill-rule="evenodd">
        <g id="ico-contact">
            <g id="Group">
                <g id="memta-link">
                    <path d="M30.96,11.72 C31.76,11.72 32.42,12.38 32.42,13.18 L32.42,16.11 C32.42,16.92 31.77,17.58 30.96,17.58 C28.5299471,17.58 26.56,19.5499471 26.56,21.98 L26.56,28.03 C26.56,30.4600529 28.5299471,32.43 30.96,32.43 C31.76,32.43 32.42,33.08 32.42,33.89 L32.42,36.82 C32.42,37.62 31.77,38.28 30.96,38.28 C26.9156548,38.2800038 23.6355175,35.0043414 23.63,30.96 L23.63,19.04 C23.6355175,14.9956586 26.9156548,11.7199962 30.96,11.72 Z M30.96,41.22 C33.3900529,41.22 35.36,39.2500529 35.36,36.82 L35.36,33.89 C35.36,31.4599471 33.3900529,29.49 30.96,29.49 C30.15,29.49 29.49,28.84 29.49,28.03 L29.49,21.97 C29.49,21.17 30.15,20.51 30.96,20.51 C33.3900529,20.51 35.36,18.5400529 35.36,16.11 L35.36,13.18 C35.36,10.7499471 33.3900529,8.78 30.96,8.78 C25.3,8.78 20.7,13.38 20.7,19.04 L20.7,30.96 C20.7,36.61 25.3,41.21 30.96,41.21 L30.96,41.22 Z M4.39,8.79 L10.25,8.79 C11.0122895,8.85303349 11.5988596,9.4901088 11.5988596,10.255 C11.5988596,11.0198912 11.0122895,11.6569665 10.25,11.72 L4.39,11.72 C3.62771047,11.6569665 3.04114041,11.0198912 3.04114041,10.255 C3.04114041,9.4901088 3.62771047,8.85303349 4.39,8.79 Z M44.14,8.79 L45.61,8.79 C46.41,8.79 47.07,9.45 47.07,10.25 L47.07,14.65 L44.14,14.65 L44.14,8.79 Z M44.14,17.58 L47.07,17.58 L47.07,23.63 L44.14,23.63 L44.14,17.58 Z M4.39,23.63 L10.25,23.63 C11.0122895,23.6930335 11.5988596,24.3301088 11.5988596,25.095 C11.5988596,25.8598912 11.0122895,26.4969665 10.25,26.56 L4.39,26.56 C3.62771047,26.4969665 3.04114041,25.8598912 3.04114041,25.095 C3.04114041,24.3301088 3.62771047,23.6930335 4.39,23.63 Z M44.14,26.56 L47.07,26.56 L47.07,32.42 L44.14,32.42 L44.14,26.56 Z M4.39,38.28 L10.25,38.28 C11.0122895,38.3430335 11.5988596,38.9801088 11.5988596,39.745 C11.5988596,40.5098912 11.0122895,41.1469665 10.25,41.21 L4.39,41.21 C3.62771047,41.1469665 3.04114041,40.5098912 3.04114041,39.745 C3.04114041,38.9801088 3.62771047,38.3430335 4.39,38.28 Z M44.14,35.35 L47.07,35.35 L47.07,39.75 C47.07,40.55 46.41,41.21 45.61,41.21 L44.14,41.21 L44.14,35.35 Z M7.32,44.15 L10.25,44.15 C12.6800525,44.1499994 14.649999,42.1800525 14.649999,39.75 C14.649999,37.3199475 12.6800525,35.3500006 10.25,35.35 L7.32,35.35 L7.32,29.49 L10.25,29.49 C12.5958579,29.3780702 14.4402978,27.4435267 14.4402978,25.095 C14.4402978,22.7464733 12.5958579,20.8119298 10.25,20.7 L7.32,20.7 L7.32,14.65 L10.25,14.65 C12.6800529,14.65 14.65,12.6800529 14.65,10.25 C14.65,7.8199471 12.6800529,5.85 10.25,5.85 L7.32,5.85 L7.32,4.39 C7.32,3.59 7.98,2.93 8.79,2.93 L39.75,2.93 C40.55,2.93 41.21,3.59 41.21,4.39 L41.21,45.61 C41.21,46.41 40.55,47.07 39.75,47.07 L8.79,47.07 C7.99,47.07 7.32,46.41 7.32,45.61 L7.32,44.15 Z M39.75,50 C42.1800529,50 44.15,48.0300529 44.15,45.6 L44.15,44.14 L45.61,44.14 C48.0361467,44.134486 50.0000063,42.166153 50,39.74 L50,10.25 C50,9.08304744 49.5364299,7.96389023 48.7112698,7.13873016 C47.8861098,6.3135701 46.7669526,5.85 45.6,5.85 L44.14,5.85 L44.14,4.39 C44.134486,1.96385326 42.166153,-6.26589963e-06 39.74,-4.54747351e-13 L8.8,-4.54747351e-13 C6.3699471,-2.27373675e-13 4.4,1.9699471 4.4,4.4 L4.4,5.86 C2.05414206,5.97192981 0.20970217,7.90647328 0.20970217,10.255 C0.20970217,12.6035267 2.05414206,14.5380702 4.4,14.65 L4.4,20.7 C1.9699471,20.7 0,22.6699471 0,25.1 C0,27.5300529 1.9699471,29.5 4.4,29.5 L4.4,35.35 C1.96994751,35.3500006 1.04904177e-06,37.3199475 1.04904177e-06,39.75 C1.04904177e-06,42.1800525 1.96994751,44.1499994 4.4,44.15 L4.4,45.61 C4.40551398,48.0361467 6.37384699,50.0000063 8.8,50 L39.75,50 Z" id="memta"></path>
                </g>
                <g id="memta-link" fill="#FF4B2D" fill-opacity="0.4" fill-rule="nonzero">
                    <path d="M30.96,11.72 C31.76,11.72 32.42,12.38 32.42,13.18 L32.42,16.11 C32.42,16.92 31.77,17.58 30.96,17.58 C28.5299471,17.58 26.56,19.5499471 26.56,21.98 L26.56,28.03 C26.56,30.4600529 28.5299471,32.43 30.96,32.43 C31.76,32.43 32.42,33.08 32.42,33.89 L32.42,36.82 C32.42,37.62 31.77,38.28 30.96,38.28 C26.9156548,38.2800038 23.6355175,35.0043414 23.63,30.96 L23.63,19.04 C23.6355175,14.9956586 26.9156548,11.7199962 30.96,11.72 Z M30.96,41.22 C33.3900529,41.22 35.36,39.2500529 35.36,36.82 L35.36,33.89 C35.36,31.4599471 33.3900529,29.49 30.96,29.49 C30.15,29.49 29.49,28.84 29.49,28.03 L29.49,21.97 C29.49,21.17 30.15,20.51 30.96,20.51 C33.3900529,20.51 35.36,18.5400529 35.36,16.11 L35.36,13.18 C35.36,10.7499471 33.3900529,8.78 30.96,8.78 C25.3,8.78 20.7,13.38 20.7,19.04 L20.7,30.96 C20.7,36.61 25.3,41.21 30.96,41.21 L30.96,41.22 Z M4.39,8.79 L10.25,8.79 C11.0122895,8.85303349 11.5988596,9.4901088 11.5988596,10.255 C11.5988596,11.0198912 11.0122895,11.6569665 10.25,11.72 L4.39,11.72 C3.62771047,11.6569665 3.04114041,11.0198912 3.04114041,10.255 C3.04114041,9.4901088 3.62771047,8.85303349 4.39,8.79 Z M44.14,8.79 L45.61,8.79 C46.41,8.79 47.07,9.45 47.07,10.25 L47.07,14.65 L44.14,14.65 L44.14,8.79 Z M44.14,17.58 L47.07,17.58 L47.07,23.63 L44.14,23.63 L44.14,17.58 Z M4.39,23.63 L10.25,23.63 C11.0122895,23.6930335 11.5988596,24.3301088 11.5988596,25.095 C11.5988596,25.8598912 11.0122895,26.4969665 10.25,26.56 L4.39,26.56 C3.62771047,26.4969665 3.04114041,25.8598912 3.04114041,25.095 C3.04114041,24.3301088 3.62771047,23.6930335 4.39,23.63 Z M44.14,26.56 L47.07,26.56 L47.07,32.42 L44.14,32.42 L44.14,26.56 Z M4.39,38.28 L10.25,38.28 C11.0122895,38.3430335 11.5988596,38.9801088 11.5988596,39.745 C11.5988596,40.5098912 11.0122895,41.1469665 10.25,41.21 L4.39,41.21 C3.62771047,41.1469665 3.04114041,40.5098912 3.04114041,39.745 C3.04114041,38.9801088 3.62771047,38.3430335 4.39,38.28 Z M44.14,35.35 L47.07,35.35 L47.07,39.75 C47.07,40.55 46.41,41.21 45.61,41.21 L44.14,41.21 L44.14,35.35 Z M7.32,44.15 L10.25,44.15 C12.6800525,44.1499994 14.649999,42.1800525 14.649999,39.75 C14.649999,37.3199475 12.6800525,35.3500006 10.25,35.35 L7.32,35.35 L7.32,29.49 L10.25,29.49 C12.5958579,29.3780702 14.4402978,27.4435267 14.4402978,25.095 C14.4402978,22.7464733 12.5958579,20.8119298 10.25,20.7 L7.32,20.7 L7.32,14.65 L10.25,14.65 C12.6800529,14.65 14.65,12.6800529 14.65,10.25 C14.65,7.8199471 12.6800529,5.85 10.25,5.85 L7.32,5.85 L7.32,4.39 C7.32,3.59 7.98,2.93 8.79,2.93 L39.75,2.93 C40.55,2.93 41.21,3.59 41.21,4.39 L41.21,45.61 C41.21,46.41 40.55,47.07 39.75,47.07 L8.79,47.07 C7.99,47.07 7.32,46.41 7.32,45.61 L7.32,44.15 Z M39.75,50 C42.1800529,50 44.15,48.0300529 44.15,45.6 L44.15,44.14 L45.61,44.14 C48.0361467,44.134486 50.0000063,42.166153 50,39.74 L50,10.25 C50,9.08304744 49.5364299,7.96389023 48.7112698,7.13873016 C47.8861098,6.3135701 46.7669526,5.85 45.6,5.85 L44.14,5.85 L44.14,4.39 C44.134486,1.96385326 42.166153,-6.26589963e-06 39.74,-4.54747351e-13 L8.8,-4.54747351e-13 C6.3699471,-2.27373675e-13 4.4,1.9699471 4.4,4.4 L4.4,5.86 C2.05414206,5.97192981 0.20970217,7.90647328 0.20970217,10.255 C0.20970217,12.6035267 2.05414206,14.5380702 4.4,14.65 L4.4,20.7 C1.9699471,20.7 0,22.6699471 0,25.1 C0,27.5300529 1.9699471,29.5 4.4,29.5 L4.4,35.35 C1.96994751,35.3500006 1.04904177e-06,37.3199475 1.04904177e-06,39.75 C1.04904177e-06,42.1800525 1.96994751,44.1499994 4.4,44.15 L4.4,45.61 C4.40551398,48.0361467 6.37384699,50.0000063 8.8,50 L39.75,50 Z" id="memta"></path>
                </g>
            </g>
            <g id="memta-link" fill="#FF4B2D" fill-rule="nonzero">
                <path d="M30.96,11.72 C31.76,11.72 32.42,12.38 32.42,13.18 L32.42,16.11 C32.42,16.92 31.77,17.58 30.96,17.58 C28.5299471,17.58 26.56,19.5499471 26.56,21.98 L26.56,28.03 C26.56,30.4600529 28.5299471,32.43 30.96,32.43 C31.76,32.43 32.42,33.08 32.42,33.89 L32.42,36.82 C32.42,37.62 31.77,38.28 30.96,38.28 C26.9156548,38.2800038 23.6355175,35.0043414 23.63,30.96 L23.63,19.04 C23.6355175,14.9956586 26.9156548,11.7199962 30.96,11.72 Z M30.96,41.22 C33.3900529,41.22 35.36,39.2500529 35.36,36.82 L35.36,33.89 C35.36,31.4599471 33.3900529,29.49 30.96,29.49 C30.15,29.49 29.49,28.84 29.49,28.03 L29.49,21.97 C29.49,21.17 30.15,20.51 30.96,20.51 C33.3900529,20.51 35.36,18.5400529 35.36,16.11 L35.36,13.18 C35.36,10.7499471 33.3900529,8.78 30.96,8.78 C25.3,8.78 20.7,13.38 20.7,19.04 L20.7,30.96 C20.7,36.61 25.3,41.21 30.96,41.21 L30.96,41.22 Z M4.39,8.79 L10.25,8.79 C11.0122895,8.85303349 11.5988596,9.4901088 11.5988596,10.255 C11.5988596,11.0198912 11.0122895,11.6569665 10.25,11.72 L4.39,11.72 C3.62771047,11.6569665 3.04114041,11.0198912 3.04114041,10.255 C3.04114041,9.4901088 3.62771047,8.85303349 4.39,8.79 Z M44.14,8.79 L45.61,8.79 C46.41,8.79 47.07,9.45 47.07,10.25 L47.07,14.65 L44.14,14.65 L44.14,8.79 Z M44.14,17.58 L47.07,17.58 L47.07,23.63 L44.14,23.63 L44.14,17.58 Z M4.39,23.63 L10.25,23.63 C11.0122895,23.6930335 11.5988596,24.3301088 11.5988596,25.095 C11.5988596,25.8598912 11.0122895,26.4969665 10.25,26.56 L4.39,26.56 C3.62771047,26.4969665 3.04114041,25.8598912 3.04114041,25.095 C3.04114041,24.3301088 3.62771047,23.6930335 4.39,23.63 Z M44.14,26.56 L47.07,26.56 L47.07,32.42 L44.14,32.42 L44.14,26.56 Z M4.39,38.28 L10.25,38.28 C11.0122895,38.3430335 11.5988596,38.9801088 11.5988596,39.745 C11.5988596,40.5098912 11.0122895,41.1469665 10.25,41.21 L4.39,41.21 C3.62771047,41.1469665 3.04114041,40.5098912 3.04114041,39.745 C3.04114041,38.9801088 3.62771047,38.3430335 4.39,38.28 Z M44.14,35.35 L47.07,35.35 L47.07,39.75 C47.07,40.55 46.41,41.21 45.61,41.21 L44.14,41.21 L44.14,35.35 Z M7.32,44.15 L10.25,44.15 C12.6800525,44.1499994 14.649999,42.1800525 14.649999,39.75 C14.649999,37.3199475 12.6800525,35.3500006 10.25,35.35 L7.32,35.35 L7.32,29.49 L10.25,29.49 C12.5958579,29.3780702 14.4402978,27.4435267 14.4402978,25.095 C14.4402978,22.7464733 12.5958579,20.8119298 10.25,20.7 L7.32,20.7 L7.32,14.65 L10.25,14.65 C12.6800529,14.65 14.65,12.6800529 14.65,10.25 C14.65,7.8199471 12.6800529,5.85 10.25,5.85 L7.32,5.85 L7.32,4.39 C7.32,3.59 7.98,2.93 8.79,2.93 L39.75,2.93 C40.55,2.93 41.21,3.59 41.21,4.39 L41.21,45.61 C41.21,46.41 40.55,47.07 39.75,47.07 L8.79,47.07 C7.99,47.07 7.32,46.41 7.32,45.61 L7.32,44.15 Z M39.75,50 C42.1800529,50 44.15,48.0300529 44.15,45.6 L44.15,44.14 L45.61,44.14 C48.0361467,44.134486 50.0000063,42.166153 50,39.74 L50,10.25 C50,9.08304744 49.5364299,7.96389023 48.7112698,7.13873016 C47.8861098,6.3135701 46.7669526,5.85 45.6,5.85 L44.14,5.85 L44.14,4.39 C44.134486,1.96385326 42.166153,-6.26589963e-06 39.74,-4.54747351e-13 L8.8,-4.54747351e-13 C6.3699471,-2.27373675e-13 4.4,1.9699471 4.4,4.4 L4.4,5.86 C2.05414206,5.97192981 0.20970217,7.90647328 0.20970217,10.255 C0.20970217,12.6035267 2.05414206,14.5380702 4.4,14.65 L4.4,20.7 C1.9699471,20.7 0,22.6699471 0,25.1 C0,27.5300529 1.9699471,29.5 4.4,29.5 L4.4,35.35 C1.96994751,35.3500006 1.04904177e-06,37.3199475 1.04904177e-06,39.75 C1.04904177e-06,42.1800525 1.96994751,44.1499994 4.4,44.15 L4.4,45.61 C4.40551398,48.0361467 6.37384699,50.0000063 8.8,50 L39.75,50 Z" id="memta"></path>
            </g>
        </g>
    </g>
</svg>