<?xml version="1.0" encoding="UTF-8"?>
<svg width="50px" height="50px" viewBox="0 0 50 50" version="1.1" xmlns="http://www.w3.org/2000/svg" xmlns:xlink="http://www.w3.org/1999/xlink">
    <!-- Generator: Sketch 49.2 (51160) - http://www.bohemiancoding.com/sketch -->
    <title>ico-planet</title>
    <desc>Created with Sketch.</desc>
    <defs></defs>
    <g id="Page-1" stroke="none" stroke-width="1" fill="none" fill-rule="evenodd">
        <g id="ico-planet">
            <g id="Group">
                <g id="ivn3a-link">
                    <path d="M40.96,23.63 C40.4934953,22.3158543 39.4329232,21.2997818 38.1,20.89 C37.97,19.43 37.77,17.99 37.5,16.59 C41,17.79 45.65,20.17 46.82,23.63 L40.96,23.63 Z M38.1,29.3 C39.4348769,28.8818883 40.4946635,27.8591572 40.96,26.54 L46.82,26.54 C45.66,29.97 40.98,32.3 37.52,33.44 C37.78,32.1 37.97,30.72 38.1,29.3 Z M32.42,45.77 C34.48,43.19 35.87,39.89 36.76,36.74 C39.9,35.87 43.21,34.5 45.78,32.49 C43.5210184,38.6818233 38.6252789,43.548247 32.42,45.77 Z M26.37,40.96 C27.6841457,40.4934953 28.7002182,39.4329232 29.11,38.1 C30.59,37.97 32.05,37.77 33.46,37.5 C32.27,41 29.88,45.7 26.36,46.83 L26.37,40.96 Z M24.9,38.28 C24.1,38.28 23.45,37.63 23.44,36.83 L23.44,36.82 L23.44,36.75 C23.5268253,36.0094313 24.1543589,35.4511724 24.9,35.4511724 C25.6456411,35.4511724 26.2731747,36.0094313 26.36,36.75 L26.36,36.83 C26.36,37.63 25.7,38.28 24.9,38.28 Z M23.44,11.74 C21.9,11.79 20.39,11.91 18.91,12.1 C18.6837658,11.2275695 18.1950709,10.4456576 17.51,9.86 C19.11,6.28 21.23,3.91 23.44,3.18 L23.44,11.74 Z M23.44,23.64 L14.67,23.64 C14.74,21.54 14.94,19.44 15.27,17.54 C16.7221612,17.3312323 17.9747418,16.4124232 18.61,15.09 C20.18,14.86 21.8,14.73 23.44,14.67 L23.44,23.64 Z M23.44,32.67 C22.253485,33.0933107 21.3039778,34.0028004 20.83,35.17 C19.0811495,35.0164032 17.3441466,34.749172 15.63,34.37 C15.0661042,31.8058581 14.7446881,29.1943521 14.67,26.57 L23.44,26.57 L23.44,32.67 Z M23.44,46.82 C19.96,45.66 17.65,41 16.5,37.53 C17.86,37.78 19.26,37.97 20.7,38.1 C21.1097818,39.4329232 22.1258543,40.4934953 23.44,40.96 L23.44,46.82 Z M13.21,36.78 C14.21,40.41 15.67,43.5 17.46,45.78 C11.3071491,43.5487657 6.46123428,38.7028509 4.23,32.55 C6.78,34.55 10.05,35.91 13.21,36.78 Z M11.74,26.56 C11.81,28.99 12.06,31.31 12.46,33.49 C7.56,31.88 4.08,29.37 3.16,26.56 L11.74,26.56 Z M11.98,16.67 C12.11,16.77 12.25,16.87 12.39,16.95 C12.03,19.05 11.81,21.35 11.74,23.63 L3.17,23.63 C4.05,20.92 7.29,18.33 11.98,16.67 Z M16.11,13.18 C16.1556687,13.7322897 15.8868564,14.2633267 15.4147276,14.5535059 C14.9425988,14.8436852 14.3474012,14.8436852 13.8752724,14.5535059 C13.4031436,14.2633267 13.1343313,13.7322897 13.18,13.18 C13.2430335,12.4177105 13.8801088,11.8311404 14.645,11.8311404 C15.4098912,11.8311404 16.0469665,12.4177105 16.11,13.18 Z M17.44,4.25 C16.3703734,5.64843298 15.4769866,7.17323608 14.78,8.79 L14.65,8.79 C13.315104,8.79121215 12.0529384,9.39836907 11.218798,10.4405585 C10.3846576,11.4827479 10.0687493,12.8472637 10.36,14.15 C8.16330505,14.948216 6.1050679,16.0853077 4.26,17.52 C6.48237925,11.3700518 11.305318,6.51417951 17.44,4.25 Z M26.37,26.56 L32.67,26.56 C33.0933107,27.746515 34.0028004,28.6960222 35.17,29.17 C35.0119594,30.9063514 34.7380153,32.630195 34.35,34.33 C32.65,34.72 30.85,35 28.98,35.17 C28.5060222,34.0028004 27.556515,33.0933107 26.37,32.67 L26.37,26.56 Z M26.37,14.67 C29.14,14.77 31.82,15.11 34.31,15.69 C34.71,17.37 35,19.16 35.17,21.03 C34.0048694,21.5017489 33.0957124,22.4472722 32.67,23.63 L26.37,23.63 L26.37,14.67 Z M26.37,3.17 C29.17,4.1 31.74,7.62 33.4,12.5 C31.0802708,12.06238 28.72966,11.8082599 26.37,11.74 L26.37,3.17 Z M36.83,23.63 C37.5922895,23.6930335 38.1788596,24.3301088 38.1788596,25.095 C38.1788596,25.8598912 37.5922895,26.4969665 36.83,26.56 L36.74,26.56 C35.9982912,26.4810951 35.4332454,25.8592049 35.4255825,25.1133502 C35.4179196,24.3674955 35.9700689,23.7341272 36.71,23.64 L36.83,23.64 L36.83,23.63 Z M45.78,17.63 C43.21,15.61 39.9,14.19 36.72,13.29 C35.82,10.11 34.41,6.79 32.36,4.22 C38.6101888,6.46915216 43.5308478,11.3898112 45.78,17.64 L45.78,17.63 Z M48.0099981,15.3699994 C44.0670047,6.09605726 34.9872115,0.0546537094 24.909999,-4.54747351e-13 C11.0199996,-4.54747351e-13 1.50108938e-13,11.4499995 1.50108938e-13,25.099999 C-0.00265409058,31.7047026 2.61987882,38.039657 7.29010991,42.7098881 C11.960341,47.3801192 18.2952954,50.0026521 24.899999,49.999998 C38.5599984,49.999998 49.999998,38.9599984 49.999998,25.099999 C49.999998,21.7399991 49.329998,18.4599993 48.0099981,15.3699994 Z" id="ivn3a"></path>
                </g>
                <g id="ivn3a-link" fill="#FF4B2D" fill-opacity="0.4" fill-rule="nonzero">
                    <path d="M40.96,23.63 C40.4934953,22.3158543 39.4329232,21.2997818 38.1,20.89 C37.97,19.43 37.77,17.99 37.5,16.59 C41,17.79 45.65,20.17 46.82,23.63 L40.96,23.63 Z M38.1,29.3 C39.4348769,28.8818883 40.4946635,27.8591572 40.96,26.54 L46.82,26.54 C45.66,29.97 40.98,32.3 37.52,33.44 C37.78,32.1 37.97,30.72 38.1,29.3 Z M32.42,45.77 C34.48,43.19 35.87,39.89 36.76,36.74 C39.9,35.87 43.21,34.5 45.78,32.49 C43.5210184,38.6818233 38.6252789,43.548247 32.42,45.77 Z M26.37,40.96 C27.6841457,40.4934953 28.7002182,39.4329232 29.11,38.1 C30.59,37.97 32.05,37.77 33.46,37.5 C32.27,41 29.88,45.7 26.36,46.83 L26.37,40.96 Z M24.9,38.28 C24.1,38.28 23.45,37.63 23.44,36.83 L23.44,36.82 L23.44,36.75 C23.5268253,36.0094313 24.1543589,35.4511724 24.9,35.4511724 C25.6456411,35.4511724 26.2731747,36.0094313 26.36,36.75 L26.36,36.83 C26.36,37.63 25.7,38.28 24.9,38.28 Z M23.44,11.74 C21.9,11.79 20.39,11.91 18.91,12.1 C18.6837658,11.2275695 18.1950709,10.4456576 17.51,9.86 C19.11,6.28 21.23,3.91 23.44,3.18 L23.44,11.74 Z M23.44,23.64 L14.67,23.64 C14.74,21.54 14.94,19.44 15.27,17.54 C16.7221612,17.3312323 17.9747418,16.4124232 18.61,15.09 C20.18,14.86 21.8,14.73 23.44,14.67 L23.44,23.64 Z M23.44,32.67 C22.253485,33.0933107 21.3039778,34.0028004 20.83,35.17 C19.0811495,35.0164032 17.3441466,34.749172 15.63,34.37 C15.0661042,31.8058581 14.7446881,29.1943521 14.67,26.57 L23.44,26.57 L23.44,32.67 Z M23.44,46.82 C19.96,45.66 17.65,41 16.5,37.53 C17.86,37.78 19.26,37.97 20.7,38.1 C21.1097818,39.4329232 22.1258543,40.4934953 23.44,40.96 L23.44,46.82 Z M13.21,36.78 C14.21,40.41 15.67,43.5 17.46,45.78 C11.3071491,43.5487657 6.46123428,38.7028509 4.23,32.55 C6.78,34.55 10.05,35.91 13.21,36.78 Z M11.74,26.56 C11.81,28.99 12.06,31.31 12.46,33.49 C7.56,31.88 4.08,29.37 3.16,26.56 L11.74,26.56 Z M11.98,16.67 C12.11,16.77 12.25,16.87 12.39,16.95 C12.03,19.05 11.81,21.35 11.74,23.63 L3.17,23.63 C4.05,20.92 7.29,18.33 11.98,16.67 Z M16.11,13.18 C16.1556687,13.7322897 15.8868564,14.2633267 15.4147276,14.5535059 C14.9425988,14.8436852 14.3474012,14.8436852 13.8752724,14.5535059 C13.4031436,14.2633267 13.1343313,13.7322897 13.18,13.18 C13.2430335,12.4177105 13.8801088,11.8311404 14.645,11.8311404 C15.4098912,11.8311404 16.0469665,12.4177105 16.11,13.18 Z M17.44,4.25 C16.3703734,5.64843298 15.4769866,7.17323608 14.78,8.79 L14.65,8.79 C13.315104,8.79121215 12.0529384,9.39836907 11.218798,10.4405585 C10.3846576,11.4827479 10.0687493,12.8472637 10.36,14.15 C8.16330505,14.948216 6.1050679,16.0853077 4.26,17.52 C6.48237925,11.3700518 11.305318,6.51417951 17.44,4.25 Z M26.37,26.56 L32.67,26.56 C33.0933107,27.746515 34.0028004,28.6960222 35.17,29.17 C35.0119594,30.9063514 34.7380153,32.630195 34.35,34.33 C32.65,34.72 30.85,35 28.98,35.17 C28.5060222,34.0028004 27.556515,33.0933107 26.37,32.67 L26.37,26.56 Z M26.37,14.67 C29.14,14.77 31.82,15.11 34.31,15.69 C34.71,17.37 35,19.16 35.17,21.03 C34.0048694,21.5017489 33.0957124,22.4472722 32.67,23.63 L26.37,23.63 L26.37,14.67 Z M26.37,3.17 C29.17,4.1 31.74,7.62 33.4,12.5 C31.0802708,12.06238 28.72966,11.8082599 26.37,11.74 L26.37,3.17 Z M36.83,23.63 C37.5922895,23.6930335 38.1788596,24.3301088 38.1788596,25.095 C38.1788596,25.8598912 37.5922895,26.4969665 36.83,26.56 L36.74,26.56 C35.9982912,26.4810951 35.4332454,25.8592049 35.4255825,25.1133502 C35.4179196,24.3674955 35.9700689,23.7341272 36.71,23.64 L36.83,23.64 L36.83,23.63 Z M45.78,17.63 C43.21,15.61 39.9,14.19 36.72,13.29 C35.82,10.11 34.41,6.79 32.36,4.22 C38.6101888,6.46915216 43.5308478,11.3898112 45.78,17.64 L45.78,17.63 Z M48.0099981,15.3699994 C44.0670047,6.09605726 34.9872115,0.0546537094 24.909999,-4.54747351e-13 C11.0199996,-4.54747351e-13 1.50108938e-13,11.4499995 1.50108938e-13,25.099999 C-0.00265409058,31.7047026 2.61987882,38.039657 7.29010991,42.7098881 C11.960341,47.3801192 18.2952954,50.0026521 24.899999,49.999998 C38.5599984,49.999998 49.999998,38.9599984 49.999998,25.099999 C49.999998,21.7399991 49.329998,18.4599993 48.0099981,15.3699994 Z" id="ivn3a"></path>
                </g>
            </g>
            <g id="ivn3a-link" fill="#FF4B2D" fill-rule="nonzero">
                <path d="M40.96,23.63 C40.4934953,22.3158543 39.4329232,21.2997818 38.1,20.89 C37.97,19.43 37.77,17.99 37.5,16.59 C41,17.79 45.65,20.17 46.82,23.63 L40.96,23.63 Z M38.1,29.3 C39.4348769,28.8818883 40.4946635,27.8591572 40.96,26.54 L46.82,26.54 C45.66,29.97 40.98,32.3 37.52,33.44 C37.78,32.1 37.97,30.72 38.1,29.3 Z M32.42,45.77 C34.48,43.19 35.87,39.89 36.76,36.74 C39.9,35.87 43.21,34.5 45.78,32.49 C43.5210184,38.6818233 38.6252789,43.548247 32.42,45.77 Z M26.37,40.96 C27.6841457,40.4934953 28.7002182,39.4329232 29.11,38.1 C30.59,37.97 32.05,37.77 33.46,37.5 C32.27,41 29.88,45.7 26.36,46.83 L26.37,40.96 Z M24.9,38.28 C24.1,38.28 23.45,37.63 23.44,36.83 L23.44,36.82 L23.44,36.75 C23.5268253,36.0094313 24.1543589,35.4511724 24.9,35.4511724 C25.6456411,35.4511724 26.2731747,36.0094313 26.36,36.75 L26.36,36.83 C26.36,37.63 25.7,38.28 24.9,38.28 Z M23.44,11.74 C21.9,11.79 20.39,11.91 18.91,12.1 C18.6837658,11.2275695 18.1950709,10.4456576 17.51,9.86 C19.11,6.28 21.23,3.91 23.44,3.18 L23.44,11.74 Z M23.44,23.64 L14.67,23.64 C14.74,21.54 14.94,19.44 15.27,17.54 C16.7221612,17.3312323 17.9747418,16.4124232 18.61,15.09 C20.18,14.86 21.8,14.73 23.44,14.67 L23.44,23.64 Z M23.44,32.67 C22.253485,33.0933107 21.3039778,34.0028004 20.83,35.17 C19.0811495,35.0164032 17.3441466,34.749172 15.63,34.37 C15.0661042,31.8058581 14.7446881,29.1943521 14.67,26.57 L23.44,26.57 L23.44,32.67 Z M23.44,46.82 C19.96,45.66 17.65,41 16.5,37.53 C17.86,37.78 19.26,37.97 20.7,38.1 C21.1097818,39.4329232 22.1258543,40.4934953 23.44,40.96 L23.44,46.82 Z M13.21,36.78 C14.21,40.41 15.67,43.5 17.46,45.78 C11.3071491,43.5487657 6.46123428,38.7028509 4.23,32.55 C6.78,34.55 10.05,35.91 13.21,36.78 Z M11.74,26.56 C11.81,28.99 12.06,31.31 12.46,33.49 C7.56,31.88 4.08,29.37 3.16,26.56 L11.74,26.56 Z M11.98,16.67 C12.11,16.77 12.25,16.87 12.39,16.95 C12.03,19.05 11.81,21.35 11.74,23.63 L3.17,23.63 C4.05,20.92 7.29,18.33 11.98,16.67 Z M16.11,13.18 C16.1556687,13.7322897 15.8868564,14.2633267 15.4147276,14.5535059 C14.9425988,14.8436852 14.3474012,14.8436852 13.8752724,14.5535059 C13.4031436,14.2633267 13.1343313,13.7322897 13.18,13.18 C13.2430335,12.4177105 13.8801088,11.8311404 14.645,11.8311404 C15.4098912,11.8311404 16.0469665,12.4177105 16.11,13.18 Z M17.44,4.25 C16.3703734,5.64843298 15.4769866,7.17323608 14.78,8.79 L14.65,8.79 C13.315104,8.79121215 12.0529384,9.39836907 11.218798,10.4405585 C10.3846576,11.4827479 10.0687493,12.8472637 10.36,14.15 C8.16330505,14.948216 6.1050679,16.0853077 4.26,17.52 C6.48237925,11.3700518 11.305318,6.51417951 17.44,4.25 Z M26.37,26.56 L32.67,26.56 C33.0933107,27.746515 34.0028004,28.6960222 35.17,29.17 C35.0119594,30.9063514 34.7380153,32.630195 34.35,34.33 C32.65,34.72 30.85,35 28.98,35.17 C28.5060222,34.0028004 27.556515,33.0933107 26.37,32.67 L26.37,26.56 Z M26.37,14.67 C29.14,14.77 31.82,15.11 34.31,15.69 C34.71,17.37 35,19.16 35.17,21.03 C34.0048694,21.5017489 33.0957124,22.4472722 32.67,23.63 L26.37,23.63 L26.37,14.67 Z M26.37,3.17 C29.17,4.1 31.74,7.62 33.4,12.5 C31.0802708,12.06238 28.72966,11.8082599 26.37,11.74 L26.37,3.17 Z M36.83,23.63 C37.5922895,23.6930335 38.1788596,24.3301088 38.1788596,25.095 C38.1788596,25.8598912 37.5922895,26.4969665 36.83,26.56 L36.74,26.56 C35.9982912,26.4810951 35.4332454,25.8592049 35.4255825,25.1133502 C35.4179196,24.3674955 35.9700689,23.7341272 36.71,23.64 L36.83,23.64 L36.83,23.63 Z M45.78,17.63 C43.21,15.61 39.9,14.19 36.72,13.29 C35.82,10.11 34.41,6.79 32.36,4.22 C38.6101888,6.46915216 43.5308478,11.3898112 45.78,17.64 L45.78,17.63 Z M48.0099981,15.3699994 C44.0670047,6.09605726 34.9872115,0.0546537094 24.909999,-4.54747351e-13 C11.0199996,-4.54747351e-13 1.50108938e-13,11.4499995 1.50108938e-13,25.099999 C-0.00265409058,31.7047026 2.61987882,38.039657 7.29010991,42.7098881 C11.960341,47.3801192 18.2952954,50.0026521 24.899999,49.999998 C38.5599984,49.999998 49.999998,38.9599984 49.999998,25.099999 C49.999998,21.7399991 49.329998,18.4599993 48.0099981,15.3699994 Z" id="ivn3a"></path>
            </g>
        </g>
    </g>
</svg>