<?xml version="1.0" encoding="UTF-8"?>
<svg width="50px" height="46px" viewBox="0 0 50 46" version="1.1" xmlns="http://www.w3.org/2000/svg" xmlns:xlink="http://www.w3.org/1999/xlink">
    <!-- Generator: Sketch 49.2 (51160) - http://www.bohemiancoding.com/sketch -->
    <title>ico-chat</title>
    <desc>Created with Sketch.</desc>
    <defs></defs>
    <g id="Page-1" stroke="none" stroke-width="1" fill="none" fill-rule="evenodd">
        <g id="ico-chat">
            <g id="Group">
                <g id="o5wka-link">
                    <path d="M28.03,12.27 C28.83,12.27 29.49,11.58 29.49,10.73 C29.5067858,9.90532126 28.8545608,9.22182517 28.03,9.2 L7.33,9.2 C6.52,9.2 5.86,9.89 5.86,10.73 C5.86,11.58 6.52,12.27 7.32,12.27 L28.03,12.27 Z M19.04,18.4 C19.85,18.4 20.51,17.71 20.51,16.87 C20.5207358,16.4704421 20.3715591,16.0831238 20.0955745,15.7939971 C19.8195899,15.5048704 19.439625,15.3378498 19.04,15.33 L7.32,15.33 C6.52,15.33 5.86,16.02 5.86,16.87 C5.86,17.71 6.52,18.4 7.32,18.4 L19.04,18.4 Z M4.39,3.07 L30.96,3.07 C31.76,3.07 32.42,3.75 32.42,4.6 L32.42,23 C32.4367858,23.8246787 31.7845608,24.5081748 30.96,24.53 L16.1,24.53 C15.82,24.53 15.53,24.63 15.29,24.79 L8.78,29.33 L8.78,26.07 C8.79073581,25.6704421 8.64155908,25.2831238 8.36557449,24.9939971 C8.0895899,24.7048704 7.70962499,24.5378498 7.31,24.53 L4.38,24.53 C3.55543924,24.5081748 2.90321422,23.8246787 2.92,23 L2.92,4.6 C2.92,3.75 3.58,3.07 4.38,3.07 L4.39,3.07 Z M17.58,27.6 L30.96,27.6 C32.1535711,27.5737711 33.2878013,27.0743207 34.1130239,26.2115881 C34.9382464,25.3488554 35.3868184,24.193558 35.36,23 L35.36,15.33 L45.61,15.33 C46.41,15.33 47.07,16.02 47.07,16.87 L47.07,35.27 C47.0867858,36.0946787 46.4345608,36.7781748 45.61,36.8 L42.68,36.8 C41.87,36.8 41.21,37.49 41.21,38.33 L41.21,41.6 L34.7,37.06 C34.4629151,36.8925924 34.180226,36.8018527 33.89,36.8 L19.04,36.8 C18.2154392,36.7781748 17.5632142,36.0946787 17.58,35.27 L17.58,27.6 Z M41.86,45.74 C42.12,45.92 42.4,46 42.67,46 C43.069625,45.9921502 43.4495899,45.8251296 43.7255745,45.5360029 C44.0015591,45.2468762 44.1507358,44.8595579 44.14,44.46 L44.14,39.86 L45.61,39.86 C48.0916092,39.7999499 50.0558895,37.7417063 50,35.26 L50,16.86 C50.0268184,15.666442 49.5782464,14.5111446 48.7530239,13.6484119 C47.9278013,12.7856793 46.7935711,12.2862289 45.6,12.26 L35.35,12.26 L35.35,4.6 C35.3768184,3.40644202 34.9282464,2.2511446 34.1030239,1.38841194 C33.2778013,0.525679288 32.1435711,0.0262289488 30.95,0 L4.4,0 C1.91839085,0.060050063 -0.0458894536,2.11829366 0.01,4.6 L0.01,23 C-0.0168183634,24.193558 0.431753582,25.3488554 1.25697612,26.2115881 C2.08219866,27.0743207 3.21642892,27.5737711 4.41,27.6 L5.87,27.6 L5.87,32.2 C5.87,33.43 7.18,34.15 8.15,33.47 L14.65,28.93 L14.65,35.27 C14.6231816,36.463558 15.0717536,37.6188554 15.8969761,38.4815881 C16.7221987,39.3443207 17.8564289,39.8437711 19.05,39.87 L33.45,39.87 L41.87,45.74 L41.86,45.74 Z" id="o5wka"></path>
                </g>
                <g id="o5wka-link" fill="#FF4B2D" fill-opacity="0.4" fill-rule="nonzero">
                    <path d="M28.03,12.27 C28.83,12.27 29.49,11.58 29.49,10.73 C29.5067858,9.90532126 28.8545608,9.22182517 28.03,9.2 L7.33,9.2 C6.52,9.2 5.86,9.89 5.86,10.73 C5.86,11.58 6.52,12.27 7.32,12.27 L28.03,12.27 Z M19.04,18.4 C19.85,18.4 20.51,17.71 20.51,16.87 C20.5207358,16.4704421 20.3715591,16.0831238 20.0955745,15.7939971 C19.8195899,15.5048704 19.439625,15.3378498 19.04,15.33 L7.32,15.33 C6.52,15.33 5.86,16.02 5.86,16.87 C5.86,17.71 6.52,18.4 7.32,18.4 L19.04,18.4 Z M4.39,3.07 L30.96,3.07 C31.76,3.07 32.42,3.75 32.42,4.6 L32.42,23 C32.4367858,23.8246787 31.7845608,24.5081748 30.96,24.53 L16.1,24.53 C15.82,24.53 15.53,24.63 15.29,24.79 L8.78,29.33 L8.78,26.07 C8.79073581,25.6704421 8.64155908,25.2831238 8.36557449,24.9939971 C8.0895899,24.7048704 7.70962499,24.5378498 7.31,24.53 L4.38,24.53 C3.55543924,24.5081748 2.90321422,23.8246787 2.92,23 L2.92,4.6 C2.92,3.75 3.58,3.07 4.38,3.07 L4.39,3.07 Z M17.58,27.6 L30.96,27.6 C32.1535711,27.5737711 33.2878013,27.0743207 34.1130239,26.2115881 C34.9382464,25.3488554 35.3868184,24.193558 35.36,23 L35.36,15.33 L45.61,15.33 C46.41,15.33 47.07,16.02 47.07,16.87 L47.07,35.27 C47.0867858,36.0946787 46.4345608,36.7781748 45.61,36.8 L42.68,36.8 C41.87,36.8 41.21,37.49 41.21,38.33 L41.21,41.6 L34.7,37.06 C34.4629151,36.8925924 34.180226,36.8018527 33.89,36.8 L19.04,36.8 C18.2154392,36.7781748 17.5632142,36.0946787 17.58,35.27 L17.58,27.6 Z M41.86,45.74 C42.12,45.92 42.4,46 42.67,46 C43.069625,45.9921502 43.4495899,45.8251296 43.7255745,45.5360029 C44.0015591,45.2468762 44.1507358,44.8595579 44.14,44.46 L44.14,39.86 L45.61,39.86 C48.0916092,39.7999499 50.0558895,37.7417063 50,35.26 L50,16.86 C50.0268184,15.666442 49.5782464,14.5111446 48.7530239,13.6484119 C47.9278013,12.7856793 46.7935711,12.2862289 45.6,12.26 L35.35,12.26 L35.35,4.6 C35.3768184,3.40644202 34.9282464,2.2511446 34.1030239,1.38841194 C33.2778013,0.525679288 32.1435711,0.0262289488 30.95,0 L4.4,0 C1.91839085,0.060050063 -0.0458894536,2.11829366 0.01,4.6 L0.01,23 C-0.0168183634,24.193558 0.431753582,25.3488554 1.25697612,26.2115881 C2.08219866,27.0743207 3.21642892,27.5737711 4.41,27.6 L5.87,27.6 L5.87,32.2 C5.87,33.43 7.18,34.15 8.15,33.47 L14.65,28.93 L14.65,35.27 C14.6231816,36.463558 15.0717536,37.6188554 15.8969761,38.4815881 C16.7221987,39.3443207 17.8564289,39.8437711 19.05,39.87 L33.45,39.87 L41.87,45.74 L41.86,45.74 Z" id="o5wka"></path>
                </g>
            </g>
            <g id="o5wka-link" fill="#FF4B2D" fill-rule="nonzero">
                <path d="M28.03,12.27 C28.83,12.27 29.49,11.58 29.49,10.73 C29.5067858,9.90532126 28.8545608,9.22182517 28.03,9.2 L7.33,9.2 C6.52,9.2 5.86,9.89 5.86,10.73 C5.86,11.58 6.52,12.27 7.32,12.27 L28.03,12.27 Z M19.04,18.4 C19.85,18.4 20.51,17.71 20.51,16.87 C20.5207358,16.4704421 20.3715591,16.0831238 20.0955745,15.7939971 C19.8195899,15.5048704 19.439625,15.3378498 19.04,15.33 L7.32,15.33 C6.52,15.33 5.86,16.02 5.86,16.87 C5.86,17.71 6.52,18.4 7.32,18.4 L19.04,18.4 Z M4.39,3.07 L30.96,3.07 C31.76,3.07 32.42,3.75 32.42,4.6 L32.42,23 C32.4367858,23.8246787 31.7845608,24.5081748 30.96,24.53 L16.1,24.53 C15.82,24.53 15.53,24.63 15.29,24.79 L8.78,29.33 L8.78,26.07 C8.79073581,25.6704421 8.64155908,25.2831238 8.36557449,24.9939971 C8.0895899,24.7048704 7.70962499,24.5378498 7.31,24.53 L4.38,24.53 C3.55543924,24.5081748 2.90321422,23.8246787 2.92,23 L2.92,4.6 C2.92,3.75 3.58,3.07 4.38,3.07 L4.39,3.07 Z M17.58,27.6 L30.96,27.6 C32.1535711,27.5737711 33.2878013,27.0743207 34.1130239,26.2115881 C34.9382464,25.3488554 35.3868184,24.193558 35.36,23 L35.36,15.33 L45.61,15.33 C46.41,15.33 47.07,16.02 47.07,16.87 L47.07,35.27 C47.0867858,36.0946787 46.4345608,36.7781748 45.61,36.8 L42.68,36.8 C41.87,36.8 41.21,37.49 41.21,38.33 L41.21,41.6 L34.7,37.06 C34.4629151,36.8925924 34.180226,36.8018527 33.89,36.8 L19.04,36.8 C18.2154392,36.7781748 17.5632142,36.0946787 17.58,35.27 L17.58,27.6 Z M41.86,45.74 C42.12,45.92 42.4,46 42.67,46 C43.069625,45.9921502 43.4495899,45.8251296 43.7255745,45.5360029 C44.0015591,45.2468762 44.1507358,44.8595579 44.14,44.46 L44.14,39.86 L45.61,39.86 C48.0916092,39.7999499 50.0558895,37.7417063 50,35.26 L50,16.86 C50.0268184,15.666442 49.5782464,14.5111446 48.7530239,13.6484119 C47.9278013,12.7856793 46.7935711,12.2862289 45.6,12.26 L35.35,12.26 L35.35,4.6 C35.3768184,3.40644202 34.9282464,2.2511446 34.1030239,1.38841194 C33.2778013,0.525679288 32.1435711,0.0262289488 30.95,0 L4.4,0 C1.91839085,0.060050063 -0.0458894536,2.11829366 0.01,4.6 L0.01,23 C-0.0168183634,24.193558 0.431753582,25.3488554 1.25697612,26.2115881 C2.08219866,27.0743207 3.21642892,27.5737711 4.41,27.6 L5.87,27.6 L5.87,32.2 C5.87,33.43 7.18,34.15 8.15,33.47 L14.65,28.93 L14.65,35.27 C14.6231816,36.463558 15.0717536,37.6188554 15.8969761,38.4815881 C16.7221987,39.3443207 17.8564289,39.8437711 19.05,39.87 L33.45,39.87 L41.87,45.74 L41.86,45.74 Z" id="o5wka"></path>
            </g>
        </g>
    </g>
</svg>