<svg xmlns="https://www.w3.org/2000/svg" xmlns:xlink="https://www.w3.org/1999/xlink" width="60" height="56" viewBox="0 0 60 56"><defs><path id="o5wka" d="M608.03 1646.27c.8 0 1.46-.69 1.46-1.54a1.5 1.5 0 0 0-1.46-1.53h-20.7c-.81 0-1.47.69-1.47 1.53 0 .85.66 1.54 1.46 1.54zm-8.99 6.13c.81 0 1.47-.69 1.47-1.53a1.5 1.5 0 0 0-1.47-1.54h-11.72c-.8 0-1.46.69-1.46 1.54 0 .84.66 1.53 1.46 1.53zm-14.65-15.33h26.57c.8 0 1.46.68 1.46 1.53v18.4a1.5 1.5 0 0 1-1.46 1.53H596.1c-.28 0-.57.1-.81.26l-6.51 4.54v-3.26a1.5 1.5 0 0 0-1.47-1.54h-2.93a1.5 1.5 0 0 1-1.46-1.53v-18.4c0-.85.66-1.53 1.46-1.53zm13.19 24.53h13.38a4.5 4.5 0 0 0 4.4-4.6v-7.67h10.25c.8 0 1.46.69 1.46 1.54v18.4a1.5 1.5 0 0 1-1.46 1.53h-2.93c-.81 0-1.47.69-1.47 1.53v3.27l-6.51-4.54a1.42 1.42 0 0 0-.81-.26h-14.85a1.5 1.5 0 0 1-1.46-1.53zm24.28 18.14c.26.18.54.26.81.26a1.5 1.5 0 0 0 1.47-1.54v-4.6h1.47a4.5 4.5 0 0 0 4.39-4.6v-18.4a4.5 4.5 0 0 0-4.4-4.6h-10.25v-7.66a4.5 4.5 0 0 0-4.4-4.6H584.4a4.5 4.5 0 0 0-4.39 4.6v18.4a4.5 4.5 0 0 0 4.4 4.6h1.46v4.6c0 1.23 1.31 1.95 2.28 1.27l6.5-4.54v6.34a4.5 4.5 0 0 0 4.4 4.6h14.4l8.42 5.87z"/><mask id="o5wkc" width="2" height="2" x="-1" y="-1"><path fill="#fff" d="M580 1634h50v46h-50z"/><use xlink:href="#o5wka"/></mask><filter id="o5wkb" width="82" height="81" x="564" y="1624" filterUnits="userSpaceOnUse"><feOffset dy="3" in="SourceGraphic" result="FeOffset1466Out"/><feGaussianBlur in="FeOffset1466Out" result="FeGaussianBlur1467Out" stdDeviation="2.4 2.4"/></filter></defs><g><g transform="translate(-575 -1632)"><g filter="url(#o5wkb)"><use fill="none" stroke-opacity=".4" stroke-width="0" mask="url(&quot;#o5wkc&quot;)" xlink:href="#o5wka"/><use fill="#ff4b2d" fill-opacity=".4" xlink:href="#o5wka"/></g><use fill="#ff4b2d" xlink:href="#o5wka"/></g></g></svg>