<?xml version="1.0" encoding="UTF-8"?>
<svg width="12px" height="12px" viewBox="0 0 12 12" version="1.1" xmlns="http://www.w3.org/2000/svg" xmlns:xlink="http://www.w3.org/1999/xlink">
    <!-- Generator: Sketch 49.2 (51160) - http://www.bohemiancoding.com/sketch -->
    <title>link</title>
    <desc>Created with Sketch.</desc>
    <defs></defs>
    <g id="Page-1" stroke="none" stroke-width="1" fill="none" fill-rule="evenodd">
        <g id="link" fill="#02023A" fill-rule="nonzero">
            <path d="M9.8,7.63 C9.1,7.63 8.47,7.96 8.07,8.46 L4.33,6.56 C4.37,6.38 4.41,6.2 4.41,6 C4.41,5.79 4.37,5.58 4.31,5.39 L8.04,3.49 C8.60593887,4.24469215 9.59002476,4.5545945 10.4862826,4.26036845 C11.3825404,3.9661424 11.9914757,3.13327853 12,2.19 C11.9944949,0.978880616 11.0111319,-1.25117575e-05 9.8,-3.12795752e-13 C9.2165219,-0.00265820096 8.65588623,0.226581357 8.24142952,0.637287327 C7.82697281,1.0479933 7.59264615,1.60652185 7.59,2.19 C7.59,2.39 7.62,2.57 7.67,2.75 L3.93,4.65 C3.35164107,3.91377491 2.37069476,3.62423329 1.48524977,3.92839378 C0.599804783,4.23255428 0.00385422059,5.06377803 0,6 C0.00852425203,6.94327853 0.617459613,7.7761424 1.51371743,8.07036845 C2.40997524,8.3645945 3.39406113,8.05469215 3.96,7.3 L7.69,9.2 C7.63,9.4 7.59,9.6 7.59,9.81 C7.59,11.02 8.58,12 9.79,12 C11.0011319,12.0000125 11.9844949,11.0211194 11.99,9.81 C11.9790249,8.60279126 10.9972586,7.62995011 9.79,7.63 L9.8,7.63 Z" id="66mha"></path>
        </g>
    </g>
</svg>