<?xml version="1.0" encoding="UTF-8"?>
<svg width="170px" height="50px" viewBox="0 0 170 50" version="1.1" xmlns="http://www.w3.org/2000/svg" xmlns:xlink="http://www.w3.org/1999/xlink">
    <!-- Generator: Sketch 49.2 (51160) - http://www.bohemiancoding.com/sketch -->
    <title>logo</title>
    <desc>Created with Sketch.</desc>
    <defs></defs>
    <g id="Page-1" stroke="none" stroke-width="1" fill="none" fill-rule="evenodd">
        <g id="logo" fill-rule="nonzero">
            <g id="Group" transform="translate(54.000000, 35.000000)" fill="#FF4B2D">
                <g id="vr37a-link">
                    <polygon id="vr37a" points="0.5 10.97 0.5 0.84 1.84 0.84 1.84 10.97"></polygon>
                </g>
            </g>
            <g id="Group" transform="translate(54.000000, 31.000000)" fill="#FF4B2D">
                <g id="vr37b-link">
                    <polygon id="vr37b" points="0.31 2.45 0.31 0.73 2.03 0.73 2.03 2.45"></polygon>
                </g>
            </g>
            <g id="Group" transform="translate(58.000000, 35.000000)" fill="#FF4B2D">
                <g id="vr37c-link">
                    <path d="M5.11,0.63 C3.37,0.63 2.31,1.37 1.71,2.27 L1.52,0.84 L0.42,0.84 L0.52,3.71 L0.52,10.97 L1.86,10.97 L1.86,3.4 C2.42860205,2.3965435 3.50727825,1.79171435 4.66,1.83 C5.99,1.83 6.86,2.54 6.86,4.07 L6.86,10.97 L8.19,10.97 L8.19,3.87 C8.19,1.99 7.12,0.63 5.11,0.63 Z" id="vr37c"></path>
                </g>
            </g>
            <g id="Group" transform="translate(67.000000, 35.000000)" fill="#FF4B2D">
                <g id="vr37d-link">
                    <polygon id="vr37d" points="5.1 9.7 2.12 0.84 0.69 0.84 4.22 10.97 5.98 10.97 9.53 0.84 8.1 0.84"></polygon>
                </g>
            </g>
            <g id="Group" transform="translate(77.000000, 35.000000)" fill="#FF4B2D">
                <g id="vr37e-link">
                    <path d="M2.04,5.35 C2.1,3.15 3.04,1.75 4.94,1.75 C6.87,1.75 7.77,3.15 7.84,5.35 L2.04,5.35 Z M4.96,0.63 C2,0.63 0.68,2.88 0.68,5.69 L0.68,6.11 C0.68,8.92 2,11.18 5.06,11.18 C7.91,11.18 9.21,9.36 9.21,7.8 L9.21,7.72 L7.93,7.72 C7.93,8.81 7.08,10.05 5.06,10.05 C3.03,10.05 2.1,8.67 2.04,6.45 L9.21,6.45 L9.21,5.69 C9.21,2.89 7.93,0.63 4.96,0.63 Z" id="vr37e"></path>
                </g>
            </g>
            <g id="Group" transform="translate(88.000000, 35.000000)" fill="#FF4B2D">
                <g id="vr37f-link">
                    <path d="M4.4,5.31 C2.2,5.14 1.7,4.57 1.7,3.51 C1.7,2.39 2.6,1.76 4.13,1.76 C6.03,1.76 6.6,2.66 6.6,4.11 L7.91,4.11 L7.91,4.03 C7.91,2.04 6.9,0.63 4.13,0.63 C1.76,0.63 0.37,1.76 0.37,3.51 L0.37,3.63 C0.37,5.13 1.15,6.09 3.88,6.33 C5.85,6.49 6.65,6.82 6.65,8.2 C6.65,9.32 5.77,10.05 4.13,10.05 C2.13,10.05 1.57,8.98 1.57,7.87 L0.23,7.87 L0.23,7.95 C0.23,9.49 1.26,11.18 4.13,11.18 C6.63,11.18 8.03,9.95 8.03,8.2 L8.03,8.1 C8.03,6.25 6.94,5.52 4.4,5.31 Z" id="vr37f"></path>
                </g>
            </g>
            <g id="Group" transform="translate(97.000000, 32.000000)" fill="#FF4B2D">
                <g id="vr37g-link">
                    <path d="M3.57,0.97 L2.24,0.97 L2.24,3.84 L0.64,3.84 L0.64,5.04 L2.24,5.04 L2.24,11.16 C2.24,13.36 3.48,14.18 5.2,14.18 C6,14.18 6.46,14.03 6.61,13.97 L6.61,12.8 C6.46,12.88 5.94,12.97 5.52,12.97 C4.24,12.97 3.57,12.59 3.57,10.99 L3.57,5.04 L6.8,5.04 L6.8,3.84 L3.57,3.84 L3.57,0.97 Z" id="vr37g"></path>
                </g>
            </g>
            <g id="Group" transform="translate(105.000000, 35.000000)" fill="#FF4B2D">
                <g id="vr37h-link">
                    <polygon id="vr37h" points="0.94 10.97 0.94 0.84 2.28 0.84 2.28 10.97"></polygon>
                </g>
            </g>
            <g id="Group" transform="translate(105.000000, 31.000000)" fill="#FF4B2D">
                <g id="vr37i-link">
                    <polygon id="vr37i" points="0.75 2.45 0.75 0.73 2.47 0.73 2.47 2.45"></polygon>
                </g>
            </g>
            <g id="Group" transform="translate(109.000000, 35.000000)" fill="#FF4B2D">
                <g id="vr37j-link">
                    <path d="M7.31,7.7 C6.89,8.35 6.13,9.25 4.73,9.25 C2.84,9.25 1.93,7.87 1.93,5.75 L1.93,5.33 C1.93,3.25 2.84,1.83 4.73,1.83 C6.13,1.83 6.89,2.73 7.31,3.4 L7.31,7.7 Z M7.47,2.2 C6.82703373,1.16285973 5.66829005,0.560466493 4.45,0.63 C1.7,0.63 0.57,2.79 0.57,5.33 L0.57,5.75 C0.57,8.33 1.7,10.45 4.45,10.45 C5.86,10.45 6.76,9.88 7.32,9.11 L7.32,11 C7.32,12.85 6.61,13.84 4.66,13.84 C2.76,13.84 2.04,12.89 2.04,10.98 L0.76,10.98 L0.76,11.23 C0.76,13.31 1.76,15.01 4.68,15.01 C7.56,15.01 8.65,13.35 8.65,11.07 L8.65,3.72 L8.77,0.85 L7.66,0.85 L7.47,2.2 Z" id="vr37j"></path>
                </g>
            </g>
            <g id="Group" transform="translate(119.000000, 35.000000)" fill="#FF4B2D">
                <g id="vr37k-link">
                    <path d="M7.2,8.4 C6.5441527,9.46375606 5.35760992,10.0819871 4.11,10.01 C2.75,10.01 2.18,9.19 2.18,8.29 L2.18,8.12 C2.18,6.97 2.97,6.34 4.26,6.12 L7.21,5.64 L7.21,8.41 L7.2,8.4 Z M8.54,4.4 C8.54,2.16 7.68,0.63 4.88,0.63 C1.89,0.63 1.23,2.48 1.23,4.01 L1.23,4.18 L2.51,4.18 C2.51,2.87 2.95,1.76 4.86,1.76 C6.66,1.76 7.21,2.66 7.21,4.39 L7.21,4.66 L4.15,5.14 C2.51,5.39 0.85,6.02 0.85,8.22 L0.85,8.41 C0.85,10.03 1.91,11.18 3.77,11.18 C5.52,11.18 6.67,10.43 7.34,9.55 L7.55,10.97 L8.65,10.97 L8.55,8.1 L8.54,4.4 Z" id="vr37k"></path>
                </g>
            </g>
            <g id="Group" transform="translate(129.000000, 32.000000)" fill="#FF4B2D">
                <g id="vr37l-link">
                    <path d="M3.2,0.97 L1.86,0.97 L1.86,3.84 L0.26,3.84 L0.26,5.04 L1.86,5.04 L1.86,11.16 C1.86,13.36 3.1,14.18 4.82,14.18 C5.62,14.18 6.08,14.03 6.23,13.97 L6.23,12.8 C6.08,12.88 5.56,12.97 5.14,12.97 C3.86,12.97 3.2,12.59 3.2,10.99 L3.2,5.04 L6.42,5.04 L6.42,3.84 L3.2,3.84 L3.2,0.97 Z" id="vr37l"></path>
                </g>
            </g>
            <g id="Group" transform="translate(137.000000, 31.000000)" fill="#FF4B2D">
                <g id="vr37m-link">
                    <polygon id="vr37m" points="0.37 2.45 0.37 0.73 2.09 0.73 2.09 2.45"></polygon>
                </g>
            </g>
            <g id="Group" transform="translate(137.000000, 35.000000)" fill="#FF4B2D">
                <g id="vr37n-link">
                    <polygon id="vr37n" points="0.56 10.97 0.56 0.84 1.9 0.84 1.9 10.97"></polygon>
                </g>
            </g>
            <g id="Group" transform="translate(141.000000, 35.000000)" fill="#FF4B2D">
                <g id="vr37o-link">
                    <path d="M7.36,6.13 C7.36,8.44 6.46,9.97 4.46,9.97 C2.44,9.97 1.55,8.45 1.55,6.13 L1.55,5.67 C1.55,3.37 2.45,1.83 4.45,1.83 C6.45,1.83 7.35,3.36 7.35,5.67 L7.36,6.13 Z M4.46,0.63 C1.47,0.63 0.19,2.87 0.19,5.67 L0.19,6.13 C0.19,8.94 1.47,11.18 4.45,11.18 C7.43,11.18 8.71,8.94 8.71,6.13 L8.71,5.67 C8.71,2.87 7.43,0.63 4.45,0.63 L4.46,0.63 Z" id="vr37o"></path>
                </g>
            </g>
            <g id="Group" transform="translate(151.000000, 35.000000)" fill="#FF4B2D">
                <g id="vr37p-link">
                    <path d="M5.54,0.63 C3.8,0.63 2.73,1.37 2.14,2.27 L1.94,0.84 L0.84,0.84 L0.95,3.71 L0.95,10.97 L2.29,10.97 L2.29,3.4 C2.85691348,2.39979212 3.93081985,1.79547921 5.08,1.83 C6.42,1.83 7.28,2.54 7.28,4.07 L7.28,10.97 L8.61,10.97 L8.61,3.87 C8.61,1.99 7.54,0.63 5.54,0.63 Z" id="vr37p"></path>
                </g>
            </g>
            <g id="Group" transform="translate(161.000000, 35.000000)" fill="#FF4B2D">
                <g id="vr37q-link">
                    <path d="M5.02,5.31 C2.82,5.14 2.32,4.57 2.32,3.51 C2.32,2.39 3.22,1.76 4.75,1.76 C6.65,1.76 7.22,2.66 7.22,4.11 L8.54,4.11 L8.54,4.03 C8.54,2.04 7.52,0.63 4.75,0.63 C2.38,0.63 0.99,1.76 0.99,3.51 L0.99,3.63 C0.99,5.13 1.77,6.09 4.5,6.33 C6.47,6.49 7.28,6.82 7.28,8.2 C7.28,9.32 6.4,10.05 4.75,10.05 C2.75,10.05 2.19,8.98 2.19,7.87 L0.85,7.87 L0.85,7.95 C0.85,9.49 1.89,11.18 4.75,11.18 C7.25,11.18 8.65,9.95 8.65,8.2 L8.65,8.1 C8.65,6.25 7.56,5.52 5.02,5.31 Z" id="vr37q"></path>
                </g>
            </g>
            <g id="Group" transform="translate(24.000000, 0.000000)" fill="#FFFFFF">
                <g id="vr37r-link">
                    <path d="M0.27,33.82 L3.47,33.82 L3.47,0.32 C2.411676,0.145177312 1.3423764,0.0449304748 0.27,0.02 L0.27,33.82 Z" id="vr37r"></path>
                </g>
            </g>
            <g id="Group" transform="translate(18.000000, 0.000000)" fill="#FFFFFF">
                <g id="vr37s-link">
                    <path d="M4.26,35.03 L4.24,35.03 L4.24,0.03 C3.06,0.06 1.91,0.19 0.78,0.4 L0.78,45.57 C2.14,45.82 3.54,45.97 4.98,45.97 L5.74,45.97 C7.01,45.97 8.26,45.85 9.48,45.65 L9.48,35.85 L4.26,35.85 L4.26,35.03 Z" id="vr37s"></path>
                </g>
            </g>
            <g id="Group" transform="translate(1.000000, 27.000000)" fill="#FFFFFF">
                <g id="vr37t-link">
                    <path d="M0,2.66 C2.29221818,10.096597 8.16884751,15.8830479 15.64,18.06 L15.64,0.58 L5.73,0.58 C3.44,0.58 1.48,1.3 0,2.66 Z" id="vr37t"></path>
                </g>
            </g>
            <g id="Group" transform="translate(29.000000, 0.000000)" fill="#FFFFFF">
                <g id="vr37u-link">
                    <path d="M16.32,15.09 C13.7125174,8.05342349 7.85735864,2.71632139 0.61,0.77 L0.61,17.23 L10.52,17.23 C12.6584885,17.3006942 14.7399097,16.5327215 16.32,15.09 Z" id="vr37u"></path>
                </g>
            </g>
            <g id="Group" transform="translate(29.000000, 17.000000)" fill="#FFFFFF">
                <g id="vr37v-link">
                    <path d="M10.52,2.32 L0.61,2.32 L0.61,16.82 L14.99,16.82 C17.7340708,11.7429888 18.4488741,5.8136953 16.99,0.23 C15.1294971,1.63398058 12.8502593,2.37024134 10.52,2.32 Z" id="vr37v"></path>
                </g>
            </g>
            <g id="Group" transform="translate(29.000000, 35.000000)" fill="#FFFFFF">
                <g id="vr37w-link">
                    <path d="M0.6,10.2 C5.9687484,8.7624326 10.6403559,5.43976954 13.76,0.84 L0.61,0.84 L0.6,10.2 Z" id="vr37w"></path>
                </g>
            </g>
            <g id="Group" fill="#FFFFFF">
                <g id="vr37x-link">
                    <path d="M0,22.98 C0,24.5 0.15,25.98 0.44,27.42 C2.27634403,26.1216771 4.48163354,25.4485203 6.73,25.5 L16.64,25.5 L16.64,0.9 C6.80892132,3.75308917 0.0336555965,12.7433456 -2.84217094e-14,22.98 Z" id="vr37x"></path>
                </g>
            </g>
            <g id="Group" transform="translate(54.000000, 0.000000)" fill="#FFFFFF">
                <g id="vr37y-link">
                    <path d="M3.9,22.66 L3.9,3.03 L7.46,3.03 C12.2,3.03 14.41,5.67 14.41,12.19 L14.41,13.51 C14.41,20.03 12.2,22.66 7.46,22.66 L3.9,22.66 Z M17.93,13.51 L17.93,12.19 C17.93,3.29 14.44,-1.77635684e-15 7.69,-1.77635684e-15 L0.47,-1.77635684e-15 L0.47,25.7 L7.69,25.7 C14.44,25.7 17.93,22.4 17.93,13.5 L17.93,13.51 Z" id="vr37y"></path>
                </g>
            </g>
            <g id="Group" transform="translate(79.000000, 0.000000)" fill="#FFFFFF">
                <g id="vr37z-link">
                    <polygon id="vr37z" points="14.7 22.66 4.33 22.66 4.33 0 0.9 0 0.9 25.7 14.7 25.7"></polygon>
                </g>
            </g>
            <g id="Group" transform="translate(101.000000, 0.000000)" fill="#FFFFFF">
                <g id="vr37A-link">
                    <path d="M12.9,8.07 C12.9,11.96 10.24,12.68 8.26,12.68 L3.98,12.68 L3.98,3.03 L8.26,3.03 C10.24,3.03 12.9,3.76 12.9,7.64 L12.9,8.07 Z M16.4,8.17 L16.4,7.51 C16.4,1.28 12.01,1.77635684e-15 8.16,1.77635684e-15 L0.56,1.77635684e-15 L0.56,25.7 L3.98,25.7 L3.98,15.67 L8.16,15.67 C12.01,15.67 16.4,14.42 16.4,8.16 L16.4,8.17 Z" id="vr37A"></path>
                </g>
            </g>
        </g>
    </g>
</svg>