<?xml version="1.0" encoding="UTF-8"?>
<svg width="440px" height="332px" viewBox="0 0 440 332" version="1.1" xmlns="http://www.w3.org/2000/svg" xmlns:xlink="http://www.w3.org/1999/xlink">
    <!-- Generator: Sketch 49.2 (51160) - http://www.bohemiancoding.com/sketch -->
    <title>puzzle</title>
    <desc>Created with Sketch.</desc>
    <defs></defs>
    <g id="Page-1" stroke="none" stroke-width="1" fill="none" fill-rule="evenodd">
        <g id="puzzle">
            <g id="Group" transform="translate(88.000000, 69.000000)">
                <g id="icrea-link">
                    <g>
                        <path d="M219.98,59.749998 C217.45,60.059998 194.98,62.7299979 165.08,63.8499979 C160.95,63.1799979 156.55,61.8899979 155.5,59.399998 C153.82,55.4299981 156.4,50.3999983 160.18,45.5999985 L160.09,45.5699985 C164.243746,40.5819277 166.509444,34.2910754 166.49,27.7999991 C166.445888,12.4257427 153.964316,-0.011092206 138.59,-2.66481158e-13 C123.23,-2.66481158e-13 110.45,12.3999996 110.45,27.7399991 C110.45,34.4199988 112.24,40.3799986 116.26,45.2699985 L116.26,45.3199985 C120.29,50.2099983 124,55.3299981 122.32,59.309998 C121.27,61.7999979 117.04,63.1099979 112.99,63.8099979 C83.54,62.6099979 61.43,59.809998 58.59,59.439998 C58.69,60.199998 61.84,85.5599971 62.89,119.059996 C62.13,121.379996 61.06,123.289996 59.53,123.939996 C55.55,125.609996 50.46,123.039996 45.66,119.259996 L45.63,119.359996 C37.3032367,112.496081 25.7640432,111.051589 16.0022655,115.651156 C6.24048786,120.250722 0.00804241812,130.068877 -3.41060513e-13,140.859995 C-3.41060513e-13,156.199995 12.42,169.169994 27.78,169.169994 C34.47,169.169994 40.44,167.629994 45.33,163.619995 L45.38,163.619995 C50.28,159.599995 55.47,155.639995 59.45,157.319995 C61,157.969995 62.1,159.719995 62.89,162.039995 C62.2417514,181.751041 60.7202586,201.423674 58.33,220.999993 C58.83,220.929993 217.46,220.579993 220,220.919993" id="icrea"></path>
                    </g>
                </g>
                <g id="icrea-link" fill="#FF4B2D" fill-rule="nonzero">
                    <path d="M219.98,59.749998 C217.45,60.059998 194.98,62.7299979 165.08,63.8499979 C160.95,63.1799979 156.55,61.8899979 155.5,59.399998 C153.82,55.4299981 156.4,50.3999983 160.18,45.5999985 L160.09,45.5699985 C164.243746,40.5819277 166.509444,34.2910754 166.49,27.7999991 C166.445888,12.4257427 153.964316,-0.011092206 138.59,-2.66481158e-13 C123.23,-2.66481158e-13 110.45,12.3999996 110.45,27.7399991 C110.45,34.4199988 112.24,40.3799986 116.26,45.2699985 L116.26,45.3199985 C120.29,50.2099983 124,55.3299981 122.32,59.309998 C121.27,61.7999979 117.04,63.1099979 112.99,63.8099979 C83.54,62.6099979 61.43,59.809998 58.59,59.439998 C58.69,60.199998 61.84,85.5599971 62.89,119.059996 C62.13,121.379996 61.06,123.289996 59.53,123.939996 C55.55,125.609996 50.46,123.039996 45.66,119.259996 L45.63,119.359996 C37.3032367,112.496081 25.7640432,111.051589 16.0022655,115.651156 C6.24048786,120.250722 0.00804241812,130.068877 -3.41060513e-13,140.859995 C-3.41060513e-13,156.199995 12.42,169.169994 27.78,169.169994 C34.47,169.169994 40.44,167.629994 45.33,163.619995 L45.38,163.619995 C50.28,159.599995 55.47,155.639995 59.45,157.319995 C61,157.969995 62.1,159.719995 62.89,162.039995 C62.2417514,181.751041 60.7202586,201.423674 58.33,220.999993 C58.83,220.929993 217.46,220.579993 220,220.919993" id="icrea"></path>
                </g>
            </g>
            <g id="Group" transform="translate(138.000000, 296.000000)">
                <g id="icreb-link">
                    <g>
                        <polygon id="icreb" points="0.07 1.12 0.1 0.92 0.07 0.93"></polygon>
                    </g>
                    <g fill="#FF4B2D" fill-opacity="0.4" fill-rule="nonzero">
                        <polygon id="icreb" points="0.07 1.12 0.1 0.92 0.07 0.93"></polygon>
                    </g>
                </g>
                <g id="icreb-link" fill="#FF4B2D" fill-rule="nonzero">
                    <polygon id="icreb" points="0.07 1.12 0.1 0.92 0.07 0.93"></polygon>
                </g>
            </g>
            <g id="Group" transform="translate(209.000000, 149.000000)">
                <g id="icrec-link">
                    <g>
                        <polygon id="icrec" points="0.07 0.9 0.37 0.94 0.37 0.9"></polygon>
                    </g>
                    <g fill="#FF4B2D" fill-opacity="0.4" fill-rule="nonzero">
                        <polygon id="icrec" points="0.07 0.9 0.37 0.94 0.37 0.9"></polygon>
                    </g>
                </g>
                <g id="icrec-link" fill="#FF4B2D" fill-rule="nonzero">
                    <polygon id="icrec" points="0.07 0.9 0.37 0.94 0.37 0.9"></polygon>
                </g>
            </g>
            <g id="Group" transform="translate(371.000000, 59.000000)" fill="#F2F2F2" fill-rule="nonzero">
                <g id="icrek-link">
                    <path d="M57.27,28.3 C57.27,28.3 53.53,23.54 47.97,17.55 C47.15,16.95 46.19,16.5 45.59,16.75 C44.59,17.15 44.19,18.48 44.02,19.99 L44,19.99 C43.7644616,22.6671743 41.9980383,24.9649243 39.4713907,25.8807804 C36.9447431,26.7966365 34.1162752,26.1644371 32.22,24.26 C30.3378525,22.3761195 29.6996527,19.5813966 30.5774723,17.067253 C31.4552919,14.5531095 33.6943069,12.7629735 36.34,12.46 L36.34,12.45 C37.91,12.29 39.38,12.03 39.78,11.04 C40.02,10.45 39.59,9.58 39.02,8.78 C33.35,3.54 28.9,0.09 28.9,0.09 L28.85,0.15 C28.85,0.15 24.6,5.71 18.41,12.25 C18.1,12.35 17.79,12.35 17.56,12.25 C16.56,11.85 16.13,10.5 15.95,8.99 L15.92,8.99 C15.6731063,6.31917637 13.9050503,4.03157787 11.3827047,3.11942232 C8.86035901,2.20726676 6.03808134,2.83486344 4.14,4.73 C2.26047313,6.61601512 1.64832614,9.42237022 2.57170178,11.9197792 C3.49507742,14.4171882 5.78562461,16.1503202 8.44,16.36 L8.44,16.37 C10.01,16.53 11.43,16.92 11.84,17.91 C11.93,18.14 11.91,18.49 11.83,18.79 C8.16113989,22.2248066 4.34417764,25.4979184 0.39,28.6 L0.35,28.64 C0.35,28.64 4.35,33.94 10.31,40.3 C10.65,40.41 10.95,40.43 11.21,40.32 C12.19,39.92 12.61,38.57 12.79,37.06 L12.81,37.06 C13.0440228,34.3868843 14.8065581,32.0918777 17.3287815,31.1760704 C19.8510049,30.2602631 22.6754174,30.8897708 24.57,32.79 C25.847348,34.0751622 26.5534338,35.820511 26.5289753,37.6323226 C26.5045167,39.4441343 25.7515742,41.169787 24.44,42.42 C23.2504306,43.5165543 21.7155699,44.1637421 20.1,44.25 C19.23,45.12 17.2,44.89 16.8,45.89 C16.7,46.15 16.74,46.49 16.86,46.86 C20.6221439,50.4013329 24.5534055,53.7585903 28.64,56.92 L28.92,56.64" id="icrek"></path>
                </g>
            </g>
            <g id="Group" transform="translate(54.000000, 56.000000)" fill="#F2F2F2" fill-rule="nonzero">
                <g id="icrel-link">
                    <g>
                        <path d="M35.82,54.92 C35.82,54.92 39.55,50.02 43.9,43.1 C44.26,42.16 44.61,41.14 44.22,40.62 C43.57,39.77 42.12,39.65 40.79,39.97 L40.8,39.95 C39.44,40.32 37.53,39.91 36.07,39.07 C32.7563984,37.1566332 31.6048208,32.9297189 33.49,29.6 C34.3933807,28.020278 35.8922545,26.8685632 37.651341,26.4024804 C39.4104274,25.9363977 41.2829329,26.1948411 42.85,27.12 C44.2215221,27.9359085 45.259605,29.2113686 45.78,30.72 L45.79,30.72 C46.35,32.2 47.04,33.43 48.11,33.56 C48.74,33.64 49.44,33.06 50.07,32.3 C53.66,25.47 55.8,20.34 55.8,20.34 L55.73,20.29 C55.73,20.29 50.19,15.85 42.44,11.12 C42.2,11.13 42.03,11.12 41.86,11.24 C41.01,11.88 40.96,13.25 41.18,14.76 L41.17,14.73 C41.6643418,17.7285934 40.1414982,20.6981763 37.4179501,22.0465908 C34.694402,23.3950054 31.4095622,22.8056815 29.3246152,20.5945885 C27.2396683,18.3834954 26.8441015,15.0697359 28.35,12.43 C29.1327694,11.0461302 30.3795542,9.98352946 31.87,9.43 L31.87,9.41 C33.35,8.86 34.7,8.17 34.84,7.11 C34.86,6.91 34.72,6.85 34.62,6.63 C27.03,2.55 20.88,0.17 20.88,0.17 L20.84,0.15 C20.84,0.15 16.81,5.27 12.21,12.66 C12.19,13.02 12.29,13.26 12.46,13.48 C13.1,14.33 14.53,14.36 16.04,14.15 C18.6802934,13.6829871 21.3520612,14.7878196 22.8913992,16.9831986 C24.4307372,19.1785776 24.5588782,22.0669297 23.22,24.39 C24.2715862,27.3656921 23.1474137,30.6743828 20.5006937,32.3935252 C17.8539738,34.1126676 14.3740343,33.7945178 12.082928,31.6239398 C9.79182163,29.4533618 9.2862581,25.9956742 10.86,23.26 C10.3,21.78 9.56,20.52 8.5,20.38 C8.21,20.35 7.86,20.54 7.54,20.76 C3.4,28.47 0.84,34.79 0.84,34.79 L1,34.89" id="icrel"></path>
                    </g>
                </g>
            </g>
            <g id="Group" transform="translate(0.000000, 274.000000)" fill="#F2F2F2" fill-rule="nonzero">
                <g id="icrem-link">
                    <g>
                        <path d="M47.35,12.04 C46.0633422,12.6423574 45.0346763,13.6852118 44.45,14.98 C43.9,16.29 43.31,17.62 42.35,17.71 C42.09,17.73 41.84,17.66 41.56,17.47 C39.542618,13.3719327 37.7205743,9.18056491 36.1,4.91 C35.64,5.23 31.48,8.13 25.69,11.5 C24.79,11.8 23.79,12.01 23.33,11.63 C22.58,11.03 22.56,9.75 22.8,8.41 L22.78,8.41 C23.2663277,6.0406063 22.3395554,3.60359003 20.4017012,2.15608791 C18.463847,0.708585791 15.8640272,0.511374117 13.73,1.65 C10.7,3.27 9.78,6.9 11.4,9.94 C12.1,11.26 12.6,12.51 14.7,12.64 C15.22,13.61 16.98,13.98 17.07,14.94 C17.12,15.54 16.27,16.33 15.54,16.89 C11.8439866,18.6742639 8.07760001,20.3089223 4.25,21.79 C4.35,21.93 7.61,26.63 11.34,33.16 C11.44,33.7 11.4,34.2 11.17,34.49 C10.56,35.23 9.27,35.26 7.92,35.02 L7.92,35.05 C5.55268517,34.5724669 3.12208697,35.5015231 1.6768534,37.4363402 C0.231619822,39.3711574 0.0303971035,41.9654708 1.16,44.1 C2.78,47.14 6.67,48.54 9.71,46.93 C11.03,46.23 11.7,44.63 12.67,44.13 L12.67,44.12 C12.8,42.02 13.76,41.34 14.72,41.25 C15.1,41.22 15.46,41.38 15.86,41.75 C19.02,48.23 20.96,53.36 21.15,53.87 C21.24,53.8 25.77,50.48 32.19,46.77 C32.83,46.62 33.43,46.58 33.76,46.85 C34.51,47.46 34.54,48.73 34.29,50.08 L34.31,50.08 C33.8372838,52.4457111 34.7683189,54.8722581 36.7021407,56.3146114 C38.6359625,57.7569647 41.22724,57.9575569 43.36,56.83 C46.41,55.21 47.77,51.33 46.16,48.3 C45.46,46.98 44.63,45.9 43.32,45.36 L43.32,45.35 C41.21,45.22 40.57,44.25 40.48,43.29 C40.44,42.85 40.73,42.39 41.21,41.93 C45.0960672,40.0387843 49.0669145,38.3269821 53.11,36.8 C52.77,36.31 49.36,31.6 45.66,25.13 C45.66,24.8 45.7,24.53 45.86,24.33 C46.46,23.58 47.73,23.57 49.07,23.81 L49.07,23.79 C50.4906164,24.0852822 51.969801,23.872959 53.25,23.19 C56.2886069,21.5415636 57.4274455,17.7499009 55.8,14.7 C54.1875161,11.6483514 50.4197723,10.4622924 47.35,12.04 Z" id="icrem"></path>
                    </g>
                </g>
                <g transform="translate(21.000000, 53.000000)" id="icren-link">
                    <g>
                        <path d="M0.14,0.86 L0.12,0.82 L0.14,0.86 Z" id="icren"></path>
                    </g>
                </g>
                <g transform="translate(4.000000, 21.000000)" id="icreo-link">
                    <g>
                        <path d="M0.11,0.85 L0.18,0.82 L0.11,0.85 Z" id="icreo"></path>
                    </g>
                </g>
            </g>
            <g id="Group" transform="translate(385.000000, 199.000000)" fill="#F2F2F2" fill-rule="nonzero">
                <g id="icrep-link">
                    <g>
                        <path d="M0.86,41.05 L1.33,41.27 L1.21,41.47 C1.54,40.47 3.54,34.54 6.81,27.27 C7.11,27.02 7.34,27.05 7.63,27.07 C8.7,27.12 9.43,28.54 10.08,29.97 L10.1,29.97 C10.7821684,31.3932968 11.9483342,32.5275615 13.39,33.17 C15.6264826,34.2578737 18.2734515,34.0699612 20.333819,32.6770474 C22.3941866,31.2841335 23.554934,28.897835 23.378819,26.4170474 C23.202704,23.9362598 21.7164826,21.7378737 19.48,20.65 C18.0313845,19.9373472 16.3782893,19.7568164 14.81,20.14 L14.81,20.11 C13.33,20.43 11.92,20.46 11.21,19.65 C11.04,19.45 10.96,19.13 10.96,18.77 C14.66,11.76 17.99,6.74 18.57,5.87 C18.54,5.97 18.42,6.22 18.42,6.22 L18.47,6.25 C18.47,6.25 23.3,9.23 30.09,12.92 C31.12,13.24 32.39,13.37 32.93,12.89 C33.73,12.19 33.54,10.55 33.18,9.02 L33.18,9 C32.8339238,7.45689736 33.0465342,5.84105764 33.78,4.44 C35.1302487,1.70041222 38.112843,0.165609993 41.1269287,0.659371034 C44.1410145,1.15313208 46.4779952,3.55937565 46.8835381,6.58659344 C47.2890811,9.61381123 45.6678453,12.5503196 42.89,13.82 L42.91,13.84 C41.54,14.5 40.41,15.34 40.36,16.42 C40.32,17.13 41.41,18.02 42.31,18.64 C48.93,21.52 54.06,23.23 55.01,23.57 L37.71,59.02" id="icrep"></path>
                    </g>
                </g>
            </g>
            <g id="Group" transform="translate(253.000000, 0.000000)" fill="#F2F2F2" fill-rule="nonzero">
                <g id="icreq-link">
                    <g>
                        <path d="M53.25,43.63 C53.15,43.03 52.97,42.45 52.61,42.23 C51.71,41.67 50.31,42.25 48.95,43.05 L48.93,43.05 C46.6365429,44.4176008 43.758402,44.3323647 41.5498962,42.8314385 C39.3413904,41.3305122 38.2026703,38.6858427 38.63,36.05 C39.0504814,33.3997404 40.9631933,31.230431 43.5399355,30.481378 C46.1166776,29.7323251 48.8942618,30.5381764 50.67,32.55 L50.68,32.53 C51.71,33.65 52.86,34.48 53.9,34.23 C54.3,34.13 54.64,33.7 54.92,33.16 C55.87,25.64 56.14,19.7 56.18,18.54 C54.11,18.44 49.43,18.16 43.65,17.46 C42.67,17.14 41.64,16.66 41.47,16 C41.22,14.96 42.05,13.82 43.17,12.79 L43.14,12.78 C45.1518236,11.0042618 45.9576749,8.2266776 45.208622,5.64993547 C44.459569,3.07319334 42.2902596,1.16048142 39.64,0.74 C35.87,0.14 32.14,2.68 31.54,6.44 C31.2071019,7.97476455 31.4341065,9.5779847 32.18,10.96 L32.18,10.98 C32.98,12.34 33.79,13.76 33.23,14.67 C32.87,15.24 31.83,15.41 30.82,15.42 C26.3912893,14.5422429 22.0008559,13.4813327 17.66,12.24 C17.66,12.43 17.46,18.78 16.41,27.06 C16.13,27.6 15.81,28.03 15.41,28.13 C14.36,28.38 13.21,27.55 12.18,26.43 L12.18,26.46 C10.403247,24.4544996 7.62959829,23.6528992 5.05692582,24.4013908 C2.48425336,25.1498823 0.573549051,27.3143452 0.15,29.96 C-0.27836324,32.5935755 0.85917339,35.2366071 3.0662847,36.7358985 C5.27339602,38.2351898 8.14961425,38.3187031 10.44,36.95 L10.45,36.95 C11.81,36.15 13.21,35.57 14.12,36.14 C14.48,36.36 14.66,36.92 14.77,37.53 C13.8376485,42.3646167 12.6932104,47.1559088 11.34,51.89 C11.46,51.89 43.26,56.87 49.84,57.97 C50.04,57.32 51.74,51.43 53.25,43.63 Z" id="icreq"></path>
                    </g>
                </g>
            </g>
        </g>
    </g>
</svg>