<svg xmlns="https://www.w3.org/2000/svg" xmlns:xlink="https://www.w3.org/1999/xlink" width="440" height="381" viewBox="0 0 440 381"><defs><path id="icrea" d="M1149.98 959.75c-2.53.31-25 2.98-54.9 4.1-4.13-.67-8.53-1.96-9.58-4.45-1.68-3.97.9-9 4.68-13.8l-.09-.03a27.64 27.64 0 0 0 6.4-17.77 27.88 27.88 0 0 0-27.9-27.8c-15.36 0-28.14 12.4-28.14 27.74 0 6.68 1.79 12.64 5.81 17.53v.05c4.03 4.89 7.74 10.01 6.06 13.99-1.05 2.49-5.28 3.8-9.33 4.5-29.45-1.2-51.56-4-54.4-4.37.1.76 3.25 26.12 4.3 59.62-.76 2.32-1.83 4.23-3.36 4.88-3.98 1.67-9.07-.9-13.87-4.68l-.03.1a27.89 27.89 0 0 0-45.63 21.5c0 15.34 12.42 28.31 27.78 28.31 6.69 0 12.66-1.54 17.55-5.55h.05c4.9-4.02 10.09-7.98 14.07-6.3 1.55.65 2.65 2.4 3.44 4.72a667.5 667.5 0 0 1-4.56 58.96c.5-.07 159.13-.42 161.67-.08"/><path id="icreb" d="M980.07 1128.12l.03-.2-.03.01z"/><path id="icrec" d="M1051.07 980.9l.3.04v-.04z"/><path id="icred" d="M940 1199.5c0-6.9 55.96-12.5 125-12.5 69.04 0 125 5.6 125 12.5s-55.96 12.5-125 12.5c-69.04 0-125-5.6-125-12.5z"/><path id="icrek" d="M1270.27 918.3s-3.74-4.76-9.3-10.75c-.82-.6-1.78-1.05-2.38-.8-1 .4-1.4 1.73-1.57 3.24h-.02a6.91 6.91 0 0 1-11.78 4.27 6.94 6.94 0 0 1 4.12-11.8v-.01c1.57-.16 3.04-.42 3.44-1.41.24-.59-.19-1.46-.76-2.26-5.67-5.24-10.12-8.69-10.12-8.69l-.05.06s-4.25 5.56-10.44 12.1c-.31.1-.62.1-.85 0-1-.4-1.43-1.75-1.61-3.26h-.03a6.92 6.92 0 0 0-11.78-4.26 6.83 6.83 0 0 0 4.3 11.63v.01c1.57.16 2.99.55 3.4 1.54.09.23.07.58-.01.88a172.8 172.8 0 0 1-11.44 9.81l-.04.04s4 5.3 9.96 11.66c.34.11.64.13.9.02.98-.4 1.4-1.75 1.58-3.26h.02a6.9 6.9 0 0 1 11.76-4.27 6.74 6.74 0 0 1-.13 9.63 6.95 6.95 0 0 1-4.34 1.83c-.87.87-2.9.64-3.3 1.64-.1.26-.06.6.06.97a160.2 160.2 0 0 0 11.78 10.06l.28-.28"/><path id="icrel" d="M931.82 941.92s3.73-4.9 8.08-11.82c.36-.94.71-1.96.32-2.48-.65-.85-2.1-.97-3.43-.65l.01-.02c-1.36.37-3.27-.04-4.73-.88a6.97 6.97 0 0 1-2.58-9.47 6.8 6.8 0 0 1 9.36-2.48 6.75 6.75 0 0 1 2.93 3.6h.01c.56 1.48 1.25 2.71 2.32 2.84.63.08 1.33-.5 1.96-1.26 3.59-6.83 5.73-11.96 5.73-11.96l-.07-.05s-5.54-4.44-13.29-9.17c-.24.01-.41 0-.58.12-.85.64-.9 2.01-.68 3.52l-.01-.03a6.91 6.91 0 1 1-12.82-2.3 6.74 6.74 0 0 1 3.52-3v-.02c1.48-.55 2.83-1.24 2.97-2.3.02-.2-.12-.26-.22-.48-7.59-4.08-13.74-6.46-13.74-6.46l-.04-.02s-4.03 5.12-8.63 12.51c-.02.36.08.6.25.82.64.85 2.07.88 3.58.67a6.9 6.9 0 0 1 7.18 10.24 6.83 6.83 0 1 1-12.36-1.13c-.56-1.48-1.3-2.74-2.36-2.88-.29-.03-.64.16-.96.38-4.14 7.71-6.7 14.03-6.7 14.03l.16.1"/><path id="icrem" d="M889.35 1117.04a5.95 5.95 0 0 0-2.9 2.94c-.55 1.31-1.14 2.64-2.1 2.73-.26.02-.51-.05-.79-.24a144.58 144.58 0 0 1-5.46-12.56c-.46.32-4.62 3.22-10.41 6.59-.9.3-1.9.51-2.36.13-.75-.6-.77-1.88-.53-3.22h-.02a6.24 6.24 0 0 0-9.05-6.76c-3.03 1.62-3.95 5.25-2.33 8.29.7 1.32 1.2 2.57 3.3 2.7.52.97 2.28 1.34 2.37 2.3.05.6-.8 1.39-1.53 1.95a152.83 152.83 0 0 1-11.29 4.9c.1.14 3.36 4.84 7.09 11.37.1.54.06 1.04-.17 1.33-.61.74-1.9.77-3.25.53v.03a6.25 6.25 0 0 0-6.76 9.05c1.62 3.04 5.51 4.44 8.55 2.83 1.32-.7 1.99-2.3 2.96-2.8v-.01c.13-2.1 1.09-2.78 2.05-2.87.38-.03.74.13 1.14.5 3.16 6.48 5.1 11.61 5.29 12.12.09-.07 4.62-3.39 11.04-7.1.64-.15 1.24-.19 1.57.08.75.61.78 1.88.53 3.23h.02a6.25 6.25 0 0 0 9.05 6.75c3.05-1.62 4.41-5.5 2.8-8.53-.7-1.32-1.53-2.4-2.84-2.94v-.01c-2.11-.13-2.75-1.1-2.84-2.06-.04-.44.25-.9.73-1.36a141.2 141.2 0 0 1 11.9-5.13c-.34-.49-3.75-5.2-7.45-11.67 0-.33.04-.6.2-.8.6-.75 1.87-.76 3.21-.52v-.02a6.2 6.2 0 0 0 4.18-.6 6.29 6.29 0 0 0 2.55-8.49 6.3 6.3 0 0 0-8.45-2.66z"/><path id="icren" d="M863.14 1158.86l-.02-.04z"/><path id="icreo" d="M846.11 1126.85l.07-.03z"/><path id="icrep" d="M1227.86 1071.05l.47.22-.12.2c.33-1 2.33-6.93 5.6-14.2.3-.25.53-.22.82-.2 1.07.05 1.8 1.47 2.45 2.9h.02a6.65 6.65 0 0 0 3.29 3.2 6.96 6.96 0 0 0 6.09-12.52 6.88 6.88 0 0 0-4.67-.51v-.03c-1.48.32-2.89.35-3.6-.46-.17-.2-.25-.52-.25-.88 3.7-7.01 7.03-12.03 7.61-12.9-.03.1-.15.35-.15.35l.05.03s4.83 2.98 11.62 6.67c1.03.32 2.3.45 2.84-.03.8-.7.61-2.34.25-3.87v-.02a6.68 6.68 0 0 1 .6-4.56 6.94 6.94 0 1 1 9.11 9.38l.02.02c-1.37.66-2.5 1.5-2.55 2.58-.04.71 1.05 1.6 1.95 2.22 6.62 2.88 11.75 4.59 12.7 4.93l-17.3 35.45"/><path id="icreq" d="M1148.25 874.63c-.1-.6-.28-1.18-.64-1.4-.9-.56-2.3.02-3.66.82h-.02a6.87 6.87 0 0 1-10.3-7 6.93 6.93 0 0 1 12.04-3.5l.01-.02c1.03 1.12 2.18 1.95 3.22 1.7.4-.1.74-.53 1.02-1.07.95-7.52 1.22-13.46 1.26-14.62-2.07-.1-6.75-.38-12.53-1.08-.98-.32-2.01-.8-2.18-1.46-.25-1.04.58-2.18 1.7-3.21l-.03-.01a6.93 6.93 0 0 0-3.5-12.04c-3.77-.6-7.5 1.94-8.1 5.7a6.58 6.58 0 0 0 .64 4.52v.02c.8 1.36 1.61 2.78 1.05 3.69-.36.57-1.4.74-2.41.75a163.42 163.42 0 0 1-13.16-3.18c0 .19-.2 6.54-1.25 14.82-.28.54-.6.97-1 1.07-1.05.25-2.2-.58-3.23-1.7v.03a6.93 6.93 0 0 0-12.03 3.5 6.86 6.86 0 0 0 10.29 6.99h.01c1.36-.8 2.76-1.38 3.67-.81.36.22.54.78.65 1.39a168 168 0 0 1-3.43 14.36c.12 0 31.92 4.98 38.5 6.08.2-.65 1.9-6.54 3.41-14.34z"/><radialGradient id="icree" cx="0" cy="0" r="0" gradientUnits="userSpaceOnUse"><stop offset="0" stop-color="#ccc"/><stop offset="1" stop-color="#e3e3e3" stop-opacity="0"/></radialGradient><filter id="icref" width="280" height="284" x="900" y="890" filterUnits="userSpaceOnUse"><feOffset dy="3" in="SourceGraphic" result="FeOffset1291Out"/><feGaussianBlur in="FeOffset1291Out" result="FeGaussianBlur1292Out" stdDeviation="8 8"/></filter><mask id="icreh" width="2" height="2" x="-1" y="-1"><path fill="#fff" d="M980 1127h1v2h-1z"/><use xlink:href="#icreb"/></mask><filter id="icreg" width="61" height="65" x="950" y="1117" filterUnits="userSpaceOnUse"><feOffset dy="3" in="SourceGraphic" result="FeOffset1307Out"/><feGaussianBlur in="FeOffset1307Out" result="FeGaussianBlur1308Out" stdDeviation="8 8"/></filter><mask id="icrej" width="2" height="2" x="-1" y="-1"><path fill="#fff" d="M1051 980h1v1h-1z"/><use xlink:href="#icrec"/></mask><filter id="icrei" width="61" height="64" x="1021" y="970" filterUnits="userSpaceOnUse"><feOffset dy="3" in="SourceGraphic" result="FeOffset1323Out"/><feGaussianBlur in="FeOffset1323Out" result="FeGaussianBlur1324Out" stdDeviation="8 8"/></filter></defs><g><g opacity=".6" transform="translate(-842 -831)"><use fill="url(#icree)" xlink:href="#icred"/></g><g transform="translate(-842 -831)"><g filter="url(#icref)"><use fill="none" stroke-opacity=".4" stroke-width="-3.4e+38" xlink:href="#icrea"/></g><use fill="#ff4b2d" xlink:href="#icrea"/></g><g transform="translate(-842 -831)"><g filter="url(#icreg)"><use fill="none" stroke-opacity=".4" stroke-width="0" mask="url(&quot;#icreh&quot;)" xlink:href="#icreb"/><use fill="#ff4b2d" fill-opacity=".4" xlink:href="#icreb"/></g><use fill="#ff4b2d" xlink:href="#icreb"/></g><g transform="translate(-842 -831)"><g filter="url(#icrei)"><use fill="none" stroke-opacity=".4" stroke-width="0" mask="url(&quot;#icrej&quot;)" xlink:href="#icrec"/><use fill="#ff4b2d" fill-opacity=".4" xlink:href="#icrec"/></g><use fill="#ff4b2d" xlink:href="#icrec"/></g><g transform="translate(-842 -831)"><use fill="#f2f2f2" xlink:href="#icrek"/></g><g transform="translate(-842 -831)"><g><use fill="#f2f2f2" xlink:href="#icrel"/></g></g><g transform="translate(-842 -831)"><g><use fill="#f2f2f2" xlink:href="#icrem"/></g><g><use fill="#f2f2f2" xlink:href="#icren"/></g><g><use fill="#f2f2f2" xlink:href="#icreo"/></g></g><g transform="translate(-842 -831)"><g><use fill="#f2f2f2" xlink:href="#icrep"/></g></g><g transform="translate(-842 -831)"><g><use fill="#f2f2f2" xlink:href="#icreq"/></g></g></g></svg>