<?xml version="1.0" encoding="UTF-8"?>
<svg width="12px" height="10px" viewBox="0 0 12 10" version="1.1" xmlns="http://www.w3.org/2000/svg" xmlns:xlink="http://www.w3.org/1999/xlink">
    <!-- Generator: Sketch 49.2 (51160) - http://www.bohemiancoding.com/sketch -->
    <title>twitter</title>
    <desc>Created with Sketch.</desc>
    <defs></defs>
    <g id="Page-1" stroke="none" stroke-width="1" fill="none" fill-rule="evenodd">
        <g id="twitter" fill="#02023A" fill-rule="nonzero">
            <path d="M12,1.18 C11.55,1.38 11.08,1.52 10.58,1.58 C11.09,1.27 11.48,0.78 11.66,0.18 C11.19,0.48 10.66,0.68 10.1,0.8 C9.65,0.3 9.01,-4.54747351e-13 8.3,-4.54747351e-13 C6.93103662,0.0273386995 5.83877315,1.15080969 5.85,2.52 C5.85,2.72 5.87,2.92 5.91,3.1 C3.91781861,2.99431872 2.06888373,2.03155973 0.84,0.46 C0.172803411,1.60919168 0.504140797,3.07841141 1.6,3.83 C1.2,3.83 0.8,3.71 0.48,3.53 L0.48,3.55 C0.48,4.78 1.33,5.79 2.45,6.03 C2.088218,6.12994582 1.70803756,6.14364601 1.34,6.07 C1.65418342,7.08622092 2.57698552,7.79236513 3.64,7.83 C2.61656965,8.65336616 1.30393619,9.02840429 3.41060513e-13,8.87 C1.11780651,9.61004964 2.42942001,10.0031858 3.77,10 C8.3,10 10.77,6.15 10.77,2.82 L10.77,2.49 C11.26,2.14 11.67,1.69 12,1.19 L12,1.18 Z" id="7x48a"></path>
        </g>
    </g>
</svg>