<svg xmlns="http://www.w3.org/2000/svg" xmlns:xlink="http://www.w3.org/1999/xlink" width="60" height="60" viewBox="0 0 60 60"><defs><path id="memta" d="M610.96 1926.72c.8 0 1.46.66 1.46 1.46v2.93c0 .81-.65 1.47-1.46 1.47a4.4 4.4 0 0 0-4.4 4.4v6.05a4.4 4.4 0 0 0 4.4 4.4c.8 0 1.46.65 1.46 1.46v2.93c0 .8-.65 1.46-1.46 1.46a7.33 7.33 0 0 1-7.33-7.32v-11.92a7.33 7.33 0 0 1 7.33-7.32zm0 29.5a4.4 4.4 0 0 0 4.4-4.4v-2.93a4.4 4.4 0 0 0-4.4-4.4c-.81 0-1.47-.65-1.47-1.46v-6.06c0-.8.66-1.46 1.47-1.46a4.4 4.4 0 0 0 4.4-4.4v-2.93a4.4 4.4 0 0 0-4.4-4.4c-5.66 0-10.26 4.6-10.26 10.26v11.92c0 5.65 4.6 10.25 10.26 10.25zm-26.57-32.43h5.86a1.47 1.47 0 0 1 0 2.93h-5.86a1.47 1.47 0 0 1 0-2.93zm39.75 0h1.47c.8 0 1.46.66 1.46 1.46v4.4h-2.93zm0 8.79h2.93v6.05h-2.93zm-39.75 6.05h5.86a1.47 1.47 0 0 1 0 2.93h-5.86a1.47 1.47 0 0 1 0-2.93zm39.75 2.93h2.93v5.86h-2.93zm-39.75 11.72h5.86a1.47 1.47 0 0 1 0 2.93h-5.86a1.47 1.47 0 0 1 0-2.93zm39.75-2.93h2.93v4.4c0 .8-.66 1.46-1.46 1.46h-1.47zm-36.82 8.8h2.93a4.4 4.4 0 0 0 0-8.8h-2.93v-5.86h2.93a4.4 4.4 0 0 0 0-8.79h-2.93v-6.05h2.93a4.4 4.4 0 0 0 0-8.8h-2.93v-1.46c0-.8.66-1.46 1.47-1.46h30.96c.8 0 1.46.66 1.46 1.46v41.22c0 .8-.66 1.46-1.46 1.46h-30.96c-.8 0-1.47-.66-1.47-1.46zm32.43 5.85a4.4 4.4 0 0 0 4.4-4.4v-1.46h1.46a4.4 4.4 0 0 0 4.39-4.4v-29.49a4.4 4.4 0 0 0-4.4-4.4h-1.46v-1.46a4.4 4.4 0 0 0-4.4-4.39H588.8a4.4 4.4 0 0 0-4.4 4.4v1.46a4.4 4.4 0 0 0 0 8.79v6.05a4.4 4.4 0 0 0 0 8.8v5.85a4.4 4.4 0 0 0 0 8.8v1.46a4.4 4.4 0 0 0 4.4 4.39z"/><mask id="memtc" width="2" height="2" x="-1" y="-1"><path fill="#fff" d="M580 1915h50v50h-50z"/><use xlink:href="#memta"/></mask><filter id="memtb" width="82" height="85" x="564" y="1905" filterUnits="userSpaceOnUse"><feOffset dy="3" in="SourceGraphic" result="FeOffset1446Out"/><feGaussianBlur in="FeOffset1446Out" result="FeGaussianBlur1447Out" stdDeviation="2.4 2.4"/></filter></defs><g><g transform="translate(-575 -1913)"><g filter="url(#memtb)"><use fill="none" stroke-opacity=".4" stroke-width="0" mask="url(&quot;#memtc&quot;)" xlink:href="#memta"/><use fill="#ff4b2d" fill-opacity=".4" xlink:href="#memta"/></g><use fill="#ff4b2d" xlink:href="#memta"/></g></g></svg>