<svg xmlns="http://www.w3.org/2000/svg" xmlns:xlink="http://www.w3.org/1999/xlink" width="60" height="60" viewBox="0 0 60 60"><defs><path id="5p6ma" d="M247.83 1932.58a1.47 1.47 0 0 0 0-2.93h-20.5a1.46 1.46 0 0 0 0 2.93zm-5.86 5.86a1.46 1.46 0 0 0 0-2.93h-14.65a1.47 1.47 0 0 0 0 2.93zm0 5.86a1.47 1.47 0 0 0 0-2.93h-14.65a1.46 1.46 0 0 0 0 2.93zm0 5.86a1.46 1.46 0 0 0 0-2.93h-14.65a1.47 1.47 0 0 0 0 2.93zm5.86 8.98a1.47 1.47 0 0 0 0-2.93h-8.79a1.46 1.46 0 1 0 0 2.93zm1.63-41.21c.29 0 .73.03 1.12.43l4.15 4.14c.46.47.43.98.43 1.29h-5.86v-5.86h.16zm16.14 14.45a1.46 1.46 0 0 1 1.03 2.5l-1.5 1.51-2.08-2.07 1.51-1.51c.3-.29.67-.43 1.04-.43zm-4.62 4.01l2.08 2.07-7.05 7.05-2.07-2.07 7.04-7.05zm-9.1 9.12l2.06 2.07-.79.8-3.1 1.03 1.03-3.1zm-27.49-27.58h21.98v7.32c0 .81.65 1.47 1.46 1.47h7.33v11.36l-4.33 4.32-2.07 2.07c-.16.17-.28.36-.35.58l-2.07 6.21a1.46 1.46 0 0 0 1.85 1.86l6.22-2.08c.21-.07.4-.19.57-.35l.18-.18v10.1c0 .8-.66 1.46-1.47 1.46h-29.3c-.8 0-1.46-.66-1.46-1.46v-41.22c0-.8.66-1.46 1.46-1.46zm29.3 47.07a4.4 4.4 0 0 0 4.4-4.4v-13.02l10.62-10.63a4.4 4.4 0 1 0-6.22-6.21l-4.4 4.4v-11.6c0-1.18-.46-2.28-1.3-3.11l-4.13-4.14a4.37 4.37 0 0 0-3.11-1.29h-25.16a4.4 4.4 0 0 0-4.39 4.4v41.2a4.4 4.4 0 0 0 4.4 4.4z"/><mask id="5p6mc" width="2" height="2" x="-1" y="-1"><path fill="#fff" d="M220 1915h50v50h-50z"/><use xlink:href="#5p6ma"/></mask><filter id="5p6mb" width="82" height="85" x="204" y="1905" filterUnits="userSpaceOnUse"><feOffset dy="3" in="SourceGraphic" result="FeOffset1426Out"/><feGaussianBlur in="FeOffset1426Out" result="FeGaussianBlur1427Out" stdDeviation="2.4 2.4"/></filter></defs><g><g transform="translate(-215 -1913)"><g filter="url(#5p6mb)"><use fill="none" stroke-opacity=".4" stroke-width="0" mask="url(&quot;#5p6mc&quot;)" xlink:href="#5p6ma"/><use fill="#ff4b2d" fill-opacity=".4" xlink:href="#5p6ma"/></g><use fill="#ff4b2d" xlink:href="#5p6ma"/></g></g></svg>