<svg xmlns="http://www.w3.org/2000/svg" xmlns:xlink="http://www.w3.org/1999/xlink" width="12" height="12" viewBox="0 0 12 12"><defs><path id="66mha" d="M548.8 3482.63c-.7 0-1.33.33-1.73.83l-3.74-1.9c.04-.18.08-.36.08-.56 0-.21-.04-.42-.1-.61l3.73-1.9a2.2 2.2 0 0 0 3.96-1.3 2.2 2.2 0 0 0-2.2-2.19 2.2 2.2 0 0 0-2.21 2.19c0 .2.03.38.08.56l-3.74 1.9A2.2 2.2 0 0 0 539 3481a2.2 2.2 0 0 0 3.96 1.3l3.73 1.9c-.06.2-.1.4-.1.61 0 1.21.99 2.19 2.2 2.19a2.2 2.2 0 0 0 2.2-2.19 2.2 2.2 0 0 0-2.2-2.18z"/></defs><g><g transform="translate(-539 -3475)"><use fill="#02023a" xlink:href="#66mha"/></g></g></svg>