<svg xmlns="http://www.w3.org/2000/svg" xmlns:xlink="http://www.w3.org/1999/xlink" width="12" height="10" viewBox="0 0 12 10"><defs><path id="7x48a" d="M491 3477.18c-.45.2-.92.34-1.42.4.51-.31.9-.8 1.08-1.4-.47.3-1 .5-1.56.62-.45-.5-1.09-.8-1.8-.8a2.5 2.5 0 0 0-2.45 2.52c0 .2.02.4.06.58a6.9 6.9 0 0 1-5.07-2.64 2.54 2.54 0 0 0 .76 3.37c-.4 0-.8-.12-1.12-.3v.02c0 1.23.85 2.24 1.97 2.48a2.4 2.4 0 0 1-1.11.04 2.5 2.5 0 0 0 2.3 1.76 4.87 4.87 0 0 1-3.64 1.04 6.8 6.8 0 0 0 3.77 1.13c4.53 0 7-3.85 7-7.18v-.33c.49-.35.9-.8 1.23-1.3z"/></defs><g><g transform="translate(-479 -3476)"><use fill="#02023a" xlink:href="#7x48a"/></g></g></svg>